M48
; DRILL file {KiCad (5.1.2)-2} date 03/07/2019 22:27:54
; FORMAT={-:-/ absolute / metric / decimal}
; #@! TF.CreationDate,2019-07-03T22:27:54+02:00
; #@! TF.GenerationSoftware,Kicad,Pcbnew,(5.1.2)-2
FMAT,2
METRIC
T1C0.800
T2C1.016
T3C1.200
%
G90
G05
T1
X102.87Y-76.2
X102.87Y-93.98
X105.41Y-76.2
X105.41Y-93.98
X107.95Y-76.2
X107.95Y-93.98
X110.49Y-76.2
X110.49Y-93.98
X113.03Y-76.2
X113.03Y-93.98
X115.57Y-76.2
X115.57Y-93.98
X118.11Y-76.2
X118.11Y-93.98
X120.65Y-76.2
X120.65Y-93.98
X123.19Y-76.2
X123.19Y-93.98
X125.73Y-76.2
X125.73Y-93.98
X128.27Y-76.2
X128.27Y-93.98
X130.81Y-76.2
X130.81Y-93.98
X133.35Y-76.2
X133.35Y-93.98
X135.89Y-76.2
X135.89Y-93.98
X69.85Y-50.8
X69.85Y-68.58
X72.39Y-50.8
X72.39Y-68.58
X74.93Y-50.8
X74.93Y-68.58
X77.47Y-50.8
X77.47Y-68.58
X80.01Y-50.8
X80.01Y-68.58
X82.55Y-50.8
X82.55Y-68.58
X85.09Y-50.8
X85.09Y-68.58
X87.63Y-50.8
X87.63Y-68.58
X90.17Y-50.8
X90.17Y-68.58
X92.71Y-50.8
X92.71Y-68.58
X95.25Y-50.8
X95.25Y-68.58
X97.79Y-50.8
X97.79Y-68.58
X100.33Y-50.8
X100.33Y-68.58
X102.87Y-50.8
X102.87Y-68.58
T2
X76.2Y-104.14
X76.2Y-106.68
X78.74Y-104.14
X78.74Y-106.68
X81.28Y-104.14
X81.28Y-106.68
X83.82Y-104.14
X83.82Y-106.68
X86.36Y-104.14
X86.36Y-106.68
X88.9Y-104.14
X88.9Y-106.68
X91.44Y-104.14
X91.44Y-106.68
X93.98Y-104.14
X93.98Y-106.68
X76.2Y-38.1
X76.2Y-40.64
X78.74Y-38.1
X78.74Y-40.64
X81.28Y-38.1
X81.28Y-40.64
X83.82Y-38.1
X83.82Y-40.64
X86.36Y-38.1
X86.36Y-40.64
X88.9Y-38.1
X88.9Y-40.64
X91.44Y-38.1
X91.44Y-40.64
X93.98Y-38.1
X93.98Y-40.64
X111.76Y-104.14
X111.76Y-106.68
X114.3Y-104.14
X114.3Y-106.68
X116.84Y-104.14
X116.84Y-106.68
X119.38Y-104.14
X119.38Y-106.68
X121.92Y-104.14
X121.92Y-106.68
X124.46Y-104.14
X124.46Y-106.68
X127.0Y-104.14
X127.0Y-106.68
X129.54Y-104.14
X129.54Y-106.68
X111.76Y-38.1
X111.76Y-40.64
X114.3Y-38.1
X114.3Y-40.64
X116.84Y-38.1
X116.84Y-40.64
X119.38Y-38.1
X119.38Y-40.64
X121.92Y-38.1
X121.92Y-40.64
X124.46Y-38.1
X124.46Y-40.64
X127.0Y-38.1
X127.0Y-40.64
X129.54Y-38.1
X129.54Y-40.64
T3
X135.89Y-50.8
X135.89Y-53.34
X135.89Y-55.88
X135.89Y-58.42
T0
M30
