G04 #@! TF.GenerationSoftware,KiCad,Pcbnew,(5.1.2)-2*
G04 #@! TF.CreationDate,2019-07-03T22:27:51+02:00*
G04 #@! TF.ProjectId,FGINT-V3-OUT256,4647494e-542d-4563-932d-4f5554323536,rev?*
G04 #@! TF.SameCoordinates,Original*
G04 #@! TF.FileFunction,Copper,L1,Top*
G04 #@! TF.FilePolarity,Positive*
%FSLAX46Y46*%
G04 Gerber Fmt 4.6, Leading zero omitted, Abs format (unit mm)*
G04 Created by KiCad (PCBNEW (5.1.2)-2) date 2019-07-03 22:27:51*
%MOMM*%
%LPD*%
G04 APERTURE LIST*
%ADD10C,0.100000*%
%ADD11C,1.740000*%
%ADD12O,2.200000X1.740000*%
%ADD13O,1.727200X1.727200*%
%ADD14R,1.727200X1.727200*%
%ADD15O,1.600000X2.400000*%
%ADD16R,1.600000X2.400000*%
%ADD17C,0.350000*%
%ADD18C,0.254000*%
G04 APERTURE END LIST*
D10*
G36*
X136764505Y-49931204D02*
G01*
X136788773Y-49934804D01*
X136812572Y-49940765D01*
X136835671Y-49949030D01*
X136857850Y-49959520D01*
X136878893Y-49972132D01*
X136898599Y-49986747D01*
X136916777Y-50003223D01*
X136933253Y-50021401D01*
X136947868Y-50041107D01*
X136960480Y-50062150D01*
X136970970Y-50084329D01*
X136979235Y-50107428D01*
X136985196Y-50131227D01*
X136988796Y-50155495D01*
X136990000Y-50179999D01*
X136990000Y-51420001D01*
X136988796Y-51444505D01*
X136985196Y-51468773D01*
X136979235Y-51492572D01*
X136970970Y-51515671D01*
X136960480Y-51537850D01*
X136947868Y-51558893D01*
X136933253Y-51578599D01*
X136916777Y-51596777D01*
X136898599Y-51613253D01*
X136878893Y-51627868D01*
X136857850Y-51640480D01*
X136835671Y-51650970D01*
X136812572Y-51659235D01*
X136788773Y-51665196D01*
X136764505Y-51668796D01*
X136740001Y-51670000D01*
X135039999Y-51670000D01*
X135015495Y-51668796D01*
X134991227Y-51665196D01*
X134967428Y-51659235D01*
X134944329Y-51650970D01*
X134922150Y-51640480D01*
X134901107Y-51627868D01*
X134881401Y-51613253D01*
X134863223Y-51596777D01*
X134846747Y-51578599D01*
X134832132Y-51558893D01*
X134819520Y-51537850D01*
X134809030Y-51515671D01*
X134800765Y-51492572D01*
X134794804Y-51468773D01*
X134791204Y-51444505D01*
X134790000Y-51420001D01*
X134790000Y-50179999D01*
X134791204Y-50155495D01*
X134794804Y-50131227D01*
X134800765Y-50107428D01*
X134809030Y-50084329D01*
X134819520Y-50062150D01*
X134832132Y-50041107D01*
X134846747Y-50021401D01*
X134863223Y-50003223D01*
X134881401Y-49986747D01*
X134901107Y-49972132D01*
X134922150Y-49959520D01*
X134944329Y-49949030D01*
X134967428Y-49940765D01*
X134991227Y-49934804D01*
X135015495Y-49931204D01*
X135039999Y-49930000D01*
X136740001Y-49930000D01*
X136764505Y-49931204D01*
X136764505Y-49931204D01*
G37*
D11*
X135890000Y-50800000D03*
D12*
X135890000Y-53340000D03*
X135890000Y-55880000D03*
X135890000Y-58420000D03*
D13*
X111760000Y-106680000D03*
X111760000Y-104140000D03*
X114300000Y-106680000D03*
X114300000Y-104140000D03*
X116840000Y-106680000D03*
X116840000Y-104140000D03*
X119380000Y-106680000D03*
X119380000Y-104140000D03*
X121920000Y-106680000D03*
X121920000Y-104140000D03*
X124460000Y-106680000D03*
X124460000Y-104140000D03*
X127000000Y-106680000D03*
X127000000Y-104140000D03*
X129540000Y-106680000D03*
D14*
X129540000Y-104140000D03*
X93980000Y-104140000D03*
D13*
X93980000Y-106680000D03*
X91440000Y-104140000D03*
X91440000Y-106680000D03*
X88900000Y-104140000D03*
X88900000Y-106680000D03*
X86360000Y-104140000D03*
X86360000Y-106680000D03*
X83820000Y-104140000D03*
X83820000Y-106680000D03*
X81280000Y-104140000D03*
X81280000Y-106680000D03*
X78740000Y-104140000D03*
X78740000Y-106680000D03*
X76200000Y-104140000D03*
X76200000Y-106680000D03*
D14*
X76200000Y-40640000D03*
D13*
X76200000Y-38100000D03*
X78740000Y-40640000D03*
X78740000Y-38100000D03*
X81280000Y-40640000D03*
X81280000Y-38100000D03*
X83820000Y-40640000D03*
X83820000Y-38100000D03*
X86360000Y-40640000D03*
X86360000Y-38100000D03*
X88900000Y-40640000D03*
X88900000Y-38100000D03*
X91440000Y-40640000D03*
X91440000Y-38100000D03*
X93980000Y-40640000D03*
X93980000Y-38100000D03*
X129540000Y-38100000D03*
X129540000Y-40640000D03*
X127000000Y-38100000D03*
X127000000Y-40640000D03*
X124460000Y-38100000D03*
X124460000Y-40640000D03*
X121920000Y-38100000D03*
X121920000Y-40640000D03*
X119380000Y-38100000D03*
X119380000Y-40640000D03*
X116840000Y-38100000D03*
X116840000Y-40640000D03*
X114300000Y-38100000D03*
X114300000Y-40640000D03*
X111760000Y-38100000D03*
D14*
X111760000Y-40640000D03*
D15*
X135890000Y-93980000D03*
X102870000Y-76200000D03*
X133350000Y-93980000D03*
X105410000Y-76200000D03*
X130810000Y-93980000D03*
X107950000Y-76200000D03*
X128270000Y-93980000D03*
X110490000Y-76200000D03*
X125730000Y-93980000D03*
X113030000Y-76200000D03*
X123190000Y-93980000D03*
X115570000Y-76200000D03*
X120650000Y-93980000D03*
X118110000Y-76200000D03*
X118110000Y-93980000D03*
X120650000Y-76200000D03*
X115570000Y-93980000D03*
X123190000Y-76200000D03*
X113030000Y-93980000D03*
X125730000Y-76200000D03*
X110490000Y-93980000D03*
X128270000Y-76200000D03*
X107950000Y-93980000D03*
X130810000Y-76200000D03*
X105410000Y-93980000D03*
X133350000Y-76200000D03*
X102870000Y-93980000D03*
D16*
X135890000Y-76200000D03*
X69850000Y-68580000D03*
D15*
X102870000Y-50800000D03*
X72390000Y-68580000D03*
X100330000Y-50800000D03*
X74930000Y-68580000D03*
X97790000Y-50800000D03*
X77470000Y-68580000D03*
X95250000Y-50800000D03*
X80010000Y-68580000D03*
X92710000Y-50800000D03*
X82550000Y-68580000D03*
X90170000Y-50800000D03*
X85090000Y-68580000D03*
X87630000Y-50800000D03*
X87630000Y-68580000D03*
X85090000Y-50800000D03*
X90170000Y-68580000D03*
X82550000Y-50800000D03*
X92710000Y-68580000D03*
X80010000Y-50800000D03*
X95250000Y-68580000D03*
X77470000Y-50800000D03*
X97790000Y-68580000D03*
X74930000Y-50800000D03*
X100330000Y-68580000D03*
X72390000Y-50800000D03*
X102870000Y-68580000D03*
X69850000Y-50800000D03*
D17*
X133350000Y-93980000D02*
X133350000Y-93580000D01*
X133350000Y-93580000D02*
X133350000Y-91440000D01*
X133350000Y-91440000D02*
X138430000Y-91440000D01*
X138430000Y-91440000D02*
X139700000Y-90170000D01*
X139700000Y-90170000D02*
X139700000Y-52070000D01*
X139700000Y-52070000D02*
X138430000Y-50800000D01*
X138430000Y-50800000D02*
X135890000Y-50800000D01*
X72390000Y-50800000D02*
X72390000Y-50400000D01*
X72390000Y-50400000D02*
X72390000Y-30480000D01*
X72390000Y-30480000D02*
X73660000Y-29210000D01*
X73660000Y-29210000D02*
X134620000Y-29210000D01*
X134620000Y-29210000D02*
X135890000Y-30480000D01*
X135890000Y-30480000D02*
X135890000Y-50800000D01*
X130810000Y-93980000D02*
X130810000Y-93580000D01*
X130810000Y-93580000D02*
X130810000Y-91440000D01*
X130810000Y-91440000D02*
X132080000Y-90170000D01*
X132080000Y-90170000D02*
X137160000Y-90170000D01*
X137160000Y-90170000D02*
X138430000Y-88900000D01*
X138430000Y-88900000D02*
X138430000Y-53340000D01*
X138430000Y-53340000D02*
X135890000Y-53340000D01*
X76200000Y-104140000D02*
X76200000Y-82550000D01*
X76200000Y-82550000D02*
X77470000Y-81280000D01*
X77470000Y-81280000D02*
X114300000Y-81280000D01*
X114300000Y-81280000D02*
X115570000Y-80010000D01*
X115570000Y-80010000D02*
X115570000Y-76600000D01*
X115570000Y-76600000D02*
X115570000Y-76200000D01*
X113030000Y-93980000D02*
X113030000Y-105410000D01*
X113030000Y-105410000D02*
X114300000Y-106680000D01*
X78740000Y-104140000D02*
X78740000Y-83820000D01*
X78740000Y-83820000D02*
X80010000Y-82550000D01*
X80010000Y-82550000D02*
X116840000Y-82550000D01*
X116840000Y-82550000D02*
X118110000Y-81280000D01*
X118110000Y-81280000D02*
X118110000Y-76200000D01*
X115570000Y-93980000D02*
X115570000Y-105410000D01*
X115570000Y-105410000D02*
X116840000Y-106680000D01*
X81280000Y-104140000D02*
X81280000Y-85090000D01*
X81280000Y-85090000D02*
X82550000Y-83820000D01*
X82550000Y-83820000D02*
X119380000Y-83820000D01*
X119380000Y-83820000D02*
X120650000Y-82550000D01*
X120650000Y-82550000D02*
X120650000Y-76600000D01*
X120650000Y-76600000D02*
X120650000Y-76200000D01*
X118110000Y-93980000D02*
X118110000Y-93580000D01*
X118110000Y-93580000D02*
X118110000Y-105410000D01*
X118110000Y-105410000D02*
X119380000Y-106680000D01*
X83820000Y-104140000D02*
X83820000Y-86360000D01*
X83820000Y-86360000D02*
X85090000Y-85090000D01*
X85090000Y-85090000D02*
X121920000Y-85090000D01*
X121920000Y-85090000D02*
X123190000Y-83820000D01*
X123190000Y-83820000D02*
X123190000Y-76200000D01*
X120650000Y-93980000D02*
X120650000Y-105410000D01*
X120650000Y-105410000D02*
X121920000Y-106680000D01*
X86360000Y-104140000D02*
X86360000Y-87630000D01*
X86360000Y-87630000D02*
X87630000Y-86360000D01*
X87630000Y-86360000D02*
X124460000Y-86360000D01*
X124460000Y-86360000D02*
X125730000Y-85090000D01*
X125730000Y-85090000D02*
X125730000Y-76600000D01*
X125730000Y-76600000D02*
X125730000Y-76200000D01*
X123190000Y-93980000D02*
X123190000Y-105410000D01*
X123190000Y-105410000D02*
X124460000Y-106680000D01*
X88900000Y-104140000D02*
X88900000Y-88900000D01*
X88900000Y-88900000D02*
X90170000Y-87630000D01*
X90170000Y-87630000D02*
X127000000Y-87630000D01*
X127000000Y-87630000D02*
X128270000Y-86360000D01*
X128270000Y-86360000D02*
X128270000Y-76200000D01*
X125730000Y-93980000D02*
X125730000Y-105410000D01*
X125730000Y-105410000D02*
X127000000Y-106680000D01*
X91440000Y-104140000D02*
X91440000Y-90170000D01*
X91440000Y-90170000D02*
X92710000Y-88900000D01*
X92710000Y-88900000D02*
X129540000Y-88900000D01*
X129540000Y-88900000D02*
X130810000Y-87630000D01*
X130810000Y-87630000D02*
X130810000Y-76600000D01*
X130810000Y-76600000D02*
X130810000Y-76200000D01*
X93980000Y-104140000D02*
X105410000Y-104140000D01*
X105410000Y-104140000D02*
X106680000Y-102870000D01*
X106680000Y-102870000D02*
X106680000Y-90170000D01*
X106680000Y-90170000D02*
X130810000Y-90170000D01*
X130810000Y-90170000D02*
X133350000Y-87630000D01*
X133350000Y-87630000D02*
X133350000Y-76600000D01*
X133350000Y-76600000D02*
X133350000Y-76200000D01*
X107950000Y-93980000D02*
X107950000Y-105410000D01*
X107950000Y-105410000D02*
X106680000Y-106680000D01*
X106680000Y-106680000D02*
X93980000Y-106680000D01*
X105410000Y-93980000D02*
X105410000Y-99060000D01*
X105410000Y-99060000D02*
X104140000Y-100330000D01*
X104140000Y-100330000D02*
X93980000Y-100330000D01*
X93980000Y-100330000D02*
X92710000Y-101600000D01*
X92710000Y-101600000D02*
X92710000Y-105410000D01*
X92710000Y-105410000D02*
X91440000Y-106680000D01*
X110490000Y-76200000D02*
X110490000Y-76600000D01*
X110490000Y-76600000D02*
X110490000Y-78740000D01*
X110490000Y-78740000D02*
X73660000Y-78740000D01*
X73660000Y-78740000D02*
X72390000Y-80010000D01*
X72390000Y-80010000D02*
X72390000Y-109220000D01*
X72390000Y-109220000D02*
X73660000Y-110490000D01*
X73660000Y-110490000D02*
X77470000Y-110490000D01*
X77470000Y-110490000D02*
X78740000Y-109220000D01*
X78740000Y-109220000D02*
X78740000Y-106680000D01*
X113030000Y-76200000D02*
X113030000Y-76600000D01*
X113030000Y-76600000D02*
X113030000Y-78740000D01*
X113030000Y-78740000D02*
X111760000Y-80010000D01*
X111760000Y-80010000D02*
X74930000Y-80010000D01*
X74930000Y-80010000D02*
X73660000Y-81280000D01*
X73660000Y-81280000D02*
X73660000Y-106680000D01*
X73660000Y-106680000D02*
X76200000Y-106680000D01*
X74930000Y-68580000D02*
X74930000Y-66040000D01*
X74930000Y-66040000D02*
X76200000Y-64770000D01*
X76200000Y-64770000D02*
X80010000Y-64770000D01*
X80010000Y-64770000D02*
X81280000Y-66040000D01*
X81280000Y-66040000D02*
X81280000Y-71120000D01*
X81280000Y-71120000D02*
X82550000Y-72390000D01*
X82550000Y-72390000D02*
X113030000Y-72390000D01*
X113030000Y-72390000D02*
X114300000Y-71120000D01*
X114300000Y-71120000D02*
X114300000Y-40640000D01*
X80010000Y-50800000D02*
X80010000Y-39370000D01*
X80010000Y-39370000D02*
X78740000Y-38100000D01*
X116840000Y-40640000D02*
X116840000Y-72390000D01*
X116840000Y-72390000D02*
X115570000Y-73660000D01*
X115570000Y-73660000D02*
X78740000Y-73660000D01*
X78740000Y-73660000D02*
X77470000Y-72390000D01*
X77470000Y-72390000D02*
X77470000Y-68580000D01*
X82550000Y-50800000D02*
X82550000Y-39370000D01*
X82550000Y-39370000D02*
X81280000Y-38100000D01*
X85090000Y-50800000D02*
X85090000Y-39370000D01*
X85090000Y-39370000D02*
X83820000Y-38100000D01*
X82550000Y-68580000D02*
X82550000Y-68180000D01*
X82550000Y-68180000D02*
X82550000Y-55536100D01*
X82550000Y-55536100D02*
X86360000Y-51726100D01*
X86360000Y-51726100D02*
X86360000Y-50926100D01*
X86360000Y-50926100D02*
X86360000Y-40640000D01*
X85090000Y-68580000D02*
X85090000Y-68180000D01*
X85090000Y-68180000D02*
X85090000Y-55536100D01*
X85090000Y-55536100D02*
X88900000Y-51726100D01*
X88900000Y-51726100D02*
X88900000Y-50926100D01*
X88900000Y-50926100D02*
X88900000Y-40640000D01*
X91440000Y-40640000D02*
X91440000Y-51726100D01*
X91440000Y-51726100D02*
X87630000Y-55536100D01*
X87630000Y-55536100D02*
X87630000Y-68180000D01*
X87630000Y-68180000D02*
X87630000Y-68580000D01*
X90170000Y-68580000D02*
X90170000Y-68180000D01*
X90170000Y-68180000D02*
X90170000Y-55536100D01*
X90170000Y-55536100D02*
X93980000Y-51726100D01*
X93980000Y-51726100D02*
X93980000Y-50926100D01*
X93980000Y-50926100D02*
X93980000Y-40640000D01*
X95250000Y-50800000D02*
X95250000Y-39370000D01*
X95250000Y-39370000D02*
X93980000Y-38100000D01*
X97790000Y-68580000D02*
X97790000Y-68180000D01*
X97790000Y-68180000D02*
X96520000Y-66910000D01*
X96520000Y-66910000D02*
X96520000Y-31750000D01*
X96520000Y-31750000D02*
X97790000Y-30480000D01*
X97790000Y-30480000D02*
X123190000Y-30480000D01*
X123190000Y-30480000D02*
X124460000Y-31750000D01*
X124460000Y-31750000D02*
X124460000Y-38100000D01*
X100330000Y-68580000D02*
X100330000Y-68180000D01*
X100330000Y-68180000D02*
X99060000Y-66910000D01*
X99060000Y-66910000D02*
X99060000Y-33020000D01*
X99060000Y-33020000D02*
X100330000Y-31750000D01*
X100330000Y-31750000D02*
X120650000Y-31750000D01*
X120650000Y-31750000D02*
X121920000Y-33020000D01*
X121920000Y-33020000D02*
X121920000Y-38100000D01*
X102870000Y-68580000D02*
X102870000Y-68180000D01*
X102870000Y-68180000D02*
X101600000Y-66910000D01*
X101600000Y-66910000D02*
X101600000Y-50926100D01*
X101600000Y-50926100D02*
X101600000Y-49873900D01*
X101600000Y-49873900D02*
X101600000Y-34290000D01*
X101600000Y-34290000D02*
X102870000Y-33020000D01*
X102870000Y-33020000D02*
X118110000Y-33020000D01*
X118110000Y-33020000D02*
X119380000Y-34290000D01*
X119380000Y-34290000D02*
X119380000Y-38100000D01*
X102870000Y-50800000D02*
X102870000Y-35560000D01*
X102870000Y-35560000D02*
X104140000Y-34290000D01*
X104140000Y-34290000D02*
X115570000Y-34290000D01*
X115570000Y-34290000D02*
X116840000Y-35560000D01*
X116840000Y-35560000D02*
X116840000Y-38100000D01*
D18*
G36*
X136861839Y-27695645D02*
G01*
X136597565Y-28029076D01*
X136403087Y-28407488D01*
X136285814Y-28816468D01*
X136250212Y-29240438D01*
X136297638Y-29663247D01*
X136334285Y-29778772D01*
X135220899Y-28665387D01*
X135195528Y-28634472D01*
X135072189Y-28533251D01*
X134931473Y-28458037D01*
X134778788Y-28411720D01*
X134659791Y-28400000D01*
X134659788Y-28400000D01*
X134620000Y-28396081D01*
X134580212Y-28400000D01*
X73699787Y-28400000D01*
X73659999Y-28396081D01*
X73620211Y-28400000D01*
X73620209Y-28400000D01*
X73501212Y-28411720D01*
X73348527Y-28458037D01*
X73283024Y-28493049D01*
X73207810Y-28533251D01*
X73152210Y-28578881D01*
X73084472Y-28634472D01*
X73059105Y-28665382D01*
X71845383Y-29879105D01*
X71814473Y-29904472D01*
X71789108Y-29935380D01*
X71713251Y-30027811D01*
X71638039Y-30168526D01*
X71638038Y-30168527D01*
X71591722Y-30321211D01*
X71591721Y-30321213D01*
X71576081Y-30480000D01*
X71580001Y-30519798D01*
X71580000Y-49208371D01*
X71370392Y-49380393D01*
X71191068Y-49598900D01*
X71120000Y-49731858D01*
X71048932Y-49598899D01*
X70869607Y-49380392D01*
X70651100Y-49201068D01*
X70401807Y-49067818D01*
X70131308Y-48985764D01*
X69850000Y-48958057D01*
X69568691Y-48985764D01*
X69298192Y-49067818D01*
X69048899Y-49201068D01*
X68830392Y-49380393D01*
X68651068Y-49598900D01*
X68517818Y-49848193D01*
X68435764Y-50118692D01*
X68415000Y-50329509D01*
X68415000Y-51270492D01*
X68435764Y-51481309D01*
X68517818Y-51751808D01*
X68651068Y-52001101D01*
X68830393Y-52219608D01*
X69048900Y-52398932D01*
X69298193Y-52532182D01*
X69568692Y-52614236D01*
X69850000Y-52641943D01*
X70131309Y-52614236D01*
X70401808Y-52532182D01*
X70651101Y-52398932D01*
X70869608Y-52219608D01*
X71048932Y-52001101D01*
X71120000Y-51868142D01*
X71191068Y-52001101D01*
X71370393Y-52219608D01*
X71588900Y-52398932D01*
X71838193Y-52532182D01*
X72108692Y-52614236D01*
X72390000Y-52641943D01*
X72671309Y-52614236D01*
X72941808Y-52532182D01*
X73191101Y-52398932D01*
X73409608Y-52219608D01*
X73588932Y-52001101D01*
X73660000Y-51868142D01*
X73731068Y-52001101D01*
X73910393Y-52219608D01*
X74128900Y-52398932D01*
X74378193Y-52532182D01*
X74648692Y-52614236D01*
X74930000Y-52641943D01*
X75211309Y-52614236D01*
X75481808Y-52532182D01*
X75731101Y-52398932D01*
X75949608Y-52219608D01*
X76128932Y-52001101D01*
X76200000Y-51868142D01*
X76271068Y-52001101D01*
X76450393Y-52219608D01*
X76668900Y-52398932D01*
X76918193Y-52532182D01*
X77188692Y-52614236D01*
X77470000Y-52641943D01*
X77751309Y-52614236D01*
X78021808Y-52532182D01*
X78271101Y-52398932D01*
X78489608Y-52219608D01*
X78668932Y-52001101D01*
X78740000Y-51868142D01*
X78811068Y-52001101D01*
X78990393Y-52219608D01*
X79208900Y-52398932D01*
X79458193Y-52532182D01*
X79728692Y-52614236D01*
X80010000Y-52641943D01*
X80291309Y-52614236D01*
X80561808Y-52532182D01*
X80811101Y-52398932D01*
X81029608Y-52219608D01*
X81208932Y-52001101D01*
X81280000Y-51868142D01*
X81351068Y-52001101D01*
X81530393Y-52219608D01*
X81748900Y-52398932D01*
X81998193Y-52532182D01*
X82268692Y-52614236D01*
X82550000Y-52641943D01*
X82831309Y-52614236D01*
X83101808Y-52532182D01*
X83351101Y-52398932D01*
X83569608Y-52219608D01*
X83748932Y-52001101D01*
X83820000Y-51868142D01*
X83891068Y-52001101D01*
X84070393Y-52219608D01*
X84288900Y-52398932D01*
X84453614Y-52486973D01*
X82005383Y-54935205D01*
X81974473Y-54960572D01*
X81949108Y-54991480D01*
X81873251Y-55083911D01*
X81798038Y-55224627D01*
X81751721Y-55377313D01*
X81736081Y-55536100D01*
X81740001Y-55575898D01*
X81740000Y-65354487D01*
X80610899Y-64225387D01*
X80585528Y-64194472D01*
X80462189Y-64093251D01*
X80321473Y-64018037D01*
X80168788Y-63971720D01*
X80049791Y-63960000D01*
X80049788Y-63960000D01*
X80010000Y-63956081D01*
X79970212Y-63960000D01*
X76239787Y-63960000D01*
X76199999Y-63956081D01*
X76160211Y-63960000D01*
X76160209Y-63960000D01*
X76041212Y-63971720D01*
X75888527Y-64018037D01*
X75823024Y-64053049D01*
X75747810Y-64093251D01*
X75692210Y-64138881D01*
X75624472Y-64194472D01*
X75599105Y-64225382D01*
X74385383Y-65439105D01*
X74354473Y-65464472D01*
X74329108Y-65495380D01*
X74253251Y-65587811D01*
X74178039Y-65728526D01*
X74178038Y-65728527D01*
X74131722Y-65881211D01*
X74131721Y-65881213D01*
X74116081Y-66040000D01*
X74120001Y-66079798D01*
X74120001Y-66988371D01*
X73910392Y-67160393D01*
X73731068Y-67378900D01*
X73660000Y-67511858D01*
X73588932Y-67378899D01*
X73409607Y-67160392D01*
X73191100Y-66981068D01*
X72941807Y-66847818D01*
X72671308Y-66765764D01*
X72390000Y-66738057D01*
X72108691Y-66765764D01*
X71838192Y-66847818D01*
X71588899Y-66981068D01*
X71370392Y-67160393D01*
X71277581Y-67273483D01*
X71275812Y-67255518D01*
X71239502Y-67135820D01*
X71180537Y-67025506D01*
X71101185Y-66928815D01*
X71004494Y-66849463D01*
X70894180Y-66790498D01*
X70774482Y-66754188D01*
X70650000Y-66741928D01*
X70135750Y-66745000D01*
X69977000Y-66903750D01*
X69977000Y-68453000D01*
X69997000Y-68453000D01*
X69997000Y-68707000D01*
X69977000Y-68707000D01*
X69977000Y-70256250D01*
X70135750Y-70415000D01*
X70650000Y-70418072D01*
X70774482Y-70405812D01*
X70894180Y-70369502D01*
X71004494Y-70310537D01*
X71101185Y-70231185D01*
X71180537Y-70134494D01*
X71239502Y-70024180D01*
X71275812Y-69904482D01*
X71277581Y-69886517D01*
X71370393Y-69999608D01*
X71588900Y-70178932D01*
X71838193Y-70312182D01*
X72108692Y-70394236D01*
X72390000Y-70421943D01*
X72671309Y-70394236D01*
X72941808Y-70312182D01*
X73191101Y-70178932D01*
X73409608Y-69999608D01*
X73588932Y-69781101D01*
X73660000Y-69648142D01*
X73731068Y-69781101D01*
X73910393Y-69999608D01*
X74128900Y-70178932D01*
X74378193Y-70312182D01*
X74648692Y-70394236D01*
X74930000Y-70421943D01*
X75211309Y-70394236D01*
X75481808Y-70312182D01*
X75731101Y-70178932D01*
X75949608Y-69999608D01*
X76128932Y-69781101D01*
X76200000Y-69648142D01*
X76271068Y-69781101D01*
X76450393Y-69999608D01*
X76660001Y-70171628D01*
X76660000Y-72350212D01*
X76656081Y-72390000D01*
X76660000Y-72429788D01*
X76660000Y-72429790D01*
X76671720Y-72548787D01*
X76718037Y-72701472D01*
X76753049Y-72766975D01*
X76793251Y-72842189D01*
X76809280Y-72861720D01*
X76894472Y-72965528D01*
X76925387Y-72990899D01*
X78139105Y-74204618D01*
X78164472Y-74235528D01*
X78232210Y-74291119D01*
X78287810Y-74336749D01*
X78340665Y-74365000D01*
X78428527Y-74411963D01*
X78581212Y-74458280D01*
X78700209Y-74470000D01*
X78700211Y-74470000D01*
X78739999Y-74473919D01*
X78779787Y-74470000D01*
X102314111Y-74470000D01*
X102068900Y-74601068D01*
X101850393Y-74780392D01*
X101671068Y-74998899D01*
X101537818Y-75248192D01*
X101455764Y-75518691D01*
X101435000Y-75729508D01*
X101435000Y-76670491D01*
X101455764Y-76881308D01*
X101537818Y-77151807D01*
X101671068Y-77401100D01*
X101850392Y-77619607D01*
X102068899Y-77798932D01*
X102314110Y-77930000D01*
X73699787Y-77930000D01*
X73659999Y-77926081D01*
X73620211Y-77930000D01*
X73620209Y-77930000D01*
X73501212Y-77941720D01*
X73348527Y-77988037D01*
X73299512Y-78014236D01*
X73207810Y-78063251D01*
X73152210Y-78108881D01*
X73084472Y-78164472D01*
X73059105Y-78195382D01*
X71845387Y-79409101D01*
X71814472Y-79434472D01*
X71744703Y-79519487D01*
X71713251Y-79557811D01*
X71673049Y-79633025D01*
X71638037Y-79698528D01*
X71591720Y-79851213D01*
X71580000Y-79970209D01*
X71576081Y-80010000D01*
X71580000Y-80049788D01*
X71580001Y-109180202D01*
X71576081Y-109220000D01*
X71590305Y-109364410D01*
X71591721Y-109378788D01*
X71638038Y-109531472D01*
X71638038Y-109531473D01*
X71713251Y-109672189D01*
X71767292Y-109738037D01*
X71814473Y-109795528D01*
X71845383Y-109820895D01*
X73059105Y-111034618D01*
X73084472Y-111065528D01*
X73152210Y-111121119D01*
X73207810Y-111166749D01*
X73283024Y-111206951D01*
X73348527Y-111241963D01*
X73501212Y-111288280D01*
X73620209Y-111300000D01*
X73620211Y-111300000D01*
X73659999Y-111303919D01*
X73699787Y-111300000D01*
X77430212Y-111300000D01*
X77470000Y-111303919D01*
X77509788Y-111300000D01*
X77509791Y-111300000D01*
X77628788Y-111288280D01*
X77781473Y-111241963D01*
X77922189Y-111166749D01*
X78045528Y-111065528D01*
X78070899Y-111034613D01*
X79284619Y-109820894D01*
X79315528Y-109795528D01*
X79371119Y-109727790D01*
X79416749Y-109672190D01*
X79491962Y-109531474D01*
X79491963Y-109531473D01*
X79538280Y-109378788D01*
X79550000Y-109259791D01*
X79550000Y-109259789D01*
X79553919Y-109220001D01*
X79550000Y-109180213D01*
X79550000Y-107946290D01*
X79576606Y-107932069D01*
X79804797Y-107744797D01*
X79992069Y-107516606D01*
X80010000Y-107483060D01*
X80027931Y-107516606D01*
X80215203Y-107744797D01*
X80443394Y-107932069D01*
X80703736Y-108071225D01*
X80986223Y-108156916D01*
X81206381Y-108178600D01*
X81353619Y-108178600D01*
X81573777Y-108156916D01*
X81856264Y-108071225D01*
X82116606Y-107932069D01*
X82344797Y-107744797D01*
X82532069Y-107516606D01*
X82550000Y-107483060D01*
X82567931Y-107516606D01*
X82755203Y-107744797D01*
X82983394Y-107932069D01*
X83243736Y-108071225D01*
X83526223Y-108156916D01*
X83746381Y-108178600D01*
X83893619Y-108178600D01*
X84113777Y-108156916D01*
X84396264Y-108071225D01*
X84656606Y-107932069D01*
X84884797Y-107744797D01*
X85072069Y-107516606D01*
X85090000Y-107483060D01*
X85107931Y-107516606D01*
X85295203Y-107744797D01*
X85523394Y-107932069D01*
X85783736Y-108071225D01*
X86066223Y-108156916D01*
X86286381Y-108178600D01*
X86433619Y-108178600D01*
X86653777Y-108156916D01*
X86936264Y-108071225D01*
X87196606Y-107932069D01*
X87424797Y-107744797D01*
X87612069Y-107516606D01*
X87630000Y-107483060D01*
X87647931Y-107516606D01*
X87835203Y-107744797D01*
X88063394Y-107932069D01*
X88323736Y-108071225D01*
X88606223Y-108156916D01*
X88826381Y-108178600D01*
X88973619Y-108178600D01*
X89193777Y-108156916D01*
X89476264Y-108071225D01*
X89736606Y-107932069D01*
X89964797Y-107744797D01*
X90152069Y-107516606D01*
X90170000Y-107483060D01*
X90187931Y-107516606D01*
X90375203Y-107744797D01*
X90603394Y-107932069D01*
X90863736Y-108071225D01*
X91146223Y-108156916D01*
X91366381Y-108178600D01*
X91513619Y-108178600D01*
X91733777Y-108156916D01*
X92016264Y-108071225D01*
X92276606Y-107932069D01*
X92504797Y-107744797D01*
X92692069Y-107516606D01*
X92710000Y-107483060D01*
X92727931Y-107516606D01*
X92915203Y-107744797D01*
X93143394Y-107932069D01*
X93403736Y-108071225D01*
X93686223Y-108156916D01*
X93906381Y-108178600D01*
X94053619Y-108178600D01*
X94273777Y-108156916D01*
X94556264Y-108071225D01*
X94816606Y-107932069D01*
X95044797Y-107744797D01*
X95232069Y-107516606D01*
X95246290Y-107490000D01*
X106640212Y-107490000D01*
X106680000Y-107493919D01*
X106719788Y-107490000D01*
X106719791Y-107490000D01*
X106838788Y-107478280D01*
X106991473Y-107431963D01*
X107132189Y-107356749D01*
X107255528Y-107255528D01*
X107280899Y-107224613D01*
X108494618Y-106010895D01*
X108525528Y-105985528D01*
X108581119Y-105917790D01*
X108626749Y-105862190D01*
X108701962Y-105721474D01*
X108701963Y-105721473D01*
X108748280Y-105568788D01*
X108760000Y-105449791D01*
X108760000Y-105449789D01*
X108763919Y-105410001D01*
X108760000Y-105370213D01*
X108760000Y-95571628D01*
X108969607Y-95399608D01*
X109148932Y-95181101D01*
X109220000Y-95048142D01*
X109291068Y-95181100D01*
X109470392Y-95399607D01*
X109688899Y-95578932D01*
X109938192Y-95712182D01*
X110208691Y-95794236D01*
X110490000Y-95821943D01*
X110771308Y-95794236D01*
X111041807Y-95712182D01*
X111291100Y-95578932D01*
X111509607Y-95399608D01*
X111688932Y-95181101D01*
X111760000Y-95048142D01*
X111831068Y-95181100D01*
X112010392Y-95399607D01*
X112220000Y-95571629D01*
X112220001Y-102713507D01*
X112053777Y-102663084D01*
X111833619Y-102641400D01*
X111686381Y-102641400D01*
X111466223Y-102663084D01*
X111183736Y-102748775D01*
X110923394Y-102887931D01*
X110695203Y-103075203D01*
X110507931Y-103303394D01*
X110368775Y-103563736D01*
X110283084Y-103846223D01*
X110254149Y-104140000D01*
X110283084Y-104433777D01*
X110368775Y-104716264D01*
X110507931Y-104976606D01*
X110695203Y-105204797D01*
X110923394Y-105392069D01*
X110956940Y-105410000D01*
X110923394Y-105427931D01*
X110695203Y-105615203D01*
X110507931Y-105843394D01*
X110368775Y-106103736D01*
X110283084Y-106386223D01*
X110254149Y-106680000D01*
X110283084Y-106973777D01*
X110368775Y-107256264D01*
X110507931Y-107516606D01*
X110695203Y-107744797D01*
X110923394Y-107932069D01*
X111183736Y-108071225D01*
X111466223Y-108156916D01*
X111686381Y-108178600D01*
X111833619Y-108178600D01*
X112053777Y-108156916D01*
X112336264Y-108071225D01*
X112596606Y-107932069D01*
X112824797Y-107744797D01*
X113012069Y-107516606D01*
X113030000Y-107483060D01*
X113047931Y-107516606D01*
X113235203Y-107744797D01*
X113463394Y-107932069D01*
X113723736Y-108071225D01*
X114006223Y-108156916D01*
X114226381Y-108178600D01*
X114373619Y-108178600D01*
X114593777Y-108156916D01*
X114876264Y-108071225D01*
X115136606Y-107932069D01*
X115364797Y-107744797D01*
X115552069Y-107516606D01*
X115570000Y-107483060D01*
X115587931Y-107516606D01*
X115775203Y-107744797D01*
X116003394Y-107932069D01*
X116263736Y-108071225D01*
X116546223Y-108156916D01*
X116766381Y-108178600D01*
X116913619Y-108178600D01*
X117133777Y-108156916D01*
X117416264Y-108071225D01*
X117676606Y-107932069D01*
X117904797Y-107744797D01*
X118092069Y-107516606D01*
X118110000Y-107483060D01*
X118127931Y-107516606D01*
X118315203Y-107744797D01*
X118543394Y-107932069D01*
X118803736Y-108071225D01*
X119086223Y-108156916D01*
X119306381Y-108178600D01*
X119453619Y-108178600D01*
X119673777Y-108156916D01*
X119956264Y-108071225D01*
X120216606Y-107932069D01*
X120444797Y-107744797D01*
X120632069Y-107516606D01*
X120650000Y-107483060D01*
X120667931Y-107516606D01*
X120855203Y-107744797D01*
X121083394Y-107932069D01*
X121343736Y-108071225D01*
X121626223Y-108156916D01*
X121846381Y-108178600D01*
X121993619Y-108178600D01*
X122213777Y-108156916D01*
X122496264Y-108071225D01*
X122756606Y-107932069D01*
X122984797Y-107744797D01*
X123172069Y-107516606D01*
X123190000Y-107483060D01*
X123207931Y-107516606D01*
X123395203Y-107744797D01*
X123623394Y-107932069D01*
X123883736Y-108071225D01*
X124166223Y-108156916D01*
X124386381Y-108178600D01*
X124533619Y-108178600D01*
X124753777Y-108156916D01*
X125036264Y-108071225D01*
X125296606Y-107932069D01*
X125524797Y-107744797D01*
X125712069Y-107516606D01*
X125730000Y-107483060D01*
X125747931Y-107516606D01*
X125935203Y-107744797D01*
X126163394Y-107932069D01*
X126423736Y-108071225D01*
X126706223Y-108156916D01*
X126926381Y-108178600D01*
X127073619Y-108178600D01*
X127293777Y-108156916D01*
X127576264Y-108071225D01*
X127836606Y-107932069D01*
X128064797Y-107744797D01*
X128252069Y-107516606D01*
X128270000Y-107483060D01*
X128287931Y-107516606D01*
X128475203Y-107744797D01*
X128703394Y-107932069D01*
X128963736Y-108071225D01*
X129246223Y-108156916D01*
X129466381Y-108178600D01*
X129613619Y-108178600D01*
X129833777Y-108156916D01*
X130116264Y-108071225D01*
X130376606Y-107932069D01*
X130604797Y-107744797D01*
X130792069Y-107516606D01*
X130931225Y-107256264D01*
X131016916Y-106973777D01*
X131045851Y-106680000D01*
X131016916Y-106386223D01*
X130931225Y-106103736D01*
X130792069Y-105843394D01*
X130604797Y-105615203D01*
X130596735Y-105608586D01*
X130647780Y-105593102D01*
X130758094Y-105534137D01*
X130854785Y-105454785D01*
X130934137Y-105358094D01*
X130993102Y-105247780D01*
X131029412Y-105128082D01*
X131041672Y-105003600D01*
X131041672Y-103276400D01*
X131029412Y-103151918D01*
X130993102Y-103032220D01*
X130934137Y-102921906D01*
X130854785Y-102825215D01*
X130758094Y-102745863D01*
X130647780Y-102686898D01*
X130528082Y-102650588D01*
X130403600Y-102638328D01*
X128676400Y-102638328D01*
X128551918Y-102650588D01*
X128432220Y-102686898D01*
X128321906Y-102745863D01*
X128225215Y-102825215D01*
X128145863Y-102921906D01*
X128086898Y-103032220D01*
X128071414Y-103083265D01*
X128064797Y-103075203D01*
X127836606Y-102887931D01*
X127576264Y-102748775D01*
X127293777Y-102663084D01*
X127073619Y-102641400D01*
X126926381Y-102641400D01*
X126706223Y-102663084D01*
X126540000Y-102713507D01*
X126540000Y-95571628D01*
X126749607Y-95399608D01*
X126928932Y-95181101D01*
X127000000Y-95048142D01*
X127071068Y-95181100D01*
X127250392Y-95399607D01*
X127468899Y-95578932D01*
X127718192Y-95712182D01*
X127988691Y-95794236D01*
X128270000Y-95821943D01*
X128551308Y-95794236D01*
X128821807Y-95712182D01*
X129071100Y-95578932D01*
X129289607Y-95399608D01*
X129468932Y-95181101D01*
X129540000Y-95048142D01*
X129611068Y-95181100D01*
X129790392Y-95399607D01*
X130008899Y-95578932D01*
X130258192Y-95712182D01*
X130528691Y-95794236D01*
X130810000Y-95821943D01*
X131091308Y-95794236D01*
X131361807Y-95712182D01*
X131611100Y-95578932D01*
X131829607Y-95399608D01*
X132008932Y-95181101D01*
X132080000Y-95048142D01*
X132151068Y-95181100D01*
X132330392Y-95399607D01*
X132548899Y-95578932D01*
X132798192Y-95712182D01*
X133068691Y-95794236D01*
X133350000Y-95821943D01*
X133631308Y-95794236D01*
X133901807Y-95712182D01*
X134151100Y-95578932D01*
X134369607Y-95399608D01*
X134548932Y-95181101D01*
X134620000Y-95048142D01*
X134691068Y-95181100D01*
X134870392Y-95399607D01*
X135088899Y-95578932D01*
X135338192Y-95712182D01*
X135608691Y-95794236D01*
X135890000Y-95821943D01*
X136171308Y-95794236D01*
X136441807Y-95712182D01*
X136691100Y-95578932D01*
X136909607Y-95399608D01*
X137088932Y-95181101D01*
X137222182Y-94931808D01*
X137304236Y-94661309D01*
X137325000Y-94450492D01*
X137325000Y-93509509D01*
X137304236Y-93298691D01*
X137222182Y-93028192D01*
X137088932Y-92778899D01*
X136909608Y-92560392D01*
X136691101Y-92381068D01*
X136445890Y-92250000D01*
X138390212Y-92250000D01*
X138430000Y-92253919D01*
X138469788Y-92250000D01*
X138469791Y-92250000D01*
X138588788Y-92238280D01*
X138741473Y-92191963D01*
X138882189Y-92116749D01*
X139005528Y-92015528D01*
X139030899Y-91984613D01*
X140208000Y-90807513D01*
X140208000Y-114309467D01*
X139933371Y-113991305D01*
X139598102Y-113729365D01*
X139218342Y-113537534D01*
X138808553Y-113423119D01*
X138384346Y-113390478D01*
X137961877Y-113440854D01*
X137557239Y-113572329D01*
X137185844Y-113779895D01*
X136861839Y-114055645D01*
X136597565Y-114389076D01*
X136403087Y-114767488D01*
X136285814Y-115176468D01*
X136250212Y-115600438D01*
X136297638Y-116023247D01*
X136426285Y-116428793D01*
X136631253Y-116801628D01*
X136904734Y-117127550D01*
X137178918Y-117348000D01*
X67294461Y-117348000D01*
X67586864Y-117106103D01*
X67855768Y-116776394D01*
X68055510Y-116400733D01*
X68178482Y-115993431D01*
X68220000Y-115570000D01*
X68219150Y-115509131D01*
X68165826Y-115087024D01*
X68031529Y-114683314D01*
X67821376Y-114313378D01*
X67543371Y-113991305D01*
X67208102Y-113729365D01*
X66828342Y-113537534D01*
X66418553Y-113423119D01*
X65994346Y-113390478D01*
X65571877Y-113440854D01*
X65167239Y-113572329D01*
X64795844Y-113779895D01*
X64471839Y-114055645D01*
X64262000Y-114320396D01*
X64262000Y-69780000D01*
X68411928Y-69780000D01*
X68424188Y-69904482D01*
X68460498Y-70024180D01*
X68519463Y-70134494D01*
X68598815Y-70231185D01*
X68695506Y-70310537D01*
X68805820Y-70369502D01*
X68925518Y-70405812D01*
X69050000Y-70418072D01*
X69564250Y-70415000D01*
X69723000Y-70256250D01*
X69723000Y-68707000D01*
X68573750Y-68707000D01*
X68415000Y-68865750D01*
X68411928Y-69780000D01*
X64262000Y-69780000D01*
X64262000Y-67380000D01*
X68411928Y-67380000D01*
X68415000Y-68294250D01*
X68573750Y-68453000D01*
X69723000Y-68453000D01*
X69723000Y-66903750D01*
X69564250Y-66745000D01*
X69050000Y-66741928D01*
X68925518Y-66754188D01*
X68805820Y-66790498D01*
X68695506Y-66849463D01*
X68598815Y-66928815D01*
X68519463Y-67025506D01*
X68460498Y-67135820D01*
X68424188Y-67255518D01*
X68411928Y-67380000D01*
X64262000Y-67380000D01*
X64262000Y-30466353D01*
X64514734Y-30767550D01*
X64846312Y-31034146D01*
X65223358Y-31231261D01*
X65631509Y-31351386D01*
X66055219Y-31389947D01*
X66478350Y-31345474D01*
X66884784Y-31219662D01*
X67259041Y-31017302D01*
X67586864Y-30746103D01*
X67855768Y-30416394D01*
X68055510Y-30040733D01*
X68178482Y-29633431D01*
X68220000Y-29210000D01*
X68219150Y-29149131D01*
X68165826Y-28727024D01*
X68031529Y-28323314D01*
X67821376Y-27953378D01*
X67543371Y-27631305D01*
X67288271Y-27432000D01*
X137171621Y-27432000D01*
X136861839Y-27695645D01*
X136861839Y-27695645D01*
G37*
X136861839Y-27695645D02*
X136597565Y-28029076D01*
X136403087Y-28407488D01*
X136285814Y-28816468D01*
X136250212Y-29240438D01*
X136297638Y-29663247D01*
X136334285Y-29778772D01*
X135220899Y-28665387D01*
X135195528Y-28634472D01*
X135072189Y-28533251D01*
X134931473Y-28458037D01*
X134778788Y-28411720D01*
X134659791Y-28400000D01*
X134659788Y-28400000D01*
X134620000Y-28396081D01*
X134580212Y-28400000D01*
X73699787Y-28400000D01*
X73659999Y-28396081D01*
X73620211Y-28400000D01*
X73620209Y-28400000D01*
X73501212Y-28411720D01*
X73348527Y-28458037D01*
X73283024Y-28493049D01*
X73207810Y-28533251D01*
X73152210Y-28578881D01*
X73084472Y-28634472D01*
X73059105Y-28665382D01*
X71845383Y-29879105D01*
X71814473Y-29904472D01*
X71789108Y-29935380D01*
X71713251Y-30027811D01*
X71638039Y-30168526D01*
X71638038Y-30168527D01*
X71591722Y-30321211D01*
X71591721Y-30321213D01*
X71576081Y-30480000D01*
X71580001Y-30519798D01*
X71580000Y-49208371D01*
X71370392Y-49380393D01*
X71191068Y-49598900D01*
X71120000Y-49731858D01*
X71048932Y-49598899D01*
X70869607Y-49380392D01*
X70651100Y-49201068D01*
X70401807Y-49067818D01*
X70131308Y-48985764D01*
X69850000Y-48958057D01*
X69568691Y-48985764D01*
X69298192Y-49067818D01*
X69048899Y-49201068D01*
X68830392Y-49380393D01*
X68651068Y-49598900D01*
X68517818Y-49848193D01*
X68435764Y-50118692D01*
X68415000Y-50329509D01*
X68415000Y-51270492D01*
X68435764Y-51481309D01*
X68517818Y-51751808D01*
X68651068Y-52001101D01*
X68830393Y-52219608D01*
X69048900Y-52398932D01*
X69298193Y-52532182D01*
X69568692Y-52614236D01*
X69850000Y-52641943D01*
X70131309Y-52614236D01*
X70401808Y-52532182D01*
X70651101Y-52398932D01*
X70869608Y-52219608D01*
X71048932Y-52001101D01*
X71120000Y-51868142D01*
X71191068Y-52001101D01*
X71370393Y-52219608D01*
X71588900Y-52398932D01*
X71838193Y-52532182D01*
X72108692Y-52614236D01*
X72390000Y-52641943D01*
X72671309Y-52614236D01*
X72941808Y-52532182D01*
X73191101Y-52398932D01*
X73409608Y-52219608D01*
X73588932Y-52001101D01*
X73660000Y-51868142D01*
X73731068Y-52001101D01*
X73910393Y-52219608D01*
X74128900Y-52398932D01*
X74378193Y-52532182D01*
X74648692Y-52614236D01*
X74930000Y-52641943D01*
X75211309Y-52614236D01*
X75481808Y-52532182D01*
X75731101Y-52398932D01*
X75949608Y-52219608D01*
X76128932Y-52001101D01*
X76200000Y-51868142D01*
X76271068Y-52001101D01*
X76450393Y-52219608D01*
X76668900Y-52398932D01*
X76918193Y-52532182D01*
X77188692Y-52614236D01*
X77470000Y-52641943D01*
X77751309Y-52614236D01*
X78021808Y-52532182D01*
X78271101Y-52398932D01*
X78489608Y-52219608D01*
X78668932Y-52001101D01*
X78740000Y-51868142D01*
X78811068Y-52001101D01*
X78990393Y-52219608D01*
X79208900Y-52398932D01*
X79458193Y-52532182D01*
X79728692Y-52614236D01*
X80010000Y-52641943D01*
X80291309Y-52614236D01*
X80561808Y-52532182D01*
X80811101Y-52398932D01*
X81029608Y-52219608D01*
X81208932Y-52001101D01*
X81280000Y-51868142D01*
X81351068Y-52001101D01*
X81530393Y-52219608D01*
X81748900Y-52398932D01*
X81998193Y-52532182D01*
X82268692Y-52614236D01*
X82550000Y-52641943D01*
X82831309Y-52614236D01*
X83101808Y-52532182D01*
X83351101Y-52398932D01*
X83569608Y-52219608D01*
X83748932Y-52001101D01*
X83820000Y-51868142D01*
X83891068Y-52001101D01*
X84070393Y-52219608D01*
X84288900Y-52398932D01*
X84453614Y-52486973D01*
X82005383Y-54935205D01*
X81974473Y-54960572D01*
X81949108Y-54991480D01*
X81873251Y-55083911D01*
X81798038Y-55224627D01*
X81751721Y-55377313D01*
X81736081Y-55536100D01*
X81740001Y-55575898D01*
X81740000Y-65354487D01*
X80610899Y-64225387D01*
X80585528Y-64194472D01*
X80462189Y-64093251D01*
X80321473Y-64018037D01*
X80168788Y-63971720D01*
X80049791Y-63960000D01*
X80049788Y-63960000D01*
X80010000Y-63956081D01*
X79970212Y-63960000D01*
X76239787Y-63960000D01*
X76199999Y-63956081D01*
X76160211Y-63960000D01*
X76160209Y-63960000D01*
X76041212Y-63971720D01*
X75888527Y-64018037D01*
X75823024Y-64053049D01*
X75747810Y-64093251D01*
X75692210Y-64138881D01*
X75624472Y-64194472D01*
X75599105Y-64225382D01*
X74385383Y-65439105D01*
X74354473Y-65464472D01*
X74329108Y-65495380D01*
X74253251Y-65587811D01*
X74178039Y-65728526D01*
X74178038Y-65728527D01*
X74131722Y-65881211D01*
X74131721Y-65881213D01*
X74116081Y-66040000D01*
X74120001Y-66079798D01*
X74120001Y-66988371D01*
X73910392Y-67160393D01*
X73731068Y-67378900D01*
X73660000Y-67511858D01*
X73588932Y-67378899D01*
X73409607Y-67160392D01*
X73191100Y-66981068D01*
X72941807Y-66847818D01*
X72671308Y-66765764D01*
X72390000Y-66738057D01*
X72108691Y-66765764D01*
X71838192Y-66847818D01*
X71588899Y-66981068D01*
X71370392Y-67160393D01*
X71277581Y-67273483D01*
X71275812Y-67255518D01*
X71239502Y-67135820D01*
X71180537Y-67025506D01*
X71101185Y-66928815D01*
X71004494Y-66849463D01*
X70894180Y-66790498D01*
X70774482Y-66754188D01*
X70650000Y-66741928D01*
X70135750Y-66745000D01*
X69977000Y-66903750D01*
X69977000Y-68453000D01*
X69997000Y-68453000D01*
X69997000Y-68707000D01*
X69977000Y-68707000D01*
X69977000Y-70256250D01*
X70135750Y-70415000D01*
X70650000Y-70418072D01*
X70774482Y-70405812D01*
X70894180Y-70369502D01*
X71004494Y-70310537D01*
X71101185Y-70231185D01*
X71180537Y-70134494D01*
X71239502Y-70024180D01*
X71275812Y-69904482D01*
X71277581Y-69886517D01*
X71370393Y-69999608D01*
X71588900Y-70178932D01*
X71838193Y-70312182D01*
X72108692Y-70394236D01*
X72390000Y-70421943D01*
X72671309Y-70394236D01*
X72941808Y-70312182D01*
X73191101Y-70178932D01*
X73409608Y-69999608D01*
X73588932Y-69781101D01*
X73660000Y-69648142D01*
X73731068Y-69781101D01*
X73910393Y-69999608D01*
X74128900Y-70178932D01*
X74378193Y-70312182D01*
X74648692Y-70394236D01*
X74930000Y-70421943D01*
X75211309Y-70394236D01*
X75481808Y-70312182D01*
X75731101Y-70178932D01*
X75949608Y-69999608D01*
X76128932Y-69781101D01*
X76200000Y-69648142D01*
X76271068Y-69781101D01*
X76450393Y-69999608D01*
X76660001Y-70171628D01*
X76660000Y-72350212D01*
X76656081Y-72390000D01*
X76660000Y-72429788D01*
X76660000Y-72429790D01*
X76671720Y-72548787D01*
X76718037Y-72701472D01*
X76753049Y-72766975D01*
X76793251Y-72842189D01*
X76809280Y-72861720D01*
X76894472Y-72965528D01*
X76925387Y-72990899D01*
X78139105Y-74204618D01*
X78164472Y-74235528D01*
X78232210Y-74291119D01*
X78287810Y-74336749D01*
X78340665Y-74365000D01*
X78428527Y-74411963D01*
X78581212Y-74458280D01*
X78700209Y-74470000D01*
X78700211Y-74470000D01*
X78739999Y-74473919D01*
X78779787Y-74470000D01*
X102314111Y-74470000D01*
X102068900Y-74601068D01*
X101850393Y-74780392D01*
X101671068Y-74998899D01*
X101537818Y-75248192D01*
X101455764Y-75518691D01*
X101435000Y-75729508D01*
X101435000Y-76670491D01*
X101455764Y-76881308D01*
X101537818Y-77151807D01*
X101671068Y-77401100D01*
X101850392Y-77619607D01*
X102068899Y-77798932D01*
X102314110Y-77930000D01*
X73699787Y-77930000D01*
X73659999Y-77926081D01*
X73620211Y-77930000D01*
X73620209Y-77930000D01*
X73501212Y-77941720D01*
X73348527Y-77988037D01*
X73299512Y-78014236D01*
X73207810Y-78063251D01*
X73152210Y-78108881D01*
X73084472Y-78164472D01*
X73059105Y-78195382D01*
X71845387Y-79409101D01*
X71814472Y-79434472D01*
X71744703Y-79519487D01*
X71713251Y-79557811D01*
X71673049Y-79633025D01*
X71638037Y-79698528D01*
X71591720Y-79851213D01*
X71580000Y-79970209D01*
X71576081Y-80010000D01*
X71580000Y-80049788D01*
X71580001Y-109180202D01*
X71576081Y-109220000D01*
X71590305Y-109364410D01*
X71591721Y-109378788D01*
X71638038Y-109531472D01*
X71638038Y-109531473D01*
X71713251Y-109672189D01*
X71767292Y-109738037D01*
X71814473Y-109795528D01*
X71845383Y-109820895D01*
X73059105Y-111034618D01*
X73084472Y-111065528D01*
X73152210Y-111121119D01*
X73207810Y-111166749D01*
X73283024Y-111206951D01*
X73348527Y-111241963D01*
X73501212Y-111288280D01*
X73620209Y-111300000D01*
X73620211Y-111300000D01*
X73659999Y-111303919D01*
X73699787Y-111300000D01*
X77430212Y-111300000D01*
X77470000Y-111303919D01*
X77509788Y-111300000D01*
X77509791Y-111300000D01*
X77628788Y-111288280D01*
X77781473Y-111241963D01*
X77922189Y-111166749D01*
X78045528Y-111065528D01*
X78070899Y-111034613D01*
X79284619Y-109820894D01*
X79315528Y-109795528D01*
X79371119Y-109727790D01*
X79416749Y-109672190D01*
X79491962Y-109531474D01*
X79491963Y-109531473D01*
X79538280Y-109378788D01*
X79550000Y-109259791D01*
X79550000Y-109259789D01*
X79553919Y-109220001D01*
X79550000Y-109180213D01*
X79550000Y-107946290D01*
X79576606Y-107932069D01*
X79804797Y-107744797D01*
X79992069Y-107516606D01*
X80010000Y-107483060D01*
X80027931Y-107516606D01*
X80215203Y-107744797D01*
X80443394Y-107932069D01*
X80703736Y-108071225D01*
X80986223Y-108156916D01*
X81206381Y-108178600D01*
X81353619Y-108178600D01*
X81573777Y-108156916D01*
X81856264Y-108071225D01*
X82116606Y-107932069D01*
X82344797Y-107744797D01*
X82532069Y-107516606D01*
X82550000Y-107483060D01*
X82567931Y-107516606D01*
X82755203Y-107744797D01*
X82983394Y-107932069D01*
X83243736Y-108071225D01*
X83526223Y-108156916D01*
X83746381Y-108178600D01*
X83893619Y-108178600D01*
X84113777Y-108156916D01*
X84396264Y-108071225D01*
X84656606Y-107932069D01*
X84884797Y-107744797D01*
X85072069Y-107516606D01*
X85090000Y-107483060D01*
X85107931Y-107516606D01*
X85295203Y-107744797D01*
X85523394Y-107932069D01*
X85783736Y-108071225D01*
X86066223Y-108156916D01*
X86286381Y-108178600D01*
X86433619Y-108178600D01*
X86653777Y-108156916D01*
X86936264Y-108071225D01*
X87196606Y-107932069D01*
X87424797Y-107744797D01*
X87612069Y-107516606D01*
X87630000Y-107483060D01*
X87647931Y-107516606D01*
X87835203Y-107744797D01*
X88063394Y-107932069D01*
X88323736Y-108071225D01*
X88606223Y-108156916D01*
X88826381Y-108178600D01*
X88973619Y-108178600D01*
X89193777Y-108156916D01*
X89476264Y-108071225D01*
X89736606Y-107932069D01*
X89964797Y-107744797D01*
X90152069Y-107516606D01*
X90170000Y-107483060D01*
X90187931Y-107516606D01*
X90375203Y-107744797D01*
X90603394Y-107932069D01*
X90863736Y-108071225D01*
X91146223Y-108156916D01*
X91366381Y-108178600D01*
X91513619Y-108178600D01*
X91733777Y-108156916D01*
X92016264Y-108071225D01*
X92276606Y-107932069D01*
X92504797Y-107744797D01*
X92692069Y-107516606D01*
X92710000Y-107483060D01*
X92727931Y-107516606D01*
X92915203Y-107744797D01*
X93143394Y-107932069D01*
X93403736Y-108071225D01*
X93686223Y-108156916D01*
X93906381Y-108178600D01*
X94053619Y-108178600D01*
X94273777Y-108156916D01*
X94556264Y-108071225D01*
X94816606Y-107932069D01*
X95044797Y-107744797D01*
X95232069Y-107516606D01*
X95246290Y-107490000D01*
X106640212Y-107490000D01*
X106680000Y-107493919D01*
X106719788Y-107490000D01*
X106719791Y-107490000D01*
X106838788Y-107478280D01*
X106991473Y-107431963D01*
X107132189Y-107356749D01*
X107255528Y-107255528D01*
X107280899Y-107224613D01*
X108494618Y-106010895D01*
X108525528Y-105985528D01*
X108581119Y-105917790D01*
X108626749Y-105862190D01*
X108701962Y-105721474D01*
X108701963Y-105721473D01*
X108748280Y-105568788D01*
X108760000Y-105449791D01*
X108760000Y-105449789D01*
X108763919Y-105410001D01*
X108760000Y-105370213D01*
X108760000Y-95571628D01*
X108969607Y-95399608D01*
X109148932Y-95181101D01*
X109220000Y-95048142D01*
X109291068Y-95181100D01*
X109470392Y-95399607D01*
X109688899Y-95578932D01*
X109938192Y-95712182D01*
X110208691Y-95794236D01*
X110490000Y-95821943D01*
X110771308Y-95794236D01*
X111041807Y-95712182D01*
X111291100Y-95578932D01*
X111509607Y-95399608D01*
X111688932Y-95181101D01*
X111760000Y-95048142D01*
X111831068Y-95181100D01*
X112010392Y-95399607D01*
X112220000Y-95571629D01*
X112220001Y-102713507D01*
X112053777Y-102663084D01*
X111833619Y-102641400D01*
X111686381Y-102641400D01*
X111466223Y-102663084D01*
X111183736Y-102748775D01*
X110923394Y-102887931D01*
X110695203Y-103075203D01*
X110507931Y-103303394D01*
X110368775Y-103563736D01*
X110283084Y-103846223D01*
X110254149Y-104140000D01*
X110283084Y-104433777D01*
X110368775Y-104716264D01*
X110507931Y-104976606D01*
X110695203Y-105204797D01*
X110923394Y-105392069D01*
X110956940Y-105410000D01*
X110923394Y-105427931D01*
X110695203Y-105615203D01*
X110507931Y-105843394D01*
X110368775Y-106103736D01*
X110283084Y-106386223D01*
X110254149Y-106680000D01*
X110283084Y-106973777D01*
X110368775Y-107256264D01*
X110507931Y-107516606D01*
X110695203Y-107744797D01*
X110923394Y-107932069D01*
X111183736Y-108071225D01*
X111466223Y-108156916D01*
X111686381Y-108178600D01*
X111833619Y-108178600D01*
X112053777Y-108156916D01*
X112336264Y-108071225D01*
X112596606Y-107932069D01*
X112824797Y-107744797D01*
X113012069Y-107516606D01*
X113030000Y-107483060D01*
X113047931Y-107516606D01*
X113235203Y-107744797D01*
X113463394Y-107932069D01*
X113723736Y-108071225D01*
X114006223Y-108156916D01*
X114226381Y-108178600D01*
X114373619Y-108178600D01*
X114593777Y-108156916D01*
X114876264Y-108071225D01*
X115136606Y-107932069D01*
X115364797Y-107744797D01*
X115552069Y-107516606D01*
X115570000Y-107483060D01*
X115587931Y-107516606D01*
X115775203Y-107744797D01*
X116003394Y-107932069D01*
X116263736Y-108071225D01*
X116546223Y-108156916D01*
X116766381Y-108178600D01*
X116913619Y-108178600D01*
X117133777Y-108156916D01*
X117416264Y-108071225D01*
X117676606Y-107932069D01*
X117904797Y-107744797D01*
X118092069Y-107516606D01*
X118110000Y-107483060D01*
X118127931Y-107516606D01*
X118315203Y-107744797D01*
X118543394Y-107932069D01*
X118803736Y-108071225D01*
X119086223Y-108156916D01*
X119306381Y-108178600D01*
X119453619Y-108178600D01*
X119673777Y-108156916D01*
X119956264Y-108071225D01*
X120216606Y-107932069D01*
X120444797Y-107744797D01*
X120632069Y-107516606D01*
X120650000Y-107483060D01*
X120667931Y-107516606D01*
X120855203Y-107744797D01*
X121083394Y-107932069D01*
X121343736Y-108071225D01*
X121626223Y-108156916D01*
X121846381Y-108178600D01*
X121993619Y-108178600D01*
X122213777Y-108156916D01*
X122496264Y-108071225D01*
X122756606Y-107932069D01*
X122984797Y-107744797D01*
X123172069Y-107516606D01*
X123190000Y-107483060D01*
X123207931Y-107516606D01*
X123395203Y-107744797D01*
X123623394Y-107932069D01*
X123883736Y-108071225D01*
X124166223Y-108156916D01*
X124386381Y-108178600D01*
X124533619Y-108178600D01*
X124753777Y-108156916D01*
X125036264Y-108071225D01*
X125296606Y-107932069D01*
X125524797Y-107744797D01*
X125712069Y-107516606D01*
X125730000Y-107483060D01*
X125747931Y-107516606D01*
X125935203Y-107744797D01*
X126163394Y-107932069D01*
X126423736Y-108071225D01*
X126706223Y-108156916D01*
X126926381Y-108178600D01*
X127073619Y-108178600D01*
X127293777Y-108156916D01*
X127576264Y-108071225D01*
X127836606Y-107932069D01*
X128064797Y-107744797D01*
X128252069Y-107516606D01*
X128270000Y-107483060D01*
X128287931Y-107516606D01*
X128475203Y-107744797D01*
X128703394Y-107932069D01*
X128963736Y-108071225D01*
X129246223Y-108156916D01*
X129466381Y-108178600D01*
X129613619Y-108178600D01*
X129833777Y-108156916D01*
X130116264Y-108071225D01*
X130376606Y-107932069D01*
X130604797Y-107744797D01*
X130792069Y-107516606D01*
X130931225Y-107256264D01*
X131016916Y-106973777D01*
X131045851Y-106680000D01*
X131016916Y-106386223D01*
X130931225Y-106103736D01*
X130792069Y-105843394D01*
X130604797Y-105615203D01*
X130596735Y-105608586D01*
X130647780Y-105593102D01*
X130758094Y-105534137D01*
X130854785Y-105454785D01*
X130934137Y-105358094D01*
X130993102Y-105247780D01*
X131029412Y-105128082D01*
X131041672Y-105003600D01*
X131041672Y-103276400D01*
X131029412Y-103151918D01*
X130993102Y-103032220D01*
X130934137Y-102921906D01*
X130854785Y-102825215D01*
X130758094Y-102745863D01*
X130647780Y-102686898D01*
X130528082Y-102650588D01*
X130403600Y-102638328D01*
X128676400Y-102638328D01*
X128551918Y-102650588D01*
X128432220Y-102686898D01*
X128321906Y-102745863D01*
X128225215Y-102825215D01*
X128145863Y-102921906D01*
X128086898Y-103032220D01*
X128071414Y-103083265D01*
X128064797Y-103075203D01*
X127836606Y-102887931D01*
X127576264Y-102748775D01*
X127293777Y-102663084D01*
X127073619Y-102641400D01*
X126926381Y-102641400D01*
X126706223Y-102663084D01*
X126540000Y-102713507D01*
X126540000Y-95571628D01*
X126749607Y-95399608D01*
X126928932Y-95181101D01*
X127000000Y-95048142D01*
X127071068Y-95181100D01*
X127250392Y-95399607D01*
X127468899Y-95578932D01*
X127718192Y-95712182D01*
X127988691Y-95794236D01*
X128270000Y-95821943D01*
X128551308Y-95794236D01*
X128821807Y-95712182D01*
X129071100Y-95578932D01*
X129289607Y-95399608D01*
X129468932Y-95181101D01*
X129540000Y-95048142D01*
X129611068Y-95181100D01*
X129790392Y-95399607D01*
X130008899Y-95578932D01*
X130258192Y-95712182D01*
X130528691Y-95794236D01*
X130810000Y-95821943D01*
X131091308Y-95794236D01*
X131361807Y-95712182D01*
X131611100Y-95578932D01*
X131829607Y-95399608D01*
X132008932Y-95181101D01*
X132080000Y-95048142D01*
X132151068Y-95181100D01*
X132330392Y-95399607D01*
X132548899Y-95578932D01*
X132798192Y-95712182D01*
X133068691Y-95794236D01*
X133350000Y-95821943D01*
X133631308Y-95794236D01*
X133901807Y-95712182D01*
X134151100Y-95578932D01*
X134369607Y-95399608D01*
X134548932Y-95181101D01*
X134620000Y-95048142D01*
X134691068Y-95181100D01*
X134870392Y-95399607D01*
X135088899Y-95578932D01*
X135338192Y-95712182D01*
X135608691Y-95794236D01*
X135890000Y-95821943D01*
X136171308Y-95794236D01*
X136441807Y-95712182D01*
X136691100Y-95578932D01*
X136909607Y-95399608D01*
X137088932Y-95181101D01*
X137222182Y-94931808D01*
X137304236Y-94661309D01*
X137325000Y-94450492D01*
X137325000Y-93509509D01*
X137304236Y-93298691D01*
X137222182Y-93028192D01*
X137088932Y-92778899D01*
X136909608Y-92560392D01*
X136691101Y-92381068D01*
X136445890Y-92250000D01*
X138390212Y-92250000D01*
X138430000Y-92253919D01*
X138469788Y-92250000D01*
X138469791Y-92250000D01*
X138588788Y-92238280D01*
X138741473Y-92191963D01*
X138882189Y-92116749D01*
X139005528Y-92015528D01*
X139030899Y-91984613D01*
X140208000Y-90807513D01*
X140208000Y-114309467D01*
X139933371Y-113991305D01*
X139598102Y-113729365D01*
X139218342Y-113537534D01*
X138808553Y-113423119D01*
X138384346Y-113390478D01*
X137961877Y-113440854D01*
X137557239Y-113572329D01*
X137185844Y-113779895D01*
X136861839Y-114055645D01*
X136597565Y-114389076D01*
X136403087Y-114767488D01*
X136285814Y-115176468D01*
X136250212Y-115600438D01*
X136297638Y-116023247D01*
X136426285Y-116428793D01*
X136631253Y-116801628D01*
X136904734Y-117127550D01*
X137178918Y-117348000D01*
X67294461Y-117348000D01*
X67586864Y-117106103D01*
X67855768Y-116776394D01*
X68055510Y-116400733D01*
X68178482Y-115993431D01*
X68220000Y-115570000D01*
X68219150Y-115509131D01*
X68165826Y-115087024D01*
X68031529Y-114683314D01*
X67821376Y-114313378D01*
X67543371Y-113991305D01*
X67208102Y-113729365D01*
X66828342Y-113537534D01*
X66418553Y-113423119D01*
X65994346Y-113390478D01*
X65571877Y-113440854D01*
X65167239Y-113572329D01*
X64795844Y-113779895D01*
X64471839Y-114055645D01*
X64262000Y-114320396D01*
X64262000Y-69780000D01*
X68411928Y-69780000D01*
X68424188Y-69904482D01*
X68460498Y-70024180D01*
X68519463Y-70134494D01*
X68598815Y-70231185D01*
X68695506Y-70310537D01*
X68805820Y-70369502D01*
X68925518Y-70405812D01*
X69050000Y-70418072D01*
X69564250Y-70415000D01*
X69723000Y-70256250D01*
X69723000Y-68707000D01*
X68573750Y-68707000D01*
X68415000Y-68865750D01*
X68411928Y-69780000D01*
X64262000Y-69780000D01*
X64262000Y-67380000D01*
X68411928Y-67380000D01*
X68415000Y-68294250D01*
X68573750Y-68453000D01*
X69723000Y-68453000D01*
X69723000Y-66903750D01*
X69564250Y-66745000D01*
X69050000Y-66741928D01*
X68925518Y-66754188D01*
X68805820Y-66790498D01*
X68695506Y-66849463D01*
X68598815Y-66928815D01*
X68519463Y-67025506D01*
X68460498Y-67135820D01*
X68424188Y-67255518D01*
X68411928Y-67380000D01*
X64262000Y-67380000D01*
X64262000Y-30466353D01*
X64514734Y-30767550D01*
X64846312Y-31034146D01*
X65223358Y-31231261D01*
X65631509Y-31351386D01*
X66055219Y-31389947D01*
X66478350Y-31345474D01*
X66884784Y-31219662D01*
X67259041Y-31017302D01*
X67586864Y-30746103D01*
X67855768Y-30416394D01*
X68055510Y-30040733D01*
X68178482Y-29633431D01*
X68220000Y-29210000D01*
X68219150Y-29149131D01*
X68165826Y-28727024D01*
X68031529Y-28323314D01*
X67821376Y-27953378D01*
X67543371Y-27631305D01*
X67288271Y-27432000D01*
X137171621Y-27432000D01*
X136861839Y-27695645D01*
G36*
X135080000Y-30815513D02*
G01*
X135080001Y-49291928D01*
X135039999Y-49291928D01*
X134866745Y-49308992D01*
X134700149Y-49359528D01*
X134546613Y-49441595D01*
X134412038Y-49552038D01*
X134301595Y-49686613D01*
X134219528Y-49840149D01*
X134168992Y-50006745D01*
X134151928Y-50179999D01*
X134151928Y-51420001D01*
X134168992Y-51593255D01*
X134219528Y-51759851D01*
X134301595Y-51913387D01*
X134412038Y-52047962D01*
X134546613Y-52158405D01*
X134656114Y-52216934D01*
X134590655Y-52270655D01*
X134402583Y-52499821D01*
X134262834Y-52761275D01*
X134176776Y-53044968D01*
X134147718Y-53340000D01*
X134176776Y-53635032D01*
X134262834Y-53918725D01*
X134402583Y-54180179D01*
X134590655Y-54409345D01*
X134819821Y-54597417D01*
X134843362Y-54610000D01*
X134819821Y-54622583D01*
X134590655Y-54810655D01*
X134402583Y-55039821D01*
X134262834Y-55301275D01*
X134176776Y-55584968D01*
X134147718Y-55880000D01*
X134176776Y-56175032D01*
X134262834Y-56458725D01*
X134402583Y-56720179D01*
X134590655Y-56949345D01*
X134819821Y-57137417D01*
X134847669Y-57152302D01*
X134711097Y-57241744D01*
X134499464Y-57449506D01*
X134332429Y-57694563D01*
X134216412Y-57967498D01*
X134198698Y-58059969D01*
X134319754Y-58293000D01*
X135763000Y-58293000D01*
X135763000Y-58273000D01*
X136017000Y-58273000D01*
X136017000Y-58293000D01*
X136037000Y-58293000D01*
X136037000Y-58547000D01*
X136017000Y-58547000D01*
X136017000Y-59770586D01*
X136254380Y-59926866D01*
X136545773Y-59871696D01*
X136820804Y-59760738D01*
X137068903Y-59598256D01*
X137280536Y-59390494D01*
X137447571Y-59145437D01*
X137563588Y-58872502D01*
X137581302Y-58780031D01*
X137460247Y-58547002D01*
X137620001Y-58547002D01*
X137620000Y-88564487D01*
X136824488Y-89360000D01*
X132765513Y-89360000D01*
X133894621Y-88230892D01*
X133925528Y-88205528D01*
X134026749Y-88082189D01*
X134101963Y-87941473D01*
X134148280Y-87788788D01*
X134160000Y-87669791D01*
X134160000Y-87669789D01*
X134163919Y-87630001D01*
X134160000Y-87590209D01*
X134160000Y-77791628D01*
X134369607Y-77619608D01*
X134462419Y-77506517D01*
X134464188Y-77524482D01*
X134500498Y-77644180D01*
X134559463Y-77754494D01*
X134638815Y-77851185D01*
X134735506Y-77930537D01*
X134845820Y-77989502D01*
X134965518Y-78025812D01*
X135090000Y-78038072D01*
X135604250Y-78035000D01*
X135763000Y-77876250D01*
X135763000Y-76327000D01*
X136017000Y-76327000D01*
X136017000Y-77876250D01*
X136175750Y-78035000D01*
X136690000Y-78038072D01*
X136814482Y-78025812D01*
X136934180Y-77989502D01*
X137044494Y-77930537D01*
X137141185Y-77851185D01*
X137220537Y-77754494D01*
X137279502Y-77644180D01*
X137315812Y-77524482D01*
X137328072Y-77400000D01*
X137325000Y-76485750D01*
X137166250Y-76327000D01*
X136017000Y-76327000D01*
X135763000Y-76327000D01*
X135743000Y-76327000D01*
X135743000Y-76073000D01*
X135763000Y-76073000D01*
X135763000Y-74523750D01*
X136017000Y-74523750D01*
X136017000Y-76073000D01*
X137166250Y-76073000D01*
X137325000Y-75914250D01*
X137328072Y-75000000D01*
X137315812Y-74875518D01*
X137279502Y-74755820D01*
X137220537Y-74645506D01*
X137141185Y-74548815D01*
X137044494Y-74469463D01*
X136934180Y-74410498D01*
X136814482Y-74374188D01*
X136690000Y-74361928D01*
X136175750Y-74365000D01*
X136017000Y-74523750D01*
X135763000Y-74523750D01*
X135604250Y-74365000D01*
X135090000Y-74361928D01*
X134965518Y-74374188D01*
X134845820Y-74410498D01*
X134735506Y-74469463D01*
X134638815Y-74548815D01*
X134559463Y-74645506D01*
X134500498Y-74755820D01*
X134464188Y-74875518D01*
X134462419Y-74893482D01*
X134369608Y-74780392D01*
X134151101Y-74601068D01*
X133901808Y-74467818D01*
X133631309Y-74385764D01*
X133350000Y-74358057D01*
X133068692Y-74385764D01*
X132798193Y-74467818D01*
X132548900Y-74601068D01*
X132330393Y-74780392D01*
X132151068Y-74998899D01*
X132080000Y-75131858D01*
X132008932Y-74998899D01*
X131829608Y-74780392D01*
X131611101Y-74601068D01*
X131361808Y-74467818D01*
X131091309Y-74385764D01*
X130810000Y-74358057D01*
X130528692Y-74385764D01*
X130258193Y-74467818D01*
X130008900Y-74601068D01*
X129790393Y-74780392D01*
X129611068Y-74998899D01*
X129540000Y-75131858D01*
X129468932Y-74998899D01*
X129289608Y-74780392D01*
X129071101Y-74601068D01*
X128821808Y-74467818D01*
X128551309Y-74385764D01*
X128270000Y-74358057D01*
X127988692Y-74385764D01*
X127718193Y-74467818D01*
X127468900Y-74601068D01*
X127250393Y-74780392D01*
X127071068Y-74998899D01*
X127000000Y-75131858D01*
X126928932Y-74998899D01*
X126749608Y-74780392D01*
X126531101Y-74601068D01*
X126281808Y-74467818D01*
X126011309Y-74385764D01*
X125730000Y-74358057D01*
X125448692Y-74385764D01*
X125178193Y-74467818D01*
X124928900Y-74601068D01*
X124710393Y-74780392D01*
X124531068Y-74998899D01*
X124460000Y-75131858D01*
X124388932Y-74998899D01*
X124209608Y-74780392D01*
X123991101Y-74601068D01*
X123741808Y-74467818D01*
X123471309Y-74385764D01*
X123190000Y-74358057D01*
X122908692Y-74385764D01*
X122638193Y-74467818D01*
X122388900Y-74601068D01*
X122170393Y-74780392D01*
X121991068Y-74998899D01*
X121920000Y-75131858D01*
X121848932Y-74998899D01*
X121669608Y-74780392D01*
X121451101Y-74601068D01*
X121201808Y-74467818D01*
X120931309Y-74385764D01*
X120650000Y-74358057D01*
X120368692Y-74385764D01*
X120098193Y-74467818D01*
X119848900Y-74601068D01*
X119630393Y-74780392D01*
X119451068Y-74998899D01*
X119380000Y-75131858D01*
X119308932Y-74998899D01*
X119129608Y-74780392D01*
X118911101Y-74601068D01*
X118661808Y-74467818D01*
X118391309Y-74385764D01*
X118110000Y-74358057D01*
X117828692Y-74385764D01*
X117558193Y-74467818D01*
X117308900Y-74601068D01*
X117090393Y-74780392D01*
X116911068Y-74998899D01*
X116840000Y-75131858D01*
X116768932Y-74998899D01*
X116589608Y-74780392D01*
X116371101Y-74601068D01*
X116121808Y-74467818D01*
X115901821Y-74401087D01*
X116022189Y-74336749D01*
X116145528Y-74235528D01*
X116170899Y-74204613D01*
X117384618Y-72990895D01*
X117415528Y-72965528D01*
X117471119Y-72897790D01*
X117516749Y-72842190D01*
X117591962Y-72701474D01*
X117591963Y-72701473D01*
X117638280Y-72548788D01*
X117650000Y-72429791D01*
X117650000Y-72429789D01*
X117653919Y-72390001D01*
X117650000Y-72350213D01*
X117650000Y-58780031D01*
X134198698Y-58780031D01*
X134216412Y-58872502D01*
X134332429Y-59145437D01*
X134499464Y-59390494D01*
X134711097Y-59598256D01*
X134959196Y-59760738D01*
X135234227Y-59871696D01*
X135525620Y-59926866D01*
X135763000Y-59770586D01*
X135763000Y-58547000D01*
X134319754Y-58547000D01*
X134198698Y-58780031D01*
X117650000Y-58780031D01*
X117650000Y-41906290D01*
X117676606Y-41892069D01*
X117904797Y-41704797D01*
X118092069Y-41476606D01*
X118110000Y-41443060D01*
X118127931Y-41476606D01*
X118315203Y-41704797D01*
X118543394Y-41892069D01*
X118803736Y-42031225D01*
X119086223Y-42116916D01*
X119306381Y-42138600D01*
X119453619Y-42138600D01*
X119673777Y-42116916D01*
X119956264Y-42031225D01*
X120216606Y-41892069D01*
X120444797Y-41704797D01*
X120632069Y-41476606D01*
X120650000Y-41443060D01*
X120667931Y-41476606D01*
X120855203Y-41704797D01*
X121083394Y-41892069D01*
X121343736Y-42031225D01*
X121626223Y-42116916D01*
X121846381Y-42138600D01*
X121993619Y-42138600D01*
X122213777Y-42116916D01*
X122496264Y-42031225D01*
X122756606Y-41892069D01*
X122984797Y-41704797D01*
X123172069Y-41476606D01*
X123190000Y-41443060D01*
X123207931Y-41476606D01*
X123395203Y-41704797D01*
X123623394Y-41892069D01*
X123883736Y-42031225D01*
X124166223Y-42116916D01*
X124386381Y-42138600D01*
X124533619Y-42138600D01*
X124753777Y-42116916D01*
X125036264Y-42031225D01*
X125296606Y-41892069D01*
X125524797Y-41704797D01*
X125712069Y-41476606D01*
X125730000Y-41443060D01*
X125747931Y-41476606D01*
X125935203Y-41704797D01*
X126163394Y-41892069D01*
X126423736Y-42031225D01*
X126706223Y-42116916D01*
X126926381Y-42138600D01*
X127073619Y-42138600D01*
X127293777Y-42116916D01*
X127576264Y-42031225D01*
X127836606Y-41892069D01*
X128064797Y-41704797D01*
X128252069Y-41476606D01*
X128270000Y-41443060D01*
X128287931Y-41476606D01*
X128475203Y-41704797D01*
X128703394Y-41892069D01*
X128963736Y-42031225D01*
X129246223Y-42116916D01*
X129466381Y-42138600D01*
X129613619Y-42138600D01*
X129833777Y-42116916D01*
X130116264Y-42031225D01*
X130376606Y-41892069D01*
X130604797Y-41704797D01*
X130792069Y-41476606D01*
X130931225Y-41216264D01*
X131016916Y-40933777D01*
X131045851Y-40640000D01*
X131016916Y-40346223D01*
X130931225Y-40063736D01*
X130792069Y-39803394D01*
X130604797Y-39575203D01*
X130376606Y-39387931D01*
X130343060Y-39370000D01*
X130376606Y-39352069D01*
X130604797Y-39164797D01*
X130792069Y-38936606D01*
X130931225Y-38676264D01*
X131016916Y-38393777D01*
X131045851Y-38100000D01*
X131016916Y-37806223D01*
X130931225Y-37523736D01*
X130792069Y-37263394D01*
X130604797Y-37035203D01*
X130376606Y-36847931D01*
X130116264Y-36708775D01*
X129833777Y-36623084D01*
X129613619Y-36601400D01*
X129466381Y-36601400D01*
X129246223Y-36623084D01*
X128963736Y-36708775D01*
X128703394Y-36847931D01*
X128475203Y-37035203D01*
X128287931Y-37263394D01*
X128270000Y-37296940D01*
X128252069Y-37263394D01*
X128064797Y-37035203D01*
X127836606Y-36847931D01*
X127576264Y-36708775D01*
X127293777Y-36623084D01*
X127073619Y-36601400D01*
X126926381Y-36601400D01*
X126706223Y-36623084D01*
X126423736Y-36708775D01*
X126163394Y-36847931D01*
X125935203Y-37035203D01*
X125747931Y-37263394D01*
X125730000Y-37296940D01*
X125712069Y-37263394D01*
X125524797Y-37035203D01*
X125296606Y-36847931D01*
X125270000Y-36833710D01*
X125270000Y-31789787D01*
X125273919Y-31749999D01*
X125270000Y-31710209D01*
X125258280Y-31591212D01*
X125211963Y-31438527D01*
X125165385Y-31351386D01*
X125136749Y-31297810D01*
X125060893Y-31205380D01*
X125035528Y-31174472D01*
X125004619Y-31149106D01*
X123875512Y-30020000D01*
X134284488Y-30020000D01*
X135080000Y-30815513D01*
X135080000Y-30815513D01*
G37*
X135080000Y-30815513D02*
X135080001Y-49291928D01*
X135039999Y-49291928D01*
X134866745Y-49308992D01*
X134700149Y-49359528D01*
X134546613Y-49441595D01*
X134412038Y-49552038D01*
X134301595Y-49686613D01*
X134219528Y-49840149D01*
X134168992Y-50006745D01*
X134151928Y-50179999D01*
X134151928Y-51420001D01*
X134168992Y-51593255D01*
X134219528Y-51759851D01*
X134301595Y-51913387D01*
X134412038Y-52047962D01*
X134546613Y-52158405D01*
X134656114Y-52216934D01*
X134590655Y-52270655D01*
X134402583Y-52499821D01*
X134262834Y-52761275D01*
X134176776Y-53044968D01*
X134147718Y-53340000D01*
X134176776Y-53635032D01*
X134262834Y-53918725D01*
X134402583Y-54180179D01*
X134590655Y-54409345D01*
X134819821Y-54597417D01*
X134843362Y-54610000D01*
X134819821Y-54622583D01*
X134590655Y-54810655D01*
X134402583Y-55039821D01*
X134262834Y-55301275D01*
X134176776Y-55584968D01*
X134147718Y-55880000D01*
X134176776Y-56175032D01*
X134262834Y-56458725D01*
X134402583Y-56720179D01*
X134590655Y-56949345D01*
X134819821Y-57137417D01*
X134847669Y-57152302D01*
X134711097Y-57241744D01*
X134499464Y-57449506D01*
X134332429Y-57694563D01*
X134216412Y-57967498D01*
X134198698Y-58059969D01*
X134319754Y-58293000D01*
X135763000Y-58293000D01*
X135763000Y-58273000D01*
X136017000Y-58273000D01*
X136017000Y-58293000D01*
X136037000Y-58293000D01*
X136037000Y-58547000D01*
X136017000Y-58547000D01*
X136017000Y-59770586D01*
X136254380Y-59926866D01*
X136545773Y-59871696D01*
X136820804Y-59760738D01*
X137068903Y-59598256D01*
X137280536Y-59390494D01*
X137447571Y-59145437D01*
X137563588Y-58872502D01*
X137581302Y-58780031D01*
X137460247Y-58547002D01*
X137620001Y-58547002D01*
X137620000Y-88564487D01*
X136824488Y-89360000D01*
X132765513Y-89360000D01*
X133894621Y-88230892D01*
X133925528Y-88205528D01*
X134026749Y-88082189D01*
X134101963Y-87941473D01*
X134148280Y-87788788D01*
X134160000Y-87669791D01*
X134160000Y-87669789D01*
X134163919Y-87630001D01*
X134160000Y-87590209D01*
X134160000Y-77791628D01*
X134369607Y-77619608D01*
X134462419Y-77506517D01*
X134464188Y-77524482D01*
X134500498Y-77644180D01*
X134559463Y-77754494D01*
X134638815Y-77851185D01*
X134735506Y-77930537D01*
X134845820Y-77989502D01*
X134965518Y-78025812D01*
X135090000Y-78038072D01*
X135604250Y-78035000D01*
X135763000Y-77876250D01*
X135763000Y-76327000D01*
X136017000Y-76327000D01*
X136017000Y-77876250D01*
X136175750Y-78035000D01*
X136690000Y-78038072D01*
X136814482Y-78025812D01*
X136934180Y-77989502D01*
X137044494Y-77930537D01*
X137141185Y-77851185D01*
X137220537Y-77754494D01*
X137279502Y-77644180D01*
X137315812Y-77524482D01*
X137328072Y-77400000D01*
X137325000Y-76485750D01*
X137166250Y-76327000D01*
X136017000Y-76327000D01*
X135763000Y-76327000D01*
X135743000Y-76327000D01*
X135743000Y-76073000D01*
X135763000Y-76073000D01*
X135763000Y-74523750D01*
X136017000Y-74523750D01*
X136017000Y-76073000D01*
X137166250Y-76073000D01*
X137325000Y-75914250D01*
X137328072Y-75000000D01*
X137315812Y-74875518D01*
X137279502Y-74755820D01*
X137220537Y-74645506D01*
X137141185Y-74548815D01*
X137044494Y-74469463D01*
X136934180Y-74410498D01*
X136814482Y-74374188D01*
X136690000Y-74361928D01*
X136175750Y-74365000D01*
X136017000Y-74523750D01*
X135763000Y-74523750D01*
X135604250Y-74365000D01*
X135090000Y-74361928D01*
X134965518Y-74374188D01*
X134845820Y-74410498D01*
X134735506Y-74469463D01*
X134638815Y-74548815D01*
X134559463Y-74645506D01*
X134500498Y-74755820D01*
X134464188Y-74875518D01*
X134462419Y-74893482D01*
X134369608Y-74780392D01*
X134151101Y-74601068D01*
X133901808Y-74467818D01*
X133631309Y-74385764D01*
X133350000Y-74358057D01*
X133068692Y-74385764D01*
X132798193Y-74467818D01*
X132548900Y-74601068D01*
X132330393Y-74780392D01*
X132151068Y-74998899D01*
X132080000Y-75131858D01*
X132008932Y-74998899D01*
X131829608Y-74780392D01*
X131611101Y-74601068D01*
X131361808Y-74467818D01*
X131091309Y-74385764D01*
X130810000Y-74358057D01*
X130528692Y-74385764D01*
X130258193Y-74467818D01*
X130008900Y-74601068D01*
X129790393Y-74780392D01*
X129611068Y-74998899D01*
X129540000Y-75131858D01*
X129468932Y-74998899D01*
X129289608Y-74780392D01*
X129071101Y-74601068D01*
X128821808Y-74467818D01*
X128551309Y-74385764D01*
X128270000Y-74358057D01*
X127988692Y-74385764D01*
X127718193Y-74467818D01*
X127468900Y-74601068D01*
X127250393Y-74780392D01*
X127071068Y-74998899D01*
X127000000Y-75131858D01*
X126928932Y-74998899D01*
X126749608Y-74780392D01*
X126531101Y-74601068D01*
X126281808Y-74467818D01*
X126011309Y-74385764D01*
X125730000Y-74358057D01*
X125448692Y-74385764D01*
X125178193Y-74467818D01*
X124928900Y-74601068D01*
X124710393Y-74780392D01*
X124531068Y-74998899D01*
X124460000Y-75131858D01*
X124388932Y-74998899D01*
X124209608Y-74780392D01*
X123991101Y-74601068D01*
X123741808Y-74467818D01*
X123471309Y-74385764D01*
X123190000Y-74358057D01*
X122908692Y-74385764D01*
X122638193Y-74467818D01*
X122388900Y-74601068D01*
X122170393Y-74780392D01*
X121991068Y-74998899D01*
X121920000Y-75131858D01*
X121848932Y-74998899D01*
X121669608Y-74780392D01*
X121451101Y-74601068D01*
X121201808Y-74467818D01*
X120931309Y-74385764D01*
X120650000Y-74358057D01*
X120368692Y-74385764D01*
X120098193Y-74467818D01*
X119848900Y-74601068D01*
X119630393Y-74780392D01*
X119451068Y-74998899D01*
X119380000Y-75131858D01*
X119308932Y-74998899D01*
X119129608Y-74780392D01*
X118911101Y-74601068D01*
X118661808Y-74467818D01*
X118391309Y-74385764D01*
X118110000Y-74358057D01*
X117828692Y-74385764D01*
X117558193Y-74467818D01*
X117308900Y-74601068D01*
X117090393Y-74780392D01*
X116911068Y-74998899D01*
X116840000Y-75131858D01*
X116768932Y-74998899D01*
X116589608Y-74780392D01*
X116371101Y-74601068D01*
X116121808Y-74467818D01*
X115901821Y-74401087D01*
X116022189Y-74336749D01*
X116145528Y-74235528D01*
X116170899Y-74204613D01*
X117384618Y-72990895D01*
X117415528Y-72965528D01*
X117471119Y-72897790D01*
X117516749Y-72842190D01*
X117591962Y-72701474D01*
X117591963Y-72701473D01*
X117638280Y-72548788D01*
X117650000Y-72429791D01*
X117650000Y-72429789D01*
X117653919Y-72390001D01*
X117650000Y-72350213D01*
X117650000Y-58780031D01*
X134198698Y-58780031D01*
X134216412Y-58872502D01*
X134332429Y-59145437D01*
X134499464Y-59390494D01*
X134711097Y-59598256D01*
X134959196Y-59760738D01*
X135234227Y-59871696D01*
X135525620Y-59926866D01*
X135763000Y-59770586D01*
X135763000Y-58547000D01*
X134319754Y-58547000D01*
X134198698Y-58780031D01*
X117650000Y-58780031D01*
X117650000Y-41906290D01*
X117676606Y-41892069D01*
X117904797Y-41704797D01*
X118092069Y-41476606D01*
X118110000Y-41443060D01*
X118127931Y-41476606D01*
X118315203Y-41704797D01*
X118543394Y-41892069D01*
X118803736Y-42031225D01*
X119086223Y-42116916D01*
X119306381Y-42138600D01*
X119453619Y-42138600D01*
X119673777Y-42116916D01*
X119956264Y-42031225D01*
X120216606Y-41892069D01*
X120444797Y-41704797D01*
X120632069Y-41476606D01*
X120650000Y-41443060D01*
X120667931Y-41476606D01*
X120855203Y-41704797D01*
X121083394Y-41892069D01*
X121343736Y-42031225D01*
X121626223Y-42116916D01*
X121846381Y-42138600D01*
X121993619Y-42138600D01*
X122213777Y-42116916D01*
X122496264Y-42031225D01*
X122756606Y-41892069D01*
X122984797Y-41704797D01*
X123172069Y-41476606D01*
X123190000Y-41443060D01*
X123207931Y-41476606D01*
X123395203Y-41704797D01*
X123623394Y-41892069D01*
X123883736Y-42031225D01*
X124166223Y-42116916D01*
X124386381Y-42138600D01*
X124533619Y-42138600D01*
X124753777Y-42116916D01*
X125036264Y-42031225D01*
X125296606Y-41892069D01*
X125524797Y-41704797D01*
X125712069Y-41476606D01*
X125730000Y-41443060D01*
X125747931Y-41476606D01*
X125935203Y-41704797D01*
X126163394Y-41892069D01*
X126423736Y-42031225D01*
X126706223Y-42116916D01*
X126926381Y-42138600D01*
X127073619Y-42138600D01*
X127293777Y-42116916D01*
X127576264Y-42031225D01*
X127836606Y-41892069D01*
X128064797Y-41704797D01*
X128252069Y-41476606D01*
X128270000Y-41443060D01*
X128287931Y-41476606D01*
X128475203Y-41704797D01*
X128703394Y-41892069D01*
X128963736Y-42031225D01*
X129246223Y-42116916D01*
X129466381Y-42138600D01*
X129613619Y-42138600D01*
X129833777Y-42116916D01*
X130116264Y-42031225D01*
X130376606Y-41892069D01*
X130604797Y-41704797D01*
X130792069Y-41476606D01*
X130931225Y-41216264D01*
X131016916Y-40933777D01*
X131045851Y-40640000D01*
X131016916Y-40346223D01*
X130931225Y-40063736D01*
X130792069Y-39803394D01*
X130604797Y-39575203D01*
X130376606Y-39387931D01*
X130343060Y-39370000D01*
X130376606Y-39352069D01*
X130604797Y-39164797D01*
X130792069Y-38936606D01*
X130931225Y-38676264D01*
X131016916Y-38393777D01*
X131045851Y-38100000D01*
X131016916Y-37806223D01*
X130931225Y-37523736D01*
X130792069Y-37263394D01*
X130604797Y-37035203D01*
X130376606Y-36847931D01*
X130116264Y-36708775D01*
X129833777Y-36623084D01*
X129613619Y-36601400D01*
X129466381Y-36601400D01*
X129246223Y-36623084D01*
X128963736Y-36708775D01*
X128703394Y-36847931D01*
X128475203Y-37035203D01*
X128287931Y-37263394D01*
X128270000Y-37296940D01*
X128252069Y-37263394D01*
X128064797Y-37035203D01*
X127836606Y-36847931D01*
X127576264Y-36708775D01*
X127293777Y-36623084D01*
X127073619Y-36601400D01*
X126926381Y-36601400D01*
X126706223Y-36623084D01*
X126423736Y-36708775D01*
X126163394Y-36847931D01*
X125935203Y-37035203D01*
X125747931Y-37263394D01*
X125730000Y-37296940D01*
X125712069Y-37263394D01*
X125524797Y-37035203D01*
X125296606Y-36847931D01*
X125270000Y-36833710D01*
X125270000Y-31789787D01*
X125273919Y-31749999D01*
X125270000Y-31710209D01*
X125258280Y-31591212D01*
X125211963Y-31438527D01*
X125165385Y-31351386D01*
X125136749Y-31297810D01*
X125060893Y-31205380D01*
X125035528Y-31174472D01*
X125004619Y-31149106D01*
X123875512Y-30020000D01*
X134284488Y-30020000D01*
X135080000Y-30815513D01*
M02*
