M48
; DRILL file {KiCad (5.1.5)-3} date 17/12/2020 10:26:49
; FORMAT={-:-/ absolute / metric / decimal}
; #@! TF.CreationDate,2020-12-17T10:26:49+01:00
; #@! TF.GenerationSoftware,Kicad,Pcbnew,(5.1.5)-3
FMAT,2
METRIC
T1C0.750
T2C0.800
T3C1.000
T4C1.016
T5C1.100
T6C1.200
T7C1.520
T8C1.600
T9C3.500
%
G90
G05
T1
X220.98Y-109.22
X220.98Y-110.49
X220.98Y-111.76
X220.98Y-125.73
X220.98Y-127.0
X220.98Y-128.27
T2
X205.74Y-114.3
X213.36Y-114.3
X60.96Y-116.84
X60.96Y-119.38
X60.96Y-121.92
X60.96Y-124.46
X60.96Y-127.0
X60.96Y-129.54
X60.96Y-132.08
X60.96Y-134.62
X60.96Y-137.16
X139.7Y-104.14
X139.7Y-106.68
X139.7Y-109.22
X139.7Y-111.76
X139.7Y-114.3
X139.7Y-116.84
X139.7Y-119.38
X139.7Y-121.92
X139.7Y-124.46
X139.7Y-127.0
X139.7Y-129.54
X139.7Y-132.08
X139.7Y-134.62
X139.7Y-137.16
X147.32Y-104.14
X147.32Y-106.68
X147.32Y-109.22
X147.32Y-111.76
X147.32Y-114.3
X147.32Y-116.84
X147.32Y-119.38
X147.32Y-121.92
X147.32Y-124.46
X147.32Y-127.0
X147.32Y-129.54
X147.32Y-132.08
X147.32Y-134.62
X147.32Y-137.16
X83.82Y-54.61
X83.82Y-57.15
X83.82Y-59.69
X83.82Y-62.23
X83.82Y-64.77
X83.82Y-67.31
X83.82Y-69.85
X83.82Y-72.39
X83.82Y-74.93
X132.08Y-54.61
X132.08Y-57.15
X132.08Y-59.69
X132.08Y-62.23
X132.08Y-64.77
X132.08Y-67.31
X132.08Y-69.85
X132.08Y-72.39
X132.08Y-74.93
X190.5Y-54.61
X190.5Y-57.15
X190.5Y-59.69
X190.5Y-62.23
X190.5Y-64.77
X190.5Y-67.31
X190.5Y-69.85
X190.5Y-72.39
X190.5Y-74.93
X132.08Y-116.84
X132.08Y-119.38
X132.08Y-121.92
X132.08Y-124.46
X132.08Y-127.0
X132.08Y-129.54
X132.08Y-132.08
X132.08Y-134.62
X132.08Y-137.16
X96.52Y-116.84
X96.52Y-119.38
X96.52Y-121.92
X96.52Y-124.46
X96.52Y-127.0
X96.52Y-129.54
X96.52Y-132.08
X96.52Y-134.62
X96.52Y-137.16
X205.74Y-106.68
X213.36Y-106.68
X68.58Y-104.14
X68.58Y-106.68
X68.58Y-109.22
X68.58Y-111.76
X68.58Y-114.3
X68.58Y-116.84
X68.58Y-119.38
X68.58Y-121.92
X68.58Y-124.46
X68.58Y-127.0
X68.58Y-129.54
X68.58Y-132.08
X68.58Y-134.62
X68.58Y-137.16
X76.2Y-104.14
X76.2Y-106.68
X76.2Y-109.22
X76.2Y-111.76
X76.2Y-114.3
X76.2Y-116.84
X76.2Y-119.38
X76.2Y-121.92
X76.2Y-124.46
X76.2Y-127.0
X76.2Y-129.54
X76.2Y-132.08
X76.2Y-134.62
X76.2Y-137.16
X96.52Y-54.61
X96.52Y-57.15
X96.52Y-59.69
X96.52Y-62.23
X96.52Y-64.77
X96.52Y-67.31
X96.52Y-69.85
X96.52Y-72.39
X96.52Y-74.93
X167.64Y-116.84
X167.64Y-119.38
X167.64Y-121.92
X167.64Y-124.46
X167.64Y-127.0
X167.64Y-129.54
X167.64Y-132.08
X167.64Y-134.62
X167.64Y-137.16
X167.64Y-54.61
X167.64Y-57.15
X167.64Y-59.69
X167.64Y-62.23
X167.64Y-64.77
X167.64Y-67.31
X167.64Y-69.85
X167.64Y-72.39
X167.64Y-74.93
X212.09Y-53.42
X212.09Y-58.42
X104.14Y-104.14
X104.14Y-106.68
X104.14Y-109.22
X104.14Y-111.76
X104.14Y-114.3
X104.14Y-116.84
X104.14Y-119.38
X104.14Y-121.92
X104.14Y-124.46
X104.14Y-127.0
X104.14Y-129.54
X104.14Y-132.08
X104.14Y-134.62
X104.14Y-137.16
X111.76Y-104.14
X111.76Y-106.68
X111.76Y-109.22
X111.76Y-111.76
X111.76Y-114.3
X111.76Y-116.84
X111.76Y-119.38
X111.76Y-121.92
X111.76Y-124.46
X111.76Y-127.0
X111.76Y-129.54
X111.76Y-132.08
X111.76Y-134.62
X111.76Y-137.16
X175.26Y-104.14
X175.26Y-106.68
X175.26Y-109.22
X175.26Y-111.76
X175.26Y-114.3
X175.26Y-116.84
X175.26Y-119.38
X175.26Y-121.92
X175.26Y-124.46
X175.26Y-127.0
X175.26Y-129.54
X175.26Y-132.08
X175.26Y-134.62
X175.26Y-137.16
X182.88Y-104.14
X182.88Y-106.68
X182.88Y-109.22
X182.88Y-111.76
X182.88Y-114.3
X182.88Y-116.84
X182.88Y-119.38
X182.88Y-121.92
X182.88Y-124.46
X182.88Y-127.0
X182.88Y-129.54
X182.88Y-132.08
X182.88Y-134.62
X182.88Y-137.16
X68.58Y-54.61
X68.58Y-57.15
X68.58Y-59.69
X68.58Y-62.23
X68.58Y-64.77
X68.58Y-67.31
X68.58Y-69.85
X68.58Y-72.39
X68.58Y-74.93
X68.58Y-77.47
X68.58Y-80.01
X68.58Y-82.55
X68.58Y-85.09
X68.58Y-87.63
X76.2Y-54.61
X76.2Y-57.15
X76.2Y-59.69
X76.2Y-62.23
X76.2Y-64.77
X76.2Y-67.31
X76.2Y-69.85
X76.2Y-72.39
X76.2Y-74.93
X76.2Y-77.47
X76.2Y-80.01
X76.2Y-82.55
X76.2Y-85.09
X76.2Y-87.63
X154.94Y-54.61
X154.94Y-57.15
X154.94Y-59.69
X154.94Y-62.23
X154.94Y-64.77
X154.94Y-67.31
X154.94Y-69.85
X154.94Y-72.39
X154.94Y-74.93
X83.82Y-116.84
X83.82Y-119.38
X83.82Y-121.92
X83.82Y-124.46
X83.82Y-127.0
X83.82Y-129.54
X83.82Y-132.08
X83.82Y-134.62
X83.82Y-137.16
X139.7Y-54.61
X139.7Y-57.15
X139.7Y-59.69
X139.7Y-62.23
X139.7Y-64.77
X139.7Y-67.31
X139.7Y-69.85
X139.7Y-72.39
X139.7Y-74.93
X139.7Y-77.47
X139.7Y-80.01
X139.7Y-82.55
X139.7Y-85.09
X139.7Y-87.63
X147.32Y-54.61
X147.32Y-57.15
X147.32Y-59.69
X147.32Y-62.23
X147.32Y-64.77
X147.32Y-67.31
X147.32Y-69.85
X147.32Y-72.39
X147.32Y-74.93
X147.32Y-77.47
X147.32Y-80.01
X147.32Y-82.55
X147.32Y-85.09
X147.32Y-87.63
X190.5Y-116.84
X190.5Y-119.38
X190.5Y-121.92
X190.5Y-124.46
X190.5Y-127.0
X190.5Y-129.54
X190.5Y-132.08
X190.5Y-134.62
X190.5Y-137.16
X119.38Y-116.84
X119.38Y-119.38
X119.38Y-121.92
X119.38Y-124.46
X119.38Y-127.0
X119.38Y-129.54
X119.38Y-132.08
X119.38Y-134.62
X119.38Y-137.16
X218.48Y-58.42
X220.98Y-58.42
X175.26Y-54.61
X175.26Y-57.15
X175.26Y-59.69
X175.26Y-62.23
X175.26Y-64.77
X175.26Y-67.31
X175.26Y-69.85
X175.26Y-72.39
X175.26Y-74.93
X175.26Y-77.47
X175.26Y-80.01
X175.26Y-82.55
X175.26Y-85.09
X175.26Y-87.63
X182.88Y-54.61
X182.88Y-57.15
X182.88Y-59.69
X182.88Y-62.23
X182.88Y-64.77
X182.88Y-67.31
X182.88Y-69.85
X182.88Y-72.39
X182.88Y-74.93
X182.88Y-77.47
X182.88Y-80.01
X182.88Y-82.55
X182.88Y-85.09
X182.88Y-87.63
X104.14Y-54.61
X104.14Y-57.15
X104.14Y-59.69
X104.14Y-62.23
X104.14Y-64.77
X104.14Y-67.31
X104.14Y-69.85
X104.14Y-72.39
X104.14Y-74.93
X104.14Y-77.47
X104.14Y-80.01
X104.14Y-82.55
X104.14Y-85.09
X104.14Y-87.63
X111.76Y-54.61
X111.76Y-57.15
X111.76Y-59.69
X111.76Y-62.23
X111.76Y-64.77
X111.76Y-67.31
X111.76Y-69.85
X111.76Y-72.39
X111.76Y-74.93
X111.76Y-77.47
X111.76Y-80.01
X111.76Y-82.55
X111.76Y-85.09
X111.76Y-87.63
X154.94Y-116.84
X154.94Y-119.38
X154.94Y-121.92
X154.94Y-124.46
X154.94Y-127.0
X154.94Y-129.54
X154.94Y-132.08
X154.94Y-134.62
X154.94Y-137.16
X119.38Y-54.61
X119.38Y-57.15
X119.38Y-59.69
X119.38Y-62.23
X119.38Y-64.77
X119.38Y-67.31
X119.38Y-69.85
X119.38Y-72.39
X119.38Y-74.93
X203.2Y-58.42
X205.7Y-58.42
X205.74Y-123.19
X213.36Y-123.19
X236.22Y-53.34
X236.22Y-60.96
X205.74Y-130.81
X213.36Y-130.81
X60.96Y-54.61
X60.96Y-57.15
X60.96Y-59.69
X60.96Y-62.23
X60.96Y-64.77
X60.96Y-67.31
X60.96Y-69.85
X60.96Y-72.39
X60.96Y-74.93
X228.6Y-53.34
X228.6Y-60.96
T3
X187.96Y-87.63
X190.5Y-87.63
X193.04Y-87.63
X93.98Y-87.63
X96.52Y-87.63
X99.06Y-87.63
X81.28Y-87.63
X83.82Y-87.63
X86.36Y-87.63
X165.1Y-87.63
X167.64Y-87.63
X170.18Y-87.63
X152.4Y-87.63
X154.94Y-87.63
X157.48Y-87.63
X116.84Y-87.63
X119.38Y-87.63
X121.92Y-87.63
X93.98Y-104.14
X96.52Y-104.14
X99.06Y-104.14
X129.54Y-104.14
X132.08Y-104.14
X134.62Y-104.14
X165.1Y-104.14
X167.64Y-104.14
X170.18Y-104.14
X58.42Y-104.14
X60.96Y-104.14
X63.5Y-104.14
X58.42Y-87.63
X60.96Y-87.63
X63.5Y-87.63
X152.4Y-104.14
X154.94Y-104.14
X157.48Y-104.14
X81.28Y-104.14
X83.82Y-104.14
X86.36Y-104.14
X129.54Y-87.63
X132.08Y-87.63
X134.62Y-87.63
X187.96Y-104.14
X190.5Y-104.14
X193.04Y-104.14
X116.84Y-104.14
X119.38Y-104.14
X121.92Y-104.14
T4
X167.64Y-43.18
X167.64Y-45.72
X170.18Y-43.18
X170.18Y-45.72
X172.72Y-43.18
X172.72Y-45.72
X175.26Y-43.18
X175.26Y-45.72
X177.8Y-43.18
X177.8Y-45.72
X180.34Y-43.18
X180.34Y-45.72
X182.88Y-43.18
X182.88Y-45.72
X185.42Y-43.18
X185.42Y-45.72
X187.96Y-43.18
X187.96Y-45.72
X190.5Y-43.18
X190.5Y-45.72
X96.52Y-43.18
X96.52Y-45.72
X99.06Y-43.18
X99.06Y-45.72
X101.6Y-43.18
X101.6Y-45.72
X104.14Y-43.18
X104.14Y-45.72
X106.68Y-43.18
X106.68Y-45.72
X109.22Y-43.18
X109.22Y-45.72
X111.76Y-43.18
X111.76Y-45.72
X114.3Y-43.18
X114.3Y-45.72
X116.84Y-43.18
X116.84Y-45.72
X119.38Y-43.18
X119.38Y-45.72
X60.96Y-146.05
X60.96Y-148.59
X63.5Y-146.05
X63.5Y-148.59
X66.04Y-146.05
X66.04Y-148.59
X68.58Y-146.05
X68.58Y-148.59
X71.12Y-146.05
X71.12Y-148.59
X73.66Y-146.05
X73.66Y-148.59
X76.2Y-146.05
X76.2Y-148.59
X78.74Y-146.05
X78.74Y-148.59
X81.28Y-146.05
X81.28Y-148.59
X83.82Y-146.05
X83.82Y-148.59
X238.76Y-93.98
X238.76Y-96.52
X238.76Y-99.06
X238.76Y-101.6
X238.76Y-104.14
X238.76Y-106.68
X238.76Y-109.22
X238.76Y-111.76
X238.76Y-114.3
X238.76Y-116.84
X238.76Y-119.38
X238.76Y-121.92
X238.76Y-124.46
X238.76Y-127.0
X238.76Y-129.54
X238.76Y-132.08
X238.76Y-134.62
X238.76Y-137.16
X238.76Y-139.7
X238.76Y-142.24
X241.3Y-93.98
X241.3Y-96.52
X241.3Y-99.06
X241.3Y-101.6
X241.3Y-104.14
X241.3Y-106.68
X241.3Y-109.22
X241.3Y-111.76
X241.3Y-114.3
X241.3Y-116.84
X241.3Y-119.38
X241.3Y-121.92
X241.3Y-124.46
X241.3Y-127.0
X241.3Y-129.54
X241.3Y-132.08
X241.3Y-134.62
X241.3Y-137.16
X241.3Y-139.7
X241.3Y-142.24
X167.64Y-146.05
X167.64Y-148.59
X170.18Y-146.05
X170.18Y-148.59
X172.72Y-146.05
X172.72Y-148.59
X175.26Y-146.05
X175.26Y-148.59
X177.8Y-146.05
X177.8Y-148.59
X180.34Y-146.05
X180.34Y-148.59
X182.88Y-146.05
X182.88Y-148.59
X185.42Y-146.05
X185.42Y-148.59
X187.96Y-146.05
X187.96Y-148.59
X190.5Y-146.05
X190.5Y-148.59
X132.08Y-43.18
X132.08Y-45.72
X134.62Y-43.18
X134.62Y-45.72
X137.16Y-43.18
X137.16Y-45.72
X139.7Y-43.18
X139.7Y-45.72
X142.24Y-43.18
X142.24Y-45.72
X144.78Y-43.18
X144.78Y-45.72
X147.32Y-43.18
X147.32Y-45.72
X149.86Y-43.18
X149.86Y-45.72
X152.4Y-43.18
X152.4Y-45.72
X154.94Y-43.18
X154.94Y-45.72
X132.08Y-146.05
X132.08Y-148.59
X134.62Y-146.05
X134.62Y-148.59
X137.16Y-146.05
X137.16Y-148.59
X139.7Y-146.05
X139.7Y-148.59
X142.24Y-146.05
X142.24Y-148.59
X144.78Y-146.05
X144.78Y-148.59
X147.32Y-146.05
X147.32Y-148.59
X149.86Y-146.05
X149.86Y-148.59
X152.4Y-146.05
X152.4Y-148.59
X154.94Y-146.05
X154.94Y-148.59
X60.96Y-43.18
X60.96Y-45.72
X63.5Y-43.18
X63.5Y-45.72
X66.04Y-43.18
X66.04Y-45.72
X68.58Y-43.18
X68.58Y-45.72
X71.12Y-43.18
X71.12Y-45.72
X73.66Y-43.18
X73.66Y-45.72
X76.2Y-43.18
X76.2Y-45.72
X78.74Y-43.18
X78.74Y-45.72
X81.28Y-43.18
X81.28Y-45.72
X83.82Y-43.18
X83.82Y-45.72
X96.52Y-146.05
X96.52Y-148.59
X99.06Y-146.05
X99.06Y-148.59
X101.6Y-146.05
X101.6Y-148.59
X104.14Y-146.05
X104.14Y-148.59
X106.68Y-146.05
X106.68Y-148.59
X109.22Y-146.05
X109.22Y-148.59
X111.76Y-146.05
X111.76Y-148.59
X114.3Y-146.05
X114.3Y-148.59
X116.84Y-146.05
X116.84Y-148.59
X119.38Y-146.05
X119.38Y-148.59
T5
X223.52Y-68.58
X226.06Y-68.58
X228.6Y-68.58
X203.2Y-68.58
X205.74Y-68.58
X208.28Y-68.58
T6
X201.93Y-154.94
X204.47Y-154.94
X207.01Y-154.94
X209.55Y-154.94
X217.17Y-154.94
X219.71Y-154.94
X222.25Y-154.94
X224.79Y-154.94
X201.93Y-143.51
X204.47Y-143.51
X207.01Y-143.51
X209.55Y-143.51
X217.17Y-143.51
X219.71Y-143.51
X222.25Y-143.51
X224.79Y-143.51
T7
X208.28Y-43.18
X213.36Y-43.18
X218.44Y-43.18
T8
X230.22Y-43.18
X233.22Y-38.48
X236.22Y-43.18
T9
X226.06Y-85.24
X205.74Y-85.24
T0
M30
