G04 #@! TF.GenerationSoftware,KiCad,Pcbnew,(5.1.5)-3*
G04 #@! TF.CreationDate,2020-12-21T10:53:16+01:00*
G04 #@! TF.ProjectId,FGINT-V4-MASTER-128,4647494e-542d-4563-942d-4d4153544552,rev?*
G04 #@! TF.SameCoordinates,Original*
G04 #@! TF.FileFunction,Legend,Top*
G04 #@! TF.FilePolarity,Positive*
%FSLAX46Y46*%
G04 Gerber Fmt 4.6, Leading zero omitted, Abs format (unit mm)*
G04 Created by KiCad (PCBNEW (5.1.5)-3) date 2020-12-21 10:53:16*
%MOMM*%
%LPD*%
G04 APERTURE LIST*
%ADD10C,0.150000*%
%ADD11C,0.120000*%
G04 APERTURE END LIST*
D10*
X253577619Y-91837380D02*
X253577619Y-91265952D01*
X253577619Y-91551666D02*
X254577619Y-91551666D01*
X254434761Y-91456428D01*
X254339523Y-91361190D01*
X254291904Y-91265952D01*
X254482380Y-92218333D02*
X254530000Y-92265952D01*
X254577619Y-92361190D01*
X254577619Y-92599285D01*
X254530000Y-92694523D01*
X254482380Y-92742142D01*
X254387142Y-92789761D01*
X254291904Y-92789761D01*
X254149047Y-92742142D01*
X253577619Y-92170714D01*
X253577619Y-92789761D01*
X254149047Y-93361190D02*
X254196666Y-93265952D01*
X254244285Y-93218333D01*
X254339523Y-93170714D01*
X254387142Y-93170714D01*
X254482380Y-93218333D01*
X254530000Y-93265952D01*
X254577619Y-93361190D01*
X254577619Y-93551666D01*
X254530000Y-93646904D01*
X254482380Y-93694523D01*
X254387142Y-93742142D01*
X254339523Y-93742142D01*
X254244285Y-93694523D01*
X254196666Y-93646904D01*
X254149047Y-93551666D01*
X254149047Y-93361190D01*
X254101428Y-93265952D01*
X254053809Y-93218333D01*
X253958571Y-93170714D01*
X253768095Y-93170714D01*
X253672857Y-93218333D01*
X253625238Y-93265952D01*
X253577619Y-93361190D01*
X253577619Y-93551666D01*
X253625238Y-93646904D01*
X253672857Y-93694523D01*
X253768095Y-93742142D01*
X253958571Y-93742142D01*
X254053809Y-93694523D01*
X254101428Y-93646904D01*
X254149047Y-93551666D01*
X253625238Y-94218333D02*
X253577619Y-94218333D01*
X253482380Y-94170714D01*
X253434761Y-94123095D01*
X254482380Y-94599285D02*
X254530000Y-94646904D01*
X254577619Y-94742142D01*
X254577619Y-94980238D01*
X254530000Y-95075476D01*
X254482380Y-95123095D01*
X254387142Y-95170714D01*
X254291904Y-95170714D01*
X254149047Y-95123095D01*
X253577619Y-94551666D01*
X253577619Y-95170714D01*
X254577619Y-95504047D02*
X254577619Y-96170714D01*
X253577619Y-95742142D01*
X254577619Y-96742142D02*
X254577619Y-96837380D01*
X254530000Y-96932619D01*
X254482380Y-96980238D01*
X254387142Y-97027857D01*
X254196666Y-97075476D01*
X253958571Y-97075476D01*
X253768095Y-97027857D01*
X253672857Y-96980238D01*
X253625238Y-96932619D01*
X253577619Y-96837380D01*
X253577619Y-96742142D01*
X253625238Y-96646904D01*
X253672857Y-96599285D01*
X253768095Y-96551666D01*
X253958571Y-96504047D01*
X254196666Y-96504047D01*
X254387142Y-96551666D01*
X254482380Y-96599285D01*
X254530000Y-96646904D01*
X254577619Y-96742142D01*
X253577619Y-98265952D02*
X254244285Y-98265952D01*
X254149047Y-98265952D02*
X254196666Y-98313571D01*
X254244285Y-98408809D01*
X254244285Y-98551666D01*
X254196666Y-98646904D01*
X254101428Y-98694523D01*
X253577619Y-98694523D01*
X254101428Y-98694523D02*
X254196666Y-98742142D01*
X254244285Y-98837380D01*
X254244285Y-98980238D01*
X254196666Y-99075476D01*
X254101428Y-99123095D01*
X253577619Y-99123095D01*
X253577619Y-99599285D02*
X254244285Y-99599285D01*
X254149047Y-99599285D02*
X254196666Y-99646904D01*
X254244285Y-99742142D01*
X254244285Y-99885000D01*
X254196666Y-99980238D01*
X254101428Y-100027857D01*
X253577619Y-100027857D01*
X254101428Y-100027857D02*
X254196666Y-100075476D01*
X254244285Y-100170714D01*
X254244285Y-100313571D01*
X254196666Y-100408809D01*
X254101428Y-100456428D01*
X253577619Y-100456428D01*
X252730000Y-31750000D02*
X252730000Y-160020000D01*
X250190000Y-31750000D02*
X253316421Y-31750000D01*
X250190000Y-160020000D02*
X253316421Y-160020000D01*
X252730000Y-160020000D02*
X252143579Y-158893496D01*
X252730000Y-160020000D02*
X253316421Y-158893496D01*
X252730000Y-31750000D02*
X252143579Y-32876504D01*
X252730000Y-31750000D02*
X253316421Y-32876504D01*
X142065952Y-26187619D02*
X142113571Y-26140000D01*
X142208809Y-26092380D01*
X142446904Y-26092380D01*
X142542142Y-26140000D01*
X142589761Y-26187619D01*
X142637380Y-26282857D01*
X142637380Y-26378095D01*
X142589761Y-26520952D01*
X142018333Y-27092380D01*
X142637380Y-27092380D01*
X143256428Y-26092380D02*
X143351666Y-26092380D01*
X143446904Y-26140000D01*
X143494523Y-26187619D01*
X143542142Y-26282857D01*
X143589761Y-26473333D01*
X143589761Y-26711428D01*
X143542142Y-26901904D01*
X143494523Y-26997142D01*
X143446904Y-27044761D01*
X143351666Y-27092380D01*
X143256428Y-27092380D01*
X143161190Y-27044761D01*
X143113571Y-26997142D01*
X143065952Y-26901904D01*
X143018333Y-26711428D01*
X143018333Y-26473333D01*
X143065952Y-26282857D01*
X143113571Y-26187619D01*
X143161190Y-26140000D01*
X143256428Y-26092380D01*
X143923095Y-26092380D02*
X144589761Y-26092380D01*
X144161190Y-27092380D01*
X145018333Y-27044761D02*
X145018333Y-27092380D01*
X144970714Y-27187619D01*
X144923095Y-27235238D01*
X145637380Y-26092380D02*
X145732619Y-26092380D01*
X145827857Y-26140000D01*
X145875476Y-26187619D01*
X145923095Y-26282857D01*
X145970714Y-26473333D01*
X145970714Y-26711428D01*
X145923095Y-26901904D01*
X145875476Y-26997142D01*
X145827857Y-27044761D01*
X145732619Y-27092380D01*
X145637380Y-27092380D01*
X145542142Y-27044761D01*
X145494523Y-26997142D01*
X145446904Y-26901904D01*
X145399285Y-26711428D01*
X145399285Y-26473333D01*
X145446904Y-26282857D01*
X145494523Y-26187619D01*
X145542142Y-26140000D01*
X145637380Y-26092380D01*
X146923095Y-27092380D02*
X146351666Y-27092380D01*
X146637380Y-27092380D02*
X146637380Y-26092380D01*
X146542142Y-26235238D01*
X146446904Y-26330476D01*
X146351666Y-26378095D01*
X147542142Y-26092380D02*
X147637380Y-26092380D01*
X147732619Y-26140000D01*
X147780238Y-26187619D01*
X147827857Y-26282857D01*
X147875476Y-26473333D01*
X147875476Y-26711428D01*
X147827857Y-26901904D01*
X147780238Y-26997142D01*
X147732619Y-27044761D01*
X147637380Y-27092380D01*
X147542142Y-27092380D01*
X147446904Y-27044761D01*
X147399285Y-26997142D01*
X147351666Y-26901904D01*
X147304047Y-26711428D01*
X147304047Y-26473333D01*
X147351666Y-26282857D01*
X147399285Y-26187619D01*
X147446904Y-26140000D01*
X147542142Y-26092380D01*
X149065952Y-27092380D02*
X149065952Y-26425714D01*
X149065952Y-26520952D02*
X149113571Y-26473333D01*
X149208809Y-26425714D01*
X149351666Y-26425714D01*
X149446904Y-26473333D01*
X149494523Y-26568571D01*
X149494523Y-27092380D01*
X149494523Y-26568571D02*
X149542142Y-26473333D01*
X149637380Y-26425714D01*
X149780238Y-26425714D01*
X149875476Y-26473333D01*
X149923095Y-26568571D01*
X149923095Y-27092380D01*
X150399285Y-27092380D02*
X150399285Y-26425714D01*
X150399285Y-26520952D02*
X150446904Y-26473333D01*
X150542142Y-26425714D01*
X150685000Y-26425714D01*
X150780238Y-26473333D01*
X150827857Y-26568571D01*
X150827857Y-27092380D01*
X150827857Y-26568571D02*
X150875476Y-26473333D01*
X150970714Y-26425714D01*
X151113571Y-26425714D01*
X151208809Y-26473333D01*
X151256428Y-26568571D01*
X151256428Y-27092380D01*
X43180000Y-27940000D02*
X250190000Y-27940000D01*
X43180000Y-31750000D02*
X43180000Y-27353579D01*
X250190000Y-31750000D02*
X250190000Y-27353579D01*
X250190000Y-27940000D02*
X249063496Y-28526421D01*
X250190000Y-27940000D02*
X249063496Y-27353579D01*
X43180000Y-27940000D02*
X44306504Y-28526421D01*
X43180000Y-27940000D02*
X44306504Y-27353579D01*
D11*
X203200000Y-72270000D02*
X203200000Y-69730000D01*
X205740000Y-72270000D02*
X205740000Y-69730000D01*
X208280000Y-72270000D02*
X208280000Y-69730000D01*
X200620000Y-88160000D02*
X200620000Y-72270000D01*
X210860000Y-88160000D02*
X210860000Y-72270000D01*
X210860000Y-88160000D02*
X200620000Y-88160000D01*
X210860000Y-72270000D02*
X200620000Y-72270000D01*
X235355000Y-147590000D02*
X235355000Y-88630000D01*
X235355000Y-88630000D02*
X244705000Y-88630000D01*
X244705000Y-88630000D02*
X244705000Y-147590000D01*
X244705000Y-147590000D02*
X235355000Y-147590000D01*
X244955000Y-147840000D02*
X244955000Y-145300000D01*
X244955000Y-147840000D02*
X242415000Y-147840000D01*
X166370000Y-46990000D02*
X167640000Y-46990000D01*
X166370000Y-45720000D02*
X166370000Y-46990000D01*
X162290000Y-32240000D02*
X195850000Y-32240000D01*
X162290000Y-41590000D02*
X162290000Y-32240000D01*
X181320000Y-41590000D02*
X181320000Y-32240000D01*
X195850000Y-41590000D02*
X195850000Y-32240000D01*
X195850000Y-41590000D02*
X162290000Y-41590000D01*
X176820000Y-41590000D02*
X176820000Y-32240000D01*
X225590000Y-152510000D02*
X225590000Y-151910000D01*
X223990000Y-152510000D02*
X225590000Y-152510000D01*
X223990000Y-151910000D02*
X223990000Y-152510000D01*
X223050000Y-152510000D02*
X223050000Y-151910000D01*
X221450000Y-152510000D02*
X223050000Y-152510000D01*
X221450000Y-151910000D02*
X221450000Y-152510000D01*
X220510000Y-152510000D02*
X220510000Y-151910000D01*
X218910000Y-152510000D02*
X220510000Y-152510000D01*
X218910000Y-151910000D02*
X218910000Y-152510000D01*
X217970000Y-152510000D02*
X217970000Y-151910000D01*
X216370000Y-152510000D02*
X217970000Y-152510000D01*
X216370000Y-151910000D02*
X216370000Y-152510000D01*
X224540000Y-157930000D02*
X224540000Y-156930000D01*
X217420000Y-157930000D02*
X217420000Y-156930000D01*
X224540000Y-156400000D02*
X224790000Y-156930000D01*
X217420000Y-156400000D02*
X224540000Y-156400000D01*
X217170000Y-156930000D02*
X217420000Y-156400000D01*
X224790000Y-156930000D02*
X224790000Y-157930000D01*
X217170000Y-156930000D02*
X224790000Y-156930000D01*
X217170000Y-157930000D02*
X217170000Y-156930000D01*
X215500000Y-152940000D02*
X215500000Y-156940000D01*
X226170000Y-151910000D02*
X215790000Y-151910000D01*
X226170000Y-157930000D02*
X226170000Y-151910000D01*
X215790000Y-157930000D02*
X226170000Y-157930000D01*
X215790000Y-151910000D02*
X215790000Y-157930000D01*
X210350000Y-152510000D02*
X210350000Y-151910000D01*
X208750000Y-152510000D02*
X210350000Y-152510000D01*
X208750000Y-151910000D02*
X208750000Y-152510000D01*
X207810000Y-152510000D02*
X207810000Y-151910000D01*
X206210000Y-152510000D02*
X207810000Y-152510000D01*
X206210000Y-151910000D02*
X206210000Y-152510000D01*
X205270000Y-152510000D02*
X205270000Y-151910000D01*
X203670000Y-152510000D02*
X205270000Y-152510000D01*
X203670000Y-151910000D02*
X203670000Y-152510000D01*
X202730000Y-152510000D02*
X202730000Y-151910000D01*
X201130000Y-152510000D02*
X202730000Y-152510000D01*
X201130000Y-151910000D02*
X201130000Y-152510000D01*
X209300000Y-157930000D02*
X209300000Y-156930000D01*
X202180000Y-157930000D02*
X202180000Y-156930000D01*
X209300000Y-156400000D02*
X209550000Y-156930000D01*
X202180000Y-156400000D02*
X209300000Y-156400000D01*
X201930000Y-156930000D02*
X202180000Y-156400000D01*
X209550000Y-156930000D02*
X209550000Y-157930000D01*
X201930000Y-156930000D02*
X209550000Y-156930000D01*
X201930000Y-157930000D02*
X201930000Y-156930000D01*
X200260000Y-152940000D02*
X200260000Y-156940000D01*
X210930000Y-151910000D02*
X200550000Y-151910000D01*
X210930000Y-157930000D02*
X210930000Y-151910000D01*
X200550000Y-157930000D02*
X210930000Y-157930000D01*
X200550000Y-151910000D02*
X200550000Y-157930000D01*
X210350000Y-141080000D02*
X210350000Y-140480000D01*
X208750000Y-141080000D02*
X210350000Y-141080000D01*
X208750000Y-140480000D02*
X208750000Y-141080000D01*
X207810000Y-141080000D02*
X207810000Y-140480000D01*
X206210000Y-141080000D02*
X207810000Y-141080000D01*
X206210000Y-140480000D02*
X206210000Y-141080000D01*
X205270000Y-141080000D02*
X205270000Y-140480000D01*
X203670000Y-141080000D02*
X205270000Y-141080000D01*
X203670000Y-140480000D02*
X203670000Y-141080000D01*
X202730000Y-141080000D02*
X202730000Y-140480000D01*
X201130000Y-141080000D02*
X202730000Y-141080000D01*
X201130000Y-140480000D02*
X201130000Y-141080000D01*
X209300000Y-146500000D02*
X209300000Y-145500000D01*
X202180000Y-146500000D02*
X202180000Y-145500000D01*
X209300000Y-144970000D02*
X209550000Y-145500000D01*
X202180000Y-144970000D02*
X209300000Y-144970000D01*
X201930000Y-145500000D02*
X202180000Y-144970000D01*
X209550000Y-145500000D02*
X209550000Y-146500000D01*
X201930000Y-145500000D02*
X209550000Y-145500000D01*
X201930000Y-146500000D02*
X201930000Y-145500000D01*
X200260000Y-141510000D02*
X200260000Y-145510000D01*
X210930000Y-140480000D02*
X200550000Y-140480000D01*
X210930000Y-146500000D02*
X210930000Y-140480000D01*
X200550000Y-146500000D02*
X210930000Y-146500000D01*
X200550000Y-140480000D02*
X200550000Y-146500000D01*
X213260000Y-60730000D02*
X213260000Y-53490000D01*
X216000000Y-60730000D02*
X216000000Y-53490000D01*
X213260000Y-60730000D02*
X216000000Y-60730000D01*
X213260000Y-53490000D02*
X216000000Y-53490000D01*
X201895225Y-52885000D02*
X201895225Y-53385000D01*
X201645225Y-53135000D02*
X202145225Y-53135000D01*
X207051000Y-54326000D02*
X207051000Y-54894000D01*
X207011000Y-54092000D02*
X207011000Y-55128000D01*
X206971000Y-53933000D02*
X206971000Y-55287000D01*
X206931000Y-53805000D02*
X206931000Y-55415000D01*
X206891000Y-53695000D02*
X206891000Y-55525000D01*
X206851000Y-53599000D02*
X206851000Y-55621000D01*
X206811000Y-53512000D02*
X206811000Y-55708000D01*
X206771000Y-53432000D02*
X206771000Y-55788000D01*
X206731000Y-55650000D02*
X206731000Y-55861000D01*
X206731000Y-53359000D02*
X206731000Y-53570000D01*
X206691000Y-55650000D02*
X206691000Y-55929000D01*
X206691000Y-53291000D02*
X206691000Y-53570000D01*
X206651000Y-55650000D02*
X206651000Y-55993000D01*
X206651000Y-53227000D02*
X206651000Y-53570000D01*
X206611000Y-55650000D02*
X206611000Y-56053000D01*
X206611000Y-53167000D02*
X206611000Y-53570000D01*
X206571000Y-55650000D02*
X206571000Y-56110000D01*
X206571000Y-53110000D02*
X206571000Y-53570000D01*
X206531000Y-55650000D02*
X206531000Y-56164000D01*
X206531000Y-53056000D02*
X206531000Y-53570000D01*
X206491000Y-55650000D02*
X206491000Y-56215000D01*
X206491000Y-53005000D02*
X206491000Y-53570000D01*
X206451000Y-55650000D02*
X206451000Y-56263000D01*
X206451000Y-52957000D02*
X206451000Y-53570000D01*
X206411000Y-55650000D02*
X206411000Y-56309000D01*
X206411000Y-52911000D02*
X206411000Y-53570000D01*
X206371000Y-55650000D02*
X206371000Y-56353000D01*
X206371000Y-52867000D02*
X206371000Y-53570000D01*
X206331000Y-55650000D02*
X206331000Y-56395000D01*
X206331000Y-52825000D02*
X206331000Y-53570000D01*
X206291000Y-55650000D02*
X206291000Y-56436000D01*
X206291000Y-52784000D02*
X206291000Y-53570000D01*
X206251000Y-55650000D02*
X206251000Y-56474000D01*
X206251000Y-52746000D02*
X206251000Y-53570000D01*
X206211000Y-55650000D02*
X206211000Y-56511000D01*
X206211000Y-52709000D02*
X206211000Y-53570000D01*
X206171000Y-55650000D02*
X206171000Y-56547000D01*
X206171000Y-52673000D02*
X206171000Y-53570000D01*
X206131000Y-55650000D02*
X206131000Y-56581000D01*
X206131000Y-52639000D02*
X206131000Y-53570000D01*
X206091000Y-55650000D02*
X206091000Y-56614000D01*
X206091000Y-52606000D02*
X206091000Y-53570000D01*
X206051000Y-55650000D02*
X206051000Y-56645000D01*
X206051000Y-52575000D02*
X206051000Y-53570000D01*
X206011000Y-55650000D02*
X206011000Y-56675000D01*
X206011000Y-52545000D02*
X206011000Y-53570000D01*
X205971000Y-55650000D02*
X205971000Y-56705000D01*
X205971000Y-52515000D02*
X205971000Y-53570000D01*
X205931000Y-55650000D02*
X205931000Y-56732000D01*
X205931000Y-52488000D02*
X205931000Y-53570000D01*
X205891000Y-55650000D02*
X205891000Y-56759000D01*
X205891000Y-52461000D02*
X205891000Y-53570000D01*
X205851000Y-55650000D02*
X205851000Y-56785000D01*
X205851000Y-52435000D02*
X205851000Y-53570000D01*
X205811000Y-55650000D02*
X205811000Y-56810000D01*
X205811000Y-52410000D02*
X205811000Y-53570000D01*
X205771000Y-55650000D02*
X205771000Y-56834000D01*
X205771000Y-52386000D02*
X205771000Y-53570000D01*
X205731000Y-55650000D02*
X205731000Y-56857000D01*
X205731000Y-52363000D02*
X205731000Y-53570000D01*
X205691000Y-55650000D02*
X205691000Y-56878000D01*
X205691000Y-52342000D02*
X205691000Y-53570000D01*
X205651000Y-55650000D02*
X205651000Y-56900000D01*
X205651000Y-52320000D02*
X205651000Y-53570000D01*
X205611000Y-55650000D02*
X205611000Y-56920000D01*
X205611000Y-52300000D02*
X205611000Y-53570000D01*
X205571000Y-55650000D02*
X205571000Y-56939000D01*
X205571000Y-52281000D02*
X205571000Y-53570000D01*
X205531000Y-55650000D02*
X205531000Y-56958000D01*
X205531000Y-52262000D02*
X205531000Y-53570000D01*
X205491000Y-55650000D02*
X205491000Y-56975000D01*
X205491000Y-52245000D02*
X205491000Y-53570000D01*
X205451000Y-55650000D02*
X205451000Y-56992000D01*
X205451000Y-52228000D02*
X205451000Y-53570000D01*
X205411000Y-55650000D02*
X205411000Y-57008000D01*
X205411000Y-52212000D02*
X205411000Y-53570000D01*
X205371000Y-55650000D02*
X205371000Y-57024000D01*
X205371000Y-52196000D02*
X205371000Y-53570000D01*
X205331000Y-55650000D02*
X205331000Y-57038000D01*
X205331000Y-52182000D02*
X205331000Y-53570000D01*
X205291000Y-55650000D02*
X205291000Y-57052000D01*
X205291000Y-52168000D02*
X205291000Y-53570000D01*
X205251000Y-55650000D02*
X205251000Y-57065000D01*
X205251000Y-52155000D02*
X205251000Y-53570000D01*
X205211000Y-55650000D02*
X205211000Y-57078000D01*
X205211000Y-52142000D02*
X205211000Y-53570000D01*
X205171000Y-55650000D02*
X205171000Y-57090000D01*
X205171000Y-52130000D02*
X205171000Y-53570000D01*
X205130000Y-55650000D02*
X205130000Y-57101000D01*
X205130000Y-52119000D02*
X205130000Y-53570000D01*
X205090000Y-55650000D02*
X205090000Y-57111000D01*
X205090000Y-52109000D02*
X205090000Y-53570000D01*
X205050000Y-55650000D02*
X205050000Y-57121000D01*
X205050000Y-52099000D02*
X205050000Y-53570000D01*
X205010000Y-55650000D02*
X205010000Y-57130000D01*
X205010000Y-52090000D02*
X205010000Y-53570000D01*
X204970000Y-55650000D02*
X204970000Y-57138000D01*
X204970000Y-52082000D02*
X204970000Y-53570000D01*
X204930000Y-55650000D02*
X204930000Y-57146000D01*
X204930000Y-52074000D02*
X204930000Y-53570000D01*
X204890000Y-55650000D02*
X204890000Y-57153000D01*
X204890000Y-52067000D02*
X204890000Y-53570000D01*
X204850000Y-55650000D02*
X204850000Y-57160000D01*
X204850000Y-52060000D02*
X204850000Y-53570000D01*
X204810000Y-55650000D02*
X204810000Y-57166000D01*
X204810000Y-52054000D02*
X204810000Y-53570000D01*
X204770000Y-55650000D02*
X204770000Y-57171000D01*
X204770000Y-52049000D02*
X204770000Y-53570000D01*
X204730000Y-55650000D02*
X204730000Y-57175000D01*
X204730000Y-52045000D02*
X204730000Y-53570000D01*
X204690000Y-55650000D02*
X204690000Y-57179000D01*
X204690000Y-52041000D02*
X204690000Y-53570000D01*
X204650000Y-52037000D02*
X204650000Y-57183000D01*
X204610000Y-52034000D02*
X204610000Y-57186000D01*
X204570000Y-52032000D02*
X204570000Y-57188000D01*
X204530000Y-52031000D02*
X204530000Y-57189000D01*
X204490000Y-52030000D02*
X204490000Y-57190000D01*
X204450000Y-52030000D02*
X204450000Y-57190000D01*
X207070000Y-54610000D02*
G75*
G03X207070000Y-54610000I-2620000J0D01*
G01*
X227430000Y-54610000D02*
G75*
G03X227430000Y-54610000I-2620000J0D01*
G01*
X224810000Y-57190000D02*
X224810000Y-52030000D01*
X224770000Y-57190000D02*
X224770000Y-52030000D01*
X224730000Y-57189000D02*
X224730000Y-52031000D01*
X224690000Y-57188000D02*
X224690000Y-52032000D01*
X224650000Y-57186000D02*
X224650000Y-52034000D01*
X224610000Y-57183000D02*
X224610000Y-52037000D01*
X224570000Y-57179000D02*
X224570000Y-55650000D01*
X224570000Y-53570000D02*
X224570000Y-52041000D01*
X224530000Y-57175000D02*
X224530000Y-55650000D01*
X224530000Y-53570000D02*
X224530000Y-52045000D01*
X224490000Y-57171000D02*
X224490000Y-55650000D01*
X224490000Y-53570000D02*
X224490000Y-52049000D01*
X224450000Y-57166000D02*
X224450000Y-55650000D01*
X224450000Y-53570000D02*
X224450000Y-52054000D01*
X224410000Y-57160000D02*
X224410000Y-55650000D01*
X224410000Y-53570000D02*
X224410000Y-52060000D01*
X224370000Y-57153000D02*
X224370000Y-55650000D01*
X224370000Y-53570000D02*
X224370000Y-52067000D01*
X224330000Y-57146000D02*
X224330000Y-55650000D01*
X224330000Y-53570000D02*
X224330000Y-52074000D01*
X224290000Y-57138000D02*
X224290000Y-55650000D01*
X224290000Y-53570000D02*
X224290000Y-52082000D01*
X224250000Y-57130000D02*
X224250000Y-55650000D01*
X224250000Y-53570000D02*
X224250000Y-52090000D01*
X224210000Y-57121000D02*
X224210000Y-55650000D01*
X224210000Y-53570000D02*
X224210000Y-52099000D01*
X224170000Y-57111000D02*
X224170000Y-55650000D01*
X224170000Y-53570000D02*
X224170000Y-52109000D01*
X224130000Y-57101000D02*
X224130000Y-55650000D01*
X224130000Y-53570000D02*
X224130000Y-52119000D01*
X224089000Y-57090000D02*
X224089000Y-55650000D01*
X224089000Y-53570000D02*
X224089000Y-52130000D01*
X224049000Y-57078000D02*
X224049000Y-55650000D01*
X224049000Y-53570000D02*
X224049000Y-52142000D01*
X224009000Y-57065000D02*
X224009000Y-55650000D01*
X224009000Y-53570000D02*
X224009000Y-52155000D01*
X223969000Y-57052000D02*
X223969000Y-55650000D01*
X223969000Y-53570000D02*
X223969000Y-52168000D01*
X223929000Y-57038000D02*
X223929000Y-55650000D01*
X223929000Y-53570000D02*
X223929000Y-52182000D01*
X223889000Y-57024000D02*
X223889000Y-55650000D01*
X223889000Y-53570000D02*
X223889000Y-52196000D01*
X223849000Y-57008000D02*
X223849000Y-55650000D01*
X223849000Y-53570000D02*
X223849000Y-52212000D01*
X223809000Y-56992000D02*
X223809000Y-55650000D01*
X223809000Y-53570000D02*
X223809000Y-52228000D01*
X223769000Y-56975000D02*
X223769000Y-55650000D01*
X223769000Y-53570000D02*
X223769000Y-52245000D01*
X223729000Y-56958000D02*
X223729000Y-55650000D01*
X223729000Y-53570000D02*
X223729000Y-52262000D01*
X223689000Y-56939000D02*
X223689000Y-55650000D01*
X223689000Y-53570000D02*
X223689000Y-52281000D01*
X223649000Y-56920000D02*
X223649000Y-55650000D01*
X223649000Y-53570000D02*
X223649000Y-52300000D01*
X223609000Y-56900000D02*
X223609000Y-55650000D01*
X223609000Y-53570000D02*
X223609000Y-52320000D01*
X223569000Y-56878000D02*
X223569000Y-55650000D01*
X223569000Y-53570000D02*
X223569000Y-52342000D01*
X223529000Y-56857000D02*
X223529000Y-55650000D01*
X223529000Y-53570000D02*
X223529000Y-52363000D01*
X223489000Y-56834000D02*
X223489000Y-55650000D01*
X223489000Y-53570000D02*
X223489000Y-52386000D01*
X223449000Y-56810000D02*
X223449000Y-55650000D01*
X223449000Y-53570000D02*
X223449000Y-52410000D01*
X223409000Y-56785000D02*
X223409000Y-55650000D01*
X223409000Y-53570000D02*
X223409000Y-52435000D01*
X223369000Y-56759000D02*
X223369000Y-55650000D01*
X223369000Y-53570000D02*
X223369000Y-52461000D01*
X223329000Y-56732000D02*
X223329000Y-55650000D01*
X223329000Y-53570000D02*
X223329000Y-52488000D01*
X223289000Y-56705000D02*
X223289000Y-55650000D01*
X223289000Y-53570000D02*
X223289000Y-52515000D01*
X223249000Y-56675000D02*
X223249000Y-55650000D01*
X223249000Y-53570000D02*
X223249000Y-52545000D01*
X223209000Y-56645000D02*
X223209000Y-55650000D01*
X223209000Y-53570000D02*
X223209000Y-52575000D01*
X223169000Y-56614000D02*
X223169000Y-55650000D01*
X223169000Y-53570000D02*
X223169000Y-52606000D01*
X223129000Y-56581000D02*
X223129000Y-55650000D01*
X223129000Y-53570000D02*
X223129000Y-52639000D01*
X223089000Y-56547000D02*
X223089000Y-55650000D01*
X223089000Y-53570000D02*
X223089000Y-52673000D01*
X223049000Y-56511000D02*
X223049000Y-55650000D01*
X223049000Y-53570000D02*
X223049000Y-52709000D01*
X223009000Y-56474000D02*
X223009000Y-55650000D01*
X223009000Y-53570000D02*
X223009000Y-52746000D01*
X222969000Y-56436000D02*
X222969000Y-55650000D01*
X222969000Y-53570000D02*
X222969000Y-52784000D01*
X222929000Y-56395000D02*
X222929000Y-55650000D01*
X222929000Y-53570000D02*
X222929000Y-52825000D01*
X222889000Y-56353000D02*
X222889000Y-55650000D01*
X222889000Y-53570000D02*
X222889000Y-52867000D01*
X222849000Y-56309000D02*
X222849000Y-55650000D01*
X222849000Y-53570000D02*
X222849000Y-52911000D01*
X222809000Y-56263000D02*
X222809000Y-55650000D01*
X222809000Y-53570000D02*
X222809000Y-52957000D01*
X222769000Y-56215000D02*
X222769000Y-55650000D01*
X222769000Y-53570000D02*
X222769000Y-53005000D01*
X222729000Y-56164000D02*
X222729000Y-55650000D01*
X222729000Y-53570000D02*
X222729000Y-53056000D01*
X222689000Y-56110000D02*
X222689000Y-55650000D01*
X222689000Y-53570000D02*
X222689000Y-53110000D01*
X222649000Y-56053000D02*
X222649000Y-55650000D01*
X222649000Y-53570000D02*
X222649000Y-53167000D01*
X222609000Y-55993000D02*
X222609000Y-55650000D01*
X222609000Y-53570000D02*
X222609000Y-53227000D01*
X222569000Y-55929000D02*
X222569000Y-55650000D01*
X222569000Y-53570000D02*
X222569000Y-53291000D01*
X222529000Y-55861000D02*
X222529000Y-55650000D01*
X222529000Y-53570000D02*
X222529000Y-53359000D01*
X222489000Y-55788000D02*
X222489000Y-53432000D01*
X222449000Y-55708000D02*
X222449000Y-53512000D01*
X222409000Y-55621000D02*
X222409000Y-53599000D01*
X222369000Y-55525000D02*
X222369000Y-53695000D01*
X222329000Y-55415000D02*
X222329000Y-53805000D01*
X222289000Y-55287000D02*
X222289000Y-53933000D01*
X222249000Y-55128000D02*
X222249000Y-54092000D01*
X222209000Y-54894000D02*
X222209000Y-54326000D01*
X227614775Y-56085000D02*
X227114775Y-56085000D01*
X227364775Y-56335000D02*
X227364775Y-55835000D01*
X79950000Y-88960000D02*
X79950000Y-87630000D01*
X81280000Y-88960000D02*
X79950000Y-88960000D01*
X82550000Y-88960000D02*
X82550000Y-86300000D01*
X82550000Y-86300000D02*
X87690000Y-86300000D01*
X82550000Y-88960000D02*
X87690000Y-88960000D01*
X87690000Y-88960000D02*
X87690000Y-86300000D01*
X64830000Y-88960000D02*
X64830000Y-86300000D01*
X59690000Y-88960000D02*
X64830000Y-88960000D01*
X59690000Y-86300000D02*
X64830000Y-86300000D01*
X59690000Y-88960000D02*
X59690000Y-86300000D01*
X58420000Y-88960000D02*
X57090000Y-88960000D01*
X57090000Y-88960000D02*
X57090000Y-87630000D01*
X57090000Y-102810000D02*
X57090000Y-105470000D01*
X62230000Y-102810000D02*
X57090000Y-102810000D01*
X62230000Y-105470000D02*
X57090000Y-105470000D01*
X62230000Y-102810000D02*
X62230000Y-105470000D01*
X63500000Y-102810000D02*
X64830000Y-102810000D01*
X64830000Y-102810000D02*
X64830000Y-104140000D01*
X87690000Y-102810000D02*
X87690000Y-104140000D01*
X86360000Y-102810000D02*
X87690000Y-102810000D01*
X85090000Y-102810000D02*
X85090000Y-105470000D01*
X85090000Y-105470000D02*
X79950000Y-105470000D01*
X85090000Y-102810000D02*
X79950000Y-102810000D01*
X79950000Y-102810000D02*
X79950000Y-105470000D01*
X123250000Y-88960000D02*
X123250000Y-86300000D01*
X118110000Y-88960000D02*
X123250000Y-88960000D01*
X118110000Y-86300000D02*
X123250000Y-86300000D01*
X118110000Y-88960000D02*
X118110000Y-86300000D01*
X116840000Y-88960000D02*
X115510000Y-88960000D01*
X115510000Y-88960000D02*
X115510000Y-87630000D01*
X92650000Y-88960000D02*
X92650000Y-87630000D01*
X93980000Y-88960000D02*
X92650000Y-88960000D01*
X95250000Y-88960000D02*
X95250000Y-86300000D01*
X95250000Y-86300000D02*
X100390000Y-86300000D01*
X95250000Y-88960000D02*
X100390000Y-88960000D01*
X100390000Y-88960000D02*
X100390000Y-86300000D01*
X92650000Y-102810000D02*
X92650000Y-105470000D01*
X97790000Y-102810000D02*
X92650000Y-102810000D01*
X97790000Y-105470000D02*
X92650000Y-105470000D01*
X97790000Y-102810000D02*
X97790000Y-105470000D01*
X99060000Y-102810000D02*
X100390000Y-102810000D01*
X100390000Y-102810000D02*
X100390000Y-104140000D01*
X115510000Y-102810000D02*
X115510000Y-105470000D01*
X120650000Y-102810000D02*
X115510000Y-102810000D01*
X120650000Y-105470000D02*
X115510000Y-105470000D01*
X120650000Y-102810000D02*
X120650000Y-105470000D01*
X121920000Y-102810000D02*
X123250000Y-102810000D01*
X123250000Y-102810000D02*
X123250000Y-104140000D01*
X151070000Y-88960000D02*
X151070000Y-87630000D01*
X152400000Y-88960000D02*
X151070000Y-88960000D01*
X153670000Y-88960000D02*
X153670000Y-86300000D01*
X153670000Y-86300000D02*
X158810000Y-86300000D01*
X153670000Y-88960000D02*
X158810000Y-88960000D01*
X158810000Y-88960000D02*
X158810000Y-86300000D01*
X128210000Y-88960000D02*
X128210000Y-87630000D01*
X129540000Y-88960000D02*
X128210000Y-88960000D01*
X130810000Y-88960000D02*
X130810000Y-86300000D01*
X130810000Y-86300000D02*
X135950000Y-86300000D01*
X130810000Y-88960000D02*
X135950000Y-88960000D01*
X135950000Y-88960000D02*
X135950000Y-86300000D01*
X128210000Y-102810000D02*
X128210000Y-105470000D01*
X133350000Y-102810000D02*
X128210000Y-102810000D01*
X133350000Y-105470000D02*
X128210000Y-105470000D01*
X133350000Y-102810000D02*
X133350000Y-105470000D01*
X134620000Y-102810000D02*
X135950000Y-102810000D01*
X135950000Y-102810000D02*
X135950000Y-104140000D01*
X158810000Y-102810000D02*
X158810000Y-104140000D01*
X157480000Y-102810000D02*
X158810000Y-102810000D01*
X156210000Y-102810000D02*
X156210000Y-105470000D01*
X156210000Y-105470000D02*
X151070000Y-105470000D01*
X156210000Y-102810000D02*
X151070000Y-102810000D01*
X151070000Y-102810000D02*
X151070000Y-105470000D01*
X186630000Y-86300000D02*
X186630000Y-88960000D01*
X191770000Y-86300000D02*
X186630000Y-86300000D01*
X191770000Y-88960000D02*
X186630000Y-88960000D01*
X191770000Y-86300000D02*
X191770000Y-88960000D01*
X193040000Y-86300000D02*
X194370000Y-86300000D01*
X194370000Y-86300000D02*
X194370000Y-87630000D01*
X171510000Y-88960000D02*
X171510000Y-86300000D01*
X166370000Y-88960000D02*
X171510000Y-88960000D01*
X166370000Y-86300000D02*
X171510000Y-86300000D01*
X166370000Y-88960000D02*
X166370000Y-86300000D01*
X165100000Y-88960000D02*
X163770000Y-88960000D01*
X163770000Y-88960000D02*
X163770000Y-87630000D01*
X171510000Y-102810000D02*
X171510000Y-104140000D01*
X170180000Y-102810000D02*
X171510000Y-102810000D01*
X168910000Y-102810000D02*
X168910000Y-105470000D01*
X168910000Y-105470000D02*
X163770000Y-105470000D01*
X168910000Y-102810000D02*
X163770000Y-102810000D01*
X163770000Y-102810000D02*
X163770000Y-105470000D01*
X186630000Y-105470000D02*
X186630000Y-104140000D01*
X187960000Y-105470000D02*
X186630000Y-105470000D01*
X189230000Y-105470000D02*
X189230000Y-102810000D01*
X189230000Y-102810000D02*
X194370000Y-102810000D01*
X189230000Y-105470000D02*
X194370000Y-105470000D01*
X194370000Y-105470000D02*
X194370000Y-102810000D01*
X240560000Y-38580000D02*
X249560000Y-38580000D01*
X249560000Y-38580000D02*
X249560000Y-47780000D01*
X249560000Y-47780000D02*
X234960000Y-47780000D01*
X234960000Y-47780000D02*
X234960000Y-44980000D01*
X234960000Y-41380000D02*
X234960000Y-38580000D01*
X234960000Y-38580000D02*
X236960000Y-38580000D01*
X236460000Y-48020000D02*
X234720000Y-48020000D01*
X234720000Y-48020000D02*
X234720000Y-46280000D01*
X219141522Y-112328478D02*
G75*
G03X223580000Y-110490000I1838478J1838478D01*
G01*
X219141522Y-108651522D02*
G75*
G02X223580000Y-110490000I1838478J-1838478D01*
G01*
X219130000Y-108690000D02*
X219130000Y-112290000D01*
X219130000Y-125200000D02*
X219130000Y-128800000D01*
X219141522Y-125161522D02*
G75*
G02X223580000Y-127000000I1838478J-1838478D01*
G01*
X219141522Y-128838478D02*
G75*
G03X223580000Y-127000000I1838478J1838478D01*
G01*
X206280000Y-105640000D02*
X206280000Y-105310000D01*
X206280000Y-105310000D02*
X212820000Y-105310000D01*
X212820000Y-105310000D02*
X212820000Y-105640000D01*
X206280000Y-107720000D02*
X206280000Y-108050000D01*
X206280000Y-108050000D02*
X212820000Y-108050000D01*
X212820000Y-108050000D02*
X212820000Y-107720000D01*
X212820000Y-124560000D02*
X212820000Y-124230000D01*
X206280000Y-124560000D02*
X212820000Y-124560000D01*
X206280000Y-124230000D02*
X206280000Y-124560000D01*
X212820000Y-121820000D02*
X212820000Y-122150000D01*
X206280000Y-121820000D02*
X212820000Y-121820000D01*
X206280000Y-122150000D02*
X206280000Y-121820000D01*
X236760000Y-59920000D02*
X236760000Y-59590000D01*
X236760000Y-59590000D02*
X243300000Y-59590000D01*
X243300000Y-59590000D02*
X243300000Y-59920000D01*
X236760000Y-62000000D02*
X236760000Y-62330000D01*
X236760000Y-62330000D02*
X243300000Y-62330000D01*
X243300000Y-62330000D02*
X243300000Y-62000000D01*
X212820000Y-115670000D02*
X212820000Y-115340000D01*
X206280000Y-115670000D02*
X212820000Y-115670000D01*
X206280000Y-115340000D02*
X206280000Y-115670000D01*
X212820000Y-112930000D02*
X212820000Y-113260000D01*
X206280000Y-112930000D02*
X212820000Y-112930000D01*
X206280000Y-113260000D02*
X206280000Y-112930000D01*
X206280000Y-129770000D02*
X206280000Y-129440000D01*
X206280000Y-129440000D02*
X212820000Y-129440000D01*
X212820000Y-129440000D02*
X212820000Y-129770000D01*
X206280000Y-131850000D02*
X206280000Y-132180000D01*
X206280000Y-132180000D02*
X212820000Y-132180000D01*
X212820000Y-132180000D02*
X212820000Y-131850000D01*
X236760000Y-51970000D02*
X236760000Y-52300000D01*
X243300000Y-51970000D02*
X236760000Y-51970000D01*
X243300000Y-52300000D02*
X243300000Y-51970000D01*
X236760000Y-54710000D02*
X236760000Y-54380000D01*
X243300000Y-54710000D02*
X236760000Y-54710000D01*
X243300000Y-54380000D02*
X243300000Y-54710000D01*
X82420000Y-76370000D02*
X85220000Y-76370000D01*
X85220000Y-76370000D02*
X85220000Y-53170000D01*
X85220000Y-53170000D02*
X82420000Y-53170000D01*
X82420000Y-53170000D02*
X82420000Y-76370000D01*
X82420000Y-73660000D02*
X85220000Y-73660000D01*
X59560000Y-73660000D02*
X62360000Y-73660000D01*
X59560000Y-53170000D02*
X59560000Y-76370000D01*
X62360000Y-53170000D02*
X59560000Y-53170000D01*
X62360000Y-76370000D02*
X62360000Y-53170000D01*
X59560000Y-76370000D02*
X62360000Y-76370000D01*
X62360000Y-115400000D02*
X59560000Y-115400000D01*
X59560000Y-115400000D02*
X59560000Y-138600000D01*
X59560000Y-138600000D02*
X62360000Y-138600000D01*
X62360000Y-138600000D02*
X62360000Y-115400000D01*
X62360000Y-118110000D02*
X59560000Y-118110000D01*
X85220000Y-115400000D02*
X82420000Y-115400000D01*
X82420000Y-115400000D02*
X82420000Y-138600000D01*
X82420000Y-138600000D02*
X85220000Y-138600000D01*
X85220000Y-138600000D02*
X85220000Y-115400000D01*
X85220000Y-118110000D02*
X82420000Y-118110000D01*
X117980000Y-76370000D02*
X120780000Y-76370000D01*
X120780000Y-76370000D02*
X120780000Y-53170000D01*
X120780000Y-53170000D02*
X117980000Y-53170000D01*
X117980000Y-53170000D02*
X117980000Y-76370000D01*
X117980000Y-73660000D02*
X120780000Y-73660000D01*
X95120000Y-73660000D02*
X97920000Y-73660000D01*
X95120000Y-53170000D02*
X95120000Y-76370000D01*
X97920000Y-53170000D02*
X95120000Y-53170000D01*
X97920000Y-76370000D02*
X97920000Y-53170000D01*
X95120000Y-76370000D02*
X97920000Y-76370000D01*
X97920000Y-118110000D02*
X95120000Y-118110000D01*
X97920000Y-138600000D02*
X97920000Y-115400000D01*
X95120000Y-138600000D02*
X97920000Y-138600000D01*
X95120000Y-115400000D02*
X95120000Y-138600000D01*
X97920000Y-115400000D02*
X95120000Y-115400000D01*
X120780000Y-118110000D02*
X117980000Y-118110000D01*
X120780000Y-138600000D02*
X120780000Y-115400000D01*
X117980000Y-138600000D02*
X120780000Y-138600000D01*
X117980000Y-115400000D02*
X117980000Y-138600000D01*
X120780000Y-115400000D02*
X117980000Y-115400000D01*
X153540000Y-76370000D02*
X156340000Y-76370000D01*
X156340000Y-76370000D02*
X156340000Y-53170000D01*
X156340000Y-53170000D02*
X153540000Y-53170000D01*
X153540000Y-53170000D02*
X153540000Y-76370000D01*
X153540000Y-73660000D02*
X156340000Y-73660000D01*
X130680000Y-73660000D02*
X133480000Y-73660000D01*
X130680000Y-53170000D02*
X130680000Y-76370000D01*
X133480000Y-53170000D02*
X130680000Y-53170000D01*
X133480000Y-76370000D02*
X133480000Y-53170000D01*
X130680000Y-76370000D02*
X133480000Y-76370000D01*
X133480000Y-118110000D02*
X130680000Y-118110000D01*
X133480000Y-138600000D02*
X133480000Y-115400000D01*
X130680000Y-138600000D02*
X133480000Y-138600000D01*
X130680000Y-115400000D02*
X130680000Y-138600000D01*
X133480000Y-115400000D02*
X130680000Y-115400000D01*
X156340000Y-115400000D02*
X153540000Y-115400000D01*
X153540000Y-115400000D02*
X153540000Y-138600000D01*
X153540000Y-138600000D02*
X156340000Y-138600000D01*
X156340000Y-138600000D02*
X156340000Y-115400000D01*
X156340000Y-118110000D02*
X153540000Y-118110000D01*
X189100000Y-73660000D02*
X191900000Y-73660000D01*
X189100000Y-53170000D02*
X189100000Y-76370000D01*
X191900000Y-53170000D02*
X189100000Y-53170000D01*
X191900000Y-76370000D02*
X191900000Y-53170000D01*
X189100000Y-76370000D02*
X191900000Y-76370000D01*
X166240000Y-76370000D02*
X169040000Y-76370000D01*
X169040000Y-76370000D02*
X169040000Y-53170000D01*
X169040000Y-53170000D02*
X166240000Y-53170000D01*
X166240000Y-53170000D02*
X166240000Y-76370000D01*
X166240000Y-73660000D02*
X169040000Y-73660000D01*
X169040000Y-115400000D02*
X166240000Y-115400000D01*
X166240000Y-115400000D02*
X166240000Y-138600000D01*
X166240000Y-138600000D02*
X169040000Y-138600000D01*
X169040000Y-138600000D02*
X169040000Y-115400000D01*
X169040000Y-118110000D02*
X166240000Y-118110000D01*
X191900000Y-118110000D02*
X189100000Y-118110000D01*
X191900000Y-138600000D02*
X191900000Y-115400000D01*
X189100000Y-138600000D02*
X191900000Y-138600000D01*
X189100000Y-115400000D02*
X189100000Y-138600000D01*
X191900000Y-115400000D02*
X189100000Y-115400000D01*
X75040000Y-53280000D02*
X73390000Y-53280000D01*
X75040000Y-88960000D02*
X75040000Y-53280000D01*
X69740000Y-88960000D02*
X75040000Y-88960000D01*
X69740000Y-53280000D02*
X69740000Y-88960000D01*
X71390000Y-53280000D02*
X69740000Y-53280000D01*
X73390000Y-53280000D02*
G75*
G02X71390000Y-53280000I-1000000J0D01*
G01*
X71390000Y-138490000D02*
G75*
G02X73390000Y-138490000I1000000J0D01*
G01*
X73390000Y-138490000D02*
X75040000Y-138490000D01*
X75040000Y-138490000D02*
X75040000Y-102810000D01*
X75040000Y-102810000D02*
X69740000Y-102810000D01*
X69740000Y-102810000D02*
X69740000Y-138490000D01*
X69740000Y-138490000D02*
X71390000Y-138490000D01*
X110600000Y-53280000D02*
X108950000Y-53280000D01*
X110600000Y-88960000D02*
X110600000Y-53280000D01*
X105300000Y-88960000D02*
X110600000Y-88960000D01*
X105300000Y-53280000D02*
X105300000Y-88960000D01*
X106950000Y-53280000D02*
X105300000Y-53280000D01*
X108950000Y-53280000D02*
G75*
G02X106950000Y-53280000I-1000000J0D01*
G01*
X106950000Y-138490000D02*
G75*
G02X108950000Y-138490000I1000000J0D01*
G01*
X108950000Y-138490000D02*
X110600000Y-138490000D01*
X110600000Y-138490000D02*
X110600000Y-102810000D01*
X110600000Y-102810000D02*
X105300000Y-102810000D01*
X105300000Y-102810000D02*
X105300000Y-138490000D01*
X105300000Y-138490000D02*
X106950000Y-138490000D01*
X144510000Y-53280000D02*
G75*
G02X142510000Y-53280000I-1000000J0D01*
G01*
X142510000Y-53280000D02*
X140860000Y-53280000D01*
X140860000Y-53280000D02*
X140860000Y-88960000D01*
X140860000Y-88960000D02*
X146160000Y-88960000D01*
X146160000Y-88960000D02*
X146160000Y-53280000D01*
X146160000Y-53280000D02*
X144510000Y-53280000D01*
X140860000Y-138490000D02*
X142510000Y-138490000D01*
X140860000Y-102810000D02*
X140860000Y-138490000D01*
X146160000Y-102810000D02*
X140860000Y-102810000D01*
X146160000Y-138490000D02*
X146160000Y-102810000D01*
X144510000Y-138490000D02*
X146160000Y-138490000D01*
X142510000Y-138490000D02*
G75*
G02X144510000Y-138490000I1000000J0D01*
G01*
X180070000Y-53280000D02*
G75*
G02X178070000Y-53280000I-1000000J0D01*
G01*
X178070000Y-53280000D02*
X176420000Y-53280000D01*
X176420000Y-53280000D02*
X176420000Y-88960000D01*
X176420000Y-88960000D02*
X181720000Y-88960000D01*
X181720000Y-88960000D02*
X181720000Y-53280000D01*
X181720000Y-53280000D02*
X180070000Y-53280000D01*
X176420000Y-138490000D02*
X178070000Y-138490000D01*
X176420000Y-102810000D02*
X176420000Y-138490000D01*
X181720000Y-102810000D02*
X176420000Y-102810000D01*
X181720000Y-138490000D02*
X181720000Y-102810000D01*
X180070000Y-138490000D02*
X181720000Y-138490000D01*
X178070000Y-138490000D02*
G75*
G02X180070000Y-138490000I1000000J0D01*
G01*
X231180000Y-72270000D02*
X220940000Y-72270000D01*
X231180000Y-88160000D02*
X220940000Y-88160000D01*
X231180000Y-88160000D02*
X231180000Y-72270000D01*
X220940000Y-88160000D02*
X220940000Y-72270000D01*
X228600000Y-72270000D02*
X228600000Y-69730000D01*
X226060000Y-72270000D02*
X226060000Y-69730000D01*
X223520000Y-72270000D02*
X223520000Y-69730000D01*
X70140000Y-41590000D02*
X70140000Y-32240000D01*
X89170000Y-41590000D02*
X55610000Y-41590000D01*
X89170000Y-41590000D02*
X89170000Y-32240000D01*
X74640000Y-41590000D02*
X74640000Y-32240000D01*
X55610000Y-41590000D02*
X55610000Y-32240000D01*
X55610000Y-32240000D02*
X89170000Y-32240000D01*
X59690000Y-45720000D02*
X59690000Y-46990000D01*
X59690000Y-46990000D02*
X60960000Y-46990000D01*
X85090000Y-144780000D02*
X83820000Y-144780000D01*
X85090000Y-146050000D02*
X85090000Y-144780000D01*
X89170000Y-159530000D02*
X55610000Y-159530000D01*
X89170000Y-150180000D02*
X89170000Y-159530000D01*
X70140000Y-150180000D02*
X70140000Y-159530000D01*
X55610000Y-150180000D02*
X55610000Y-159530000D01*
X55610000Y-150180000D02*
X89170000Y-150180000D01*
X74640000Y-150180000D02*
X74640000Y-159530000D01*
X95250000Y-46990000D02*
X96520000Y-46990000D01*
X95250000Y-45720000D02*
X95250000Y-46990000D01*
X91170000Y-32240000D02*
X124730000Y-32240000D01*
X91170000Y-41590000D02*
X91170000Y-32240000D01*
X110200000Y-41590000D02*
X110200000Y-32240000D01*
X124730000Y-41590000D02*
X124730000Y-32240000D01*
X124730000Y-41590000D02*
X91170000Y-41590000D01*
X105700000Y-41590000D02*
X105700000Y-32240000D01*
X110200000Y-150180000D02*
X110200000Y-159530000D01*
X91170000Y-150180000D02*
X124730000Y-150180000D01*
X91170000Y-150180000D02*
X91170000Y-159530000D01*
X105700000Y-150180000D02*
X105700000Y-159530000D01*
X124730000Y-150180000D02*
X124730000Y-159530000D01*
X124730000Y-159530000D02*
X91170000Y-159530000D01*
X120650000Y-146050000D02*
X120650000Y-144780000D01*
X120650000Y-144780000D02*
X119380000Y-144780000D01*
X130810000Y-46990000D02*
X132080000Y-46990000D01*
X130810000Y-45720000D02*
X130810000Y-46990000D01*
X126730000Y-32240000D02*
X160290000Y-32240000D01*
X126730000Y-41590000D02*
X126730000Y-32240000D01*
X145760000Y-41590000D02*
X145760000Y-32240000D01*
X160290000Y-41590000D02*
X160290000Y-32240000D01*
X160290000Y-41590000D02*
X126730000Y-41590000D01*
X141260000Y-41590000D02*
X141260000Y-32240000D01*
X145760000Y-150180000D02*
X145760000Y-159530000D01*
X126730000Y-150180000D02*
X160290000Y-150180000D01*
X126730000Y-150180000D02*
X126730000Y-159530000D01*
X141260000Y-150180000D02*
X141260000Y-159530000D01*
X160290000Y-150180000D02*
X160290000Y-159530000D01*
X160290000Y-159530000D02*
X126730000Y-159530000D01*
X156210000Y-146050000D02*
X156210000Y-144780000D01*
X156210000Y-144780000D02*
X154940000Y-144780000D01*
X181320000Y-150180000D02*
X181320000Y-159530000D01*
X162290000Y-150180000D02*
X195850000Y-150180000D01*
X162290000Y-150180000D02*
X162290000Y-159530000D01*
X176820000Y-150180000D02*
X176820000Y-159530000D01*
X195850000Y-150180000D02*
X195850000Y-159530000D01*
X195850000Y-159530000D02*
X162290000Y-159530000D01*
X191770000Y-146050000D02*
X191770000Y-144780000D01*
X191770000Y-144780000D02*
X190500000Y-144780000D01*
X215790000Y-140480000D02*
X215790000Y-146500000D01*
X215790000Y-146500000D02*
X226170000Y-146500000D01*
X226170000Y-146500000D02*
X226170000Y-140480000D01*
X226170000Y-140480000D02*
X215790000Y-140480000D01*
X215500000Y-141510000D02*
X215500000Y-145510000D01*
X217170000Y-146500000D02*
X217170000Y-145500000D01*
X217170000Y-145500000D02*
X224790000Y-145500000D01*
X224790000Y-145500000D02*
X224790000Y-146500000D01*
X217170000Y-145500000D02*
X217420000Y-144970000D01*
X217420000Y-144970000D02*
X224540000Y-144970000D01*
X224540000Y-144970000D02*
X224790000Y-145500000D01*
X217420000Y-146500000D02*
X217420000Y-145500000D01*
X224540000Y-146500000D02*
X224540000Y-145500000D01*
X216370000Y-140480000D02*
X216370000Y-141080000D01*
X216370000Y-141080000D02*
X217970000Y-141080000D01*
X217970000Y-141080000D02*
X217970000Y-140480000D01*
X218910000Y-140480000D02*
X218910000Y-141080000D01*
X218910000Y-141080000D02*
X220510000Y-141080000D01*
X220510000Y-141080000D02*
X220510000Y-140480000D01*
X221450000Y-140480000D02*
X221450000Y-141080000D01*
X221450000Y-141080000D02*
X223050000Y-141080000D01*
X223050000Y-141080000D02*
X223050000Y-140480000D01*
X223990000Y-140480000D02*
X223990000Y-141080000D01*
X223990000Y-141080000D02*
X225590000Y-141080000D01*
X225590000Y-141080000D02*
X225590000Y-140480000D01*
X213300000Y-67250000D02*
X213300000Y-69910000D01*
X215900000Y-67250000D02*
X213300000Y-67250000D01*
X215900000Y-69910000D02*
X213300000Y-69910000D01*
X215900000Y-67250000D02*
X215900000Y-69910000D01*
X217170000Y-67250000D02*
X218500000Y-67250000D01*
X218500000Y-67250000D02*
X218500000Y-68580000D01*
X240090000Y-153610000D02*
X240090000Y-154940000D01*
X238760000Y-153610000D02*
X240090000Y-153610000D01*
X237490000Y-153610000D02*
X237490000Y-156270000D01*
X237490000Y-156270000D02*
X234890000Y-156270000D01*
X237490000Y-153610000D02*
X234890000Y-153610000D01*
X234890000Y-153610000D02*
X234890000Y-156270000D01*
X203200000Y-39370000D02*
X203200000Y-46990000D01*
X223520000Y-46990000D02*
X223520000Y-39370000D01*
X223520000Y-45720000D02*
X203200000Y-45720000D01*
X203200000Y-39370000D02*
X223520000Y-39370000D01*
X203200000Y-46990000D02*
X223520000Y-46990000D01*
D10*
X204978095Y-88612380D02*
X204978095Y-89421904D01*
X205025714Y-89517142D01*
X205073333Y-89564761D01*
X205168571Y-89612380D01*
X205359047Y-89612380D01*
X205454285Y-89564761D01*
X205501904Y-89517142D01*
X205549523Y-89421904D01*
X205549523Y-88612380D01*
X206073333Y-89612380D02*
X206263809Y-89612380D01*
X206359047Y-89564761D01*
X206406666Y-89517142D01*
X206501904Y-89374285D01*
X206549523Y-89183809D01*
X206549523Y-88802857D01*
X206501904Y-88707619D01*
X206454285Y-88660000D01*
X206359047Y-88612380D01*
X206168571Y-88612380D01*
X206073333Y-88660000D01*
X206025714Y-88707619D01*
X205978095Y-88802857D01*
X205978095Y-89040952D01*
X206025714Y-89136190D01*
X206073333Y-89183809D01*
X206168571Y-89231428D01*
X206359047Y-89231428D01*
X206454285Y-89183809D01*
X206501904Y-89136190D01*
X206549523Y-89040952D01*
X239220476Y-148296380D02*
X239220476Y-149010666D01*
X239172857Y-149153523D01*
X239077619Y-149248761D01*
X238934761Y-149296380D01*
X238839523Y-149296380D01*
X239649047Y-148391619D02*
X239696666Y-148344000D01*
X239791904Y-148296380D01*
X240030000Y-148296380D01*
X240125238Y-148344000D01*
X240172857Y-148391619D01*
X240220476Y-148486857D01*
X240220476Y-148582095D01*
X240172857Y-148724952D01*
X239601428Y-149296380D01*
X240220476Y-149296380D01*
X241077619Y-148296380D02*
X240887142Y-148296380D01*
X240791904Y-148344000D01*
X240744285Y-148391619D01*
X240649047Y-148534476D01*
X240601428Y-148724952D01*
X240601428Y-149105904D01*
X240649047Y-149201142D01*
X240696666Y-149248761D01*
X240791904Y-149296380D01*
X240982380Y-149296380D01*
X241077619Y-149248761D01*
X241125238Y-149201142D01*
X241172857Y-149105904D01*
X241172857Y-148867809D01*
X241125238Y-148772571D01*
X241077619Y-148724952D01*
X240982380Y-148677333D01*
X240791904Y-148677333D01*
X240696666Y-148724952D01*
X240649047Y-148772571D01*
X240601428Y-148867809D01*
X178260476Y-36282380D02*
X178260476Y-36996666D01*
X178212857Y-37139523D01*
X178117619Y-37234761D01*
X177974761Y-37282380D01*
X177879523Y-37282380D01*
X179260476Y-37282380D02*
X178689047Y-37282380D01*
X178974761Y-37282380D02*
X178974761Y-36282380D01*
X178879523Y-36425238D01*
X178784285Y-36520476D01*
X178689047Y-36568095D01*
X179736666Y-37282380D02*
X179927142Y-37282380D01*
X180022380Y-37234761D01*
X180070000Y-37187142D01*
X180165238Y-37044285D01*
X180212857Y-36853809D01*
X180212857Y-36472857D01*
X180165238Y-36377619D01*
X180117619Y-36330000D01*
X180022380Y-36282380D01*
X179831904Y-36282380D01*
X179736666Y-36330000D01*
X179689047Y-36377619D01*
X179641428Y-36472857D01*
X179641428Y-36710952D01*
X179689047Y-36806190D01*
X179736666Y-36853809D01*
X179831904Y-36901428D01*
X180022380Y-36901428D01*
X180117619Y-36853809D01*
X180165238Y-36806190D01*
X180212857Y-36710952D01*
X220170476Y-150272380D02*
X220170476Y-150986666D01*
X220122857Y-151129523D01*
X220027619Y-151224761D01*
X219884761Y-151272380D01*
X219789523Y-151272380D01*
X220551428Y-150272380D02*
X221170476Y-150272380D01*
X220837142Y-150653333D01*
X220980000Y-150653333D01*
X221075238Y-150700952D01*
X221122857Y-150748571D01*
X221170476Y-150843809D01*
X221170476Y-151081904D01*
X221122857Y-151177142D01*
X221075238Y-151224761D01*
X220980000Y-151272380D01*
X220694285Y-151272380D01*
X220599047Y-151224761D01*
X220551428Y-151177142D01*
X221789523Y-150272380D02*
X221884761Y-150272380D01*
X221980000Y-150320000D01*
X222027619Y-150367619D01*
X222075238Y-150462857D01*
X222122857Y-150653333D01*
X222122857Y-150891428D01*
X222075238Y-151081904D01*
X222027619Y-151177142D01*
X221980000Y-151224761D01*
X221884761Y-151272380D01*
X221789523Y-151272380D01*
X221694285Y-151224761D01*
X221646666Y-151177142D01*
X221599047Y-151081904D01*
X221551428Y-150891428D01*
X221551428Y-150653333D01*
X221599047Y-150462857D01*
X221646666Y-150367619D01*
X221694285Y-150320000D01*
X221789523Y-150272380D01*
X204930476Y-150272380D02*
X204930476Y-150986666D01*
X204882857Y-151129523D01*
X204787619Y-151224761D01*
X204644761Y-151272380D01*
X204549523Y-151272380D01*
X205359047Y-150367619D02*
X205406666Y-150320000D01*
X205501904Y-150272380D01*
X205740000Y-150272380D01*
X205835238Y-150320000D01*
X205882857Y-150367619D01*
X205930476Y-150462857D01*
X205930476Y-150558095D01*
X205882857Y-150700952D01*
X205311428Y-151272380D01*
X205930476Y-151272380D01*
X206406666Y-151272380D02*
X206597142Y-151272380D01*
X206692380Y-151224761D01*
X206740000Y-151177142D01*
X206835238Y-151034285D01*
X206882857Y-150843809D01*
X206882857Y-150462857D01*
X206835238Y-150367619D01*
X206787619Y-150320000D01*
X206692380Y-150272380D01*
X206501904Y-150272380D01*
X206406666Y-150320000D01*
X206359047Y-150367619D01*
X206311428Y-150462857D01*
X206311428Y-150700952D01*
X206359047Y-150796190D01*
X206406666Y-150843809D01*
X206501904Y-150891428D01*
X206692380Y-150891428D01*
X206787619Y-150843809D01*
X206835238Y-150796190D01*
X206882857Y-150700952D01*
X204930476Y-138842380D02*
X204930476Y-139556666D01*
X204882857Y-139699523D01*
X204787619Y-139794761D01*
X204644761Y-139842380D01*
X204549523Y-139842380D01*
X205359047Y-138937619D02*
X205406666Y-138890000D01*
X205501904Y-138842380D01*
X205740000Y-138842380D01*
X205835238Y-138890000D01*
X205882857Y-138937619D01*
X205930476Y-139032857D01*
X205930476Y-139128095D01*
X205882857Y-139270952D01*
X205311428Y-139842380D01*
X205930476Y-139842380D01*
X206501904Y-139270952D02*
X206406666Y-139223333D01*
X206359047Y-139175714D01*
X206311428Y-139080476D01*
X206311428Y-139032857D01*
X206359047Y-138937619D01*
X206406666Y-138890000D01*
X206501904Y-138842380D01*
X206692380Y-138842380D01*
X206787619Y-138890000D01*
X206835238Y-138937619D01*
X206882857Y-139032857D01*
X206882857Y-139080476D01*
X206835238Y-139175714D01*
X206787619Y-139223333D01*
X206692380Y-139270952D01*
X206501904Y-139270952D01*
X206406666Y-139318571D01*
X206359047Y-139366190D01*
X206311428Y-139461428D01*
X206311428Y-139651904D01*
X206359047Y-139747142D01*
X206406666Y-139794761D01*
X206501904Y-139842380D01*
X206692380Y-139842380D01*
X206787619Y-139794761D01*
X206835238Y-139747142D01*
X206882857Y-139651904D01*
X206882857Y-139461428D01*
X206835238Y-139366190D01*
X206787619Y-139318571D01*
X206692380Y-139270952D01*
X212487142Y-57276666D02*
X212534761Y-57324285D01*
X212582380Y-57467142D01*
X212582380Y-57562380D01*
X212534761Y-57705238D01*
X212439523Y-57800476D01*
X212344285Y-57848095D01*
X212153809Y-57895714D01*
X212010952Y-57895714D01*
X211820476Y-57848095D01*
X211725238Y-57800476D01*
X211630000Y-57705238D01*
X211582380Y-57562380D01*
X211582380Y-57467142D01*
X211630000Y-57324285D01*
X211677619Y-57276666D01*
X212582380Y-56324285D02*
X212582380Y-56895714D01*
X212582380Y-56610000D02*
X211582380Y-56610000D01*
X211725238Y-56705238D01*
X211820476Y-56800476D01*
X211868095Y-56895714D01*
X204283333Y-51217142D02*
X204235714Y-51264761D01*
X204092857Y-51312380D01*
X203997619Y-51312380D01*
X203854761Y-51264761D01*
X203759523Y-51169523D01*
X203711904Y-51074285D01*
X203664285Y-50883809D01*
X203664285Y-50740952D01*
X203711904Y-50550476D01*
X203759523Y-50455238D01*
X203854761Y-50360000D01*
X203997619Y-50312380D01*
X204092857Y-50312380D01*
X204235714Y-50360000D01*
X204283333Y-50407619D01*
X204664285Y-50407619D02*
X204711904Y-50360000D01*
X204807142Y-50312380D01*
X205045238Y-50312380D01*
X205140476Y-50360000D01*
X205188095Y-50407619D01*
X205235714Y-50502857D01*
X205235714Y-50598095D01*
X205188095Y-50740952D01*
X204616666Y-51312380D01*
X205235714Y-51312380D01*
X224643333Y-58717142D02*
X224595714Y-58764761D01*
X224452857Y-58812380D01*
X224357619Y-58812380D01*
X224214761Y-58764761D01*
X224119523Y-58669523D01*
X224071904Y-58574285D01*
X224024285Y-58383809D01*
X224024285Y-58240952D01*
X224071904Y-58050476D01*
X224119523Y-57955238D01*
X224214761Y-57860000D01*
X224357619Y-57812380D01*
X224452857Y-57812380D01*
X224595714Y-57860000D01*
X224643333Y-57907619D01*
X224976666Y-57812380D02*
X225595714Y-57812380D01*
X225262380Y-58193333D01*
X225405238Y-58193333D01*
X225500476Y-58240952D01*
X225548095Y-58288571D01*
X225595714Y-58383809D01*
X225595714Y-58621904D01*
X225548095Y-58717142D01*
X225500476Y-58764761D01*
X225405238Y-58812380D01*
X225119523Y-58812380D01*
X225024285Y-58764761D01*
X224976666Y-58717142D01*
X78402380Y-87963333D02*
X79116666Y-87963333D01*
X79259523Y-88010952D01*
X79354761Y-88106190D01*
X79402380Y-88249047D01*
X79402380Y-88344285D01*
X78402380Y-87582380D02*
X78402380Y-86963333D01*
X78783333Y-87296666D01*
X78783333Y-87153809D01*
X78830952Y-87058571D01*
X78878571Y-87010952D01*
X78973809Y-86963333D01*
X79211904Y-86963333D01*
X79307142Y-87010952D01*
X79354761Y-87058571D01*
X79402380Y-87153809D01*
X79402380Y-87439523D01*
X79354761Y-87534761D01*
X79307142Y-87582380D01*
X55542380Y-87963333D02*
X56256666Y-87963333D01*
X56399523Y-88010952D01*
X56494761Y-88106190D01*
X56542380Y-88249047D01*
X56542380Y-88344285D01*
X55875714Y-87058571D02*
X56542380Y-87058571D01*
X55494761Y-87296666D02*
X56209047Y-87534761D01*
X56209047Y-86915714D01*
X65282380Y-104473333D02*
X65996666Y-104473333D01*
X66139523Y-104520952D01*
X66234761Y-104616190D01*
X66282380Y-104759047D01*
X66282380Y-104854285D01*
X65282380Y-103520952D02*
X65282380Y-103997142D01*
X65758571Y-104044761D01*
X65710952Y-103997142D01*
X65663333Y-103901904D01*
X65663333Y-103663809D01*
X65710952Y-103568571D01*
X65758571Y-103520952D01*
X65853809Y-103473333D01*
X66091904Y-103473333D01*
X66187142Y-103520952D01*
X66234761Y-103568571D01*
X66282380Y-103663809D01*
X66282380Y-103901904D01*
X66234761Y-103997142D01*
X66187142Y-104044761D01*
X88142380Y-104473333D02*
X88856666Y-104473333D01*
X88999523Y-104520952D01*
X89094761Y-104616190D01*
X89142380Y-104759047D01*
X89142380Y-104854285D01*
X88142380Y-103568571D02*
X88142380Y-103759047D01*
X88190000Y-103854285D01*
X88237619Y-103901904D01*
X88380476Y-103997142D01*
X88570952Y-104044761D01*
X88951904Y-104044761D01*
X89047142Y-103997142D01*
X89094761Y-103949523D01*
X89142380Y-103854285D01*
X89142380Y-103663809D01*
X89094761Y-103568571D01*
X89047142Y-103520952D01*
X88951904Y-103473333D01*
X88713809Y-103473333D01*
X88618571Y-103520952D01*
X88570952Y-103568571D01*
X88523333Y-103663809D01*
X88523333Y-103854285D01*
X88570952Y-103949523D01*
X88618571Y-103997142D01*
X88713809Y-104044761D01*
X113962380Y-87963333D02*
X114676666Y-87963333D01*
X114819523Y-88010952D01*
X114914761Y-88106190D01*
X114962380Y-88249047D01*
X114962380Y-88344285D01*
X114962380Y-87439523D02*
X114962380Y-87249047D01*
X114914761Y-87153809D01*
X114867142Y-87106190D01*
X114724285Y-87010952D01*
X114533809Y-86963333D01*
X114152857Y-86963333D01*
X114057619Y-87010952D01*
X114010000Y-87058571D01*
X113962380Y-87153809D01*
X113962380Y-87344285D01*
X114010000Y-87439523D01*
X114057619Y-87487142D01*
X114152857Y-87534761D01*
X114390952Y-87534761D01*
X114486190Y-87487142D01*
X114533809Y-87439523D01*
X114581428Y-87344285D01*
X114581428Y-87153809D01*
X114533809Y-87058571D01*
X114486190Y-87010952D01*
X114390952Y-86963333D01*
X91102380Y-88439523D02*
X91816666Y-88439523D01*
X91959523Y-88487142D01*
X92054761Y-88582380D01*
X92102380Y-88725238D01*
X92102380Y-88820476D01*
X92102380Y-87439523D02*
X92102380Y-88010952D01*
X92102380Y-87725238D02*
X91102380Y-87725238D01*
X91245238Y-87820476D01*
X91340476Y-87915714D01*
X91388095Y-88010952D01*
X91102380Y-86820476D02*
X91102380Y-86725238D01*
X91150000Y-86630000D01*
X91197619Y-86582380D01*
X91292857Y-86534761D01*
X91483333Y-86487142D01*
X91721428Y-86487142D01*
X91911904Y-86534761D01*
X92007142Y-86582380D01*
X92054761Y-86630000D01*
X92102380Y-86725238D01*
X92102380Y-86820476D01*
X92054761Y-86915714D01*
X92007142Y-86963333D01*
X91911904Y-87010952D01*
X91721428Y-87058571D01*
X91483333Y-87058571D01*
X91292857Y-87010952D01*
X91197619Y-86963333D01*
X91150000Y-86915714D01*
X91102380Y-86820476D01*
X100842380Y-104949523D02*
X101556666Y-104949523D01*
X101699523Y-104997142D01*
X101794761Y-105092380D01*
X101842380Y-105235238D01*
X101842380Y-105330476D01*
X101842380Y-103949523D02*
X101842380Y-104520952D01*
X101842380Y-104235238D02*
X100842380Y-104235238D01*
X100985238Y-104330476D01*
X101080476Y-104425714D01*
X101128095Y-104520952D01*
X101842380Y-102997142D02*
X101842380Y-103568571D01*
X101842380Y-103282857D02*
X100842380Y-103282857D01*
X100985238Y-103378095D01*
X101080476Y-103473333D01*
X101128095Y-103568571D01*
X123702380Y-104949523D02*
X124416666Y-104949523D01*
X124559523Y-104997142D01*
X124654761Y-105092380D01*
X124702380Y-105235238D01*
X124702380Y-105330476D01*
X124702380Y-103949523D02*
X124702380Y-104520952D01*
X124702380Y-104235238D02*
X123702380Y-104235238D01*
X123845238Y-104330476D01*
X123940476Y-104425714D01*
X123988095Y-104520952D01*
X123797619Y-103568571D02*
X123750000Y-103520952D01*
X123702380Y-103425714D01*
X123702380Y-103187619D01*
X123750000Y-103092380D01*
X123797619Y-103044761D01*
X123892857Y-102997142D01*
X123988095Y-102997142D01*
X124130952Y-103044761D01*
X124702380Y-103616190D01*
X124702380Y-102997142D01*
X149522380Y-88439523D02*
X150236666Y-88439523D01*
X150379523Y-88487142D01*
X150474761Y-88582380D01*
X150522380Y-88725238D01*
X150522380Y-88820476D01*
X150522380Y-87439523D02*
X150522380Y-88010952D01*
X150522380Y-87725238D02*
X149522380Y-87725238D01*
X149665238Y-87820476D01*
X149760476Y-87915714D01*
X149808095Y-88010952D01*
X149522380Y-86534761D02*
X149522380Y-87010952D01*
X149998571Y-87058571D01*
X149950952Y-87010952D01*
X149903333Y-86915714D01*
X149903333Y-86677619D01*
X149950952Y-86582380D01*
X149998571Y-86534761D01*
X150093809Y-86487142D01*
X150331904Y-86487142D01*
X150427142Y-86534761D01*
X150474761Y-86582380D01*
X150522380Y-86677619D01*
X150522380Y-86915714D01*
X150474761Y-87010952D01*
X150427142Y-87058571D01*
X126662380Y-88439523D02*
X127376666Y-88439523D01*
X127519523Y-88487142D01*
X127614761Y-88582380D01*
X127662380Y-88725238D01*
X127662380Y-88820476D01*
X127662380Y-87439523D02*
X127662380Y-88010952D01*
X127662380Y-87725238D02*
X126662380Y-87725238D01*
X126805238Y-87820476D01*
X126900476Y-87915714D01*
X126948095Y-88010952D01*
X126662380Y-86582380D02*
X126662380Y-86772857D01*
X126710000Y-86868095D01*
X126757619Y-86915714D01*
X126900476Y-87010952D01*
X127090952Y-87058571D01*
X127471904Y-87058571D01*
X127567142Y-87010952D01*
X127614761Y-86963333D01*
X127662380Y-86868095D01*
X127662380Y-86677619D01*
X127614761Y-86582380D01*
X127567142Y-86534761D01*
X127471904Y-86487142D01*
X127233809Y-86487142D01*
X127138571Y-86534761D01*
X127090952Y-86582380D01*
X127043333Y-86677619D01*
X127043333Y-86868095D01*
X127090952Y-86963333D01*
X127138571Y-87010952D01*
X127233809Y-87058571D01*
X136402380Y-104949523D02*
X137116666Y-104949523D01*
X137259523Y-104997142D01*
X137354761Y-105092380D01*
X137402380Y-105235238D01*
X137402380Y-105330476D01*
X137402380Y-103949523D02*
X137402380Y-104520952D01*
X137402380Y-104235238D02*
X136402380Y-104235238D01*
X136545238Y-104330476D01*
X136640476Y-104425714D01*
X136688095Y-104520952D01*
X136402380Y-103616190D02*
X136402380Y-102949523D01*
X137402380Y-103378095D01*
X159262380Y-104949523D02*
X159976666Y-104949523D01*
X160119523Y-104997142D01*
X160214761Y-105092380D01*
X160262380Y-105235238D01*
X160262380Y-105330476D01*
X160262380Y-103949523D02*
X160262380Y-104520952D01*
X160262380Y-104235238D02*
X159262380Y-104235238D01*
X159405238Y-104330476D01*
X159500476Y-104425714D01*
X159548095Y-104520952D01*
X159690952Y-103378095D02*
X159643333Y-103473333D01*
X159595714Y-103520952D01*
X159500476Y-103568571D01*
X159452857Y-103568571D01*
X159357619Y-103520952D01*
X159310000Y-103473333D01*
X159262380Y-103378095D01*
X159262380Y-103187619D01*
X159310000Y-103092380D01*
X159357619Y-103044761D01*
X159452857Y-102997142D01*
X159500476Y-102997142D01*
X159595714Y-103044761D01*
X159643333Y-103092380D01*
X159690952Y-103187619D01*
X159690952Y-103378095D01*
X159738571Y-103473333D01*
X159786190Y-103520952D01*
X159881428Y-103568571D01*
X160071904Y-103568571D01*
X160167142Y-103520952D01*
X160214761Y-103473333D01*
X160262380Y-103378095D01*
X160262380Y-103187619D01*
X160214761Y-103092380D01*
X160167142Y-103044761D01*
X160071904Y-102997142D01*
X159881428Y-102997142D01*
X159786190Y-103044761D01*
X159738571Y-103092380D01*
X159690952Y-103187619D01*
X194822380Y-88439523D02*
X195536666Y-88439523D01*
X195679523Y-88487142D01*
X195774761Y-88582380D01*
X195822380Y-88725238D01*
X195822380Y-88820476D01*
X194917619Y-88010952D02*
X194870000Y-87963333D01*
X194822380Y-87868095D01*
X194822380Y-87630000D01*
X194870000Y-87534761D01*
X194917619Y-87487142D01*
X195012857Y-87439523D01*
X195108095Y-87439523D01*
X195250952Y-87487142D01*
X195822380Y-88058571D01*
X195822380Y-87439523D01*
X195822380Y-86487142D02*
X195822380Y-87058571D01*
X195822380Y-86772857D02*
X194822380Y-86772857D01*
X194965238Y-86868095D01*
X195060476Y-86963333D01*
X195108095Y-87058571D01*
X162222380Y-88439523D02*
X162936666Y-88439523D01*
X163079523Y-88487142D01*
X163174761Y-88582380D01*
X163222380Y-88725238D01*
X163222380Y-88820476D01*
X162317619Y-88010952D02*
X162270000Y-87963333D01*
X162222380Y-87868095D01*
X162222380Y-87630000D01*
X162270000Y-87534761D01*
X162317619Y-87487142D01*
X162412857Y-87439523D01*
X162508095Y-87439523D01*
X162650952Y-87487142D01*
X163222380Y-88058571D01*
X163222380Y-87439523D01*
X162317619Y-87058571D02*
X162270000Y-87010952D01*
X162222380Y-86915714D01*
X162222380Y-86677619D01*
X162270000Y-86582380D01*
X162317619Y-86534761D01*
X162412857Y-86487142D01*
X162508095Y-86487142D01*
X162650952Y-86534761D01*
X163222380Y-87106190D01*
X163222380Y-86487142D01*
X171962380Y-104949523D02*
X172676666Y-104949523D01*
X172819523Y-104997142D01*
X172914761Y-105092380D01*
X172962380Y-105235238D01*
X172962380Y-105330476D01*
X172057619Y-104520952D02*
X172010000Y-104473333D01*
X171962380Y-104378095D01*
X171962380Y-104140000D01*
X172010000Y-104044761D01*
X172057619Y-103997142D01*
X172152857Y-103949523D01*
X172248095Y-103949523D01*
X172390952Y-103997142D01*
X172962380Y-104568571D01*
X172962380Y-103949523D01*
X171962380Y-103616190D02*
X171962380Y-102997142D01*
X172343333Y-103330476D01*
X172343333Y-103187619D01*
X172390952Y-103092380D01*
X172438571Y-103044761D01*
X172533809Y-102997142D01*
X172771904Y-102997142D01*
X172867142Y-103044761D01*
X172914761Y-103092380D01*
X172962380Y-103187619D01*
X172962380Y-103473333D01*
X172914761Y-103568571D01*
X172867142Y-103616190D01*
X185082380Y-104949523D02*
X185796666Y-104949523D01*
X185939523Y-104997142D01*
X186034761Y-105092380D01*
X186082380Y-105235238D01*
X186082380Y-105330476D01*
X185177619Y-104520952D02*
X185130000Y-104473333D01*
X185082380Y-104378095D01*
X185082380Y-104140000D01*
X185130000Y-104044761D01*
X185177619Y-103997142D01*
X185272857Y-103949523D01*
X185368095Y-103949523D01*
X185510952Y-103997142D01*
X186082380Y-104568571D01*
X186082380Y-103949523D01*
X185415714Y-103092380D02*
X186082380Y-103092380D01*
X185034761Y-103330476D02*
X185749047Y-103568571D01*
X185749047Y-102949523D01*
X243400476Y-36882380D02*
X243400476Y-37596666D01*
X243352857Y-37739523D01*
X243257619Y-37834761D01*
X243114761Y-37882380D01*
X243019523Y-37882380D01*
X243829047Y-36977619D02*
X243876666Y-36930000D01*
X243971904Y-36882380D01*
X244210000Y-36882380D01*
X244305238Y-36930000D01*
X244352857Y-36977619D01*
X244400476Y-37072857D01*
X244400476Y-37168095D01*
X244352857Y-37310952D01*
X243781428Y-37882380D01*
X244400476Y-37882380D01*
X245305238Y-36882380D02*
X244829047Y-36882380D01*
X244781428Y-37358571D01*
X244829047Y-37310952D01*
X244924285Y-37263333D01*
X245162380Y-37263333D01*
X245257619Y-37310952D01*
X245305238Y-37358571D01*
X245352857Y-37453809D01*
X245352857Y-37691904D01*
X245305238Y-37787142D01*
X245257619Y-37834761D01*
X245162380Y-37882380D01*
X244924285Y-37882380D01*
X244829047Y-37834761D01*
X244781428Y-37787142D01*
X225087619Y-110585238D02*
X225040000Y-110680476D01*
X224944761Y-110775714D01*
X224801904Y-110918571D01*
X224754285Y-111013809D01*
X224754285Y-111109047D01*
X224992380Y-111061428D02*
X224944761Y-111156666D01*
X224849523Y-111251904D01*
X224659047Y-111299523D01*
X224325714Y-111299523D01*
X224135238Y-111251904D01*
X224040000Y-111156666D01*
X223992380Y-111061428D01*
X223992380Y-110870952D01*
X224040000Y-110775714D01*
X224135238Y-110680476D01*
X224325714Y-110632857D01*
X224659047Y-110632857D01*
X224849523Y-110680476D01*
X224944761Y-110775714D01*
X224992380Y-110870952D01*
X224992380Y-111061428D01*
X224992380Y-109680476D02*
X224992380Y-110251904D01*
X224992380Y-109966190D02*
X223992380Y-109966190D01*
X224135238Y-110061428D01*
X224230476Y-110156666D01*
X224278095Y-110251904D01*
X225087619Y-127095238D02*
X225040000Y-127190476D01*
X224944761Y-127285714D01*
X224801904Y-127428571D01*
X224754285Y-127523809D01*
X224754285Y-127619047D01*
X224992380Y-127571428D02*
X224944761Y-127666666D01*
X224849523Y-127761904D01*
X224659047Y-127809523D01*
X224325714Y-127809523D01*
X224135238Y-127761904D01*
X224040000Y-127666666D01*
X223992380Y-127571428D01*
X223992380Y-127380952D01*
X224040000Y-127285714D01*
X224135238Y-127190476D01*
X224325714Y-127142857D01*
X224659047Y-127142857D01*
X224849523Y-127190476D01*
X224944761Y-127285714D01*
X224992380Y-127380952D01*
X224992380Y-127571428D01*
X224087619Y-126761904D02*
X224040000Y-126714285D01*
X223992380Y-126619047D01*
X223992380Y-126380952D01*
X224040000Y-126285714D01*
X224087619Y-126238095D01*
X224182857Y-126190476D01*
X224278095Y-126190476D01*
X224420952Y-126238095D01*
X224992380Y-126809523D01*
X224992380Y-126190476D01*
X209383333Y-107132380D02*
X209050000Y-106656190D01*
X208811904Y-107132380D02*
X208811904Y-106132380D01*
X209192857Y-106132380D01*
X209288095Y-106180000D01*
X209335714Y-106227619D01*
X209383333Y-106322857D01*
X209383333Y-106465714D01*
X209335714Y-106560952D01*
X209288095Y-106608571D01*
X209192857Y-106656190D01*
X208811904Y-106656190D01*
X210335714Y-107132380D02*
X209764285Y-107132380D01*
X210050000Y-107132380D02*
X210050000Y-106132380D01*
X209954761Y-106275238D01*
X209859523Y-106370476D01*
X209764285Y-106418095D01*
X209383333Y-123642380D02*
X209050000Y-123166190D01*
X208811904Y-123642380D02*
X208811904Y-122642380D01*
X209192857Y-122642380D01*
X209288095Y-122690000D01*
X209335714Y-122737619D01*
X209383333Y-122832857D01*
X209383333Y-122975714D01*
X209335714Y-123070952D01*
X209288095Y-123118571D01*
X209192857Y-123166190D01*
X208811904Y-123166190D01*
X209764285Y-122737619D02*
X209811904Y-122690000D01*
X209907142Y-122642380D01*
X210145238Y-122642380D01*
X210240476Y-122690000D01*
X210288095Y-122737619D01*
X210335714Y-122832857D01*
X210335714Y-122928095D01*
X210288095Y-123070952D01*
X209716666Y-123642380D01*
X210335714Y-123642380D01*
X239863333Y-61412380D02*
X239530000Y-60936190D01*
X239291904Y-61412380D02*
X239291904Y-60412380D01*
X239672857Y-60412380D01*
X239768095Y-60460000D01*
X239815714Y-60507619D01*
X239863333Y-60602857D01*
X239863333Y-60745714D01*
X239815714Y-60840952D01*
X239768095Y-60888571D01*
X239672857Y-60936190D01*
X239291904Y-60936190D01*
X240196666Y-60412380D02*
X240815714Y-60412380D01*
X240482380Y-60793333D01*
X240625238Y-60793333D01*
X240720476Y-60840952D01*
X240768095Y-60888571D01*
X240815714Y-60983809D01*
X240815714Y-61221904D01*
X240768095Y-61317142D01*
X240720476Y-61364761D01*
X240625238Y-61412380D01*
X240339523Y-61412380D01*
X240244285Y-61364761D01*
X240196666Y-61317142D01*
X209383333Y-114752380D02*
X209050000Y-114276190D01*
X208811904Y-114752380D02*
X208811904Y-113752380D01*
X209192857Y-113752380D01*
X209288095Y-113800000D01*
X209335714Y-113847619D01*
X209383333Y-113942857D01*
X209383333Y-114085714D01*
X209335714Y-114180952D01*
X209288095Y-114228571D01*
X209192857Y-114276190D01*
X208811904Y-114276190D01*
X210240476Y-114085714D02*
X210240476Y-114752380D01*
X210002380Y-113704761D02*
X209764285Y-114419047D01*
X210383333Y-114419047D01*
X209383333Y-131262380D02*
X209050000Y-130786190D01*
X208811904Y-131262380D02*
X208811904Y-130262380D01*
X209192857Y-130262380D01*
X209288095Y-130310000D01*
X209335714Y-130357619D01*
X209383333Y-130452857D01*
X209383333Y-130595714D01*
X209335714Y-130690952D01*
X209288095Y-130738571D01*
X209192857Y-130786190D01*
X208811904Y-130786190D01*
X210288095Y-130262380D02*
X209811904Y-130262380D01*
X209764285Y-130738571D01*
X209811904Y-130690952D01*
X209907142Y-130643333D01*
X210145238Y-130643333D01*
X210240476Y-130690952D01*
X210288095Y-130738571D01*
X210335714Y-130833809D01*
X210335714Y-131071904D01*
X210288095Y-131167142D01*
X210240476Y-131214761D01*
X210145238Y-131262380D01*
X209907142Y-131262380D01*
X209811904Y-131214761D01*
X209764285Y-131167142D01*
X239863333Y-53792380D02*
X239530000Y-53316190D01*
X239291904Y-53792380D02*
X239291904Y-52792380D01*
X239672857Y-52792380D01*
X239768095Y-52840000D01*
X239815714Y-52887619D01*
X239863333Y-52982857D01*
X239863333Y-53125714D01*
X239815714Y-53220952D01*
X239768095Y-53268571D01*
X239672857Y-53316190D01*
X239291904Y-53316190D01*
X240720476Y-52792380D02*
X240530000Y-52792380D01*
X240434761Y-52840000D01*
X240387142Y-52887619D01*
X240291904Y-53030476D01*
X240244285Y-53220952D01*
X240244285Y-53601904D01*
X240291904Y-53697142D01*
X240339523Y-53744761D01*
X240434761Y-53792380D01*
X240625238Y-53792380D01*
X240720476Y-53744761D01*
X240768095Y-53697142D01*
X240815714Y-53601904D01*
X240815714Y-53363809D01*
X240768095Y-53268571D01*
X240720476Y-53220952D01*
X240625238Y-53173333D01*
X240434761Y-53173333D01*
X240339523Y-53220952D01*
X240291904Y-53268571D01*
X240244285Y-53363809D01*
X81872380Y-64190476D02*
X81396190Y-64523809D01*
X81872380Y-64761904D02*
X80872380Y-64761904D01*
X80872380Y-64380952D01*
X80920000Y-64285714D01*
X80967619Y-64238095D01*
X81062857Y-64190476D01*
X81205714Y-64190476D01*
X81300952Y-64238095D01*
X81348571Y-64285714D01*
X81396190Y-64380952D01*
X81396190Y-64761904D01*
X81872380Y-63761904D02*
X80872380Y-63761904D01*
X81872380Y-63190476D01*
X80872380Y-63190476D01*
X81872380Y-62190476D02*
X81872380Y-62761904D01*
X81872380Y-62476190D02*
X80872380Y-62476190D01*
X81015238Y-62571428D01*
X81110476Y-62666666D01*
X81158095Y-62761904D01*
X59012380Y-64190476D02*
X58536190Y-64523809D01*
X59012380Y-64761904D02*
X58012380Y-64761904D01*
X58012380Y-64380952D01*
X58060000Y-64285714D01*
X58107619Y-64238095D01*
X58202857Y-64190476D01*
X58345714Y-64190476D01*
X58440952Y-64238095D01*
X58488571Y-64285714D01*
X58536190Y-64380952D01*
X58536190Y-64761904D01*
X59012380Y-63761904D02*
X58012380Y-63761904D01*
X59012380Y-63190476D01*
X58012380Y-63190476D01*
X58107619Y-62761904D02*
X58060000Y-62714285D01*
X58012380Y-62619047D01*
X58012380Y-62380952D01*
X58060000Y-62285714D01*
X58107619Y-62238095D01*
X58202857Y-62190476D01*
X58298095Y-62190476D01*
X58440952Y-62238095D01*
X59012380Y-62809523D01*
X59012380Y-62190476D01*
X63812380Y-128960476D02*
X63336190Y-129293809D01*
X63812380Y-129531904D02*
X62812380Y-129531904D01*
X62812380Y-129150952D01*
X62860000Y-129055714D01*
X62907619Y-129008095D01*
X63002857Y-128960476D01*
X63145714Y-128960476D01*
X63240952Y-129008095D01*
X63288571Y-129055714D01*
X63336190Y-129150952D01*
X63336190Y-129531904D01*
X63812380Y-128531904D02*
X62812380Y-128531904D01*
X63812380Y-127960476D01*
X62812380Y-127960476D01*
X62812380Y-127579523D02*
X62812380Y-126960476D01*
X63193333Y-127293809D01*
X63193333Y-127150952D01*
X63240952Y-127055714D01*
X63288571Y-127008095D01*
X63383809Y-126960476D01*
X63621904Y-126960476D01*
X63717142Y-127008095D01*
X63764761Y-127055714D01*
X63812380Y-127150952D01*
X63812380Y-127436666D01*
X63764761Y-127531904D01*
X63717142Y-127579523D01*
X86672380Y-128960476D02*
X86196190Y-129293809D01*
X86672380Y-129531904D02*
X85672380Y-129531904D01*
X85672380Y-129150952D01*
X85720000Y-129055714D01*
X85767619Y-129008095D01*
X85862857Y-128960476D01*
X86005714Y-128960476D01*
X86100952Y-129008095D01*
X86148571Y-129055714D01*
X86196190Y-129150952D01*
X86196190Y-129531904D01*
X86672380Y-128531904D02*
X85672380Y-128531904D01*
X86672380Y-127960476D01*
X85672380Y-127960476D01*
X86005714Y-127055714D02*
X86672380Y-127055714D01*
X85624761Y-127293809D02*
X86339047Y-127531904D01*
X86339047Y-126912857D01*
X117432380Y-64190476D02*
X116956190Y-64523809D01*
X117432380Y-64761904D02*
X116432380Y-64761904D01*
X116432380Y-64380952D01*
X116480000Y-64285714D01*
X116527619Y-64238095D01*
X116622857Y-64190476D01*
X116765714Y-64190476D01*
X116860952Y-64238095D01*
X116908571Y-64285714D01*
X116956190Y-64380952D01*
X116956190Y-64761904D01*
X117432380Y-63761904D02*
X116432380Y-63761904D01*
X117432380Y-63190476D01*
X116432380Y-63190476D01*
X116432380Y-62238095D02*
X116432380Y-62714285D01*
X116908571Y-62761904D01*
X116860952Y-62714285D01*
X116813333Y-62619047D01*
X116813333Y-62380952D01*
X116860952Y-62285714D01*
X116908571Y-62238095D01*
X117003809Y-62190476D01*
X117241904Y-62190476D01*
X117337142Y-62238095D01*
X117384761Y-62285714D01*
X117432380Y-62380952D01*
X117432380Y-62619047D01*
X117384761Y-62714285D01*
X117337142Y-62761904D01*
X94572380Y-64190476D02*
X94096190Y-64523809D01*
X94572380Y-64761904D02*
X93572380Y-64761904D01*
X93572380Y-64380952D01*
X93620000Y-64285714D01*
X93667619Y-64238095D01*
X93762857Y-64190476D01*
X93905714Y-64190476D01*
X94000952Y-64238095D01*
X94048571Y-64285714D01*
X94096190Y-64380952D01*
X94096190Y-64761904D01*
X94572380Y-63761904D02*
X93572380Y-63761904D01*
X94572380Y-63190476D01*
X93572380Y-63190476D01*
X93572380Y-62285714D02*
X93572380Y-62476190D01*
X93620000Y-62571428D01*
X93667619Y-62619047D01*
X93810476Y-62714285D01*
X94000952Y-62761904D01*
X94381904Y-62761904D01*
X94477142Y-62714285D01*
X94524761Y-62666666D01*
X94572380Y-62571428D01*
X94572380Y-62380952D01*
X94524761Y-62285714D01*
X94477142Y-62238095D01*
X94381904Y-62190476D01*
X94143809Y-62190476D01*
X94048571Y-62238095D01*
X94000952Y-62285714D01*
X93953333Y-62380952D01*
X93953333Y-62571428D01*
X94000952Y-62666666D01*
X94048571Y-62714285D01*
X94143809Y-62761904D01*
X99372380Y-128960476D02*
X98896190Y-129293809D01*
X99372380Y-129531904D02*
X98372380Y-129531904D01*
X98372380Y-129150952D01*
X98420000Y-129055714D01*
X98467619Y-129008095D01*
X98562857Y-128960476D01*
X98705714Y-128960476D01*
X98800952Y-129008095D01*
X98848571Y-129055714D01*
X98896190Y-129150952D01*
X98896190Y-129531904D01*
X99372380Y-128531904D02*
X98372380Y-128531904D01*
X99372380Y-127960476D01*
X98372380Y-127960476D01*
X98372380Y-127579523D02*
X98372380Y-126912857D01*
X99372380Y-127341428D01*
X122232380Y-128960476D02*
X121756190Y-129293809D01*
X122232380Y-129531904D02*
X121232380Y-129531904D01*
X121232380Y-129150952D01*
X121280000Y-129055714D01*
X121327619Y-129008095D01*
X121422857Y-128960476D01*
X121565714Y-128960476D01*
X121660952Y-129008095D01*
X121708571Y-129055714D01*
X121756190Y-129150952D01*
X121756190Y-129531904D01*
X122232380Y-128531904D02*
X121232380Y-128531904D01*
X122232380Y-127960476D01*
X121232380Y-127960476D01*
X121660952Y-127341428D02*
X121613333Y-127436666D01*
X121565714Y-127484285D01*
X121470476Y-127531904D01*
X121422857Y-127531904D01*
X121327619Y-127484285D01*
X121280000Y-127436666D01*
X121232380Y-127341428D01*
X121232380Y-127150952D01*
X121280000Y-127055714D01*
X121327619Y-127008095D01*
X121422857Y-126960476D01*
X121470476Y-126960476D01*
X121565714Y-127008095D01*
X121613333Y-127055714D01*
X121660952Y-127150952D01*
X121660952Y-127341428D01*
X121708571Y-127436666D01*
X121756190Y-127484285D01*
X121851428Y-127531904D01*
X122041904Y-127531904D01*
X122137142Y-127484285D01*
X122184761Y-127436666D01*
X122232380Y-127341428D01*
X122232380Y-127150952D01*
X122184761Y-127055714D01*
X122137142Y-127008095D01*
X122041904Y-126960476D01*
X121851428Y-126960476D01*
X121756190Y-127008095D01*
X121708571Y-127055714D01*
X121660952Y-127150952D01*
X152992380Y-64190476D02*
X152516190Y-64523809D01*
X152992380Y-64761904D02*
X151992380Y-64761904D01*
X151992380Y-64380952D01*
X152040000Y-64285714D01*
X152087619Y-64238095D01*
X152182857Y-64190476D01*
X152325714Y-64190476D01*
X152420952Y-64238095D01*
X152468571Y-64285714D01*
X152516190Y-64380952D01*
X152516190Y-64761904D01*
X152992380Y-63761904D02*
X151992380Y-63761904D01*
X152992380Y-63190476D01*
X151992380Y-63190476D01*
X152992380Y-62666666D02*
X152992380Y-62476190D01*
X152944761Y-62380952D01*
X152897142Y-62333333D01*
X152754285Y-62238095D01*
X152563809Y-62190476D01*
X152182857Y-62190476D01*
X152087619Y-62238095D01*
X152040000Y-62285714D01*
X151992380Y-62380952D01*
X151992380Y-62571428D01*
X152040000Y-62666666D01*
X152087619Y-62714285D01*
X152182857Y-62761904D01*
X152420952Y-62761904D01*
X152516190Y-62714285D01*
X152563809Y-62666666D01*
X152611428Y-62571428D01*
X152611428Y-62380952D01*
X152563809Y-62285714D01*
X152516190Y-62238095D01*
X152420952Y-62190476D01*
X130132380Y-64666666D02*
X129656190Y-65000000D01*
X130132380Y-65238095D02*
X129132380Y-65238095D01*
X129132380Y-64857142D01*
X129180000Y-64761904D01*
X129227619Y-64714285D01*
X129322857Y-64666666D01*
X129465714Y-64666666D01*
X129560952Y-64714285D01*
X129608571Y-64761904D01*
X129656190Y-64857142D01*
X129656190Y-65238095D01*
X130132380Y-64238095D02*
X129132380Y-64238095D01*
X130132380Y-63666666D01*
X129132380Y-63666666D01*
X130132380Y-62666666D02*
X130132380Y-63238095D01*
X130132380Y-62952380D02*
X129132380Y-62952380D01*
X129275238Y-63047619D01*
X129370476Y-63142857D01*
X129418095Y-63238095D01*
X129132380Y-62047619D02*
X129132380Y-61952380D01*
X129180000Y-61857142D01*
X129227619Y-61809523D01*
X129322857Y-61761904D01*
X129513333Y-61714285D01*
X129751428Y-61714285D01*
X129941904Y-61761904D01*
X130037142Y-61809523D01*
X130084761Y-61857142D01*
X130132380Y-61952380D01*
X130132380Y-62047619D01*
X130084761Y-62142857D01*
X130037142Y-62190476D01*
X129941904Y-62238095D01*
X129751428Y-62285714D01*
X129513333Y-62285714D01*
X129322857Y-62238095D01*
X129227619Y-62190476D01*
X129180000Y-62142857D01*
X129132380Y-62047619D01*
X134932380Y-129436666D02*
X134456190Y-129770000D01*
X134932380Y-130008095D02*
X133932380Y-130008095D01*
X133932380Y-129627142D01*
X133980000Y-129531904D01*
X134027619Y-129484285D01*
X134122857Y-129436666D01*
X134265714Y-129436666D01*
X134360952Y-129484285D01*
X134408571Y-129531904D01*
X134456190Y-129627142D01*
X134456190Y-130008095D01*
X134932380Y-129008095D02*
X133932380Y-129008095D01*
X134932380Y-128436666D01*
X133932380Y-128436666D01*
X134932380Y-127436666D02*
X134932380Y-128008095D01*
X134932380Y-127722380D02*
X133932380Y-127722380D01*
X134075238Y-127817619D01*
X134170476Y-127912857D01*
X134218095Y-128008095D01*
X134932380Y-126484285D02*
X134932380Y-127055714D01*
X134932380Y-126770000D02*
X133932380Y-126770000D01*
X134075238Y-126865238D01*
X134170476Y-126960476D01*
X134218095Y-127055714D01*
X157792380Y-129436666D02*
X157316190Y-129770000D01*
X157792380Y-130008095D02*
X156792380Y-130008095D01*
X156792380Y-129627142D01*
X156840000Y-129531904D01*
X156887619Y-129484285D01*
X156982857Y-129436666D01*
X157125714Y-129436666D01*
X157220952Y-129484285D01*
X157268571Y-129531904D01*
X157316190Y-129627142D01*
X157316190Y-130008095D01*
X157792380Y-129008095D02*
X156792380Y-129008095D01*
X157792380Y-128436666D01*
X156792380Y-128436666D01*
X157792380Y-127436666D02*
X157792380Y-128008095D01*
X157792380Y-127722380D02*
X156792380Y-127722380D01*
X156935238Y-127817619D01*
X157030476Y-127912857D01*
X157078095Y-128008095D01*
X156887619Y-127055714D02*
X156840000Y-127008095D01*
X156792380Y-126912857D01*
X156792380Y-126674761D01*
X156840000Y-126579523D01*
X156887619Y-126531904D01*
X156982857Y-126484285D01*
X157078095Y-126484285D01*
X157220952Y-126531904D01*
X157792380Y-127103333D01*
X157792380Y-126484285D01*
X188552380Y-64666666D02*
X188076190Y-65000000D01*
X188552380Y-65238095D02*
X187552380Y-65238095D01*
X187552380Y-64857142D01*
X187600000Y-64761904D01*
X187647619Y-64714285D01*
X187742857Y-64666666D01*
X187885714Y-64666666D01*
X187980952Y-64714285D01*
X188028571Y-64761904D01*
X188076190Y-64857142D01*
X188076190Y-65238095D01*
X188552380Y-64238095D02*
X187552380Y-64238095D01*
X188552380Y-63666666D01*
X187552380Y-63666666D01*
X188552380Y-62666666D02*
X188552380Y-63238095D01*
X188552380Y-62952380D02*
X187552380Y-62952380D01*
X187695238Y-63047619D01*
X187790476Y-63142857D01*
X187838095Y-63238095D01*
X187552380Y-62333333D02*
X187552380Y-61714285D01*
X187933333Y-62047619D01*
X187933333Y-61904761D01*
X187980952Y-61809523D01*
X188028571Y-61761904D01*
X188123809Y-61714285D01*
X188361904Y-61714285D01*
X188457142Y-61761904D01*
X188504761Y-61809523D01*
X188552380Y-61904761D01*
X188552380Y-62190476D01*
X188504761Y-62285714D01*
X188457142Y-62333333D01*
X165692380Y-64666666D02*
X165216190Y-65000000D01*
X165692380Y-65238095D02*
X164692380Y-65238095D01*
X164692380Y-64857142D01*
X164740000Y-64761904D01*
X164787619Y-64714285D01*
X164882857Y-64666666D01*
X165025714Y-64666666D01*
X165120952Y-64714285D01*
X165168571Y-64761904D01*
X165216190Y-64857142D01*
X165216190Y-65238095D01*
X165692380Y-64238095D02*
X164692380Y-64238095D01*
X165692380Y-63666666D01*
X164692380Y-63666666D01*
X165692380Y-62666666D02*
X165692380Y-63238095D01*
X165692380Y-62952380D02*
X164692380Y-62952380D01*
X164835238Y-63047619D01*
X164930476Y-63142857D01*
X164978095Y-63238095D01*
X165025714Y-61809523D02*
X165692380Y-61809523D01*
X164644761Y-62047619D02*
X165359047Y-62285714D01*
X165359047Y-61666666D01*
X170492380Y-129436666D02*
X170016190Y-129770000D01*
X170492380Y-130008095D02*
X169492380Y-130008095D01*
X169492380Y-129627142D01*
X169540000Y-129531904D01*
X169587619Y-129484285D01*
X169682857Y-129436666D01*
X169825714Y-129436666D01*
X169920952Y-129484285D01*
X169968571Y-129531904D01*
X170016190Y-129627142D01*
X170016190Y-130008095D01*
X170492380Y-129008095D02*
X169492380Y-129008095D01*
X170492380Y-128436666D01*
X169492380Y-128436666D01*
X170492380Y-127436666D02*
X170492380Y-128008095D01*
X170492380Y-127722380D02*
X169492380Y-127722380D01*
X169635238Y-127817619D01*
X169730476Y-127912857D01*
X169778095Y-128008095D01*
X169492380Y-126531904D02*
X169492380Y-127008095D01*
X169968571Y-127055714D01*
X169920952Y-127008095D01*
X169873333Y-126912857D01*
X169873333Y-126674761D01*
X169920952Y-126579523D01*
X169968571Y-126531904D01*
X170063809Y-126484285D01*
X170301904Y-126484285D01*
X170397142Y-126531904D01*
X170444761Y-126579523D01*
X170492380Y-126674761D01*
X170492380Y-126912857D01*
X170444761Y-127008095D01*
X170397142Y-127055714D01*
X193352380Y-129436666D02*
X192876190Y-129770000D01*
X193352380Y-130008095D02*
X192352380Y-130008095D01*
X192352380Y-129627142D01*
X192400000Y-129531904D01*
X192447619Y-129484285D01*
X192542857Y-129436666D01*
X192685714Y-129436666D01*
X192780952Y-129484285D01*
X192828571Y-129531904D01*
X192876190Y-129627142D01*
X192876190Y-130008095D01*
X193352380Y-129008095D02*
X192352380Y-129008095D01*
X193352380Y-128436666D01*
X192352380Y-128436666D01*
X193352380Y-127436666D02*
X193352380Y-128008095D01*
X193352380Y-127722380D02*
X192352380Y-127722380D01*
X192495238Y-127817619D01*
X192590476Y-127912857D01*
X192638095Y-128008095D01*
X192352380Y-126579523D02*
X192352380Y-126770000D01*
X192400000Y-126865238D01*
X192447619Y-126912857D01*
X192590476Y-127008095D01*
X192780952Y-127055714D01*
X193161904Y-127055714D01*
X193257142Y-127008095D01*
X193304761Y-126960476D01*
X193352380Y-126865238D01*
X193352380Y-126674761D01*
X193304761Y-126579523D01*
X193257142Y-126531904D01*
X193161904Y-126484285D01*
X192923809Y-126484285D01*
X192828571Y-126531904D01*
X192780952Y-126579523D01*
X192733333Y-126674761D01*
X192733333Y-126865238D01*
X192780952Y-126960476D01*
X192828571Y-127008095D01*
X192923809Y-127055714D01*
X71628095Y-51732380D02*
X71628095Y-52541904D01*
X71675714Y-52637142D01*
X71723333Y-52684761D01*
X71818571Y-52732380D01*
X72009047Y-52732380D01*
X72104285Y-52684761D01*
X72151904Y-52637142D01*
X72199523Y-52541904D01*
X72199523Y-51732380D01*
X73199523Y-52732380D02*
X72628095Y-52732380D01*
X72913809Y-52732380D02*
X72913809Y-51732380D01*
X72818571Y-51875238D01*
X72723333Y-51970476D01*
X72628095Y-52018095D01*
X71628095Y-138942380D02*
X71628095Y-139751904D01*
X71675714Y-139847142D01*
X71723333Y-139894761D01*
X71818571Y-139942380D01*
X72009047Y-139942380D01*
X72104285Y-139894761D01*
X72151904Y-139847142D01*
X72199523Y-139751904D01*
X72199523Y-138942380D01*
X72628095Y-139037619D02*
X72675714Y-138990000D01*
X72770952Y-138942380D01*
X73009047Y-138942380D01*
X73104285Y-138990000D01*
X73151904Y-139037619D01*
X73199523Y-139132857D01*
X73199523Y-139228095D01*
X73151904Y-139370952D01*
X72580476Y-139942380D01*
X73199523Y-139942380D01*
X107188095Y-51732380D02*
X107188095Y-52541904D01*
X107235714Y-52637142D01*
X107283333Y-52684761D01*
X107378571Y-52732380D01*
X107569047Y-52732380D01*
X107664285Y-52684761D01*
X107711904Y-52637142D01*
X107759523Y-52541904D01*
X107759523Y-51732380D01*
X108140476Y-51732380D02*
X108759523Y-51732380D01*
X108426190Y-52113333D01*
X108569047Y-52113333D01*
X108664285Y-52160952D01*
X108711904Y-52208571D01*
X108759523Y-52303809D01*
X108759523Y-52541904D01*
X108711904Y-52637142D01*
X108664285Y-52684761D01*
X108569047Y-52732380D01*
X108283333Y-52732380D01*
X108188095Y-52684761D01*
X108140476Y-52637142D01*
X107188095Y-138942380D02*
X107188095Y-139751904D01*
X107235714Y-139847142D01*
X107283333Y-139894761D01*
X107378571Y-139942380D01*
X107569047Y-139942380D01*
X107664285Y-139894761D01*
X107711904Y-139847142D01*
X107759523Y-139751904D01*
X107759523Y-138942380D01*
X108664285Y-139275714D02*
X108664285Y-139942380D01*
X108426190Y-138894761D02*
X108188095Y-139609047D01*
X108807142Y-139609047D01*
X142748095Y-51732380D02*
X142748095Y-52541904D01*
X142795714Y-52637142D01*
X142843333Y-52684761D01*
X142938571Y-52732380D01*
X143129047Y-52732380D01*
X143224285Y-52684761D01*
X143271904Y-52637142D01*
X143319523Y-52541904D01*
X143319523Y-51732380D01*
X144271904Y-51732380D02*
X143795714Y-51732380D01*
X143748095Y-52208571D01*
X143795714Y-52160952D01*
X143890952Y-52113333D01*
X144129047Y-52113333D01*
X144224285Y-52160952D01*
X144271904Y-52208571D01*
X144319523Y-52303809D01*
X144319523Y-52541904D01*
X144271904Y-52637142D01*
X144224285Y-52684761D01*
X144129047Y-52732380D01*
X143890952Y-52732380D01*
X143795714Y-52684761D01*
X143748095Y-52637142D01*
X142748095Y-138942380D02*
X142748095Y-139751904D01*
X142795714Y-139847142D01*
X142843333Y-139894761D01*
X142938571Y-139942380D01*
X143129047Y-139942380D01*
X143224285Y-139894761D01*
X143271904Y-139847142D01*
X143319523Y-139751904D01*
X143319523Y-138942380D01*
X144224285Y-138942380D02*
X144033809Y-138942380D01*
X143938571Y-138990000D01*
X143890952Y-139037619D01*
X143795714Y-139180476D01*
X143748095Y-139370952D01*
X143748095Y-139751904D01*
X143795714Y-139847142D01*
X143843333Y-139894761D01*
X143938571Y-139942380D01*
X144129047Y-139942380D01*
X144224285Y-139894761D01*
X144271904Y-139847142D01*
X144319523Y-139751904D01*
X144319523Y-139513809D01*
X144271904Y-139418571D01*
X144224285Y-139370952D01*
X144129047Y-139323333D01*
X143938571Y-139323333D01*
X143843333Y-139370952D01*
X143795714Y-139418571D01*
X143748095Y-139513809D01*
X178308095Y-51732380D02*
X178308095Y-52541904D01*
X178355714Y-52637142D01*
X178403333Y-52684761D01*
X178498571Y-52732380D01*
X178689047Y-52732380D01*
X178784285Y-52684761D01*
X178831904Y-52637142D01*
X178879523Y-52541904D01*
X178879523Y-51732380D01*
X179260476Y-51732380D02*
X179927142Y-51732380D01*
X179498571Y-52732380D01*
X178308095Y-138942380D02*
X178308095Y-139751904D01*
X178355714Y-139847142D01*
X178403333Y-139894761D01*
X178498571Y-139942380D01*
X178689047Y-139942380D01*
X178784285Y-139894761D01*
X178831904Y-139847142D01*
X178879523Y-139751904D01*
X178879523Y-138942380D01*
X179498571Y-139370952D02*
X179403333Y-139323333D01*
X179355714Y-139275714D01*
X179308095Y-139180476D01*
X179308095Y-139132857D01*
X179355714Y-139037619D01*
X179403333Y-138990000D01*
X179498571Y-138942380D01*
X179689047Y-138942380D01*
X179784285Y-138990000D01*
X179831904Y-139037619D01*
X179879523Y-139132857D01*
X179879523Y-139180476D01*
X179831904Y-139275714D01*
X179784285Y-139323333D01*
X179689047Y-139370952D01*
X179498571Y-139370952D01*
X179403333Y-139418571D01*
X179355714Y-139466190D01*
X179308095Y-139561428D01*
X179308095Y-139751904D01*
X179355714Y-139847142D01*
X179403333Y-139894761D01*
X179498571Y-139942380D01*
X179689047Y-139942380D01*
X179784285Y-139894761D01*
X179831904Y-139847142D01*
X179879523Y-139751904D01*
X179879523Y-139561428D01*
X179831904Y-139466190D01*
X179784285Y-139418571D01*
X179689047Y-139370952D01*
X224821904Y-88612380D02*
X224821904Y-89421904D01*
X224869523Y-89517142D01*
X224917142Y-89564761D01*
X225012380Y-89612380D01*
X225202857Y-89612380D01*
X225298095Y-89564761D01*
X225345714Y-89517142D01*
X225393333Y-89421904D01*
X225393333Y-88612380D01*
X226393333Y-89612380D02*
X225821904Y-89612380D01*
X226107619Y-89612380D02*
X226107619Y-88612380D01*
X226012380Y-88755238D01*
X225917142Y-88850476D01*
X225821904Y-88898095D01*
X227012380Y-88612380D02*
X227107619Y-88612380D01*
X227202857Y-88660000D01*
X227250476Y-88707619D01*
X227298095Y-88802857D01*
X227345714Y-88993333D01*
X227345714Y-89231428D01*
X227298095Y-89421904D01*
X227250476Y-89517142D01*
X227202857Y-89564761D01*
X227107619Y-89612380D01*
X227012380Y-89612380D01*
X226917142Y-89564761D01*
X226869523Y-89517142D01*
X226821904Y-89421904D01*
X226774285Y-89231428D01*
X226774285Y-88993333D01*
X226821904Y-88802857D01*
X226869523Y-88707619D01*
X226917142Y-88660000D01*
X227012380Y-88612380D01*
X72056666Y-36282380D02*
X72056666Y-36996666D01*
X72009047Y-37139523D01*
X71913809Y-37234761D01*
X71770952Y-37282380D01*
X71675714Y-37282380D01*
X73056666Y-37282380D02*
X72485238Y-37282380D01*
X72770952Y-37282380D02*
X72770952Y-36282380D01*
X72675714Y-36425238D01*
X72580476Y-36520476D01*
X72485238Y-36568095D01*
X89622380Y-152488333D02*
X90336666Y-152488333D01*
X90479523Y-152535952D01*
X90574761Y-152631190D01*
X90622380Y-152774047D01*
X90622380Y-152869285D01*
X89717619Y-152059761D02*
X89670000Y-152012142D01*
X89622380Y-151916904D01*
X89622380Y-151678809D01*
X89670000Y-151583571D01*
X89717619Y-151535952D01*
X89812857Y-151488333D01*
X89908095Y-151488333D01*
X90050952Y-151535952D01*
X90622380Y-152107380D01*
X90622380Y-151488333D01*
X107616666Y-36282380D02*
X107616666Y-36996666D01*
X107569047Y-37139523D01*
X107473809Y-37234761D01*
X107330952Y-37282380D01*
X107235714Y-37282380D01*
X107997619Y-36282380D02*
X108664285Y-36282380D01*
X108235714Y-37282380D01*
X125182380Y-152488333D02*
X125896666Y-152488333D01*
X126039523Y-152535952D01*
X126134761Y-152631190D01*
X126182380Y-152774047D01*
X126182380Y-152869285D01*
X125610952Y-151869285D02*
X125563333Y-151964523D01*
X125515714Y-152012142D01*
X125420476Y-152059761D01*
X125372857Y-152059761D01*
X125277619Y-152012142D01*
X125230000Y-151964523D01*
X125182380Y-151869285D01*
X125182380Y-151678809D01*
X125230000Y-151583571D01*
X125277619Y-151535952D01*
X125372857Y-151488333D01*
X125420476Y-151488333D01*
X125515714Y-151535952D01*
X125563333Y-151583571D01*
X125610952Y-151678809D01*
X125610952Y-151869285D01*
X125658571Y-151964523D01*
X125706190Y-152012142D01*
X125801428Y-152059761D01*
X125991904Y-152059761D01*
X126087142Y-152012142D01*
X126134761Y-151964523D01*
X126182380Y-151869285D01*
X126182380Y-151678809D01*
X126134761Y-151583571D01*
X126087142Y-151535952D01*
X125991904Y-151488333D01*
X125801428Y-151488333D01*
X125706190Y-151535952D01*
X125658571Y-151583571D01*
X125610952Y-151678809D01*
X142700476Y-36282380D02*
X142700476Y-36996666D01*
X142652857Y-37139523D01*
X142557619Y-37234761D01*
X142414761Y-37282380D01*
X142319523Y-37282380D01*
X143700476Y-37282380D02*
X143129047Y-37282380D01*
X143414761Y-37282380D02*
X143414761Y-36282380D01*
X143319523Y-36425238D01*
X143224285Y-36520476D01*
X143129047Y-36568095D01*
X144033809Y-36282380D02*
X144652857Y-36282380D01*
X144319523Y-36663333D01*
X144462380Y-36663333D01*
X144557619Y-36710952D01*
X144605238Y-36758571D01*
X144652857Y-36853809D01*
X144652857Y-37091904D01*
X144605238Y-37187142D01*
X144557619Y-37234761D01*
X144462380Y-37282380D01*
X144176666Y-37282380D01*
X144081428Y-37234761D01*
X144033809Y-37187142D01*
X160742380Y-152964523D02*
X161456666Y-152964523D01*
X161599523Y-153012142D01*
X161694761Y-153107380D01*
X161742380Y-153250238D01*
X161742380Y-153345476D01*
X161742380Y-151964523D02*
X161742380Y-152535952D01*
X161742380Y-152250238D02*
X160742380Y-152250238D01*
X160885238Y-152345476D01*
X160980476Y-152440714D01*
X161028095Y-152535952D01*
X161075714Y-151107380D02*
X161742380Y-151107380D01*
X160694761Y-151345476D02*
X161409047Y-151583571D01*
X161409047Y-150964523D01*
X196302380Y-152964523D02*
X197016666Y-152964523D01*
X197159523Y-153012142D01*
X197254761Y-153107380D01*
X197302380Y-153250238D01*
X197302380Y-153345476D01*
X196397619Y-152535952D02*
X196350000Y-152488333D01*
X196302380Y-152393095D01*
X196302380Y-152155000D01*
X196350000Y-152059761D01*
X196397619Y-152012142D01*
X196492857Y-151964523D01*
X196588095Y-151964523D01*
X196730952Y-152012142D01*
X197302380Y-152583571D01*
X197302380Y-151964523D01*
X196302380Y-151345476D02*
X196302380Y-151250238D01*
X196350000Y-151155000D01*
X196397619Y-151107380D01*
X196492857Y-151059761D01*
X196683333Y-151012142D01*
X196921428Y-151012142D01*
X197111904Y-151059761D01*
X197207142Y-151107380D01*
X197254761Y-151155000D01*
X197302380Y-151250238D01*
X197302380Y-151345476D01*
X197254761Y-151440714D01*
X197207142Y-151488333D01*
X197111904Y-151535952D01*
X196921428Y-151583571D01*
X196683333Y-151583571D01*
X196492857Y-151535952D01*
X196397619Y-151488333D01*
X196350000Y-151440714D01*
X196302380Y-151345476D01*
X220170476Y-138842380D02*
X220170476Y-139556666D01*
X220122857Y-139699523D01*
X220027619Y-139794761D01*
X219884761Y-139842380D01*
X219789523Y-139842380D01*
X220551428Y-138842380D02*
X221170476Y-138842380D01*
X220837142Y-139223333D01*
X220980000Y-139223333D01*
X221075238Y-139270952D01*
X221122857Y-139318571D01*
X221170476Y-139413809D01*
X221170476Y-139651904D01*
X221122857Y-139747142D01*
X221075238Y-139794761D01*
X220980000Y-139842380D01*
X220694285Y-139842380D01*
X220599047Y-139794761D01*
X220551428Y-139747142D01*
X222122857Y-139842380D02*
X221551428Y-139842380D01*
X221837142Y-139842380D02*
X221837142Y-138842380D01*
X221741904Y-138985238D01*
X221646666Y-139080476D01*
X221551428Y-139128095D01*
X215090476Y-70572380D02*
X215090476Y-71286666D01*
X215042857Y-71429523D01*
X214947619Y-71524761D01*
X214804761Y-71572380D01*
X214709523Y-71572380D01*
X215519047Y-70667619D02*
X215566666Y-70620000D01*
X215661904Y-70572380D01*
X215900000Y-70572380D01*
X215995238Y-70620000D01*
X216042857Y-70667619D01*
X216090476Y-70762857D01*
X216090476Y-70858095D01*
X216042857Y-71000952D01*
X215471428Y-71572380D01*
X216090476Y-71572380D01*
X216423809Y-70572380D02*
X217090476Y-70572380D01*
X216661904Y-71572380D01*
X240542380Y-155749523D02*
X241256666Y-155749523D01*
X241399523Y-155797142D01*
X241494761Y-155892380D01*
X241542380Y-156035238D01*
X241542380Y-156130476D01*
X240542380Y-155368571D02*
X240542380Y-154749523D01*
X240923333Y-155082857D01*
X240923333Y-154940000D01*
X240970952Y-154844761D01*
X241018571Y-154797142D01*
X241113809Y-154749523D01*
X241351904Y-154749523D01*
X241447142Y-154797142D01*
X241494761Y-154844761D01*
X241542380Y-154940000D01*
X241542380Y-155225714D01*
X241494761Y-155320952D01*
X241447142Y-155368571D01*
X240637619Y-154368571D02*
X240590000Y-154320952D01*
X240542380Y-154225714D01*
X240542380Y-153987619D01*
X240590000Y-153892380D01*
X240637619Y-153844761D01*
X240732857Y-153797142D01*
X240828095Y-153797142D01*
X240970952Y-153844761D01*
X241542380Y-154416190D01*
X241542380Y-153797142D01*
X212530476Y-37832380D02*
X212530476Y-38546666D01*
X212482857Y-38689523D01*
X212387619Y-38784761D01*
X212244761Y-38832380D01*
X212149523Y-38832380D01*
X212911428Y-37832380D02*
X213530476Y-37832380D01*
X213197142Y-38213333D01*
X213340000Y-38213333D01*
X213435238Y-38260952D01*
X213482857Y-38308571D01*
X213530476Y-38403809D01*
X213530476Y-38641904D01*
X213482857Y-38737142D01*
X213435238Y-38784761D01*
X213340000Y-38832380D01*
X213054285Y-38832380D01*
X212959047Y-38784761D01*
X212911428Y-38737142D01*
X213863809Y-37832380D02*
X214482857Y-37832380D01*
X214149523Y-38213333D01*
X214292380Y-38213333D01*
X214387619Y-38260952D01*
X214435238Y-38308571D01*
X214482857Y-38403809D01*
X214482857Y-38641904D01*
X214435238Y-38737142D01*
X214387619Y-38784761D01*
X214292380Y-38832380D01*
X214006666Y-38832380D01*
X213911428Y-38784761D01*
X213863809Y-38737142D01*
M02*
