G04 #@! TF.GenerationSoftware,KiCad,Pcbnew,(5.1.5)-3*
G04 #@! TF.CreationDate,2020-02-05T09:48:48+01:00*
G04 #@! TF.ProjectId,FGINT-V3-MASTER-64,4647494e-542d-4563-932d-4d4153544552,rev?*
G04 #@! TF.SameCoordinates,Original*
G04 #@! TF.FileFunction,Copper,L1,Top*
G04 #@! TF.FilePolarity,Positive*
%FSLAX46Y46*%
G04 Gerber Fmt 4.6, Leading zero omitted, Abs format (unit mm)*
G04 Created by KiCad (PCBNEW (5.1.5)-3) date 2020-02-05 09:48:48*
%MOMM*%
%LPD*%
G04 APERTURE LIST*
%ADD10R,1.500000X1.500000*%
%ADD11C,1.500000*%
%ADD12O,1.700000X1.700000*%
%ADD13R,1.700000X1.700000*%
%ADD14O,1.740000X2.200000*%
%ADD15C,0.100000*%
%ADD16C,1.600000*%
%ADD17R,1.600000X1.600000*%
%ADD18R,3.200000X3.200000*%
%ADD19R,1.727200X1.727200*%
%ADD20O,1.727200X1.727200*%
%ADD21O,1.600000X1.600000*%
%ADD22O,1.905000X2.000000*%
%ADD23R,1.905000X2.000000*%
%ADD24R,3.000000X3.000000*%
%ADD25C,3.000000*%
%ADD26C,0.550000*%
%ADD27C,0.350000*%
%ADD28C,0.250000*%
G04 APERTURE END LIST*
D10*
X222250000Y-116840000D03*
D11*
X222250000Y-121920000D03*
X222250000Y-119380000D03*
D10*
X222250000Y-100330000D03*
D11*
X222250000Y-105410000D03*
X222250000Y-102870000D03*
D12*
X214630000Y-68580000D03*
D13*
X217170000Y-68580000D03*
D12*
X233680000Y-155575000D03*
D13*
X231140000Y-155575000D03*
D14*
X224790000Y-154940000D03*
X222250000Y-154940000D03*
X219710000Y-154940000D03*
G04 #@! TA.AperFunction,ComponentPad*
D15*
G36*
X217814505Y-153841204D02*
G01*
X217838773Y-153844804D01*
X217862572Y-153850765D01*
X217885671Y-153859030D01*
X217907850Y-153869520D01*
X217928893Y-153882132D01*
X217948599Y-153896747D01*
X217966777Y-153913223D01*
X217983253Y-153931401D01*
X217997868Y-153951107D01*
X218010480Y-153972150D01*
X218020970Y-153994329D01*
X218029235Y-154017428D01*
X218035196Y-154041227D01*
X218038796Y-154065495D01*
X218040000Y-154089999D01*
X218040000Y-155790001D01*
X218038796Y-155814505D01*
X218035196Y-155838773D01*
X218029235Y-155862572D01*
X218020970Y-155885671D01*
X218010480Y-155907850D01*
X217997868Y-155928893D01*
X217983253Y-155948599D01*
X217966777Y-155966777D01*
X217948599Y-155983253D01*
X217928893Y-155997868D01*
X217907850Y-156010480D01*
X217885671Y-156020970D01*
X217862572Y-156029235D01*
X217838773Y-156035196D01*
X217814505Y-156038796D01*
X217790001Y-156040000D01*
X216549999Y-156040000D01*
X216525495Y-156038796D01*
X216501227Y-156035196D01*
X216477428Y-156029235D01*
X216454329Y-156020970D01*
X216432150Y-156010480D01*
X216411107Y-155997868D01*
X216391401Y-155983253D01*
X216373223Y-155966777D01*
X216356747Y-155948599D01*
X216342132Y-155928893D01*
X216329520Y-155907850D01*
X216319030Y-155885671D01*
X216310765Y-155862572D01*
X216304804Y-155838773D01*
X216301204Y-155814505D01*
X216300000Y-155790001D01*
X216300000Y-154089999D01*
X216301204Y-154065495D01*
X216304804Y-154041227D01*
X216310765Y-154017428D01*
X216319030Y-153994329D01*
X216329520Y-153972150D01*
X216342132Y-153951107D01*
X216356747Y-153931401D01*
X216373223Y-153913223D01*
X216391401Y-153896747D01*
X216411107Y-153882132D01*
X216432150Y-153869520D01*
X216454329Y-153859030D01*
X216477428Y-153850765D01*
X216501227Y-153844804D01*
X216525495Y-153841204D01*
X216549999Y-153840000D01*
X217790001Y-153840000D01*
X217814505Y-153841204D01*
G37*
G04 #@! TD.AperFunction*
D14*
X209550000Y-154940000D03*
X207010000Y-154940000D03*
X204470000Y-154940000D03*
G04 #@! TA.AperFunction,ComponentPad*
D15*
G36*
X202574505Y-153841204D02*
G01*
X202598773Y-153844804D01*
X202622572Y-153850765D01*
X202645671Y-153859030D01*
X202667850Y-153869520D01*
X202688893Y-153882132D01*
X202708599Y-153896747D01*
X202726777Y-153913223D01*
X202743253Y-153931401D01*
X202757868Y-153951107D01*
X202770480Y-153972150D01*
X202780970Y-153994329D01*
X202789235Y-154017428D01*
X202795196Y-154041227D01*
X202798796Y-154065495D01*
X202800000Y-154089999D01*
X202800000Y-155790001D01*
X202798796Y-155814505D01*
X202795196Y-155838773D01*
X202789235Y-155862572D01*
X202780970Y-155885671D01*
X202770480Y-155907850D01*
X202757868Y-155928893D01*
X202743253Y-155948599D01*
X202726777Y-155966777D01*
X202708599Y-155983253D01*
X202688893Y-155997868D01*
X202667850Y-156010480D01*
X202645671Y-156020970D01*
X202622572Y-156029235D01*
X202598773Y-156035196D01*
X202574505Y-156038796D01*
X202550001Y-156040000D01*
X201309999Y-156040000D01*
X201285495Y-156038796D01*
X201261227Y-156035196D01*
X201237428Y-156029235D01*
X201214329Y-156020970D01*
X201192150Y-156010480D01*
X201171107Y-155997868D01*
X201151401Y-155983253D01*
X201133223Y-155966777D01*
X201116747Y-155948599D01*
X201102132Y-155928893D01*
X201089520Y-155907850D01*
X201079030Y-155885671D01*
X201070765Y-155862572D01*
X201064804Y-155838773D01*
X201061204Y-155814505D01*
X201060000Y-155790001D01*
X201060000Y-154089999D01*
X201061204Y-154065495D01*
X201064804Y-154041227D01*
X201070765Y-154017428D01*
X201079030Y-153994329D01*
X201089520Y-153972150D01*
X201102132Y-153951107D01*
X201116747Y-153931401D01*
X201133223Y-153913223D01*
X201151401Y-153896747D01*
X201171107Y-153882132D01*
X201192150Y-153869520D01*
X201214329Y-153859030D01*
X201237428Y-153850765D01*
X201261227Y-153844804D01*
X201285495Y-153841204D01*
X201309999Y-153840000D01*
X202550001Y-153840000D01*
X202574505Y-153841204D01*
G37*
G04 #@! TD.AperFunction*
D14*
X209550000Y-143510000D03*
X207010000Y-143510000D03*
X204470000Y-143510000D03*
G04 #@! TA.AperFunction,ComponentPad*
D15*
G36*
X202574505Y-142411204D02*
G01*
X202598773Y-142414804D01*
X202622572Y-142420765D01*
X202645671Y-142429030D01*
X202667850Y-142439520D01*
X202688893Y-142452132D01*
X202708599Y-142466747D01*
X202726777Y-142483223D01*
X202743253Y-142501401D01*
X202757868Y-142521107D01*
X202770480Y-142542150D01*
X202780970Y-142564329D01*
X202789235Y-142587428D01*
X202795196Y-142611227D01*
X202798796Y-142635495D01*
X202800000Y-142659999D01*
X202800000Y-144360001D01*
X202798796Y-144384505D01*
X202795196Y-144408773D01*
X202789235Y-144432572D01*
X202780970Y-144455671D01*
X202770480Y-144477850D01*
X202757868Y-144498893D01*
X202743253Y-144518599D01*
X202726777Y-144536777D01*
X202708599Y-144553253D01*
X202688893Y-144567868D01*
X202667850Y-144580480D01*
X202645671Y-144590970D01*
X202622572Y-144599235D01*
X202598773Y-144605196D01*
X202574505Y-144608796D01*
X202550001Y-144610000D01*
X201309999Y-144610000D01*
X201285495Y-144608796D01*
X201261227Y-144605196D01*
X201237428Y-144599235D01*
X201214329Y-144590970D01*
X201192150Y-144580480D01*
X201171107Y-144567868D01*
X201151401Y-144553253D01*
X201133223Y-144536777D01*
X201116747Y-144518599D01*
X201102132Y-144498893D01*
X201089520Y-144477850D01*
X201079030Y-144455671D01*
X201070765Y-144432572D01*
X201064804Y-144408773D01*
X201061204Y-144384505D01*
X201060000Y-144360001D01*
X201060000Y-142659999D01*
X201061204Y-142635495D01*
X201064804Y-142611227D01*
X201070765Y-142587428D01*
X201079030Y-142564329D01*
X201089520Y-142542150D01*
X201102132Y-142521107D01*
X201116747Y-142501401D01*
X201133223Y-142483223D01*
X201151401Y-142466747D01*
X201171107Y-142452132D01*
X201192150Y-142439520D01*
X201214329Y-142429030D01*
X201237428Y-142420765D01*
X201261227Y-142414804D01*
X201285495Y-142411204D01*
X201309999Y-142410000D01*
X202550001Y-142410000D01*
X202574505Y-142411204D01*
G37*
G04 #@! TD.AperFunction*
D16*
X212090000Y-58420000D03*
X212090000Y-53420000D03*
X205700000Y-58420000D03*
D17*
X203200000Y-58420000D03*
X220980000Y-58420000D03*
D16*
X218480000Y-58420000D03*
D18*
X231000000Y-43180000D03*
X237000000Y-43180000D03*
X234000000Y-38480000D03*
D19*
X241300000Y-143510000D03*
D20*
X238760000Y-143510000D03*
X241300000Y-140970000D03*
X238760000Y-140970000D03*
X241300000Y-138430000D03*
X238760000Y-138430000D03*
X241300000Y-135890000D03*
X238760000Y-135890000D03*
X241300000Y-133350000D03*
X238760000Y-133350000D03*
X241300000Y-130810000D03*
X238760000Y-130810000D03*
X241300000Y-128270000D03*
X238760000Y-128270000D03*
X241300000Y-125730000D03*
X238760000Y-125730000D03*
X241300000Y-123190000D03*
X238760000Y-123190000D03*
X241300000Y-120650000D03*
X238760000Y-120650000D03*
X241300000Y-118110000D03*
X238760000Y-118110000D03*
X241300000Y-115570000D03*
X238760000Y-115570000D03*
X241300000Y-113030000D03*
X238760000Y-113030000D03*
X241300000Y-110490000D03*
X238760000Y-110490000D03*
X241300000Y-107950000D03*
X238760000Y-107950000D03*
X241300000Y-105410000D03*
X238760000Y-105410000D03*
X241300000Y-102870000D03*
X238760000Y-102870000D03*
X241300000Y-100330000D03*
X238760000Y-100330000D03*
X241300000Y-97790000D03*
X238760000Y-97790000D03*
X241300000Y-95250000D03*
X238760000Y-95250000D03*
D16*
X207010000Y-99060000D03*
D21*
X214630000Y-99060000D03*
X214630000Y-115570000D03*
D16*
X207010000Y-115570000D03*
X238760000Y-61000000D03*
D21*
X238760000Y-53380000D03*
X214630000Y-106680000D03*
D16*
X207010000Y-106680000D03*
X207010000Y-123190000D03*
D21*
X214630000Y-123190000D03*
X231140000Y-60960000D03*
D16*
X231140000Y-53340000D03*
D17*
X151130000Y-76200000D03*
D21*
X151130000Y-73660000D03*
X151130000Y-71120000D03*
X151130000Y-68580000D03*
X151130000Y-66040000D03*
X151130000Y-63500000D03*
X151130000Y-60960000D03*
X151130000Y-58420000D03*
X151130000Y-55880000D03*
X128270000Y-55880000D03*
X128270000Y-58420000D03*
X128270000Y-60960000D03*
X128270000Y-63500000D03*
X128270000Y-66040000D03*
X128270000Y-68580000D03*
X128270000Y-71120000D03*
X128270000Y-73660000D03*
D17*
X128270000Y-76200000D03*
X186690000Y-76200000D03*
D21*
X186690000Y-73660000D03*
X186690000Y-71120000D03*
X186690000Y-68580000D03*
X186690000Y-66040000D03*
X186690000Y-63500000D03*
X186690000Y-60960000D03*
X186690000Y-58420000D03*
X186690000Y-55880000D03*
X163830000Y-55880000D03*
X163830000Y-58420000D03*
X163830000Y-60960000D03*
X163830000Y-63500000D03*
X163830000Y-66040000D03*
X163830000Y-68580000D03*
X163830000Y-71120000D03*
X163830000Y-73660000D03*
D17*
X163830000Y-76200000D03*
D21*
X143510000Y-55880000D03*
X135890000Y-88900000D03*
X143510000Y-58420000D03*
X135890000Y-86360000D03*
X143510000Y-60960000D03*
X135890000Y-83820000D03*
X143510000Y-63500000D03*
X135890000Y-81280000D03*
X143510000Y-66040000D03*
X135890000Y-78740000D03*
X143510000Y-68580000D03*
X135890000Y-76200000D03*
X143510000Y-71120000D03*
X135890000Y-73660000D03*
X143510000Y-73660000D03*
X135890000Y-71120000D03*
X143510000Y-76200000D03*
X135890000Y-68580000D03*
X143510000Y-78740000D03*
X135890000Y-66040000D03*
X143510000Y-81280000D03*
X135890000Y-63500000D03*
X143510000Y-83820000D03*
X135890000Y-60960000D03*
X143510000Y-86360000D03*
X135890000Y-58420000D03*
X143510000Y-88900000D03*
D17*
X135890000Y-55880000D03*
D21*
X179070000Y-55880000D03*
X171450000Y-88900000D03*
X179070000Y-58420000D03*
X171450000Y-86360000D03*
X179070000Y-60960000D03*
X171450000Y-83820000D03*
X179070000Y-63500000D03*
X171450000Y-81280000D03*
X179070000Y-66040000D03*
X171450000Y-78740000D03*
X179070000Y-68580000D03*
X171450000Y-76200000D03*
X179070000Y-71120000D03*
X171450000Y-73660000D03*
X179070000Y-73660000D03*
X171450000Y-71120000D03*
X179070000Y-76200000D03*
X171450000Y-68580000D03*
X179070000Y-78740000D03*
X171450000Y-66040000D03*
X179070000Y-81280000D03*
X171450000Y-63500000D03*
X179070000Y-83820000D03*
X171450000Y-60960000D03*
X179070000Y-86360000D03*
X171450000Y-58420000D03*
X179070000Y-88900000D03*
D17*
X171450000Y-55880000D03*
D22*
X203200000Y-68580000D03*
X205740000Y-68580000D03*
D23*
X208280000Y-68580000D03*
X228600000Y-68580000D03*
D22*
X226060000Y-68580000D03*
X223520000Y-68580000D03*
G04 #@! TA.AperFunction,ComponentPad*
D15*
G36*
X217814505Y-142411204D02*
G01*
X217838773Y-142414804D01*
X217862572Y-142420765D01*
X217885671Y-142429030D01*
X217907850Y-142439520D01*
X217928893Y-142452132D01*
X217948599Y-142466747D01*
X217966777Y-142483223D01*
X217983253Y-142501401D01*
X217997868Y-142521107D01*
X218010480Y-142542150D01*
X218020970Y-142564329D01*
X218029235Y-142587428D01*
X218035196Y-142611227D01*
X218038796Y-142635495D01*
X218040000Y-142659999D01*
X218040000Y-144360001D01*
X218038796Y-144384505D01*
X218035196Y-144408773D01*
X218029235Y-144432572D01*
X218020970Y-144455671D01*
X218010480Y-144477850D01*
X217997868Y-144498893D01*
X217983253Y-144518599D01*
X217966777Y-144536777D01*
X217948599Y-144553253D01*
X217928893Y-144567868D01*
X217907850Y-144580480D01*
X217885671Y-144590970D01*
X217862572Y-144599235D01*
X217838773Y-144605196D01*
X217814505Y-144608796D01*
X217790001Y-144610000D01*
X216549999Y-144610000D01*
X216525495Y-144608796D01*
X216501227Y-144605196D01*
X216477428Y-144599235D01*
X216454329Y-144590970D01*
X216432150Y-144580480D01*
X216411107Y-144567868D01*
X216391401Y-144553253D01*
X216373223Y-144536777D01*
X216356747Y-144518599D01*
X216342132Y-144498893D01*
X216329520Y-144477850D01*
X216319030Y-144455671D01*
X216310765Y-144432572D01*
X216304804Y-144408773D01*
X216301204Y-144384505D01*
X216300000Y-144360001D01*
X216300000Y-142659999D01*
X216301204Y-142635495D01*
X216304804Y-142611227D01*
X216310765Y-142587428D01*
X216319030Y-142564329D01*
X216329520Y-142542150D01*
X216342132Y-142521107D01*
X216356747Y-142501401D01*
X216373223Y-142483223D01*
X216391401Y-142466747D01*
X216411107Y-142452132D01*
X216432150Y-142439520D01*
X216454329Y-142429030D01*
X216477428Y-142420765D01*
X216501227Y-142414804D01*
X216525495Y-142411204D01*
X216549999Y-142410000D01*
X217790001Y-142410000D01*
X217814505Y-142411204D01*
G37*
G04 #@! TD.AperFunction*
D14*
X219710000Y-143510000D03*
X222250000Y-143510000D03*
X224790000Y-143510000D03*
D20*
X151130000Y-45720000D03*
X151130000Y-48260000D03*
X148590000Y-45720000D03*
X148590000Y-48260000D03*
X146050000Y-45720000D03*
X146050000Y-48260000D03*
X143510000Y-45720000D03*
X143510000Y-48260000D03*
X140970000Y-45720000D03*
X140970000Y-48260000D03*
X138430000Y-45720000D03*
X138430000Y-48260000D03*
X135890000Y-45720000D03*
X135890000Y-48260000D03*
X133350000Y-45720000D03*
X133350000Y-48260000D03*
X130810000Y-45720000D03*
X130810000Y-48260000D03*
X128270000Y-45720000D03*
D19*
X128270000Y-48260000D03*
D13*
X116840000Y-111760000D03*
D12*
X116840000Y-109220000D03*
X148590000Y-88900000D03*
X151130000Y-88900000D03*
D13*
X153670000Y-88900000D03*
X130810000Y-88900000D03*
D12*
X128270000Y-88900000D03*
X125730000Y-88900000D03*
D19*
X163830000Y-48260000D03*
D20*
X163830000Y-45720000D03*
X166370000Y-48260000D03*
X166370000Y-45720000D03*
X168910000Y-48260000D03*
X168910000Y-45720000D03*
X171450000Y-48260000D03*
X171450000Y-45720000D03*
X173990000Y-48260000D03*
X173990000Y-45720000D03*
X176530000Y-48260000D03*
X176530000Y-45720000D03*
X179070000Y-48260000D03*
X179070000Y-45720000D03*
X181610000Y-48260000D03*
X181610000Y-45720000D03*
X184150000Y-48260000D03*
X184150000Y-45720000D03*
X186690000Y-48260000D03*
X186690000Y-45720000D03*
D13*
X189230000Y-88900000D03*
D12*
X186690000Y-88900000D03*
X184150000Y-88900000D03*
X161290000Y-88900000D03*
X163830000Y-88900000D03*
D13*
X166370000Y-88900000D03*
D20*
X128270000Y-146050000D03*
X128270000Y-143510000D03*
X130810000Y-146050000D03*
X130810000Y-143510000D03*
X133350000Y-146050000D03*
X133350000Y-143510000D03*
X135890000Y-146050000D03*
X135890000Y-143510000D03*
X138430000Y-146050000D03*
X138430000Y-143510000D03*
X140970000Y-146050000D03*
X140970000Y-143510000D03*
X143510000Y-146050000D03*
X143510000Y-143510000D03*
X146050000Y-146050000D03*
X146050000Y-143510000D03*
X148590000Y-146050000D03*
X148590000Y-143510000D03*
X151130000Y-146050000D03*
D19*
X151130000Y-143510000D03*
D12*
X130810000Y-102870000D03*
X128270000Y-102870000D03*
D13*
X125730000Y-102870000D03*
D12*
X153670000Y-102870000D03*
X151130000Y-102870000D03*
D13*
X148590000Y-102870000D03*
D19*
X186690000Y-143510000D03*
D20*
X186690000Y-146050000D03*
X184150000Y-143510000D03*
X184150000Y-146050000D03*
X181610000Y-143510000D03*
X181610000Y-146050000D03*
X179070000Y-143510000D03*
X179070000Y-146050000D03*
X176530000Y-143510000D03*
X176530000Y-146050000D03*
X173990000Y-143510000D03*
X173990000Y-146050000D03*
X171450000Y-143510000D03*
X171450000Y-146050000D03*
X168910000Y-143510000D03*
X168910000Y-146050000D03*
X166370000Y-143510000D03*
X166370000Y-146050000D03*
X163830000Y-143510000D03*
X163830000Y-146050000D03*
D13*
X161290000Y-102870000D03*
D12*
X163830000Y-102870000D03*
X166370000Y-102870000D03*
D13*
X184150000Y-102870000D03*
D12*
X186690000Y-102870000D03*
X189230000Y-102870000D03*
D17*
X116840000Y-101600000D03*
D21*
X116840000Y-99060000D03*
X116840000Y-96520000D03*
X116840000Y-93980000D03*
X116840000Y-91440000D03*
D17*
X151130000Y-115570000D03*
D21*
X151130000Y-118110000D03*
X151130000Y-120650000D03*
X151130000Y-123190000D03*
X151130000Y-125730000D03*
X151130000Y-128270000D03*
X151130000Y-130810000D03*
X151130000Y-133350000D03*
X151130000Y-135890000D03*
D17*
X128270000Y-115570000D03*
D21*
X128270000Y-118110000D03*
X128270000Y-120650000D03*
X128270000Y-123190000D03*
X128270000Y-125730000D03*
X128270000Y-128270000D03*
X128270000Y-130810000D03*
X128270000Y-133350000D03*
X128270000Y-135890000D03*
X186690000Y-135890000D03*
X186690000Y-133350000D03*
X186690000Y-130810000D03*
X186690000Y-128270000D03*
X186690000Y-125730000D03*
X186690000Y-123190000D03*
X186690000Y-120650000D03*
X186690000Y-118110000D03*
D17*
X186690000Y-115570000D03*
D21*
X163830000Y-135890000D03*
X163830000Y-133350000D03*
X163830000Y-130810000D03*
X163830000Y-128270000D03*
X163830000Y-125730000D03*
X163830000Y-123190000D03*
X163830000Y-120650000D03*
X163830000Y-118110000D03*
D17*
X163830000Y-115570000D03*
X143510000Y-135890000D03*
D21*
X135890000Y-102870000D03*
X143510000Y-133350000D03*
X135890000Y-105410000D03*
X143510000Y-130810000D03*
X135890000Y-107950000D03*
X143510000Y-128270000D03*
X135890000Y-110490000D03*
X143510000Y-125730000D03*
X135890000Y-113030000D03*
X143510000Y-123190000D03*
X135890000Y-115570000D03*
X143510000Y-120650000D03*
X135890000Y-118110000D03*
X143510000Y-118110000D03*
X135890000Y-120650000D03*
X143510000Y-115570000D03*
X135890000Y-123190000D03*
X143510000Y-113030000D03*
X135890000Y-125730000D03*
X143510000Y-110490000D03*
X135890000Y-128270000D03*
X143510000Y-107950000D03*
X135890000Y-130810000D03*
X143510000Y-105410000D03*
X135890000Y-133350000D03*
X143510000Y-102870000D03*
X135890000Y-135890000D03*
X171450000Y-135890000D03*
X179070000Y-102870000D03*
X171450000Y-133350000D03*
X179070000Y-105410000D03*
X171450000Y-130810000D03*
X179070000Y-107950000D03*
X171450000Y-128270000D03*
X179070000Y-110490000D03*
X171450000Y-125730000D03*
X179070000Y-113030000D03*
X171450000Y-123190000D03*
X179070000Y-115570000D03*
X171450000Y-120650000D03*
X179070000Y-118110000D03*
X171450000Y-118110000D03*
X179070000Y-120650000D03*
X171450000Y-115570000D03*
X179070000Y-123190000D03*
X171450000Y-113030000D03*
X179070000Y-125730000D03*
X171450000Y-110490000D03*
X179070000Y-128270000D03*
X171450000Y-107950000D03*
X179070000Y-130810000D03*
X171450000Y-105410000D03*
X179070000Y-133350000D03*
X171450000Y-102870000D03*
D17*
X179070000Y-135890000D03*
D24*
X208280000Y-43180000D03*
D25*
X213360000Y-43180000D03*
X218440000Y-43180000D03*
D26*
X224790000Y-154940000D02*
X224790000Y-143510000D01*
X238760000Y-138430000D02*
X237244600Y-138430000D01*
X205609500Y-68580000D02*
X205740000Y-68580000D01*
X135890000Y-102870000D02*
X130810000Y-102870000D01*
X205609500Y-75060500D02*
X205609500Y-68580000D01*
X184150000Y-86360000D02*
X185264600Y-85245400D01*
X184150000Y-88900000D02*
X184150000Y-86360000D01*
X185264600Y-85245400D02*
X195424600Y-85245400D01*
X204470000Y-76200000D02*
X205609500Y-75060500D01*
X198120000Y-76200000D02*
X204470000Y-76200000D01*
X195424600Y-85245400D02*
X196850000Y-83820000D01*
X196850000Y-83820000D02*
X196850000Y-77470000D01*
X196850000Y-77470000D02*
X198120000Y-76200000D01*
X205609500Y-68580000D02*
X205740000Y-68449500D01*
X205740000Y-58460000D02*
X205700000Y-58420000D01*
X125730000Y-90375300D02*
X125730000Y-88900000D01*
X125730000Y-95250000D02*
X125730000Y-90375300D01*
X148590000Y-86360000D02*
X143510000Y-86360000D01*
X148590000Y-88900000D02*
X148590000Y-86360000D01*
X153670000Y-104345300D02*
X153670000Y-102870000D01*
X153670000Y-111760000D02*
X153670000Y-104345300D01*
X143510000Y-113030000D02*
X152400000Y-113030000D01*
X152400000Y-113030000D02*
X153670000Y-111760000D01*
X166370000Y-148590000D02*
X166370000Y-146050000D01*
X167640000Y-149860000D02*
X166370000Y-148590000D01*
X208280000Y-149860000D02*
X167640000Y-149860000D01*
X209550000Y-143510000D02*
X209550000Y-148590000D01*
X209550000Y-148590000D02*
X208280000Y-149860000D01*
X229870000Y-143510000D02*
X224790000Y-143510000D01*
X231140000Y-142240000D02*
X229870000Y-143510000D01*
X231140000Y-139700000D02*
X231140000Y-142240000D01*
X237244600Y-138430000D02*
X232410000Y-138430000D01*
X232410000Y-138430000D02*
X231140000Y-139700000D01*
X189230000Y-101394700D02*
X189230000Y-102870000D01*
X189230000Y-97790000D02*
X189230000Y-101394700D01*
X183412400Y-96489700D02*
X187929700Y-96489700D01*
X187929700Y-96489700D02*
X189230000Y-97790000D01*
X177830300Y-96489700D02*
X183412400Y-96489700D01*
X176530000Y-97790000D02*
X177830300Y-96489700D01*
X176530000Y-111760000D02*
X176530000Y-97790000D01*
X179070000Y-113030000D02*
X177800000Y-113030000D01*
X177800000Y-113030000D02*
X176530000Y-111760000D01*
X130810000Y-96520000D02*
X130810000Y-102870000D01*
X120650000Y-101600000D02*
X121920000Y-100330000D01*
X121920000Y-100330000D02*
X121920000Y-96520000D01*
X121920000Y-96520000D02*
X123190000Y-95250000D01*
X116840000Y-101600000D02*
X120650000Y-101600000D01*
X123190000Y-95250000D02*
X129540000Y-95250000D01*
X129540000Y-95250000D02*
X130810000Y-96520000D01*
X180495300Y-86360000D02*
X179070000Y-86360000D01*
X184150000Y-86360000D02*
X180495300Y-86360000D01*
X184150000Y-88162400D02*
X184150000Y-86360000D01*
X184150000Y-96459400D02*
X184150000Y-89637600D01*
X184119700Y-96489700D02*
X184150000Y-96459400D01*
X151130000Y-41910000D02*
X151130000Y-45720000D01*
X152400000Y-40640000D02*
X151130000Y-41910000D01*
X184150000Y-40640000D02*
X152400000Y-40640000D01*
X186690000Y-45720000D02*
X186690000Y-43180000D01*
X186690000Y-43180000D02*
X184150000Y-40640000D01*
X176530000Y-81280000D02*
X179070000Y-81280000D01*
X175260000Y-80010000D02*
X176530000Y-81280000D01*
X175260000Y-77470000D02*
X175260000Y-80010000D01*
X171450000Y-76200000D02*
X173990000Y-76200000D01*
X173990000Y-76200000D02*
X175260000Y-77470000D01*
X157480000Y-88900000D02*
X153670000Y-88900000D01*
X157480000Y-91440000D02*
X157480000Y-88900000D01*
X166370000Y-88900000D02*
X166370000Y-91440000D01*
X166370000Y-91440000D02*
X157480000Y-91440000D01*
X176530000Y-115570000D02*
X179070000Y-115570000D01*
X175260000Y-114300000D02*
X176530000Y-115570000D01*
X175260000Y-111760000D02*
X175260000Y-114300000D01*
X171450000Y-110490000D02*
X173990000Y-110490000D01*
X173990000Y-110490000D02*
X175260000Y-111760000D01*
X116840000Y-138430000D02*
X116840000Y-111760000D01*
X118110000Y-139700000D02*
X116840000Y-138430000D01*
X127000000Y-139700000D02*
X118110000Y-139700000D01*
X128270000Y-143510000D02*
X128270000Y-140970000D01*
X128270000Y-140970000D02*
X127000000Y-139700000D01*
X163830000Y-148590000D02*
X163830000Y-146050000D01*
X162560000Y-149860000D02*
X163830000Y-148590000D01*
X129540000Y-149860000D02*
X162560000Y-149860000D01*
X128270000Y-146050000D02*
X128270000Y-148590000D01*
X128270000Y-148590000D02*
X129540000Y-149860000D01*
X222250000Y-143510000D02*
X222250000Y-151130000D01*
X222250000Y-151130000D02*
X222250000Y-154940000D01*
X208280000Y-151130000D02*
X222250000Y-151130000D01*
X207010000Y-154940000D02*
X207010000Y-152400000D01*
X207010000Y-152400000D02*
X208280000Y-151130000D01*
X161290000Y-105410000D02*
X161290000Y-102870000D01*
X171450000Y-105410000D02*
X161290000Y-105410000D01*
X138430000Y-110490000D02*
X135890000Y-110490000D01*
X139700000Y-111760000D02*
X138430000Y-110490000D01*
X139700000Y-114300000D02*
X139700000Y-111760000D01*
X143510000Y-115570000D02*
X140970000Y-115570000D01*
X140970000Y-115570000D02*
X139700000Y-114300000D01*
X168910000Y-110490000D02*
X171450000Y-110490000D01*
X167640000Y-105410000D02*
X167640000Y-109220000D01*
X167640000Y-109220000D02*
X168910000Y-110490000D01*
X161290000Y-100330000D02*
X161290000Y-102870000D01*
X160020000Y-99060000D02*
X161290000Y-100330000D01*
X149860000Y-99060000D02*
X160020000Y-99060000D01*
X148590000Y-102870000D02*
X148590000Y-100330000D01*
X148590000Y-100330000D02*
X149860000Y-99060000D01*
X203200000Y-49530000D02*
X203200000Y-58420000D01*
X186690000Y-48260000D02*
X201930000Y-48260000D01*
X201930000Y-48260000D02*
X203200000Y-49530000D01*
X231140000Y-157480000D02*
X231140000Y-155575000D01*
X222885000Y-158115000D02*
X230505000Y-158115000D01*
X230505000Y-158115000D02*
X231140000Y-157480000D01*
X222250000Y-154940000D02*
X222250000Y-157480000D01*
X222250000Y-157480000D02*
X222885000Y-158115000D01*
D27*
X143510000Y-55880000D02*
X151130000Y-55880000D01*
X135890000Y-73660000D02*
X128270000Y-73660000D01*
X143510000Y-58420000D02*
X151130000Y-58420000D01*
X135890000Y-71120000D02*
X128270000Y-71120000D01*
X143510000Y-60960000D02*
X151130000Y-60960000D01*
X135890000Y-68580000D02*
X128270000Y-68580000D01*
X143510000Y-63500000D02*
X151130000Y-63500000D01*
X135890000Y-66040000D02*
X128270000Y-66040000D01*
X143510000Y-66040000D02*
X151130000Y-66040000D01*
X135890000Y-63500000D02*
X128270000Y-63500000D01*
X143510000Y-68580000D02*
X151130000Y-68580000D01*
X128270000Y-60960000D02*
X135890000Y-60960000D01*
X151130000Y-71120000D02*
X143510000Y-71120000D01*
X140970000Y-71120000D02*
X143510000Y-71120000D01*
X139700000Y-69850000D02*
X140970000Y-71120000D01*
X139700000Y-53340000D02*
X139700000Y-69850000D01*
X138393600Y-52033600D02*
X139700000Y-53340000D01*
X124423600Y-52033600D02*
X138393600Y-52033600D01*
X130810000Y-43180000D02*
X129540000Y-41910000D01*
X129540000Y-41910000D02*
X124460000Y-41910000D01*
X124460000Y-41910000D02*
X123190000Y-43180000D01*
X123190000Y-43180000D02*
X123190000Y-50800000D01*
X130810000Y-45720000D02*
X130810000Y-43180000D01*
X123190000Y-50800000D02*
X124423600Y-52033600D01*
X135890000Y-58420000D02*
X128270000Y-58420000D01*
X151130000Y-73660000D02*
X143510000Y-73660000D01*
X153670000Y-73660000D02*
X151130000Y-73660000D01*
X154940000Y-72390000D02*
X153670000Y-73660000D01*
X154940000Y-52070000D02*
X154940000Y-72390000D01*
X125730000Y-45720000D02*
X124460000Y-46990000D01*
X128270000Y-45720000D02*
X125730000Y-45720000D01*
X124460000Y-46990000D02*
X124460000Y-49530000D01*
X124460000Y-49530000D02*
X125730000Y-50800000D01*
X125730000Y-50800000D02*
X153670000Y-50800000D01*
X153670000Y-50800000D02*
X154940000Y-52070000D01*
X135890000Y-55880000D02*
X128270000Y-55880000D01*
X171450000Y-55880000D02*
X163830000Y-55880000D01*
X186690000Y-73660000D02*
X179070000Y-73660000D01*
X189230000Y-73660000D02*
X186690000Y-73660000D01*
X190500000Y-72390000D02*
X189230000Y-73660000D01*
X190500000Y-52070000D02*
X190500000Y-72390000D01*
X161290000Y-45720000D02*
X160020000Y-46990000D01*
X163830000Y-45720000D02*
X161290000Y-45720000D01*
X160020000Y-46990000D02*
X160020000Y-49680125D01*
X161139875Y-50800000D02*
X189230000Y-50800000D01*
X160020000Y-49680125D02*
X161139875Y-50800000D01*
X189230000Y-50800000D02*
X190500000Y-52070000D01*
X163830000Y-58420000D02*
X171450000Y-58420000D01*
X179070000Y-71120000D02*
X186690000Y-71120000D01*
X175260000Y-53340000D02*
X175260000Y-69850000D01*
X173990000Y-52070000D02*
X175260000Y-53340000D01*
X160020000Y-52070000D02*
X173990000Y-52070000D01*
X166370000Y-43180000D02*
X165100000Y-41910000D01*
X175260000Y-69850000D02*
X176530000Y-71120000D01*
X166370000Y-45720000D02*
X166370000Y-43180000D01*
X165100000Y-41910000D02*
X160020000Y-41910000D01*
X160020000Y-41910000D02*
X158750000Y-43180000D01*
X176530000Y-71120000D02*
X179070000Y-71120000D01*
X158750000Y-43180000D02*
X158750000Y-50800000D01*
X158750000Y-50800000D02*
X160020000Y-52070000D01*
X163830000Y-60960000D02*
X171450000Y-60960000D01*
X186690000Y-68580000D02*
X179070000Y-68580000D01*
X171450000Y-63500000D02*
X163830000Y-63500000D01*
X179070000Y-66040000D02*
X186690000Y-66040000D01*
X171450000Y-66040000D02*
X163830000Y-66040000D01*
X179070000Y-63500000D02*
X186690000Y-63500000D01*
X171450000Y-68580000D02*
X163830000Y-68580000D01*
X179070000Y-60960000D02*
X186690000Y-60960000D01*
X171450000Y-71120000D02*
X163830000Y-71120000D01*
X179070000Y-58420000D02*
X186690000Y-58420000D01*
X171450000Y-73660000D02*
X163830000Y-73660000D01*
X179070000Y-55880000D02*
X186690000Y-55880000D01*
X143510000Y-135890000D02*
X151130000Y-135890000D01*
X135890000Y-118110000D02*
X129595300Y-118110000D01*
X128270000Y-118110000D02*
X129595300Y-118110000D01*
X139700000Y-121920000D02*
X135890000Y-118110000D01*
X153670000Y-146050000D02*
X154940000Y-144780000D01*
X139700000Y-138430000D02*
X139700000Y-121920000D01*
X151130000Y-146050000D02*
X153670000Y-146050000D01*
X154940000Y-144780000D02*
X154940000Y-140970000D01*
X154940000Y-140970000D02*
X153670000Y-139700000D01*
X153670000Y-139700000D02*
X140970000Y-139700000D01*
X140970000Y-139700000D02*
X139700000Y-138430000D01*
X143510000Y-133350000D02*
X151130000Y-133350000D01*
X135890000Y-120650000D02*
X128270000Y-120650000D01*
X143510000Y-130810000D02*
X151130000Y-130810000D01*
X135890000Y-123190000D02*
X128270000Y-123190000D01*
X143510000Y-128270000D02*
X151130000Y-128270000D01*
X135890000Y-125730000D02*
X128270000Y-125730000D01*
X143510000Y-125730000D02*
X151130000Y-125730000D01*
X135890000Y-128270000D02*
X128270000Y-128270000D01*
X143510000Y-123190000D02*
X151130000Y-123190000D01*
X135890000Y-130810000D02*
X128270000Y-130810000D01*
X143510000Y-120650000D02*
X151130000Y-120650000D01*
X135890000Y-133350000D02*
X128270000Y-133350000D01*
X143510000Y-118110000D02*
X151130000Y-118110000D01*
X135890000Y-135890000D02*
X128270000Y-135890000D01*
X179070000Y-135890000D02*
X186690000Y-135890000D01*
X171450000Y-118110000D02*
X165155300Y-118110000D01*
X163830000Y-118110000D02*
X165155300Y-118110000D01*
X175260000Y-119380000D02*
X173990000Y-118110000D01*
X175260000Y-138430000D02*
X175260000Y-119380000D01*
X173990000Y-118110000D02*
X171450000Y-118110000D01*
X190500000Y-144780000D02*
X190500000Y-140970000D01*
X190500000Y-140970000D02*
X189280700Y-139750700D01*
X189230000Y-146050000D02*
X190500000Y-144780000D01*
X186690000Y-146050000D02*
X189230000Y-146050000D01*
X189280700Y-139750700D02*
X176580700Y-139750700D01*
X176580700Y-139750700D02*
X175260000Y-138430000D01*
X179070000Y-133350000D02*
X186690000Y-133350000D01*
X171450000Y-120650000D02*
X165155300Y-120650000D01*
X163830000Y-120650000D02*
X165155300Y-120650000D01*
X179070000Y-130810000D02*
X186690000Y-130810000D01*
X171450000Y-123190000D02*
X163830000Y-123190000D01*
X179070000Y-128270000D02*
X186690000Y-128270000D01*
X171450000Y-125730000D02*
X163830000Y-125730000D01*
X179070000Y-125730000D02*
X186690000Y-125730000D01*
X171450000Y-128270000D02*
X163830000Y-128270000D01*
X179070000Y-123190000D02*
X186690000Y-123190000D01*
X171450000Y-130810000D02*
X163830000Y-130810000D01*
X179070000Y-120650000D02*
X186690000Y-120650000D01*
X171450000Y-133350000D02*
X163830000Y-133350000D01*
X179070000Y-118110000D02*
X186690000Y-118110000D01*
X171450000Y-135890000D02*
X163830000Y-135890000D01*
X215900000Y-100330000D02*
X214630000Y-99060000D01*
X215900000Y-100330000D02*
X222250000Y-100330000D01*
X215900000Y-116840000D02*
X222250000Y-116840000D01*
X214630000Y-115570000D02*
X215900000Y-116840000D01*
X201930000Y-157480000D02*
X201930000Y-154940000D01*
X203200000Y-158750000D02*
X201930000Y-157480000D01*
X215900000Y-158750000D02*
X203200000Y-158750000D01*
X217170000Y-154940000D02*
X217170000Y-157480000D01*
X217170000Y-157480000D02*
X215900000Y-158750000D01*
X170180000Y-86360000D02*
X171450000Y-86360000D01*
X169545000Y-86995000D02*
X170180000Y-86360000D01*
X169545000Y-95885000D02*
X169545000Y-86995000D01*
X145415000Y-105410000D02*
X146050000Y-104775000D01*
X146050000Y-104775000D02*
X146050000Y-97790000D01*
X143510000Y-105410000D02*
X145415000Y-105410000D01*
X146050000Y-97790000D02*
X147320000Y-96520000D01*
X147320000Y-96520000D02*
X168910000Y-96520000D01*
X168910000Y-96520000D02*
X169545000Y-95885000D01*
X214630000Y-110490000D02*
X214630000Y-106680000D01*
X199390000Y-105410000D02*
X200660000Y-106680000D01*
X179070000Y-105410000D02*
X199390000Y-105410000D01*
X200660000Y-106680000D02*
X200660000Y-109220000D01*
X200660000Y-109220000D02*
X201930000Y-110490000D01*
X201930000Y-110490000D02*
X214630000Y-110490000D01*
X215900000Y-105410000D02*
X222250000Y-105410000D01*
X214630000Y-106680000D02*
X215900000Y-105410000D01*
X204470000Y-140970000D02*
X204470000Y-143510000D01*
X205740000Y-139700000D02*
X204470000Y-140970000D01*
X219710000Y-143510000D02*
X219710000Y-139700000D01*
X219710000Y-139700000D02*
X205740000Y-139700000D01*
X214630000Y-121782500D02*
X214630000Y-123190000D01*
X195855000Y-107950000D02*
X196850000Y-108945000D01*
X179070000Y-107950000D02*
X195855000Y-107950000D01*
X196850000Y-108945000D02*
X196850000Y-119380000D01*
X196850000Y-119380000D02*
X198120000Y-120650000D01*
X198120000Y-120650000D02*
X213497500Y-120650000D01*
X213497500Y-120650000D02*
X214630000Y-121782500D01*
X168910000Y-84455000D02*
X169545000Y-83820000D01*
X169545000Y-83820000D02*
X171450000Y-83820000D01*
X139700000Y-93980000D02*
X168275000Y-93980000D01*
X168275000Y-93980000D02*
X168910000Y-93345000D01*
X168910000Y-93345000D02*
X168910000Y-84455000D01*
X139700000Y-106680000D02*
X139700000Y-93980000D01*
X143510000Y-107950000D02*
X140970000Y-107950000D01*
X140970000Y-107950000D02*
X139700000Y-106680000D01*
X139700000Y-85090000D02*
X139700000Y-93980000D01*
X135890000Y-83820000D02*
X138430000Y-83820000D01*
X138430000Y-83820000D02*
X139700000Y-85090000D01*
X215900000Y-121920000D02*
X222250000Y-121920000D01*
X214630000Y-123190000D02*
X215900000Y-121920000D01*
X219710000Y-139700000D02*
X219710000Y-121920000D01*
D28*
X179070000Y-83820000D02*
X177944700Y-83820000D01*
X175260000Y-83820000D02*
X177944700Y-83820000D01*
X173990000Y-83820000D02*
X175260000Y-83820000D01*
X173990000Y-107315000D02*
X173990000Y-83820000D01*
X171450000Y-107950000D02*
X173355000Y-107950000D01*
X173355000Y-107950000D02*
X173990000Y-107315000D01*
X121920000Y-107950000D02*
X135890000Y-107950000D01*
X116840000Y-109220000D02*
X120650000Y-109220000D01*
X120650000Y-109220000D02*
X121920000Y-107950000D01*
X172720000Y-82550000D02*
X173990000Y-83820000D01*
X147247650Y-82550000D02*
X172720000Y-82550000D01*
X143510000Y-83820000D02*
X145977650Y-83820000D01*
X145977650Y-83820000D02*
X147247650Y-82550000D01*
X141042350Y-83820000D02*
X143510000Y-83820000D01*
X139772350Y-82550000D02*
X141042350Y-83820000D01*
X118110000Y-82550000D02*
X139772350Y-82550000D01*
X116840000Y-91440000D02*
X116840000Y-83820000D01*
X116840000Y-83820000D02*
X118110000Y-82550000D01*
D26*
X212090000Y-58420000D02*
X208915000Y-58420000D01*
X208915000Y-58420000D02*
X208280000Y-57785000D01*
X208280000Y-48260000D02*
X208280000Y-43180000D01*
X208280000Y-57785000D02*
X208280000Y-48260000D01*
X231000000Y-47247500D02*
X231000000Y-43180000D01*
X208280000Y-48260000D02*
X229987500Y-48260000D01*
X229987500Y-48260000D02*
X231000000Y-47247500D01*
X238125000Y-155575000D02*
X233680000Y-155575000D01*
X238760000Y-143510000D02*
X238760000Y-154940000D01*
X238760000Y-154940000D02*
X238125000Y-155575000D01*
M02*
