M48
; DRILL file {KiCad (5.1.5)-3} date 05/02/2020 09:48:51
; FORMAT={-:-/ absolute / metric / decimal}
; #@! TF.CreationDate,2020-02-05T09:48:51+01:00
; #@! TF.GenerationSoftware,Kicad,Pcbnew,(5.1.5)-3
FMAT,2
METRIC
T1C0.800
T2C1.000
T3C1.016
T4C1.100
T5C1.200
T6C1.520
T7C2.000
T8C3.500
%
G90
G05
T1
X171.45Y-102.87
X171.45Y-105.41
X171.45Y-107.95
X171.45Y-110.49
X171.45Y-113.03
X171.45Y-115.57
X171.45Y-118.11
X171.45Y-120.65
X171.45Y-123.19
X171.45Y-125.73
X171.45Y-128.27
X171.45Y-130.81
X171.45Y-133.35
X171.45Y-135.89
X179.07Y-102.87
X179.07Y-105.41
X179.07Y-107.95
X179.07Y-110.49
X179.07Y-113.03
X179.07Y-115.57
X179.07Y-118.11
X179.07Y-120.65
X179.07Y-123.19
X179.07Y-125.73
X179.07Y-128.27
X179.07Y-130.81
X179.07Y-133.35
X179.07Y-135.89
X207.01Y-123.19
X214.63Y-123.19
X116.84Y-91.44
X116.84Y-93.98
X116.84Y-96.52
X116.84Y-99.06
X116.84Y-101.6
X163.83Y-55.88
X163.83Y-58.42
X163.83Y-60.96
X163.83Y-63.5
X163.83Y-66.04
X163.83Y-68.58
X163.83Y-71.12
X163.83Y-73.66
X163.83Y-76.2
X212.09Y-53.42
X212.09Y-58.42
X163.83Y-115.57
X163.83Y-118.11
X163.83Y-120.65
X163.83Y-123.19
X163.83Y-125.73
X163.83Y-128.27
X163.83Y-130.81
X163.83Y-133.35
X163.83Y-135.89
X151.13Y-55.88
X151.13Y-58.42
X151.13Y-60.96
X151.13Y-63.5
X151.13Y-66.04
X151.13Y-68.58
X151.13Y-71.12
X151.13Y-73.66
X151.13Y-76.2
X186.69Y-115.57
X186.69Y-118.11
X186.69Y-120.65
X186.69Y-123.19
X186.69Y-125.73
X186.69Y-128.27
X186.69Y-130.81
X186.69Y-133.35
X186.69Y-135.89
X171.45Y-55.88
X171.45Y-58.42
X171.45Y-60.96
X171.45Y-63.5
X171.45Y-66.04
X171.45Y-68.58
X171.45Y-71.12
X171.45Y-73.66
X171.45Y-76.2
X171.45Y-78.74
X171.45Y-81.28
X171.45Y-83.82
X171.45Y-86.36
X171.45Y-88.9
X179.07Y-55.88
X179.07Y-58.42
X179.07Y-60.96
X179.07Y-63.5
X179.07Y-66.04
X179.07Y-68.58
X179.07Y-71.12
X179.07Y-73.66
X179.07Y-76.2
X179.07Y-78.74
X179.07Y-81.28
X179.07Y-83.82
X179.07Y-86.36
X179.07Y-88.9
X231.14Y-53.34
X231.14Y-60.96
X135.89Y-102.87
X135.89Y-105.41
X135.89Y-107.95
X135.89Y-110.49
X135.89Y-113.03
X135.89Y-115.57
X135.89Y-118.11
X135.89Y-120.65
X135.89Y-123.19
X135.89Y-125.73
X135.89Y-128.27
X135.89Y-130.81
X135.89Y-133.35
X135.89Y-135.89
X143.51Y-102.87
X143.51Y-105.41
X143.51Y-107.95
X143.51Y-110.49
X143.51Y-113.03
X143.51Y-115.57
X143.51Y-118.11
X143.51Y-120.65
X143.51Y-123.19
X143.51Y-125.73
X143.51Y-128.27
X143.51Y-130.81
X143.51Y-133.35
X143.51Y-135.89
X222.25Y-116.84
X222.25Y-119.38
X222.25Y-121.92
X238.76Y-53.38
X238.76Y-61.0
X186.69Y-55.88
X186.69Y-58.42
X186.69Y-60.96
X186.69Y-63.5
X186.69Y-66.04
X186.69Y-68.58
X186.69Y-71.12
X186.69Y-73.66
X186.69Y-76.2
X128.27Y-115.57
X128.27Y-118.11
X128.27Y-120.65
X128.27Y-123.19
X128.27Y-125.73
X128.27Y-128.27
X128.27Y-130.81
X128.27Y-133.35
X128.27Y-135.89
X207.01Y-106.68
X214.63Y-106.68
X222.25Y-100.33
X222.25Y-102.87
X222.25Y-105.41
X207.01Y-99.06
X214.63Y-99.06
X135.89Y-55.88
X135.89Y-58.42
X135.89Y-60.96
X135.89Y-63.5
X135.89Y-66.04
X135.89Y-68.58
X135.89Y-71.12
X135.89Y-73.66
X135.89Y-76.2
X135.89Y-78.74
X135.89Y-81.28
X135.89Y-83.82
X135.89Y-86.36
X135.89Y-88.9
X143.51Y-55.88
X143.51Y-58.42
X143.51Y-60.96
X143.51Y-63.5
X143.51Y-66.04
X143.51Y-68.58
X143.51Y-71.12
X143.51Y-73.66
X143.51Y-76.2
X143.51Y-78.74
X143.51Y-81.28
X143.51Y-83.82
X143.51Y-86.36
X143.51Y-88.9
X128.27Y-55.88
X128.27Y-58.42
X128.27Y-60.96
X128.27Y-63.5
X128.27Y-66.04
X128.27Y-68.58
X128.27Y-71.12
X128.27Y-73.66
X128.27Y-76.2
X151.13Y-115.57
X151.13Y-118.11
X151.13Y-120.65
X151.13Y-123.19
X151.13Y-125.73
X151.13Y-128.27
X151.13Y-130.81
X151.13Y-133.35
X151.13Y-135.89
X207.01Y-115.57
X214.63Y-115.57
X203.2Y-58.42
X205.7Y-58.42
X218.48Y-58.42
X220.98Y-58.42
T2
X161.29Y-102.87
X163.83Y-102.87
X166.37Y-102.87
X125.73Y-88.9
X128.27Y-88.9
X130.81Y-88.9
X161.29Y-88.9
X163.83Y-88.9
X166.37Y-88.9
X148.59Y-88.9
X151.13Y-88.9
X153.67Y-88.9
X125.73Y-102.87
X128.27Y-102.87
X130.81Y-102.87
X231.14Y-155.575
X233.68Y-155.575
X116.84Y-109.22
X116.84Y-111.76
X148.59Y-102.87
X151.13Y-102.87
X153.67Y-102.87
X184.15Y-102.87
X186.69Y-102.87
X189.23Y-102.87
X214.63Y-68.58
X217.17Y-68.58
X184.15Y-88.9
X186.69Y-88.9
X189.23Y-88.9
T3
X163.83Y-45.72
X163.83Y-48.26
X166.37Y-45.72
X166.37Y-48.26
X168.91Y-45.72
X168.91Y-48.26
X171.45Y-45.72
X171.45Y-48.26
X173.99Y-45.72
X173.99Y-48.26
X176.53Y-45.72
X176.53Y-48.26
X179.07Y-45.72
X179.07Y-48.26
X181.61Y-45.72
X181.61Y-48.26
X184.15Y-45.72
X184.15Y-48.26
X186.69Y-45.72
X186.69Y-48.26
X238.76Y-95.25
X238.76Y-97.79
X238.76Y-100.33
X238.76Y-102.87
X238.76Y-105.41
X238.76Y-107.95
X238.76Y-110.49
X238.76Y-113.03
X238.76Y-115.57
X238.76Y-118.11
X238.76Y-120.65
X238.76Y-123.19
X238.76Y-125.73
X238.76Y-128.27
X238.76Y-130.81
X238.76Y-133.35
X238.76Y-135.89
X238.76Y-138.43
X238.76Y-140.97
X238.76Y-143.51
X241.3Y-95.25
X241.3Y-97.79
X241.3Y-100.33
X241.3Y-102.87
X241.3Y-105.41
X241.3Y-107.95
X241.3Y-110.49
X241.3Y-113.03
X241.3Y-115.57
X241.3Y-118.11
X241.3Y-120.65
X241.3Y-123.19
X241.3Y-125.73
X241.3Y-128.27
X241.3Y-130.81
X241.3Y-133.35
X241.3Y-135.89
X241.3Y-138.43
X241.3Y-140.97
X241.3Y-143.51
X128.27Y-143.51
X128.27Y-146.05
X130.81Y-143.51
X130.81Y-146.05
X133.35Y-143.51
X133.35Y-146.05
X135.89Y-143.51
X135.89Y-146.05
X138.43Y-143.51
X138.43Y-146.05
X140.97Y-143.51
X140.97Y-146.05
X143.51Y-143.51
X143.51Y-146.05
X146.05Y-143.51
X146.05Y-146.05
X148.59Y-143.51
X148.59Y-146.05
X151.13Y-143.51
X151.13Y-146.05
X128.27Y-45.72
X128.27Y-48.26
X130.81Y-45.72
X130.81Y-48.26
X133.35Y-45.72
X133.35Y-48.26
X135.89Y-45.72
X135.89Y-48.26
X138.43Y-45.72
X138.43Y-48.26
X140.97Y-45.72
X140.97Y-48.26
X143.51Y-45.72
X143.51Y-48.26
X146.05Y-45.72
X146.05Y-48.26
X148.59Y-45.72
X148.59Y-48.26
X151.13Y-45.72
X151.13Y-48.26
X163.83Y-143.51
X163.83Y-146.05
X166.37Y-143.51
X166.37Y-146.05
X168.91Y-143.51
X168.91Y-146.05
X171.45Y-143.51
X171.45Y-146.05
X173.99Y-143.51
X173.99Y-146.05
X176.53Y-143.51
X176.53Y-146.05
X179.07Y-143.51
X179.07Y-146.05
X181.61Y-143.51
X181.61Y-146.05
X184.15Y-143.51
X184.15Y-146.05
X186.69Y-143.51
X186.69Y-146.05
T4
X223.52Y-68.58
X226.06Y-68.58
X228.6Y-68.58
X203.2Y-68.58
X205.74Y-68.58
X208.28Y-68.58
T5
X201.93Y-143.51
X204.47Y-143.51
X207.01Y-143.51
X209.55Y-143.51
X217.17Y-143.51
X219.71Y-143.51
X222.25Y-143.51
X224.79Y-143.51
X201.93Y-154.94
X204.47Y-154.94
X207.01Y-154.94
X209.55Y-154.94
X217.17Y-154.94
X219.71Y-154.94
X222.25Y-154.94
X224.79Y-154.94
T6
X208.28Y-43.18
X213.36Y-43.18
X218.44Y-43.18
T7
X231.0Y-43.18
X234.0Y-38.48
X237.0Y-43.18
T8
X226.06Y-85.24
X205.74Y-85.24
T0
M30
