%FSLAX45Y45*%
G04 Gerber Fmt 4.5, Leading zero omitted, Abs format (unit mm)*
G04 Created by KiCad (PCBNEW (5.1.5)-3) date 2020-02-05 09:48:51*
%MOMM*%
%LPD*%
G04 APERTURE LIST*
%TA.AperFunction,Profile*%
%ADD10C,0.150000*%
%TD*%
%ADD11C,0.200000*%
%ADD12C,0.300000*%
G04 APERTURE END LIST*
D10*
X24915000Y-3429000D02*
G75*
G03X24915000Y-3429000I-150000J0D01*
G01*
X24915000Y-15748000D02*
G75*
G03X24915000Y-15748000I-150000J0D01*
G01*
X11453000Y-15748000D02*
G75*
G03X11453000Y-15748000I-150000J0D01*
G01*
X11453000Y-3429000D02*
G75*
G03X11453000Y-3429000I-150000J0D01*
G01*
X11049000Y-16002000D02*
X11049000Y-3175000D01*
X25019000Y-16002000D02*
X11049000Y-16002000D01*
X25019000Y-3175000D02*
X25019000Y-16002000D01*
X11049000Y-3175000D02*
X25019000Y-3175000D01*
D11*
X17105000Y-10247000D02*
X17185000Y-10327000D01*
X17185000Y-10247000D02*
X17105000Y-10327000D01*
X17105000Y-10501000D02*
X17185000Y-10581000D01*
X17185000Y-10501000D02*
X17105000Y-10581000D01*
X17105000Y-10755000D02*
X17185000Y-10835000D01*
X17185000Y-10755000D02*
X17105000Y-10835000D01*
X17105000Y-11009000D02*
X17185000Y-11089000D01*
X17185000Y-11009000D02*
X17105000Y-11089000D01*
X17105000Y-11263000D02*
X17185000Y-11343000D01*
X17185000Y-11263000D02*
X17105000Y-11343000D01*
X17105000Y-11517000D02*
X17185000Y-11597000D01*
X17185000Y-11517000D02*
X17105000Y-11597000D01*
X17105000Y-11771000D02*
X17185000Y-11851000D01*
X17185000Y-11771000D02*
X17105000Y-11851000D01*
X17105000Y-12025000D02*
X17185000Y-12105000D01*
X17185000Y-12025000D02*
X17105000Y-12105000D01*
X17105000Y-12279000D02*
X17185000Y-12359000D01*
X17185000Y-12279000D02*
X17105000Y-12359000D01*
X17105000Y-12533000D02*
X17185000Y-12613000D01*
X17185000Y-12533000D02*
X17105000Y-12613000D01*
X17105000Y-12787000D02*
X17185000Y-12867000D01*
X17185000Y-12787000D02*
X17105000Y-12867000D01*
X17105000Y-13041000D02*
X17185000Y-13121000D01*
X17185000Y-13041000D02*
X17105000Y-13121000D01*
X17105000Y-13295000D02*
X17185000Y-13375000D01*
X17185000Y-13295000D02*
X17105000Y-13375000D01*
X17105000Y-13549000D02*
X17185000Y-13629000D01*
X17185000Y-13549000D02*
X17105000Y-13629000D01*
X17867000Y-10247000D02*
X17947000Y-10327000D01*
X17947000Y-10247000D02*
X17867000Y-10327000D01*
X17867000Y-10501000D02*
X17947000Y-10581000D01*
X17947000Y-10501000D02*
X17867000Y-10581000D01*
X17867000Y-10755000D02*
X17947000Y-10835000D01*
X17947000Y-10755000D02*
X17867000Y-10835000D01*
X17867000Y-11009000D02*
X17947000Y-11089000D01*
X17947000Y-11009000D02*
X17867000Y-11089000D01*
X17867000Y-11263000D02*
X17947000Y-11343000D01*
X17947000Y-11263000D02*
X17867000Y-11343000D01*
X17867000Y-11517000D02*
X17947000Y-11597000D01*
X17947000Y-11517000D02*
X17867000Y-11597000D01*
X17867000Y-11771000D02*
X17947000Y-11851000D01*
X17947000Y-11771000D02*
X17867000Y-11851000D01*
X17867000Y-12025000D02*
X17947000Y-12105000D01*
X17947000Y-12025000D02*
X17867000Y-12105000D01*
X17867000Y-12279000D02*
X17947000Y-12359000D01*
X17947000Y-12279000D02*
X17867000Y-12359000D01*
X17867000Y-12533000D02*
X17947000Y-12613000D01*
X17947000Y-12533000D02*
X17867000Y-12613000D01*
X17867000Y-12787000D02*
X17947000Y-12867000D01*
X17947000Y-12787000D02*
X17867000Y-12867000D01*
X17867000Y-13041000D02*
X17947000Y-13121000D01*
X17947000Y-13041000D02*
X17867000Y-13121000D01*
X17867000Y-13295000D02*
X17947000Y-13375000D01*
X17947000Y-13295000D02*
X17867000Y-13375000D01*
X17867000Y-13549000D02*
X17947000Y-13629000D01*
X17947000Y-13549000D02*
X17867000Y-13629000D01*
X20661000Y-12279000D02*
X20741000Y-12359000D01*
X20741000Y-12279000D02*
X20661000Y-12359000D01*
X21423000Y-12279000D02*
X21503000Y-12359000D01*
X21503000Y-12279000D02*
X21423000Y-12359000D01*
X11644000Y-9104000D02*
X11724000Y-9184000D01*
X11724000Y-9104000D02*
X11644000Y-9184000D01*
X11644000Y-9358000D02*
X11724000Y-9438000D01*
X11724000Y-9358000D02*
X11644000Y-9438000D01*
X11644000Y-9612000D02*
X11724000Y-9692000D01*
X11724000Y-9612000D02*
X11644000Y-9692000D01*
X11644000Y-9866000D02*
X11724000Y-9946000D01*
X11724000Y-9866000D02*
X11644000Y-9946000D01*
X11644000Y-10120000D02*
X11724000Y-10200000D01*
X11724000Y-10120000D02*
X11644000Y-10200000D01*
X16343000Y-5548000D02*
X16423000Y-5628000D01*
X16423000Y-5548000D02*
X16343000Y-5628000D01*
X16343000Y-5802000D02*
X16423000Y-5882000D01*
X16423000Y-5802000D02*
X16343000Y-5882000D01*
X16343000Y-6056000D02*
X16423000Y-6136000D01*
X16423000Y-6056000D02*
X16343000Y-6136000D01*
X16343000Y-6310000D02*
X16423000Y-6390000D01*
X16423000Y-6310000D02*
X16343000Y-6390000D01*
X16343000Y-6564000D02*
X16423000Y-6644000D01*
X16423000Y-6564000D02*
X16343000Y-6644000D01*
X16343000Y-6818000D02*
X16423000Y-6898000D01*
X16423000Y-6818000D02*
X16343000Y-6898000D01*
X16343000Y-7072000D02*
X16423000Y-7152000D01*
X16423000Y-7072000D02*
X16343000Y-7152000D01*
X16343000Y-7326000D02*
X16423000Y-7406000D01*
X16423000Y-7326000D02*
X16343000Y-7406000D01*
X16343000Y-7580000D02*
X16423000Y-7660000D01*
X16423000Y-7580000D02*
X16343000Y-7660000D01*
X21169000Y-5302000D02*
X21249000Y-5382000D01*
X21249000Y-5302000D02*
X21169000Y-5382000D01*
X21169000Y-5802000D02*
X21249000Y-5882000D01*
X21249000Y-5802000D02*
X21169000Y-5882000D01*
X16343000Y-11517000D02*
X16423000Y-11597000D01*
X16423000Y-11517000D02*
X16343000Y-11597000D01*
X16343000Y-11771000D02*
X16423000Y-11851000D01*
X16423000Y-11771000D02*
X16343000Y-11851000D01*
X16343000Y-12025000D02*
X16423000Y-12105000D01*
X16423000Y-12025000D02*
X16343000Y-12105000D01*
X16343000Y-12279000D02*
X16423000Y-12359000D01*
X16423000Y-12279000D02*
X16343000Y-12359000D01*
X16343000Y-12533000D02*
X16423000Y-12613000D01*
X16423000Y-12533000D02*
X16343000Y-12613000D01*
X16343000Y-12787000D02*
X16423000Y-12867000D01*
X16423000Y-12787000D02*
X16343000Y-12867000D01*
X16343000Y-13041000D02*
X16423000Y-13121000D01*
X16423000Y-13041000D02*
X16343000Y-13121000D01*
X16343000Y-13295000D02*
X16423000Y-13375000D01*
X16423000Y-13295000D02*
X16343000Y-13375000D01*
X16343000Y-13549000D02*
X16423000Y-13629000D01*
X16423000Y-13549000D02*
X16343000Y-13629000D01*
X15073000Y-5548000D02*
X15153000Y-5628000D01*
X15153000Y-5548000D02*
X15073000Y-5628000D01*
X15073000Y-5802000D02*
X15153000Y-5882000D01*
X15153000Y-5802000D02*
X15073000Y-5882000D01*
X15073000Y-6056000D02*
X15153000Y-6136000D01*
X15153000Y-6056000D02*
X15073000Y-6136000D01*
X15073000Y-6310000D02*
X15153000Y-6390000D01*
X15153000Y-6310000D02*
X15073000Y-6390000D01*
X15073000Y-6564000D02*
X15153000Y-6644000D01*
X15153000Y-6564000D02*
X15073000Y-6644000D01*
X15073000Y-6818000D02*
X15153000Y-6898000D01*
X15153000Y-6818000D02*
X15073000Y-6898000D01*
X15073000Y-7072000D02*
X15153000Y-7152000D01*
X15153000Y-7072000D02*
X15073000Y-7152000D01*
X15073000Y-7326000D02*
X15153000Y-7406000D01*
X15153000Y-7326000D02*
X15073000Y-7406000D01*
X15073000Y-7580000D02*
X15153000Y-7660000D01*
X15153000Y-7580000D02*
X15073000Y-7660000D01*
X18629000Y-11517000D02*
X18709000Y-11597000D01*
X18709000Y-11517000D02*
X18629000Y-11597000D01*
X18629000Y-11771000D02*
X18709000Y-11851000D01*
X18709000Y-11771000D02*
X18629000Y-11851000D01*
X18629000Y-12025000D02*
X18709000Y-12105000D01*
X18709000Y-12025000D02*
X18629000Y-12105000D01*
X18629000Y-12279000D02*
X18709000Y-12359000D01*
X18709000Y-12279000D02*
X18629000Y-12359000D01*
X18629000Y-12533000D02*
X18709000Y-12613000D01*
X18709000Y-12533000D02*
X18629000Y-12613000D01*
X18629000Y-12787000D02*
X18709000Y-12867000D01*
X18709000Y-12787000D02*
X18629000Y-12867000D01*
X18629000Y-13041000D02*
X18709000Y-13121000D01*
X18709000Y-13041000D02*
X18629000Y-13121000D01*
X18629000Y-13295000D02*
X18709000Y-13375000D01*
X18709000Y-13295000D02*
X18629000Y-13375000D01*
X18629000Y-13549000D02*
X18709000Y-13629000D01*
X18709000Y-13549000D02*
X18629000Y-13629000D01*
X17105000Y-5548000D02*
X17185000Y-5628000D01*
X17185000Y-5548000D02*
X17105000Y-5628000D01*
X17105000Y-5802000D02*
X17185000Y-5882000D01*
X17185000Y-5802000D02*
X17105000Y-5882000D01*
X17105000Y-6056000D02*
X17185000Y-6136000D01*
X17185000Y-6056000D02*
X17105000Y-6136000D01*
X17105000Y-6310000D02*
X17185000Y-6390000D01*
X17185000Y-6310000D02*
X17105000Y-6390000D01*
X17105000Y-6564000D02*
X17185000Y-6644000D01*
X17185000Y-6564000D02*
X17105000Y-6644000D01*
X17105000Y-6818000D02*
X17185000Y-6898000D01*
X17185000Y-6818000D02*
X17105000Y-6898000D01*
X17105000Y-7072000D02*
X17185000Y-7152000D01*
X17185000Y-7072000D02*
X17105000Y-7152000D01*
X17105000Y-7326000D02*
X17185000Y-7406000D01*
X17185000Y-7326000D02*
X17105000Y-7406000D01*
X17105000Y-7580000D02*
X17185000Y-7660000D01*
X17185000Y-7580000D02*
X17105000Y-7660000D01*
X17105000Y-7834000D02*
X17185000Y-7914000D01*
X17185000Y-7834000D02*
X17105000Y-7914000D01*
X17105000Y-8088000D02*
X17185000Y-8168000D01*
X17185000Y-8088000D02*
X17105000Y-8168000D01*
X17105000Y-8342000D02*
X17185000Y-8422000D01*
X17185000Y-8342000D02*
X17105000Y-8422000D01*
X17105000Y-8596000D02*
X17185000Y-8676000D01*
X17185000Y-8596000D02*
X17105000Y-8676000D01*
X17105000Y-8850000D02*
X17185000Y-8930000D01*
X17185000Y-8850000D02*
X17105000Y-8930000D01*
X17867000Y-5548000D02*
X17947000Y-5628000D01*
X17947000Y-5548000D02*
X17867000Y-5628000D01*
X17867000Y-5802000D02*
X17947000Y-5882000D01*
X17947000Y-5802000D02*
X17867000Y-5882000D01*
X17867000Y-6056000D02*
X17947000Y-6136000D01*
X17947000Y-6056000D02*
X17867000Y-6136000D01*
X17867000Y-6310000D02*
X17947000Y-6390000D01*
X17947000Y-6310000D02*
X17867000Y-6390000D01*
X17867000Y-6564000D02*
X17947000Y-6644000D01*
X17947000Y-6564000D02*
X17867000Y-6644000D01*
X17867000Y-6818000D02*
X17947000Y-6898000D01*
X17947000Y-6818000D02*
X17867000Y-6898000D01*
X17867000Y-7072000D02*
X17947000Y-7152000D01*
X17947000Y-7072000D02*
X17867000Y-7152000D01*
X17867000Y-7326000D02*
X17947000Y-7406000D01*
X17947000Y-7326000D02*
X17867000Y-7406000D01*
X17867000Y-7580000D02*
X17947000Y-7660000D01*
X17947000Y-7580000D02*
X17867000Y-7660000D01*
X17867000Y-7834000D02*
X17947000Y-7914000D01*
X17947000Y-7834000D02*
X17867000Y-7914000D01*
X17867000Y-8088000D02*
X17947000Y-8168000D01*
X17947000Y-8088000D02*
X17867000Y-8168000D01*
X17867000Y-8342000D02*
X17947000Y-8422000D01*
X17947000Y-8342000D02*
X17867000Y-8422000D01*
X17867000Y-8596000D02*
X17947000Y-8676000D01*
X17947000Y-8596000D02*
X17867000Y-8676000D01*
X17867000Y-8850000D02*
X17947000Y-8930000D01*
X17947000Y-8850000D02*
X17867000Y-8930000D01*
X23074000Y-5294000D02*
X23154000Y-5374000D01*
X23154000Y-5294000D02*
X23074000Y-5374000D01*
X23074000Y-6056000D02*
X23154000Y-6136000D01*
X23154000Y-6056000D02*
X23074000Y-6136000D01*
X13549000Y-10247000D02*
X13629000Y-10327000D01*
X13629000Y-10247000D02*
X13549000Y-10327000D01*
X13549000Y-10501000D02*
X13629000Y-10581000D01*
X13629000Y-10501000D02*
X13549000Y-10581000D01*
X13549000Y-10755000D02*
X13629000Y-10835000D01*
X13629000Y-10755000D02*
X13549000Y-10835000D01*
X13549000Y-11009000D02*
X13629000Y-11089000D01*
X13629000Y-11009000D02*
X13549000Y-11089000D01*
X13549000Y-11263000D02*
X13629000Y-11343000D01*
X13629000Y-11263000D02*
X13549000Y-11343000D01*
X13549000Y-11517000D02*
X13629000Y-11597000D01*
X13629000Y-11517000D02*
X13549000Y-11597000D01*
X13549000Y-11771000D02*
X13629000Y-11851000D01*
X13629000Y-11771000D02*
X13549000Y-11851000D01*
X13549000Y-12025000D02*
X13629000Y-12105000D01*
X13629000Y-12025000D02*
X13549000Y-12105000D01*
X13549000Y-12279000D02*
X13629000Y-12359000D01*
X13629000Y-12279000D02*
X13549000Y-12359000D01*
X13549000Y-12533000D02*
X13629000Y-12613000D01*
X13629000Y-12533000D02*
X13549000Y-12613000D01*
X13549000Y-12787000D02*
X13629000Y-12867000D01*
X13629000Y-12787000D02*
X13549000Y-12867000D01*
X13549000Y-13041000D02*
X13629000Y-13121000D01*
X13629000Y-13041000D02*
X13549000Y-13121000D01*
X13549000Y-13295000D02*
X13629000Y-13375000D01*
X13629000Y-13295000D02*
X13549000Y-13375000D01*
X13549000Y-13549000D02*
X13629000Y-13629000D01*
X13629000Y-13549000D02*
X13549000Y-13629000D01*
X14311000Y-10247000D02*
X14391000Y-10327000D01*
X14391000Y-10247000D02*
X14311000Y-10327000D01*
X14311000Y-10501000D02*
X14391000Y-10581000D01*
X14391000Y-10501000D02*
X14311000Y-10581000D01*
X14311000Y-10755000D02*
X14391000Y-10835000D01*
X14391000Y-10755000D02*
X14311000Y-10835000D01*
X14311000Y-11009000D02*
X14391000Y-11089000D01*
X14391000Y-11009000D02*
X14311000Y-11089000D01*
X14311000Y-11263000D02*
X14391000Y-11343000D01*
X14391000Y-11263000D02*
X14311000Y-11343000D01*
X14311000Y-11517000D02*
X14391000Y-11597000D01*
X14391000Y-11517000D02*
X14311000Y-11597000D01*
X14311000Y-11771000D02*
X14391000Y-11851000D01*
X14391000Y-11771000D02*
X14311000Y-11851000D01*
X14311000Y-12025000D02*
X14391000Y-12105000D01*
X14391000Y-12025000D02*
X14311000Y-12105000D01*
X14311000Y-12279000D02*
X14391000Y-12359000D01*
X14391000Y-12279000D02*
X14311000Y-12359000D01*
X14311000Y-12533000D02*
X14391000Y-12613000D01*
X14391000Y-12533000D02*
X14311000Y-12613000D01*
X14311000Y-12787000D02*
X14391000Y-12867000D01*
X14391000Y-12787000D02*
X14311000Y-12867000D01*
X14311000Y-13041000D02*
X14391000Y-13121000D01*
X14391000Y-13041000D02*
X14311000Y-13121000D01*
X14311000Y-13295000D02*
X14391000Y-13375000D01*
X14391000Y-13295000D02*
X14311000Y-13375000D01*
X14311000Y-13549000D02*
X14391000Y-13629000D01*
X14391000Y-13549000D02*
X14311000Y-13629000D01*
X22185000Y-11644000D02*
X22265000Y-11724000D01*
X22265000Y-11644000D02*
X22185000Y-11724000D01*
X22185000Y-11898000D02*
X22265000Y-11978000D01*
X22265000Y-11898000D02*
X22185000Y-11978000D01*
X22185000Y-12152000D02*
X22265000Y-12232000D01*
X22265000Y-12152000D02*
X22185000Y-12232000D01*
X23836000Y-5298000D02*
X23916000Y-5378000D01*
X23916000Y-5298000D02*
X23836000Y-5378000D01*
X23836000Y-6060000D02*
X23916000Y-6140000D01*
X23916000Y-6060000D02*
X23836000Y-6140000D01*
X18629000Y-5548000D02*
X18709000Y-5628000D01*
X18709000Y-5548000D02*
X18629000Y-5628000D01*
X18629000Y-5802000D02*
X18709000Y-5882000D01*
X18709000Y-5802000D02*
X18629000Y-5882000D01*
X18629000Y-6056000D02*
X18709000Y-6136000D01*
X18709000Y-6056000D02*
X18629000Y-6136000D01*
X18629000Y-6310000D02*
X18709000Y-6390000D01*
X18709000Y-6310000D02*
X18629000Y-6390000D01*
X18629000Y-6564000D02*
X18709000Y-6644000D01*
X18709000Y-6564000D02*
X18629000Y-6644000D01*
X18629000Y-6818000D02*
X18709000Y-6898000D01*
X18709000Y-6818000D02*
X18629000Y-6898000D01*
X18629000Y-7072000D02*
X18709000Y-7152000D01*
X18709000Y-7072000D02*
X18629000Y-7152000D01*
X18629000Y-7326000D02*
X18709000Y-7406000D01*
X18709000Y-7326000D02*
X18629000Y-7406000D01*
X18629000Y-7580000D02*
X18709000Y-7660000D01*
X18709000Y-7580000D02*
X18629000Y-7660000D01*
X12787000Y-11517000D02*
X12867000Y-11597000D01*
X12867000Y-11517000D02*
X12787000Y-11597000D01*
X12787000Y-11771000D02*
X12867000Y-11851000D01*
X12867000Y-11771000D02*
X12787000Y-11851000D01*
X12787000Y-12025000D02*
X12867000Y-12105000D01*
X12867000Y-12025000D02*
X12787000Y-12105000D01*
X12787000Y-12279000D02*
X12867000Y-12359000D01*
X12867000Y-12279000D02*
X12787000Y-12359000D01*
X12787000Y-12533000D02*
X12867000Y-12613000D01*
X12867000Y-12533000D02*
X12787000Y-12613000D01*
X12787000Y-12787000D02*
X12867000Y-12867000D01*
X12867000Y-12787000D02*
X12787000Y-12867000D01*
X12787000Y-13041000D02*
X12867000Y-13121000D01*
X12867000Y-13041000D02*
X12787000Y-13121000D01*
X12787000Y-13295000D02*
X12867000Y-13375000D01*
X12867000Y-13295000D02*
X12787000Y-13375000D01*
X12787000Y-13549000D02*
X12867000Y-13629000D01*
X12867000Y-13549000D02*
X12787000Y-13629000D01*
X20661000Y-10628000D02*
X20741000Y-10708000D01*
X20741000Y-10628000D02*
X20661000Y-10708000D01*
X21423000Y-10628000D02*
X21503000Y-10708000D01*
X21503000Y-10628000D02*
X21423000Y-10708000D01*
X22185000Y-9993000D02*
X22265000Y-10073000D01*
X22265000Y-9993000D02*
X22185000Y-10073000D01*
X22185000Y-10247000D02*
X22265000Y-10327000D01*
X22265000Y-10247000D02*
X22185000Y-10327000D01*
X22185000Y-10501000D02*
X22265000Y-10581000D01*
X22265000Y-10501000D02*
X22185000Y-10581000D01*
X20661000Y-9866000D02*
X20741000Y-9946000D01*
X20741000Y-9866000D02*
X20661000Y-9946000D01*
X21423000Y-9866000D02*
X21503000Y-9946000D01*
X21503000Y-9866000D02*
X21423000Y-9946000D01*
X13549000Y-5548000D02*
X13629000Y-5628000D01*
X13629000Y-5548000D02*
X13549000Y-5628000D01*
X13549000Y-5802000D02*
X13629000Y-5882000D01*
X13629000Y-5802000D02*
X13549000Y-5882000D01*
X13549000Y-6056000D02*
X13629000Y-6136000D01*
X13629000Y-6056000D02*
X13549000Y-6136000D01*
X13549000Y-6310000D02*
X13629000Y-6390000D01*
X13629000Y-6310000D02*
X13549000Y-6390000D01*
X13549000Y-6564000D02*
X13629000Y-6644000D01*
X13629000Y-6564000D02*
X13549000Y-6644000D01*
X13549000Y-6818000D02*
X13629000Y-6898000D01*
X13629000Y-6818000D02*
X13549000Y-6898000D01*
X13549000Y-7072000D02*
X13629000Y-7152000D01*
X13629000Y-7072000D02*
X13549000Y-7152000D01*
X13549000Y-7326000D02*
X13629000Y-7406000D01*
X13629000Y-7326000D02*
X13549000Y-7406000D01*
X13549000Y-7580000D02*
X13629000Y-7660000D01*
X13629000Y-7580000D02*
X13549000Y-7660000D01*
X13549000Y-7834000D02*
X13629000Y-7914000D01*
X13629000Y-7834000D02*
X13549000Y-7914000D01*
X13549000Y-8088000D02*
X13629000Y-8168000D01*
X13629000Y-8088000D02*
X13549000Y-8168000D01*
X13549000Y-8342000D02*
X13629000Y-8422000D01*
X13629000Y-8342000D02*
X13549000Y-8422000D01*
X13549000Y-8596000D02*
X13629000Y-8676000D01*
X13629000Y-8596000D02*
X13549000Y-8676000D01*
X13549000Y-8850000D02*
X13629000Y-8930000D01*
X13629000Y-8850000D02*
X13549000Y-8930000D01*
X14311000Y-5548000D02*
X14391000Y-5628000D01*
X14391000Y-5548000D02*
X14311000Y-5628000D01*
X14311000Y-5802000D02*
X14391000Y-5882000D01*
X14391000Y-5802000D02*
X14311000Y-5882000D01*
X14311000Y-6056000D02*
X14391000Y-6136000D01*
X14391000Y-6056000D02*
X14311000Y-6136000D01*
X14311000Y-6310000D02*
X14391000Y-6390000D01*
X14391000Y-6310000D02*
X14311000Y-6390000D01*
X14311000Y-6564000D02*
X14391000Y-6644000D01*
X14391000Y-6564000D02*
X14311000Y-6644000D01*
X14311000Y-6818000D02*
X14391000Y-6898000D01*
X14391000Y-6818000D02*
X14311000Y-6898000D01*
X14311000Y-7072000D02*
X14391000Y-7152000D01*
X14391000Y-7072000D02*
X14311000Y-7152000D01*
X14311000Y-7326000D02*
X14391000Y-7406000D01*
X14391000Y-7326000D02*
X14311000Y-7406000D01*
X14311000Y-7580000D02*
X14391000Y-7660000D01*
X14391000Y-7580000D02*
X14311000Y-7660000D01*
X14311000Y-7834000D02*
X14391000Y-7914000D01*
X14391000Y-7834000D02*
X14311000Y-7914000D01*
X14311000Y-8088000D02*
X14391000Y-8168000D01*
X14391000Y-8088000D02*
X14311000Y-8168000D01*
X14311000Y-8342000D02*
X14391000Y-8422000D01*
X14391000Y-8342000D02*
X14311000Y-8422000D01*
X14311000Y-8596000D02*
X14391000Y-8676000D01*
X14391000Y-8596000D02*
X14311000Y-8676000D01*
X14311000Y-8850000D02*
X14391000Y-8930000D01*
X14391000Y-8850000D02*
X14311000Y-8930000D01*
X12787000Y-5548000D02*
X12867000Y-5628000D01*
X12867000Y-5548000D02*
X12787000Y-5628000D01*
X12787000Y-5802000D02*
X12867000Y-5882000D01*
X12867000Y-5802000D02*
X12787000Y-5882000D01*
X12787000Y-6056000D02*
X12867000Y-6136000D01*
X12867000Y-6056000D02*
X12787000Y-6136000D01*
X12787000Y-6310000D02*
X12867000Y-6390000D01*
X12867000Y-6310000D02*
X12787000Y-6390000D01*
X12787000Y-6564000D02*
X12867000Y-6644000D01*
X12867000Y-6564000D02*
X12787000Y-6644000D01*
X12787000Y-6818000D02*
X12867000Y-6898000D01*
X12867000Y-6818000D02*
X12787000Y-6898000D01*
X12787000Y-7072000D02*
X12867000Y-7152000D01*
X12867000Y-7072000D02*
X12787000Y-7152000D01*
X12787000Y-7326000D02*
X12867000Y-7406000D01*
X12867000Y-7326000D02*
X12787000Y-7406000D01*
X12787000Y-7580000D02*
X12867000Y-7660000D01*
X12867000Y-7580000D02*
X12787000Y-7660000D01*
X15073000Y-11517000D02*
X15153000Y-11597000D01*
X15153000Y-11517000D02*
X15073000Y-11597000D01*
X15073000Y-11771000D02*
X15153000Y-11851000D01*
X15153000Y-11771000D02*
X15073000Y-11851000D01*
X15073000Y-12025000D02*
X15153000Y-12105000D01*
X15153000Y-12025000D02*
X15073000Y-12105000D01*
X15073000Y-12279000D02*
X15153000Y-12359000D01*
X15153000Y-12279000D02*
X15073000Y-12359000D01*
X15073000Y-12533000D02*
X15153000Y-12613000D01*
X15153000Y-12533000D02*
X15073000Y-12613000D01*
X15073000Y-12787000D02*
X15153000Y-12867000D01*
X15153000Y-12787000D02*
X15073000Y-12867000D01*
X15073000Y-13041000D02*
X15153000Y-13121000D01*
X15153000Y-13041000D02*
X15073000Y-13121000D01*
X15073000Y-13295000D02*
X15153000Y-13375000D01*
X15153000Y-13295000D02*
X15073000Y-13375000D01*
X15073000Y-13549000D02*
X15153000Y-13629000D01*
X15153000Y-13549000D02*
X15073000Y-13629000D01*
X20661000Y-11517000D02*
X20741000Y-11597000D01*
X20741000Y-11517000D02*
X20661000Y-11597000D01*
X21423000Y-11517000D02*
X21503000Y-11597000D01*
X21503000Y-11517000D02*
X21423000Y-11597000D01*
X20280000Y-5802000D02*
X20360000Y-5882000D01*
X20360000Y-5802000D02*
X20280000Y-5882000D01*
X20530000Y-5802000D02*
X20610000Y-5882000D01*
X20610000Y-5802000D02*
X20530000Y-5882000D01*
X21808000Y-5802000D02*
X21888000Y-5882000D01*
X21888000Y-5802000D02*
X21808000Y-5882000D01*
X22058000Y-5802000D02*
X22138000Y-5882000D01*
X22138000Y-5802000D02*
X22058000Y-5882000D01*
X16179000Y-10287000D02*
G75*
G03X16179000Y-10287000I-50000J0D01*
G01*
X16433000Y-10287000D02*
G75*
G03X16433000Y-10287000I-50000J0D01*
G01*
X16687000Y-10287000D02*
G75*
G03X16687000Y-10287000I-50000J0D01*
G01*
X12623000Y-8890000D02*
G75*
G03X12623000Y-8890000I-50000J0D01*
G01*
X12877000Y-8890000D02*
G75*
G03X12877000Y-8890000I-50000J0D01*
G01*
X13131000Y-8890000D02*
G75*
G03X13131000Y-8890000I-50000J0D01*
G01*
X16179000Y-8890000D02*
G75*
G03X16179000Y-8890000I-50000J0D01*
G01*
X16433000Y-8890000D02*
G75*
G03X16433000Y-8890000I-50000J0D01*
G01*
X16687000Y-8890000D02*
G75*
G03X16687000Y-8890000I-50000J0D01*
G01*
X14909000Y-8890000D02*
G75*
G03X14909000Y-8890000I-50000J0D01*
G01*
X15163000Y-8890000D02*
G75*
G03X15163000Y-8890000I-50000J0D01*
G01*
X15417000Y-8890000D02*
G75*
G03X15417000Y-8890000I-50000J0D01*
G01*
X12623000Y-10287000D02*
G75*
G03X12623000Y-10287000I-50000J0D01*
G01*
X12877000Y-10287000D02*
G75*
G03X12877000Y-10287000I-50000J0D01*
G01*
X13131000Y-10287000D02*
G75*
G03X13131000Y-10287000I-50000J0D01*
G01*
X23164000Y-15557500D02*
G75*
G03X23164000Y-15557500I-50000J0D01*
G01*
X23418000Y-15557500D02*
G75*
G03X23418000Y-15557500I-50000J0D01*
G01*
X11734000Y-10922000D02*
G75*
G03X11734000Y-10922000I-50000J0D01*
G01*
X11734000Y-11176000D02*
G75*
G03X11734000Y-11176000I-50000J0D01*
G01*
X14909000Y-10287000D02*
G75*
G03X14909000Y-10287000I-50000J0D01*
G01*
X15163000Y-10287000D02*
G75*
G03X15163000Y-10287000I-50000J0D01*
G01*
X15417000Y-10287000D02*
G75*
G03X15417000Y-10287000I-50000J0D01*
G01*
X18465000Y-10287000D02*
G75*
G03X18465000Y-10287000I-50000J0D01*
G01*
X18719000Y-10287000D02*
G75*
G03X18719000Y-10287000I-50000J0D01*
G01*
X18973000Y-10287000D02*
G75*
G03X18973000Y-10287000I-50000J0D01*
G01*
X21513000Y-6858000D02*
G75*
G03X21513000Y-6858000I-50000J0D01*
G01*
X21767000Y-6858000D02*
G75*
G03X21767000Y-6858000I-50000J0D01*
G01*
X18465000Y-8890000D02*
G75*
G03X18465000Y-8890000I-50000J0D01*
G01*
X18719000Y-8890000D02*
G75*
G03X18719000Y-8890000I-50000J0D01*
G01*
X18973000Y-8890000D02*
G75*
G03X18973000Y-8890000I-50000J0D01*
G01*
X16383000Y-4521200D02*
X16383000Y-4622800D01*
X16332200Y-4572000D02*
X16433800Y-4572000D01*
X16383000Y-4775200D02*
X16383000Y-4876800D01*
X16332200Y-4826000D02*
X16433800Y-4826000D01*
X16637000Y-4521200D02*
X16637000Y-4622800D01*
X16586200Y-4572000D02*
X16687800Y-4572000D01*
X16637000Y-4775200D02*
X16637000Y-4876800D01*
X16586200Y-4826000D02*
X16687800Y-4826000D01*
X16891000Y-4521200D02*
X16891000Y-4622800D01*
X16840200Y-4572000D02*
X16941800Y-4572000D01*
X16891000Y-4775200D02*
X16891000Y-4876800D01*
X16840200Y-4826000D02*
X16941800Y-4826000D01*
X17145000Y-4521200D02*
X17145000Y-4622800D01*
X17094200Y-4572000D02*
X17195800Y-4572000D01*
X17145000Y-4775200D02*
X17145000Y-4876800D01*
X17094200Y-4826000D02*
X17195800Y-4826000D01*
X17399000Y-4521200D02*
X17399000Y-4622800D01*
X17348200Y-4572000D02*
X17449800Y-4572000D01*
X17399000Y-4775200D02*
X17399000Y-4876800D01*
X17348200Y-4826000D02*
X17449800Y-4826000D01*
X17653000Y-4521200D02*
X17653000Y-4622800D01*
X17602200Y-4572000D02*
X17703800Y-4572000D01*
X17653000Y-4775200D02*
X17653000Y-4876800D01*
X17602200Y-4826000D02*
X17703800Y-4826000D01*
X17907000Y-4521200D02*
X17907000Y-4622800D01*
X17856200Y-4572000D02*
X17957800Y-4572000D01*
X17907000Y-4775200D02*
X17907000Y-4876800D01*
X17856200Y-4826000D02*
X17957800Y-4826000D01*
X18161000Y-4521200D02*
X18161000Y-4622800D01*
X18110200Y-4572000D02*
X18211800Y-4572000D01*
X18161000Y-4775200D02*
X18161000Y-4876800D01*
X18110200Y-4826000D02*
X18211800Y-4826000D01*
X18415000Y-4521200D02*
X18415000Y-4622800D01*
X18364200Y-4572000D02*
X18465800Y-4572000D01*
X18415000Y-4775200D02*
X18415000Y-4876800D01*
X18364200Y-4826000D02*
X18465800Y-4826000D01*
X18669000Y-4521200D02*
X18669000Y-4622800D01*
X18618200Y-4572000D02*
X18719800Y-4572000D01*
X18669000Y-4775200D02*
X18669000Y-4876800D01*
X18618200Y-4826000D02*
X18719800Y-4826000D01*
X23876000Y-9474200D02*
X23876000Y-9575800D01*
X23825200Y-9525000D02*
X23926800Y-9525000D01*
X23876000Y-9728200D02*
X23876000Y-9829800D01*
X23825200Y-9779000D02*
X23926800Y-9779000D01*
X23876000Y-9982200D02*
X23876000Y-10083800D01*
X23825200Y-10033000D02*
X23926800Y-10033000D01*
X23876000Y-10236200D02*
X23876000Y-10337800D01*
X23825200Y-10287000D02*
X23926800Y-10287000D01*
X23876000Y-10490200D02*
X23876000Y-10591800D01*
X23825200Y-10541000D02*
X23926800Y-10541000D01*
X23876000Y-10744200D02*
X23876000Y-10845800D01*
X23825200Y-10795000D02*
X23926800Y-10795000D01*
X23876000Y-10998200D02*
X23876000Y-11099800D01*
X23825200Y-11049000D02*
X23926800Y-11049000D01*
X23876000Y-11252200D02*
X23876000Y-11353800D01*
X23825200Y-11303000D02*
X23926800Y-11303000D01*
X23876000Y-11506200D02*
X23876000Y-11607800D01*
X23825200Y-11557000D02*
X23926800Y-11557000D01*
X23876000Y-11760200D02*
X23876000Y-11861800D01*
X23825200Y-11811000D02*
X23926800Y-11811000D01*
X23876000Y-12014200D02*
X23876000Y-12115800D01*
X23825200Y-12065000D02*
X23926800Y-12065000D01*
X23876000Y-12268200D02*
X23876000Y-12369800D01*
X23825200Y-12319000D02*
X23926800Y-12319000D01*
X23876000Y-12522200D02*
X23876000Y-12623800D01*
X23825200Y-12573000D02*
X23926800Y-12573000D01*
X23876000Y-12776200D02*
X23876000Y-12877800D01*
X23825200Y-12827000D02*
X23926800Y-12827000D01*
X23876000Y-13030200D02*
X23876000Y-13131800D01*
X23825200Y-13081000D02*
X23926800Y-13081000D01*
X23876000Y-13284200D02*
X23876000Y-13385800D01*
X23825200Y-13335000D02*
X23926800Y-13335000D01*
X23876000Y-13538200D02*
X23876000Y-13639800D01*
X23825200Y-13589000D02*
X23926800Y-13589000D01*
X23876000Y-13792200D02*
X23876000Y-13893800D01*
X23825200Y-13843000D02*
X23926800Y-13843000D01*
X23876000Y-14046200D02*
X23876000Y-14147800D01*
X23825200Y-14097000D02*
X23926800Y-14097000D01*
X23876000Y-14300200D02*
X23876000Y-14401800D01*
X23825200Y-14351000D02*
X23926800Y-14351000D01*
X24130000Y-9474200D02*
X24130000Y-9575800D01*
X24079200Y-9525000D02*
X24180800Y-9525000D01*
X24130000Y-9728200D02*
X24130000Y-9829800D01*
X24079200Y-9779000D02*
X24180800Y-9779000D01*
X24130000Y-9982200D02*
X24130000Y-10083800D01*
X24079200Y-10033000D02*
X24180800Y-10033000D01*
X24130000Y-10236200D02*
X24130000Y-10337800D01*
X24079200Y-10287000D02*
X24180800Y-10287000D01*
X24130000Y-10490200D02*
X24130000Y-10591800D01*
X24079200Y-10541000D02*
X24180800Y-10541000D01*
X24130000Y-10744200D02*
X24130000Y-10845800D01*
X24079200Y-10795000D02*
X24180800Y-10795000D01*
X24130000Y-10998200D02*
X24130000Y-11099800D01*
X24079200Y-11049000D02*
X24180800Y-11049000D01*
X24130000Y-11252200D02*
X24130000Y-11353800D01*
X24079200Y-11303000D02*
X24180800Y-11303000D01*
X24130000Y-11506200D02*
X24130000Y-11607800D01*
X24079200Y-11557000D02*
X24180800Y-11557000D01*
X24130000Y-11760200D02*
X24130000Y-11861800D01*
X24079200Y-11811000D02*
X24180800Y-11811000D01*
X24130000Y-12014200D02*
X24130000Y-12115800D01*
X24079200Y-12065000D02*
X24180800Y-12065000D01*
X24130000Y-12268200D02*
X24130000Y-12369800D01*
X24079200Y-12319000D02*
X24180800Y-12319000D01*
X24130000Y-12522200D02*
X24130000Y-12623800D01*
X24079200Y-12573000D02*
X24180800Y-12573000D01*
X24130000Y-12776200D02*
X24130000Y-12877800D01*
X24079200Y-12827000D02*
X24180800Y-12827000D01*
X24130000Y-13030200D02*
X24130000Y-13131800D01*
X24079200Y-13081000D02*
X24180800Y-13081000D01*
X24130000Y-13284200D02*
X24130000Y-13385800D01*
X24079200Y-13335000D02*
X24180800Y-13335000D01*
X24130000Y-13538200D02*
X24130000Y-13639800D01*
X24079200Y-13589000D02*
X24180800Y-13589000D01*
X24130000Y-13792200D02*
X24130000Y-13893800D01*
X24079200Y-13843000D02*
X24180800Y-13843000D01*
X24130000Y-14046200D02*
X24130000Y-14147800D01*
X24079200Y-14097000D02*
X24180800Y-14097000D01*
X24130000Y-14300200D02*
X24130000Y-14401800D01*
X24079200Y-14351000D02*
X24180800Y-14351000D01*
X12827000Y-14300200D02*
X12827000Y-14401800D01*
X12776200Y-14351000D02*
X12877800Y-14351000D01*
X12827000Y-14554200D02*
X12827000Y-14655800D01*
X12776200Y-14605000D02*
X12877800Y-14605000D01*
X13081000Y-14300200D02*
X13081000Y-14401800D01*
X13030200Y-14351000D02*
X13131800Y-14351000D01*
X13081000Y-14554200D02*
X13081000Y-14655800D01*
X13030200Y-14605000D02*
X13131800Y-14605000D01*
X13335000Y-14300200D02*
X13335000Y-14401800D01*
X13284200Y-14351000D02*
X13385800Y-14351000D01*
X13335000Y-14554200D02*
X13335000Y-14655800D01*
X13284200Y-14605000D02*
X13385800Y-14605000D01*
X13589000Y-14300200D02*
X13589000Y-14401800D01*
X13538200Y-14351000D02*
X13639800Y-14351000D01*
X13589000Y-14554200D02*
X13589000Y-14655800D01*
X13538200Y-14605000D02*
X13639800Y-14605000D01*
X13843000Y-14300200D02*
X13843000Y-14401800D01*
X13792200Y-14351000D02*
X13893800Y-14351000D01*
X13843000Y-14554200D02*
X13843000Y-14655800D01*
X13792200Y-14605000D02*
X13893800Y-14605000D01*
X14097000Y-14300200D02*
X14097000Y-14401800D01*
X14046200Y-14351000D02*
X14147800Y-14351000D01*
X14097000Y-14554200D02*
X14097000Y-14655800D01*
X14046200Y-14605000D02*
X14147800Y-14605000D01*
X14351000Y-14300200D02*
X14351000Y-14401800D01*
X14300200Y-14351000D02*
X14401800Y-14351000D01*
X14351000Y-14554200D02*
X14351000Y-14655800D01*
X14300200Y-14605000D02*
X14401800Y-14605000D01*
X14605000Y-14300200D02*
X14605000Y-14401800D01*
X14554200Y-14351000D02*
X14655800Y-14351000D01*
X14605000Y-14554200D02*
X14605000Y-14655800D01*
X14554200Y-14605000D02*
X14655800Y-14605000D01*
X14859000Y-14300200D02*
X14859000Y-14401800D01*
X14808200Y-14351000D02*
X14909800Y-14351000D01*
X14859000Y-14554200D02*
X14859000Y-14655800D01*
X14808200Y-14605000D02*
X14909800Y-14605000D01*
X15113000Y-14300200D02*
X15113000Y-14401800D01*
X15062200Y-14351000D02*
X15163800Y-14351000D01*
X15113000Y-14554200D02*
X15113000Y-14655800D01*
X15062200Y-14605000D02*
X15163800Y-14605000D01*
X12827000Y-4521200D02*
X12827000Y-4622800D01*
X12776200Y-4572000D02*
X12877800Y-4572000D01*
X12827000Y-4775200D02*
X12827000Y-4876800D01*
X12776200Y-4826000D02*
X12877800Y-4826000D01*
X13081000Y-4521200D02*
X13081000Y-4622800D01*
X13030200Y-4572000D02*
X13131800Y-4572000D01*
X13081000Y-4775200D02*
X13081000Y-4876800D01*
X13030200Y-4826000D02*
X13131800Y-4826000D01*
X13335000Y-4521200D02*
X13335000Y-4622800D01*
X13284200Y-4572000D02*
X13385800Y-4572000D01*
X13335000Y-4775200D02*
X13335000Y-4876800D01*
X13284200Y-4826000D02*
X13385800Y-4826000D01*
X13589000Y-4521200D02*
X13589000Y-4622800D01*
X13538200Y-4572000D02*
X13639800Y-4572000D01*
X13589000Y-4775200D02*
X13589000Y-4876800D01*
X13538200Y-4826000D02*
X13639800Y-4826000D01*
X13843000Y-4521200D02*
X13843000Y-4622800D01*
X13792200Y-4572000D02*
X13893800Y-4572000D01*
X13843000Y-4775200D02*
X13843000Y-4876800D01*
X13792200Y-4826000D02*
X13893800Y-4826000D01*
X14097000Y-4521200D02*
X14097000Y-4622800D01*
X14046200Y-4572000D02*
X14147800Y-4572000D01*
X14097000Y-4775200D02*
X14097000Y-4876800D01*
X14046200Y-4826000D02*
X14147800Y-4826000D01*
X14351000Y-4521200D02*
X14351000Y-4622800D01*
X14300200Y-4572000D02*
X14401800Y-4572000D01*
X14351000Y-4775200D02*
X14351000Y-4876800D01*
X14300200Y-4826000D02*
X14401800Y-4826000D01*
X14605000Y-4521200D02*
X14605000Y-4622800D01*
X14554200Y-4572000D02*
X14655800Y-4572000D01*
X14605000Y-4775200D02*
X14605000Y-4876800D01*
X14554200Y-4826000D02*
X14655800Y-4826000D01*
X14859000Y-4521200D02*
X14859000Y-4622800D01*
X14808200Y-4572000D02*
X14909800Y-4572000D01*
X14859000Y-4775200D02*
X14859000Y-4876800D01*
X14808200Y-4826000D02*
X14909800Y-4826000D01*
X15113000Y-4521200D02*
X15113000Y-4622800D01*
X15062200Y-4572000D02*
X15163800Y-4572000D01*
X15113000Y-4775200D02*
X15113000Y-4876800D01*
X15062200Y-4826000D02*
X15163800Y-4826000D01*
X16383000Y-14300200D02*
X16383000Y-14401800D01*
X16332200Y-14351000D02*
X16433800Y-14351000D01*
X16383000Y-14554200D02*
X16383000Y-14655800D01*
X16332200Y-14605000D02*
X16433800Y-14605000D01*
X16637000Y-14300200D02*
X16637000Y-14401800D01*
X16586200Y-14351000D02*
X16687800Y-14351000D01*
X16637000Y-14554200D02*
X16637000Y-14655800D01*
X16586200Y-14605000D02*
X16687800Y-14605000D01*
X16891000Y-14300200D02*
X16891000Y-14401800D01*
X16840200Y-14351000D02*
X16941800Y-14351000D01*
X16891000Y-14554200D02*
X16891000Y-14655800D01*
X16840200Y-14605000D02*
X16941800Y-14605000D01*
X17145000Y-14300200D02*
X17145000Y-14401800D01*
X17094200Y-14351000D02*
X17195800Y-14351000D01*
X17145000Y-14554200D02*
X17145000Y-14655800D01*
X17094200Y-14605000D02*
X17195800Y-14605000D01*
X17399000Y-14300200D02*
X17399000Y-14401800D01*
X17348200Y-14351000D02*
X17449800Y-14351000D01*
X17399000Y-14554200D02*
X17399000Y-14655800D01*
X17348200Y-14605000D02*
X17449800Y-14605000D01*
X17653000Y-14300200D02*
X17653000Y-14401800D01*
X17602200Y-14351000D02*
X17703800Y-14351000D01*
X17653000Y-14554200D02*
X17653000Y-14655800D01*
X17602200Y-14605000D02*
X17703800Y-14605000D01*
X17907000Y-14300200D02*
X17907000Y-14401800D01*
X17856200Y-14351000D02*
X17957800Y-14351000D01*
X17907000Y-14554200D02*
X17907000Y-14655800D01*
X17856200Y-14605000D02*
X17957800Y-14605000D01*
X18161000Y-14300200D02*
X18161000Y-14401800D01*
X18110200Y-14351000D02*
X18211800Y-14351000D01*
X18161000Y-14554200D02*
X18161000Y-14655800D01*
X18110200Y-14605000D02*
X18211800Y-14605000D01*
X18415000Y-14300200D02*
X18415000Y-14401800D01*
X18364200Y-14351000D02*
X18465800Y-14351000D01*
X18415000Y-14554200D02*
X18415000Y-14655800D01*
X18364200Y-14605000D02*
X18465800Y-14605000D01*
X18669000Y-14300200D02*
X18669000Y-14401800D01*
X18618200Y-14351000D02*
X18719800Y-14351000D01*
X18669000Y-14554200D02*
X18669000Y-14655800D01*
X18618200Y-14605000D02*
X18719800Y-14605000D01*
X22390891Y-6896891D02*
X22390891Y-6819109D01*
X22313109Y-6819109D01*
X22313109Y-6896891D01*
X22390891Y-6896891D01*
X22644891Y-6896891D02*
X22644891Y-6819109D01*
X22567109Y-6819109D01*
X22567109Y-6896891D01*
X22644891Y-6896891D01*
X22898891Y-6896891D02*
X22898891Y-6819109D01*
X22821109Y-6819109D01*
X22821109Y-6896891D01*
X22898891Y-6896891D01*
X20358891Y-6896891D02*
X20358891Y-6819109D01*
X20281109Y-6819109D01*
X20281109Y-6896891D01*
X20358891Y-6896891D01*
X20612891Y-6896891D02*
X20612891Y-6819109D01*
X20535109Y-6819109D01*
X20535109Y-6896891D01*
X20612891Y-6896891D01*
X20866891Y-6896891D02*
X20866891Y-6819109D01*
X20789109Y-6819109D01*
X20789109Y-6896891D01*
X20866891Y-6896891D01*
X20193000Y-14411000D02*
X20253000Y-14351000D01*
X20193000Y-14291000D01*
X20133000Y-14351000D01*
X20193000Y-14411000D01*
X20447000Y-14411000D02*
X20507000Y-14351000D01*
X20447000Y-14291000D01*
X20387000Y-14351000D01*
X20447000Y-14411000D01*
X20701000Y-14411000D02*
X20761000Y-14351000D01*
X20701000Y-14291000D01*
X20641000Y-14351000D01*
X20701000Y-14411000D01*
X20955000Y-14411000D02*
X21015000Y-14351000D01*
X20955000Y-14291000D01*
X20895000Y-14351000D01*
X20955000Y-14411000D01*
X21717000Y-14411000D02*
X21777000Y-14351000D01*
X21717000Y-14291000D01*
X21657000Y-14351000D01*
X21717000Y-14411000D01*
X21971000Y-14411000D02*
X22031000Y-14351000D01*
X21971000Y-14291000D01*
X21911000Y-14351000D01*
X21971000Y-14411000D01*
X22225000Y-14411000D02*
X22285000Y-14351000D01*
X22225000Y-14291000D01*
X22165000Y-14351000D01*
X22225000Y-14411000D01*
X22479000Y-14411000D02*
X22539000Y-14351000D01*
X22479000Y-14291000D01*
X22419000Y-14351000D01*
X22479000Y-14411000D01*
X20193000Y-15554000D02*
X20253000Y-15494000D01*
X20193000Y-15434000D01*
X20133000Y-15494000D01*
X20193000Y-15554000D01*
X20447000Y-15554000D02*
X20507000Y-15494000D01*
X20447000Y-15434000D01*
X20387000Y-15494000D01*
X20447000Y-15554000D01*
X20701000Y-15554000D02*
X20761000Y-15494000D01*
X20701000Y-15434000D01*
X20641000Y-15494000D01*
X20701000Y-15554000D01*
X20955000Y-15554000D02*
X21015000Y-15494000D01*
X20955000Y-15434000D01*
X20895000Y-15494000D01*
X20955000Y-15554000D01*
X21717000Y-15554000D02*
X21777000Y-15494000D01*
X21717000Y-15434000D01*
X21657000Y-15494000D01*
X21717000Y-15554000D01*
X21971000Y-15554000D02*
X22031000Y-15494000D01*
X21971000Y-15434000D01*
X21911000Y-15494000D01*
X21971000Y-15554000D01*
X22225000Y-15554000D02*
X22285000Y-15494000D01*
X22225000Y-15434000D01*
X22165000Y-15494000D01*
X22225000Y-15554000D01*
X22479000Y-15554000D02*
X22539000Y-15494000D01*
X22479000Y-15434000D01*
X22419000Y-15494000D01*
X22479000Y-15554000D01*
X20752000Y-4242000D02*
X20904000Y-4394000D01*
X20904000Y-4242000D02*
X20752000Y-4394000D01*
X20904000Y-4318000D02*
G75*
G03X20904000Y-4318000I-76000J0D01*
G01*
X21260000Y-4242000D02*
X21412000Y-4394000D01*
X21412000Y-4242000D02*
X21260000Y-4394000D01*
X21412000Y-4318000D02*
G75*
G03X21412000Y-4318000I-76000J0D01*
G01*
X21768000Y-4242000D02*
X21920000Y-4394000D01*
X21920000Y-4242000D02*
X21768000Y-4394000D01*
X21920000Y-4318000D02*
G75*
G03X21920000Y-4318000I-76000J0D01*
G01*
X23000000Y-4218000D02*
X23200000Y-4418000D01*
X23200000Y-4218000D02*
X23000000Y-4418000D01*
X23100000Y-4218000D02*
X23100000Y-4418000D01*
X23000000Y-4318000D02*
X23200000Y-4318000D01*
X23300000Y-3748000D02*
X23500000Y-3948000D01*
X23500000Y-3748000D02*
X23300000Y-3948000D01*
X23400000Y-3748000D02*
X23400000Y-3948000D01*
X23300000Y-3848000D02*
X23500000Y-3848000D01*
X23600000Y-4218000D02*
X23800000Y-4418000D01*
X23800000Y-4218000D02*
X23600000Y-4418000D01*
X23700000Y-4218000D02*
X23700000Y-4418000D01*
X23600000Y-4318000D02*
X23800000Y-4318000D01*
X22431000Y-8349000D02*
X22781000Y-8699000D01*
X22781000Y-8349000D02*
X22431000Y-8699000D01*
X22729745Y-8647745D02*
X22729745Y-8400255D01*
X22482255Y-8400255D01*
X22482255Y-8647745D01*
X22729745Y-8647745D01*
X20399000Y-8349000D02*
X20749000Y-8699000D01*
X20749000Y-8349000D02*
X20399000Y-8699000D01*
X20697745Y-8647745D02*
X20697745Y-8400255D01*
X20450255Y-8400255D01*
X20450255Y-8647745D01*
X20697745Y-8647745D01*
D12*
X11327928Y-16475214D02*
X11327928Y-16175214D01*
X11399357Y-16175214D01*
X11442214Y-16189500D01*
X11470786Y-16218071D01*
X11485071Y-16246643D01*
X11499357Y-16303786D01*
X11499357Y-16346643D01*
X11485071Y-16403786D01*
X11470786Y-16432357D01*
X11442214Y-16460929D01*
X11399357Y-16475214D01*
X11327928Y-16475214D01*
X11627928Y-16475214D02*
X11627928Y-16275214D01*
X11627928Y-16332357D02*
X11642214Y-16303786D01*
X11656500Y-16289500D01*
X11685071Y-16275214D01*
X11713643Y-16275214D01*
X11813643Y-16475214D02*
X11813643Y-16275214D01*
X11813643Y-16175214D02*
X11799357Y-16189500D01*
X11813643Y-16203786D01*
X11827928Y-16189500D01*
X11813643Y-16175214D01*
X11813643Y-16203786D01*
X11999357Y-16475214D02*
X11970786Y-16460929D01*
X11956500Y-16432357D01*
X11956500Y-16175214D01*
X12156500Y-16475214D02*
X12127928Y-16460929D01*
X12113643Y-16432357D01*
X12113643Y-16175214D01*
X12499357Y-16475214D02*
X12499357Y-16175214D01*
X12599357Y-16389500D01*
X12699357Y-16175214D01*
X12699357Y-16475214D01*
X12970786Y-16475214D02*
X12970786Y-16318071D01*
X12956500Y-16289500D01*
X12927928Y-16275214D01*
X12870786Y-16275214D01*
X12842214Y-16289500D01*
X12970786Y-16460929D02*
X12942214Y-16475214D01*
X12870786Y-16475214D01*
X12842214Y-16460929D01*
X12827928Y-16432357D01*
X12827928Y-16403786D01*
X12842214Y-16375214D01*
X12870786Y-16360929D01*
X12942214Y-16360929D01*
X12970786Y-16346643D01*
X13113643Y-16275214D02*
X13113643Y-16575214D01*
X13113643Y-16289500D02*
X13142214Y-16275214D01*
X13199357Y-16275214D01*
X13227928Y-16289500D01*
X13242214Y-16303786D01*
X13256500Y-16332357D01*
X13256500Y-16418071D01*
X13242214Y-16446643D01*
X13227928Y-16460929D01*
X13199357Y-16475214D01*
X13142214Y-16475214D01*
X13113643Y-16460929D01*
X13385071Y-16446643D02*
X13399357Y-16460929D01*
X13385071Y-16475214D01*
X13370786Y-16460929D01*
X13385071Y-16446643D01*
X13385071Y-16475214D01*
X13385071Y-16289500D02*
X13399357Y-16303786D01*
X13385071Y-16318071D01*
X13370786Y-16303786D01*
X13385071Y-16289500D01*
X13385071Y-16318071D01*
X10961500Y-16929500D02*
X11041500Y-17009500D01*
X11041500Y-16929500D02*
X10961500Y-17009500D01*
X11385071Y-16805214D02*
X11413643Y-16805214D01*
X11442214Y-16819500D01*
X11456500Y-16833786D01*
X11470786Y-16862357D01*
X11485071Y-16919500D01*
X11485071Y-16990929D01*
X11470786Y-17048072D01*
X11456500Y-17076643D01*
X11442214Y-17090929D01*
X11413643Y-17105214D01*
X11385071Y-17105214D01*
X11356500Y-17090929D01*
X11342214Y-17076643D01*
X11327928Y-17048072D01*
X11313643Y-16990929D01*
X11313643Y-16919500D01*
X11327928Y-16862357D01*
X11342214Y-16833786D01*
X11356500Y-16819500D01*
X11385071Y-16805214D01*
X11613643Y-17076643D02*
X11627928Y-17090929D01*
X11613643Y-17105214D01*
X11599357Y-17090929D01*
X11613643Y-17076643D01*
X11613643Y-17105214D01*
X11799357Y-16933786D02*
X11770786Y-16919500D01*
X11756500Y-16905214D01*
X11742214Y-16876643D01*
X11742214Y-16862357D01*
X11756500Y-16833786D01*
X11770786Y-16819500D01*
X11799357Y-16805214D01*
X11856500Y-16805214D01*
X11885071Y-16819500D01*
X11899357Y-16833786D01*
X11913643Y-16862357D01*
X11913643Y-16876643D01*
X11899357Y-16905214D01*
X11885071Y-16919500D01*
X11856500Y-16933786D01*
X11799357Y-16933786D01*
X11770786Y-16948072D01*
X11756500Y-16962357D01*
X11742214Y-16990929D01*
X11742214Y-17048072D01*
X11756500Y-17076643D01*
X11770786Y-17090929D01*
X11799357Y-17105214D01*
X11856500Y-17105214D01*
X11885071Y-17090929D01*
X11899357Y-17076643D01*
X11913643Y-17048072D01*
X11913643Y-16990929D01*
X11899357Y-16962357D01*
X11885071Y-16948072D01*
X11856500Y-16933786D01*
X12099357Y-16805214D02*
X12127928Y-16805214D01*
X12156500Y-16819500D01*
X12170786Y-16833786D01*
X12185071Y-16862357D01*
X12199357Y-16919500D01*
X12199357Y-16990929D01*
X12185071Y-17048072D01*
X12170786Y-17076643D01*
X12156500Y-17090929D01*
X12127928Y-17105214D01*
X12099357Y-17105214D01*
X12070786Y-17090929D01*
X12056500Y-17076643D01*
X12042214Y-17048072D01*
X12027928Y-16990929D01*
X12027928Y-16919500D01*
X12042214Y-16862357D01*
X12056500Y-16833786D01*
X12070786Y-16819500D01*
X12099357Y-16805214D01*
X12327928Y-17105214D02*
X12327928Y-16905214D01*
X12327928Y-16933786D02*
X12342214Y-16919500D01*
X12370786Y-16905214D01*
X12413643Y-16905214D01*
X12442214Y-16919500D01*
X12456500Y-16948072D01*
X12456500Y-17105214D01*
X12456500Y-16948072D02*
X12470786Y-16919500D01*
X12499357Y-16905214D01*
X12542214Y-16905214D01*
X12570786Y-16919500D01*
X12585071Y-16948072D01*
X12585071Y-17105214D01*
X12727928Y-17105214D02*
X12727928Y-16905214D01*
X12727928Y-16933786D02*
X12742214Y-16919500D01*
X12770786Y-16905214D01*
X12813643Y-16905214D01*
X12842214Y-16919500D01*
X12856500Y-16948072D01*
X12856500Y-17105214D01*
X12856500Y-16948072D02*
X12870786Y-16919500D01*
X12899357Y-16905214D01*
X12942214Y-16905214D01*
X12970786Y-16919500D01*
X12985071Y-16948072D01*
X12985071Y-17105214D01*
X13570786Y-16790929D02*
X13313643Y-17176643D01*
X13956500Y-16805214D02*
X13985071Y-16805214D01*
X14013643Y-16819500D01*
X14027928Y-16833786D01*
X14042214Y-16862357D01*
X14056500Y-16919500D01*
X14056500Y-16990929D01*
X14042214Y-17048072D01*
X14027928Y-17076643D01*
X14013643Y-17090929D01*
X13985071Y-17105214D01*
X13956500Y-17105214D01*
X13927928Y-17090929D01*
X13913643Y-17076643D01*
X13899357Y-17048072D01*
X13885071Y-16990929D01*
X13885071Y-16919500D01*
X13899357Y-16862357D01*
X13913643Y-16833786D01*
X13927928Y-16819500D01*
X13956500Y-16805214D01*
X14185071Y-17076643D02*
X14199357Y-17090929D01*
X14185071Y-17105214D01*
X14170786Y-17090929D01*
X14185071Y-17076643D01*
X14185071Y-17105214D01*
X14385071Y-16805214D02*
X14413643Y-16805214D01*
X14442214Y-16819500D01*
X14456500Y-16833786D01*
X14470786Y-16862357D01*
X14485071Y-16919500D01*
X14485071Y-16990929D01*
X14470786Y-17048072D01*
X14456500Y-17076643D01*
X14442214Y-17090929D01*
X14413643Y-17105214D01*
X14385071Y-17105214D01*
X14356500Y-17090929D01*
X14342214Y-17076643D01*
X14327928Y-17048072D01*
X14313643Y-16990929D01*
X14313643Y-16919500D01*
X14327928Y-16862357D01*
X14342214Y-16833786D01*
X14356500Y-16819500D01*
X14385071Y-16805214D01*
X14585071Y-16805214D02*
X14770786Y-16805214D01*
X14670786Y-16919500D01*
X14713643Y-16919500D01*
X14742214Y-16933786D01*
X14756500Y-16948072D01*
X14770786Y-16976643D01*
X14770786Y-17048072D01*
X14756500Y-17076643D01*
X14742214Y-17090929D01*
X14713643Y-17105214D01*
X14627928Y-17105214D01*
X14599357Y-17090929D01*
X14585071Y-17076643D01*
X15056500Y-17105214D02*
X14885071Y-17105214D01*
X14970786Y-17105214D02*
X14970786Y-16805214D01*
X14942214Y-16848072D01*
X14913643Y-16876643D01*
X14885071Y-16890929D01*
X15170786Y-16805214D02*
X15170786Y-16862357D01*
X15285071Y-16805214D02*
X15285071Y-16862357D01*
X15727928Y-17219500D02*
X15713643Y-17205214D01*
X15685071Y-17162357D01*
X15670786Y-17133786D01*
X15656500Y-17090929D01*
X15642214Y-17019500D01*
X15642214Y-16962357D01*
X15656500Y-16890929D01*
X15670786Y-16848072D01*
X15685071Y-16819500D01*
X15713643Y-16776643D01*
X15727928Y-16762357D01*
X15827928Y-16833786D02*
X15842214Y-16819500D01*
X15870786Y-16805214D01*
X15942214Y-16805214D01*
X15970786Y-16819500D01*
X15985071Y-16833786D01*
X15999357Y-16862357D01*
X15999357Y-16890929D01*
X15985071Y-16933786D01*
X15813643Y-17105214D01*
X15999357Y-17105214D01*
X16285071Y-17105214D02*
X16113643Y-17105214D01*
X16199357Y-17105214D02*
X16199357Y-16805214D01*
X16170786Y-16848072D01*
X16142214Y-16876643D01*
X16113643Y-16890929D01*
X16385071Y-16805214D02*
X16570786Y-16805214D01*
X16470786Y-16919500D01*
X16513643Y-16919500D01*
X16542214Y-16933786D01*
X16556500Y-16948072D01*
X16570786Y-16976643D01*
X16570786Y-17048072D01*
X16556500Y-17076643D01*
X16542214Y-17090929D01*
X16513643Y-17105214D01*
X16427928Y-17105214D01*
X16399357Y-17090929D01*
X16385071Y-17076643D01*
X16927928Y-17105214D02*
X16927928Y-16805214D01*
X17056500Y-17105214D02*
X17056500Y-16948072D01*
X17042214Y-16919500D01*
X17013643Y-16905214D01*
X16970786Y-16905214D01*
X16942214Y-16919500D01*
X16927928Y-16933786D01*
X17242214Y-17105214D02*
X17213643Y-17090929D01*
X17199357Y-17076643D01*
X17185071Y-17048072D01*
X17185071Y-16962357D01*
X17199357Y-16933786D01*
X17213643Y-16919500D01*
X17242214Y-16905214D01*
X17285071Y-16905214D01*
X17313643Y-16919500D01*
X17327928Y-16933786D01*
X17342214Y-16962357D01*
X17342214Y-17048072D01*
X17327928Y-17076643D01*
X17313643Y-17090929D01*
X17285071Y-17105214D01*
X17242214Y-17105214D01*
X17513643Y-17105214D02*
X17485071Y-17090929D01*
X17470786Y-17062357D01*
X17470786Y-16805214D01*
X17742214Y-17090929D02*
X17713643Y-17105214D01*
X17656500Y-17105214D01*
X17627928Y-17090929D01*
X17613643Y-17062357D01*
X17613643Y-16948072D01*
X17627928Y-16919500D01*
X17656500Y-16905214D01*
X17713643Y-16905214D01*
X17742214Y-16919500D01*
X17756500Y-16948072D01*
X17756500Y-16976643D01*
X17613643Y-17005214D01*
X17870786Y-17090929D02*
X17899357Y-17105214D01*
X17956500Y-17105214D01*
X17985071Y-17090929D01*
X17999357Y-17062357D01*
X17999357Y-17048072D01*
X17985071Y-17019500D01*
X17956500Y-17005214D01*
X17913643Y-17005214D01*
X17885071Y-16990929D01*
X17870786Y-16962357D01*
X17870786Y-16948072D01*
X17885071Y-16919500D01*
X17913643Y-16905214D01*
X17956500Y-16905214D01*
X17985071Y-16919500D01*
X18099357Y-17219500D02*
X18113643Y-17205214D01*
X18142214Y-17162357D01*
X18156500Y-17133786D01*
X18170786Y-17090929D01*
X18185071Y-17019500D01*
X18185071Y-16962357D01*
X18170786Y-16890929D01*
X18156500Y-16848072D01*
X18142214Y-16819500D01*
X18113643Y-16776643D01*
X18099357Y-16762357D01*
X11041500Y-17365500D02*
G75*
G03X11041500Y-17365500I-50000J0D01*
G01*
X11485071Y-17501214D02*
X11313643Y-17501214D01*
X11399357Y-17501214D02*
X11399357Y-17201214D01*
X11370786Y-17244072D01*
X11342214Y-17272643D01*
X11313643Y-17286929D01*
X11613643Y-17472643D02*
X11627928Y-17486929D01*
X11613643Y-17501214D01*
X11599357Y-17486929D01*
X11613643Y-17472643D01*
X11613643Y-17501214D01*
X11813643Y-17201214D02*
X11842214Y-17201214D01*
X11870786Y-17215500D01*
X11885071Y-17229786D01*
X11899357Y-17258357D01*
X11913643Y-17315500D01*
X11913643Y-17386929D01*
X11899357Y-17444072D01*
X11885071Y-17472643D01*
X11870786Y-17486929D01*
X11842214Y-17501214D01*
X11813643Y-17501214D01*
X11785071Y-17486929D01*
X11770786Y-17472643D01*
X11756500Y-17444072D01*
X11742214Y-17386929D01*
X11742214Y-17315500D01*
X11756500Y-17258357D01*
X11770786Y-17229786D01*
X11785071Y-17215500D01*
X11813643Y-17201214D01*
X12099357Y-17201214D02*
X12127928Y-17201214D01*
X12156500Y-17215500D01*
X12170786Y-17229786D01*
X12185071Y-17258357D01*
X12199357Y-17315500D01*
X12199357Y-17386929D01*
X12185071Y-17444072D01*
X12170786Y-17472643D01*
X12156500Y-17486929D01*
X12127928Y-17501214D01*
X12099357Y-17501214D01*
X12070786Y-17486929D01*
X12056500Y-17472643D01*
X12042214Y-17444072D01*
X12027928Y-17386929D01*
X12027928Y-17315500D01*
X12042214Y-17258357D01*
X12056500Y-17229786D01*
X12070786Y-17215500D01*
X12099357Y-17201214D01*
X12327928Y-17501214D02*
X12327928Y-17301214D01*
X12327928Y-17329786D02*
X12342214Y-17315500D01*
X12370786Y-17301214D01*
X12413643Y-17301214D01*
X12442214Y-17315500D01*
X12456500Y-17344072D01*
X12456500Y-17501214D01*
X12456500Y-17344072D02*
X12470786Y-17315500D01*
X12499357Y-17301214D01*
X12542214Y-17301214D01*
X12570786Y-17315500D01*
X12585071Y-17344072D01*
X12585071Y-17501214D01*
X12727928Y-17501214D02*
X12727928Y-17301214D01*
X12727928Y-17329786D02*
X12742214Y-17315500D01*
X12770786Y-17301214D01*
X12813643Y-17301214D01*
X12842214Y-17315500D01*
X12856500Y-17344072D01*
X12856500Y-17501214D01*
X12856500Y-17344072D02*
X12870786Y-17315500D01*
X12899357Y-17301214D01*
X12942214Y-17301214D01*
X12970786Y-17315500D01*
X12985071Y-17344072D01*
X12985071Y-17501214D01*
X13570786Y-17186929D02*
X13313643Y-17572643D01*
X13956500Y-17201214D02*
X13985071Y-17201214D01*
X14013643Y-17215500D01*
X14027928Y-17229786D01*
X14042214Y-17258357D01*
X14056500Y-17315500D01*
X14056500Y-17386929D01*
X14042214Y-17444072D01*
X14027928Y-17472643D01*
X14013643Y-17486929D01*
X13985071Y-17501214D01*
X13956500Y-17501214D01*
X13927928Y-17486929D01*
X13913643Y-17472643D01*
X13899357Y-17444072D01*
X13885071Y-17386929D01*
X13885071Y-17315500D01*
X13899357Y-17258357D01*
X13913643Y-17229786D01*
X13927928Y-17215500D01*
X13956500Y-17201214D01*
X14185071Y-17472643D02*
X14199357Y-17486929D01*
X14185071Y-17501214D01*
X14170786Y-17486929D01*
X14185071Y-17472643D01*
X14185071Y-17501214D01*
X14385071Y-17201214D02*
X14413643Y-17201214D01*
X14442214Y-17215500D01*
X14456500Y-17229786D01*
X14470786Y-17258357D01*
X14485071Y-17315500D01*
X14485071Y-17386929D01*
X14470786Y-17444072D01*
X14456500Y-17472643D01*
X14442214Y-17486929D01*
X14413643Y-17501214D01*
X14385071Y-17501214D01*
X14356500Y-17486929D01*
X14342214Y-17472643D01*
X14327928Y-17444072D01*
X14313643Y-17386929D01*
X14313643Y-17315500D01*
X14327928Y-17258357D01*
X14342214Y-17229786D01*
X14356500Y-17215500D01*
X14385071Y-17201214D01*
X14585071Y-17201214D02*
X14770786Y-17201214D01*
X14670786Y-17315500D01*
X14713643Y-17315500D01*
X14742214Y-17329786D01*
X14756500Y-17344072D01*
X14770786Y-17372643D01*
X14770786Y-17444072D01*
X14756500Y-17472643D01*
X14742214Y-17486929D01*
X14713643Y-17501214D01*
X14627928Y-17501214D01*
X14599357Y-17486929D01*
X14585071Y-17472643D01*
X14913643Y-17501214D02*
X14970786Y-17501214D01*
X14999357Y-17486929D01*
X15013643Y-17472643D01*
X15042214Y-17429786D01*
X15056500Y-17372643D01*
X15056500Y-17258357D01*
X15042214Y-17229786D01*
X15027928Y-17215500D01*
X14999357Y-17201214D01*
X14942214Y-17201214D01*
X14913643Y-17215500D01*
X14899357Y-17229786D01*
X14885071Y-17258357D01*
X14885071Y-17329786D01*
X14899357Y-17358357D01*
X14913643Y-17372643D01*
X14942214Y-17386929D01*
X14999357Y-17386929D01*
X15027928Y-17372643D01*
X15042214Y-17358357D01*
X15056500Y-17329786D01*
X15170786Y-17201214D02*
X15170786Y-17258357D01*
X15285071Y-17201214D02*
X15285071Y-17258357D01*
X15727928Y-17615500D02*
X15713643Y-17601214D01*
X15685071Y-17558357D01*
X15670786Y-17529786D01*
X15656500Y-17486929D01*
X15642214Y-17415500D01*
X15642214Y-17358357D01*
X15656500Y-17286929D01*
X15670786Y-17244072D01*
X15685071Y-17215500D01*
X15713643Y-17172643D01*
X15727928Y-17158357D01*
X15813643Y-17201214D02*
X15999357Y-17201214D01*
X15899357Y-17315500D01*
X15942214Y-17315500D01*
X15970786Y-17329786D01*
X15985071Y-17344072D01*
X15999357Y-17372643D01*
X15999357Y-17444072D01*
X15985071Y-17472643D01*
X15970786Y-17486929D01*
X15942214Y-17501214D01*
X15856500Y-17501214D01*
X15827928Y-17486929D01*
X15813643Y-17472643D01*
X16185071Y-17201214D02*
X16213643Y-17201214D01*
X16242214Y-17215500D01*
X16256500Y-17229786D01*
X16270786Y-17258357D01*
X16285071Y-17315500D01*
X16285071Y-17386929D01*
X16270786Y-17444072D01*
X16256500Y-17472643D01*
X16242214Y-17486929D01*
X16213643Y-17501214D01*
X16185071Y-17501214D01*
X16156500Y-17486929D01*
X16142214Y-17472643D01*
X16127928Y-17444072D01*
X16113643Y-17386929D01*
X16113643Y-17315500D01*
X16127928Y-17258357D01*
X16142214Y-17229786D01*
X16156500Y-17215500D01*
X16185071Y-17201214D01*
X16642214Y-17501214D02*
X16642214Y-17201214D01*
X16770786Y-17501214D02*
X16770786Y-17344072D01*
X16756500Y-17315500D01*
X16727928Y-17301214D01*
X16685071Y-17301214D01*
X16656500Y-17315500D01*
X16642214Y-17329786D01*
X16956500Y-17501214D02*
X16927928Y-17486929D01*
X16913643Y-17472643D01*
X16899357Y-17444072D01*
X16899357Y-17358357D01*
X16913643Y-17329786D01*
X16927928Y-17315500D01*
X16956500Y-17301214D01*
X16999357Y-17301214D01*
X17027928Y-17315500D01*
X17042214Y-17329786D01*
X17056500Y-17358357D01*
X17056500Y-17444072D01*
X17042214Y-17472643D01*
X17027928Y-17486929D01*
X16999357Y-17501214D01*
X16956500Y-17501214D01*
X17227928Y-17501214D02*
X17199357Y-17486929D01*
X17185071Y-17458357D01*
X17185071Y-17201214D01*
X17456500Y-17486929D02*
X17427928Y-17501214D01*
X17370786Y-17501214D01*
X17342214Y-17486929D01*
X17327928Y-17458357D01*
X17327928Y-17344072D01*
X17342214Y-17315500D01*
X17370786Y-17301214D01*
X17427928Y-17301214D01*
X17456500Y-17315500D01*
X17470786Y-17344072D01*
X17470786Y-17372643D01*
X17327928Y-17401214D01*
X17585071Y-17486929D02*
X17613643Y-17501214D01*
X17670786Y-17501214D01*
X17699357Y-17486929D01*
X17713643Y-17458357D01*
X17713643Y-17444072D01*
X17699357Y-17415500D01*
X17670786Y-17401214D01*
X17627928Y-17401214D01*
X17599357Y-17386929D01*
X17585071Y-17358357D01*
X17585071Y-17344072D01*
X17599357Y-17315500D01*
X17627928Y-17301214D01*
X17670786Y-17301214D01*
X17699357Y-17315500D01*
X17813643Y-17615500D02*
X17827928Y-17601214D01*
X17856500Y-17558357D01*
X17870786Y-17529786D01*
X17885071Y-17486929D01*
X17899357Y-17415500D01*
X17899357Y-17358357D01*
X17885071Y-17286929D01*
X17870786Y-17244072D01*
X17856500Y-17215500D01*
X17827928Y-17172643D01*
X17813643Y-17158357D01*
X10990700Y-17710700D02*
X10990700Y-17812300D01*
X10939900Y-17761500D02*
X11041500Y-17761500D01*
X11485071Y-17897214D02*
X11313643Y-17897214D01*
X11399357Y-17897214D02*
X11399357Y-17597214D01*
X11370786Y-17640072D01*
X11342214Y-17668643D01*
X11313643Y-17682929D01*
X11613643Y-17868643D02*
X11627928Y-17882929D01*
X11613643Y-17897214D01*
X11599357Y-17882929D01*
X11613643Y-17868643D01*
X11613643Y-17897214D01*
X11813643Y-17597214D02*
X11842214Y-17597214D01*
X11870786Y-17611500D01*
X11885071Y-17625786D01*
X11899357Y-17654357D01*
X11913643Y-17711500D01*
X11913643Y-17782929D01*
X11899357Y-17840072D01*
X11885071Y-17868643D01*
X11870786Y-17882929D01*
X11842214Y-17897214D01*
X11813643Y-17897214D01*
X11785071Y-17882929D01*
X11770786Y-17868643D01*
X11756500Y-17840072D01*
X11742214Y-17782929D01*
X11742214Y-17711500D01*
X11756500Y-17654357D01*
X11770786Y-17625786D01*
X11785071Y-17611500D01*
X11813643Y-17597214D01*
X12027928Y-17625786D02*
X12042214Y-17611500D01*
X12070786Y-17597214D01*
X12142214Y-17597214D01*
X12170786Y-17611500D01*
X12185071Y-17625786D01*
X12199357Y-17654357D01*
X12199357Y-17682929D01*
X12185071Y-17725786D01*
X12013643Y-17897214D01*
X12199357Y-17897214D01*
X12327928Y-17897214D02*
X12327928Y-17697214D01*
X12327928Y-17725786D02*
X12342214Y-17711500D01*
X12370786Y-17697214D01*
X12413643Y-17697214D01*
X12442214Y-17711500D01*
X12456500Y-17740072D01*
X12456500Y-17897214D01*
X12456500Y-17740072D02*
X12470786Y-17711500D01*
X12499357Y-17697214D01*
X12542214Y-17697214D01*
X12570786Y-17711500D01*
X12585071Y-17740072D01*
X12585071Y-17897214D01*
X12727928Y-17897214D02*
X12727928Y-17697214D01*
X12727928Y-17725786D02*
X12742214Y-17711500D01*
X12770786Y-17697214D01*
X12813643Y-17697214D01*
X12842214Y-17711500D01*
X12856500Y-17740072D01*
X12856500Y-17897214D01*
X12856500Y-17740072D02*
X12870786Y-17711500D01*
X12899357Y-17697214D01*
X12942214Y-17697214D01*
X12970786Y-17711500D01*
X12985071Y-17740072D01*
X12985071Y-17897214D01*
X13570786Y-17582929D02*
X13313643Y-17968643D01*
X13956500Y-17597214D02*
X13985071Y-17597214D01*
X14013643Y-17611500D01*
X14027928Y-17625786D01*
X14042214Y-17654357D01*
X14056500Y-17711500D01*
X14056500Y-17782929D01*
X14042214Y-17840072D01*
X14027928Y-17868643D01*
X14013643Y-17882929D01*
X13985071Y-17897214D01*
X13956500Y-17897214D01*
X13927928Y-17882929D01*
X13913643Y-17868643D01*
X13899357Y-17840072D01*
X13885071Y-17782929D01*
X13885071Y-17711500D01*
X13899357Y-17654357D01*
X13913643Y-17625786D01*
X13927928Y-17611500D01*
X13956500Y-17597214D01*
X14185071Y-17868643D02*
X14199357Y-17882929D01*
X14185071Y-17897214D01*
X14170786Y-17882929D01*
X14185071Y-17868643D01*
X14185071Y-17897214D01*
X14385071Y-17597214D02*
X14413643Y-17597214D01*
X14442214Y-17611500D01*
X14456500Y-17625786D01*
X14470786Y-17654357D01*
X14485071Y-17711500D01*
X14485071Y-17782929D01*
X14470786Y-17840072D01*
X14456500Y-17868643D01*
X14442214Y-17882929D01*
X14413643Y-17897214D01*
X14385071Y-17897214D01*
X14356500Y-17882929D01*
X14342214Y-17868643D01*
X14327928Y-17840072D01*
X14313643Y-17782929D01*
X14313643Y-17711500D01*
X14327928Y-17654357D01*
X14342214Y-17625786D01*
X14356500Y-17611500D01*
X14385071Y-17597214D01*
X14742214Y-17697214D02*
X14742214Y-17897214D01*
X14670786Y-17582929D02*
X14599357Y-17797214D01*
X14785071Y-17797214D01*
X14956500Y-17597214D02*
X14985071Y-17597214D01*
X15013643Y-17611500D01*
X15027928Y-17625786D01*
X15042214Y-17654357D01*
X15056500Y-17711500D01*
X15056500Y-17782929D01*
X15042214Y-17840072D01*
X15027928Y-17868643D01*
X15013643Y-17882929D01*
X14985071Y-17897214D01*
X14956500Y-17897214D01*
X14927928Y-17882929D01*
X14913643Y-17868643D01*
X14899357Y-17840072D01*
X14885071Y-17782929D01*
X14885071Y-17711500D01*
X14899357Y-17654357D01*
X14913643Y-17625786D01*
X14927928Y-17611500D01*
X14956500Y-17597214D01*
X15170786Y-17597214D02*
X15170786Y-17654357D01*
X15285071Y-17597214D02*
X15285071Y-17654357D01*
X15727928Y-18011500D02*
X15713643Y-17997214D01*
X15685071Y-17954357D01*
X15670786Y-17925786D01*
X15656500Y-17882929D01*
X15642214Y-17811500D01*
X15642214Y-17754357D01*
X15656500Y-17682929D01*
X15670786Y-17640072D01*
X15685071Y-17611500D01*
X15713643Y-17568643D01*
X15727928Y-17554357D01*
X15999357Y-17897214D02*
X15827928Y-17897214D01*
X15913643Y-17897214D02*
X15913643Y-17597214D01*
X15885071Y-17640072D01*
X15856500Y-17668643D01*
X15827928Y-17682929D01*
X16113643Y-17625786D02*
X16127928Y-17611500D01*
X16156500Y-17597214D01*
X16227928Y-17597214D01*
X16256500Y-17611500D01*
X16270786Y-17625786D01*
X16285071Y-17654357D01*
X16285071Y-17682929D01*
X16270786Y-17725786D01*
X16099357Y-17897214D01*
X16285071Y-17897214D01*
X16470786Y-17597214D02*
X16499357Y-17597214D01*
X16527928Y-17611500D01*
X16542214Y-17625786D01*
X16556500Y-17654357D01*
X16570786Y-17711500D01*
X16570786Y-17782929D01*
X16556500Y-17840072D01*
X16542214Y-17868643D01*
X16527928Y-17882929D01*
X16499357Y-17897214D01*
X16470786Y-17897214D01*
X16442214Y-17882929D01*
X16427928Y-17868643D01*
X16413643Y-17840072D01*
X16399357Y-17782929D01*
X16399357Y-17711500D01*
X16413643Y-17654357D01*
X16427928Y-17625786D01*
X16442214Y-17611500D01*
X16470786Y-17597214D01*
X16927928Y-17897214D02*
X16927928Y-17597214D01*
X17056500Y-17897214D02*
X17056500Y-17740072D01*
X17042214Y-17711500D01*
X17013643Y-17697214D01*
X16970786Y-17697214D01*
X16942214Y-17711500D01*
X16927928Y-17725786D01*
X17242214Y-17897214D02*
X17213643Y-17882929D01*
X17199357Y-17868643D01*
X17185071Y-17840072D01*
X17185071Y-17754357D01*
X17199357Y-17725786D01*
X17213643Y-17711500D01*
X17242214Y-17697214D01*
X17285071Y-17697214D01*
X17313643Y-17711500D01*
X17327928Y-17725786D01*
X17342214Y-17754357D01*
X17342214Y-17840072D01*
X17327928Y-17868643D01*
X17313643Y-17882929D01*
X17285071Y-17897214D01*
X17242214Y-17897214D01*
X17513643Y-17897214D02*
X17485071Y-17882929D01*
X17470786Y-17854357D01*
X17470786Y-17597214D01*
X17742214Y-17882929D02*
X17713643Y-17897214D01*
X17656500Y-17897214D01*
X17627928Y-17882929D01*
X17613643Y-17854357D01*
X17613643Y-17740072D01*
X17627928Y-17711500D01*
X17656500Y-17697214D01*
X17713643Y-17697214D01*
X17742214Y-17711500D01*
X17756500Y-17740072D01*
X17756500Y-17768643D01*
X17613643Y-17797214D01*
X17870786Y-17882929D02*
X17899357Y-17897214D01*
X17956500Y-17897214D01*
X17985071Y-17882929D01*
X17999357Y-17854357D01*
X17999357Y-17840072D01*
X17985071Y-17811500D01*
X17956500Y-17797214D01*
X17913643Y-17797214D01*
X17885071Y-17782929D01*
X17870786Y-17754357D01*
X17870786Y-17740072D01*
X17885071Y-17711500D01*
X17913643Y-17697214D01*
X17956500Y-17697214D01*
X17985071Y-17711500D01*
X18099357Y-18011500D02*
X18113643Y-17997214D01*
X18142214Y-17954357D01*
X18156500Y-17925786D01*
X18170786Y-17882929D01*
X18185071Y-17811500D01*
X18185071Y-17754357D01*
X18170786Y-17682929D01*
X18156500Y-17640072D01*
X18142214Y-17611500D01*
X18113643Y-17568643D01*
X18099357Y-17554357D01*
X11025391Y-18196391D02*
X11025391Y-18118609D01*
X10947609Y-18118609D01*
X10947609Y-18196391D01*
X11025391Y-18196391D01*
X11485071Y-18293214D02*
X11313643Y-18293214D01*
X11399357Y-18293214D02*
X11399357Y-17993214D01*
X11370786Y-18036072D01*
X11342214Y-18064643D01*
X11313643Y-18078929D01*
X11613643Y-18264643D02*
X11627928Y-18278929D01*
X11613643Y-18293214D01*
X11599357Y-18278929D01*
X11613643Y-18264643D01*
X11613643Y-18293214D01*
X11913643Y-18293214D02*
X11742214Y-18293214D01*
X11827928Y-18293214D02*
X11827928Y-17993214D01*
X11799357Y-18036072D01*
X11770786Y-18064643D01*
X11742214Y-18078929D01*
X12099357Y-17993214D02*
X12127928Y-17993214D01*
X12156500Y-18007500D01*
X12170786Y-18021786D01*
X12185071Y-18050357D01*
X12199357Y-18107500D01*
X12199357Y-18178929D01*
X12185071Y-18236072D01*
X12170786Y-18264643D01*
X12156500Y-18278929D01*
X12127928Y-18293214D01*
X12099357Y-18293214D01*
X12070786Y-18278929D01*
X12056500Y-18264643D01*
X12042214Y-18236072D01*
X12027928Y-18178929D01*
X12027928Y-18107500D01*
X12042214Y-18050357D01*
X12056500Y-18021786D01*
X12070786Y-18007500D01*
X12099357Y-17993214D01*
X12327928Y-18293214D02*
X12327928Y-18093214D01*
X12327928Y-18121786D02*
X12342214Y-18107500D01*
X12370786Y-18093214D01*
X12413643Y-18093214D01*
X12442214Y-18107500D01*
X12456500Y-18136072D01*
X12456500Y-18293214D01*
X12456500Y-18136072D02*
X12470786Y-18107500D01*
X12499357Y-18093214D01*
X12542214Y-18093214D01*
X12570786Y-18107500D01*
X12585071Y-18136072D01*
X12585071Y-18293214D01*
X12727928Y-18293214D02*
X12727928Y-18093214D01*
X12727928Y-18121786D02*
X12742214Y-18107500D01*
X12770786Y-18093214D01*
X12813643Y-18093214D01*
X12842214Y-18107500D01*
X12856500Y-18136072D01*
X12856500Y-18293214D01*
X12856500Y-18136072D02*
X12870786Y-18107500D01*
X12899357Y-18093214D01*
X12942214Y-18093214D01*
X12970786Y-18107500D01*
X12985071Y-18136072D01*
X12985071Y-18293214D01*
X13570786Y-17978929D02*
X13313643Y-18364643D01*
X13956500Y-17993214D02*
X13985071Y-17993214D01*
X14013643Y-18007500D01*
X14027928Y-18021786D01*
X14042214Y-18050357D01*
X14056500Y-18107500D01*
X14056500Y-18178929D01*
X14042214Y-18236072D01*
X14027928Y-18264643D01*
X14013643Y-18278929D01*
X13985071Y-18293214D01*
X13956500Y-18293214D01*
X13927928Y-18278929D01*
X13913643Y-18264643D01*
X13899357Y-18236072D01*
X13885071Y-18178929D01*
X13885071Y-18107500D01*
X13899357Y-18050357D01*
X13913643Y-18021786D01*
X13927928Y-18007500D01*
X13956500Y-17993214D01*
X14185071Y-18264643D02*
X14199357Y-18278929D01*
X14185071Y-18293214D01*
X14170786Y-18278929D01*
X14185071Y-18264643D01*
X14185071Y-18293214D01*
X14385071Y-17993214D02*
X14413643Y-17993214D01*
X14442214Y-18007500D01*
X14456500Y-18021786D01*
X14470786Y-18050357D01*
X14485071Y-18107500D01*
X14485071Y-18178929D01*
X14470786Y-18236072D01*
X14456500Y-18264643D01*
X14442214Y-18278929D01*
X14413643Y-18293214D01*
X14385071Y-18293214D01*
X14356500Y-18278929D01*
X14342214Y-18264643D01*
X14327928Y-18236072D01*
X14313643Y-18178929D01*
X14313643Y-18107500D01*
X14327928Y-18050357D01*
X14342214Y-18021786D01*
X14356500Y-18007500D01*
X14385071Y-17993214D01*
X14742214Y-18093214D02*
X14742214Y-18293214D01*
X14670786Y-17978929D02*
X14599357Y-18193214D01*
X14785071Y-18193214D01*
X14870786Y-17993214D02*
X15056500Y-17993214D01*
X14956500Y-18107500D01*
X14999357Y-18107500D01*
X15027928Y-18121786D01*
X15042214Y-18136072D01*
X15056500Y-18164643D01*
X15056500Y-18236072D01*
X15042214Y-18264643D01*
X15027928Y-18278929D01*
X14999357Y-18293214D01*
X14913643Y-18293214D01*
X14885071Y-18278929D01*
X14870786Y-18264643D01*
X15170786Y-17993214D02*
X15170786Y-18050357D01*
X15285071Y-17993214D02*
X15285071Y-18050357D01*
X15727928Y-18407500D02*
X15713643Y-18393214D01*
X15685071Y-18350357D01*
X15670786Y-18321786D01*
X15656500Y-18278929D01*
X15642214Y-18207500D01*
X15642214Y-18150357D01*
X15656500Y-18078929D01*
X15670786Y-18036072D01*
X15685071Y-18007500D01*
X15713643Y-17964643D01*
X15727928Y-17950357D01*
X15970786Y-17993214D02*
X15913643Y-17993214D01*
X15885071Y-18007500D01*
X15870786Y-18021786D01*
X15842214Y-18064643D01*
X15827928Y-18121786D01*
X15827928Y-18236072D01*
X15842214Y-18264643D01*
X15856500Y-18278929D01*
X15885071Y-18293214D01*
X15942214Y-18293214D01*
X15970786Y-18278929D01*
X15985071Y-18264643D01*
X15999357Y-18236072D01*
X15999357Y-18164643D01*
X15985071Y-18136072D01*
X15970786Y-18121786D01*
X15942214Y-18107500D01*
X15885071Y-18107500D01*
X15856500Y-18121786D01*
X15842214Y-18136072D01*
X15827928Y-18164643D01*
X16356500Y-18293214D02*
X16356500Y-17993214D01*
X16485071Y-18293214D02*
X16485071Y-18136072D01*
X16470786Y-18107500D01*
X16442214Y-18093214D01*
X16399357Y-18093214D01*
X16370786Y-18107500D01*
X16356500Y-18121786D01*
X16670786Y-18293214D02*
X16642214Y-18278929D01*
X16627928Y-18264643D01*
X16613643Y-18236072D01*
X16613643Y-18150357D01*
X16627928Y-18121786D01*
X16642214Y-18107500D01*
X16670786Y-18093214D01*
X16713643Y-18093214D01*
X16742214Y-18107500D01*
X16756500Y-18121786D01*
X16770786Y-18150357D01*
X16770786Y-18236072D01*
X16756500Y-18264643D01*
X16742214Y-18278929D01*
X16713643Y-18293214D01*
X16670786Y-18293214D01*
X16942214Y-18293214D02*
X16913643Y-18278929D01*
X16899357Y-18250357D01*
X16899357Y-17993214D01*
X17170786Y-18278929D02*
X17142214Y-18293214D01*
X17085071Y-18293214D01*
X17056500Y-18278929D01*
X17042214Y-18250357D01*
X17042214Y-18136072D01*
X17056500Y-18107500D01*
X17085071Y-18093214D01*
X17142214Y-18093214D01*
X17170786Y-18107500D01*
X17185071Y-18136072D01*
X17185071Y-18164643D01*
X17042214Y-18193214D01*
X17299357Y-18278929D02*
X17327928Y-18293214D01*
X17385071Y-18293214D01*
X17413643Y-18278929D01*
X17427928Y-18250357D01*
X17427928Y-18236072D01*
X17413643Y-18207500D01*
X17385071Y-18193214D01*
X17342214Y-18193214D01*
X17313643Y-18178929D01*
X17299357Y-18150357D01*
X17299357Y-18136072D01*
X17313643Y-18107500D01*
X17342214Y-18093214D01*
X17385071Y-18093214D01*
X17413643Y-18107500D01*
X17527928Y-18407500D02*
X17542214Y-18393214D01*
X17570786Y-18350357D01*
X17585071Y-18321786D01*
X17599357Y-18278929D01*
X17613643Y-18207500D01*
X17613643Y-18150357D01*
X17599357Y-18078929D01*
X17585071Y-18036072D01*
X17570786Y-18007500D01*
X17542214Y-17964643D01*
X17527928Y-17950357D01*
X10981500Y-18613500D02*
X11041500Y-18553500D01*
X10981500Y-18493500D01*
X10921500Y-18553500D01*
X10981500Y-18613500D01*
X11485071Y-18689214D02*
X11313643Y-18689214D01*
X11399357Y-18689214D02*
X11399357Y-18389214D01*
X11370786Y-18432072D01*
X11342214Y-18460643D01*
X11313643Y-18474929D01*
X11613643Y-18660643D02*
X11627928Y-18674929D01*
X11613643Y-18689214D01*
X11599357Y-18674929D01*
X11613643Y-18660643D01*
X11613643Y-18689214D01*
X11742214Y-18417786D02*
X11756500Y-18403500D01*
X11785071Y-18389214D01*
X11856500Y-18389214D01*
X11885071Y-18403500D01*
X11899357Y-18417786D01*
X11913643Y-18446357D01*
X11913643Y-18474929D01*
X11899357Y-18517786D01*
X11727928Y-18689214D01*
X11913643Y-18689214D01*
X12099357Y-18389214D02*
X12127928Y-18389214D01*
X12156500Y-18403500D01*
X12170786Y-18417786D01*
X12185071Y-18446357D01*
X12199357Y-18503500D01*
X12199357Y-18574929D01*
X12185071Y-18632072D01*
X12170786Y-18660643D01*
X12156500Y-18674929D01*
X12127928Y-18689214D01*
X12099357Y-18689214D01*
X12070786Y-18674929D01*
X12056500Y-18660643D01*
X12042214Y-18632072D01*
X12027928Y-18574929D01*
X12027928Y-18503500D01*
X12042214Y-18446357D01*
X12056500Y-18417786D01*
X12070786Y-18403500D01*
X12099357Y-18389214D01*
X12327928Y-18689214D02*
X12327928Y-18489214D01*
X12327928Y-18517786D02*
X12342214Y-18503500D01*
X12370786Y-18489214D01*
X12413643Y-18489214D01*
X12442214Y-18503500D01*
X12456500Y-18532072D01*
X12456500Y-18689214D01*
X12456500Y-18532072D02*
X12470786Y-18503500D01*
X12499357Y-18489214D01*
X12542214Y-18489214D01*
X12570786Y-18503500D01*
X12585071Y-18532072D01*
X12585071Y-18689214D01*
X12727928Y-18689214D02*
X12727928Y-18489214D01*
X12727928Y-18517786D02*
X12742214Y-18503500D01*
X12770786Y-18489214D01*
X12813643Y-18489214D01*
X12842214Y-18503500D01*
X12856500Y-18532072D01*
X12856500Y-18689214D01*
X12856500Y-18532072D02*
X12870786Y-18503500D01*
X12899357Y-18489214D01*
X12942214Y-18489214D01*
X12970786Y-18503500D01*
X12985071Y-18532072D01*
X12985071Y-18689214D01*
X13570786Y-18374929D02*
X13313643Y-18760643D01*
X13956500Y-18389214D02*
X13985071Y-18389214D01*
X14013643Y-18403500D01*
X14027928Y-18417786D01*
X14042214Y-18446357D01*
X14056500Y-18503500D01*
X14056500Y-18574929D01*
X14042214Y-18632072D01*
X14027928Y-18660643D01*
X14013643Y-18674929D01*
X13985071Y-18689214D01*
X13956500Y-18689214D01*
X13927928Y-18674929D01*
X13913643Y-18660643D01*
X13899357Y-18632072D01*
X13885071Y-18574929D01*
X13885071Y-18503500D01*
X13899357Y-18446357D01*
X13913643Y-18417786D01*
X13927928Y-18403500D01*
X13956500Y-18389214D01*
X14185071Y-18660643D02*
X14199357Y-18674929D01*
X14185071Y-18689214D01*
X14170786Y-18674929D01*
X14185071Y-18660643D01*
X14185071Y-18689214D01*
X14385071Y-18389214D02*
X14413643Y-18389214D01*
X14442214Y-18403500D01*
X14456500Y-18417786D01*
X14470786Y-18446357D01*
X14485071Y-18503500D01*
X14485071Y-18574929D01*
X14470786Y-18632072D01*
X14456500Y-18660643D01*
X14442214Y-18674929D01*
X14413643Y-18689214D01*
X14385071Y-18689214D01*
X14356500Y-18674929D01*
X14342214Y-18660643D01*
X14327928Y-18632072D01*
X14313643Y-18574929D01*
X14313643Y-18503500D01*
X14327928Y-18446357D01*
X14342214Y-18417786D01*
X14356500Y-18403500D01*
X14385071Y-18389214D01*
X14742214Y-18489214D02*
X14742214Y-18689214D01*
X14670786Y-18374929D02*
X14599357Y-18589214D01*
X14785071Y-18589214D01*
X14870786Y-18389214D02*
X15070786Y-18389214D01*
X14942214Y-18689214D01*
X15170786Y-18389214D02*
X15170786Y-18446357D01*
X15285071Y-18389214D02*
X15285071Y-18446357D01*
X15727928Y-18803500D02*
X15713643Y-18789214D01*
X15685071Y-18746357D01*
X15670786Y-18717786D01*
X15656500Y-18674929D01*
X15642214Y-18603500D01*
X15642214Y-18546357D01*
X15656500Y-18474929D01*
X15670786Y-18432072D01*
X15685071Y-18403500D01*
X15713643Y-18360643D01*
X15727928Y-18346357D01*
X15999357Y-18689214D02*
X15827928Y-18689214D01*
X15913643Y-18689214D02*
X15913643Y-18389214D01*
X15885071Y-18432072D01*
X15856500Y-18460643D01*
X15827928Y-18474929D01*
X16256500Y-18389214D02*
X16199357Y-18389214D01*
X16170786Y-18403500D01*
X16156500Y-18417786D01*
X16127928Y-18460643D01*
X16113643Y-18517786D01*
X16113643Y-18632072D01*
X16127928Y-18660643D01*
X16142214Y-18674929D01*
X16170786Y-18689214D01*
X16227928Y-18689214D01*
X16256500Y-18674929D01*
X16270786Y-18660643D01*
X16285071Y-18632072D01*
X16285071Y-18560643D01*
X16270786Y-18532072D01*
X16256500Y-18517786D01*
X16227928Y-18503500D01*
X16170786Y-18503500D01*
X16142214Y-18517786D01*
X16127928Y-18532072D01*
X16113643Y-18560643D01*
X16642214Y-18689214D02*
X16642214Y-18389214D01*
X16770786Y-18689214D02*
X16770786Y-18532072D01*
X16756500Y-18503500D01*
X16727928Y-18489214D01*
X16685071Y-18489214D01*
X16656500Y-18503500D01*
X16642214Y-18517786D01*
X16956500Y-18689214D02*
X16927928Y-18674929D01*
X16913643Y-18660643D01*
X16899357Y-18632072D01*
X16899357Y-18546357D01*
X16913643Y-18517786D01*
X16927928Y-18503500D01*
X16956500Y-18489214D01*
X16999357Y-18489214D01*
X17027928Y-18503500D01*
X17042214Y-18517786D01*
X17056500Y-18546357D01*
X17056500Y-18632072D01*
X17042214Y-18660643D01*
X17027928Y-18674929D01*
X16999357Y-18689214D01*
X16956500Y-18689214D01*
X17227928Y-18689214D02*
X17199357Y-18674929D01*
X17185071Y-18646357D01*
X17185071Y-18389214D01*
X17456500Y-18674929D02*
X17427928Y-18689214D01*
X17370786Y-18689214D01*
X17342214Y-18674929D01*
X17327928Y-18646357D01*
X17327928Y-18532072D01*
X17342214Y-18503500D01*
X17370786Y-18489214D01*
X17427928Y-18489214D01*
X17456500Y-18503500D01*
X17470786Y-18532072D01*
X17470786Y-18560643D01*
X17327928Y-18589214D01*
X17585071Y-18674929D02*
X17613643Y-18689214D01*
X17670786Y-18689214D01*
X17699357Y-18674929D01*
X17713643Y-18646357D01*
X17713643Y-18632072D01*
X17699357Y-18603500D01*
X17670786Y-18589214D01*
X17627928Y-18589214D01*
X17599357Y-18574929D01*
X17585071Y-18546357D01*
X17585071Y-18532072D01*
X17599357Y-18503500D01*
X17627928Y-18489214D01*
X17670786Y-18489214D01*
X17699357Y-18503500D01*
X17813643Y-18803500D02*
X17827928Y-18789214D01*
X17856500Y-18746357D01*
X17870786Y-18717786D01*
X17885071Y-18674929D01*
X17899357Y-18603500D01*
X17899357Y-18546357D01*
X17885071Y-18474929D01*
X17870786Y-18432072D01*
X17856500Y-18403500D01*
X17827928Y-18360643D01*
X17813643Y-18346357D01*
X10889500Y-18873500D02*
X11041500Y-19025500D01*
X11041500Y-18873500D02*
X10889500Y-19025500D01*
X11041500Y-18949500D02*
G75*
G03X11041500Y-18949500I-76000J0D01*
G01*
X11485071Y-19085214D02*
X11313643Y-19085214D01*
X11399357Y-19085214D02*
X11399357Y-18785214D01*
X11370786Y-18828072D01*
X11342214Y-18856643D01*
X11313643Y-18870929D01*
X11613643Y-19056643D02*
X11627928Y-19070929D01*
X11613643Y-19085214D01*
X11599357Y-19070929D01*
X11613643Y-19056643D01*
X11613643Y-19085214D01*
X11899357Y-18785214D02*
X11756500Y-18785214D01*
X11742214Y-18928072D01*
X11756500Y-18913786D01*
X11785071Y-18899500D01*
X11856500Y-18899500D01*
X11885071Y-18913786D01*
X11899357Y-18928072D01*
X11913643Y-18956643D01*
X11913643Y-19028072D01*
X11899357Y-19056643D01*
X11885071Y-19070929D01*
X11856500Y-19085214D01*
X11785071Y-19085214D01*
X11756500Y-19070929D01*
X11742214Y-19056643D01*
X12027928Y-18813786D02*
X12042214Y-18799500D01*
X12070786Y-18785214D01*
X12142214Y-18785214D01*
X12170786Y-18799500D01*
X12185071Y-18813786D01*
X12199357Y-18842357D01*
X12199357Y-18870929D01*
X12185071Y-18913786D01*
X12013643Y-19085214D01*
X12199357Y-19085214D01*
X12327928Y-19085214D02*
X12327928Y-18885214D01*
X12327928Y-18913786D02*
X12342214Y-18899500D01*
X12370786Y-18885214D01*
X12413643Y-18885214D01*
X12442214Y-18899500D01*
X12456500Y-18928072D01*
X12456500Y-19085214D01*
X12456500Y-18928072D02*
X12470786Y-18899500D01*
X12499357Y-18885214D01*
X12542214Y-18885214D01*
X12570786Y-18899500D01*
X12585071Y-18928072D01*
X12585071Y-19085214D01*
X12727928Y-19085214D02*
X12727928Y-18885214D01*
X12727928Y-18913786D02*
X12742214Y-18899500D01*
X12770786Y-18885214D01*
X12813643Y-18885214D01*
X12842214Y-18899500D01*
X12856500Y-18928072D01*
X12856500Y-19085214D01*
X12856500Y-18928072D02*
X12870786Y-18899500D01*
X12899357Y-18885214D01*
X12942214Y-18885214D01*
X12970786Y-18899500D01*
X12985071Y-18928072D01*
X12985071Y-19085214D01*
X13570786Y-18770929D02*
X13313643Y-19156643D01*
X13956500Y-18785214D02*
X13985071Y-18785214D01*
X14013643Y-18799500D01*
X14027928Y-18813786D01*
X14042214Y-18842357D01*
X14056500Y-18899500D01*
X14056500Y-18970929D01*
X14042214Y-19028072D01*
X14027928Y-19056643D01*
X14013643Y-19070929D01*
X13985071Y-19085214D01*
X13956500Y-19085214D01*
X13927928Y-19070929D01*
X13913643Y-19056643D01*
X13899357Y-19028072D01*
X13885071Y-18970929D01*
X13885071Y-18899500D01*
X13899357Y-18842357D01*
X13913643Y-18813786D01*
X13927928Y-18799500D01*
X13956500Y-18785214D01*
X14185071Y-19056643D02*
X14199357Y-19070929D01*
X14185071Y-19085214D01*
X14170786Y-19070929D01*
X14185071Y-19056643D01*
X14185071Y-19085214D01*
X14385071Y-18785214D02*
X14413643Y-18785214D01*
X14442214Y-18799500D01*
X14456500Y-18813786D01*
X14470786Y-18842357D01*
X14485071Y-18899500D01*
X14485071Y-18970929D01*
X14470786Y-19028072D01*
X14456500Y-19056643D01*
X14442214Y-19070929D01*
X14413643Y-19085214D01*
X14385071Y-19085214D01*
X14356500Y-19070929D01*
X14342214Y-19056643D01*
X14327928Y-19028072D01*
X14313643Y-18970929D01*
X14313643Y-18899500D01*
X14327928Y-18842357D01*
X14342214Y-18813786D01*
X14356500Y-18799500D01*
X14385071Y-18785214D01*
X14742214Y-18785214D02*
X14685071Y-18785214D01*
X14656500Y-18799500D01*
X14642214Y-18813786D01*
X14613643Y-18856643D01*
X14599357Y-18913786D01*
X14599357Y-19028072D01*
X14613643Y-19056643D01*
X14627928Y-19070929D01*
X14656500Y-19085214D01*
X14713643Y-19085214D01*
X14742214Y-19070929D01*
X14756500Y-19056643D01*
X14770786Y-19028072D01*
X14770786Y-18956643D01*
X14756500Y-18928072D01*
X14742214Y-18913786D01*
X14713643Y-18899500D01*
X14656500Y-18899500D01*
X14627928Y-18913786D01*
X14613643Y-18928072D01*
X14599357Y-18956643D01*
X14956500Y-18785214D02*
X14985071Y-18785214D01*
X15013643Y-18799500D01*
X15027928Y-18813786D01*
X15042214Y-18842357D01*
X15056500Y-18899500D01*
X15056500Y-18970929D01*
X15042214Y-19028072D01*
X15027928Y-19056643D01*
X15013643Y-19070929D01*
X14985071Y-19085214D01*
X14956500Y-19085214D01*
X14927928Y-19070929D01*
X14913643Y-19056643D01*
X14899357Y-19028072D01*
X14885071Y-18970929D01*
X14885071Y-18899500D01*
X14899357Y-18842357D01*
X14913643Y-18813786D01*
X14927928Y-18799500D01*
X14956500Y-18785214D01*
X15170786Y-18785214D02*
X15170786Y-18842357D01*
X15285071Y-18785214D02*
X15285071Y-18842357D01*
X15727928Y-19199500D02*
X15713643Y-19185214D01*
X15685071Y-19142357D01*
X15670786Y-19113786D01*
X15656500Y-19070929D01*
X15642214Y-18999500D01*
X15642214Y-18942357D01*
X15656500Y-18870929D01*
X15670786Y-18828072D01*
X15685071Y-18799500D01*
X15713643Y-18756643D01*
X15727928Y-18742357D01*
X15813643Y-18785214D02*
X15999357Y-18785214D01*
X15899357Y-18899500D01*
X15942214Y-18899500D01*
X15970786Y-18913786D01*
X15985071Y-18928072D01*
X15999357Y-18956643D01*
X15999357Y-19028072D01*
X15985071Y-19056643D01*
X15970786Y-19070929D01*
X15942214Y-19085214D01*
X15856500Y-19085214D01*
X15827928Y-19070929D01*
X15813643Y-19056643D01*
X16356500Y-19085214D02*
X16356500Y-18785214D01*
X16485071Y-19085214D02*
X16485071Y-18928072D01*
X16470786Y-18899500D01*
X16442214Y-18885214D01*
X16399357Y-18885214D01*
X16370786Y-18899500D01*
X16356500Y-18913786D01*
X16670786Y-19085214D02*
X16642214Y-19070929D01*
X16627928Y-19056643D01*
X16613643Y-19028072D01*
X16613643Y-18942357D01*
X16627928Y-18913786D01*
X16642214Y-18899500D01*
X16670786Y-18885214D01*
X16713643Y-18885214D01*
X16742214Y-18899500D01*
X16756500Y-18913786D01*
X16770786Y-18942357D01*
X16770786Y-19028072D01*
X16756500Y-19056643D01*
X16742214Y-19070929D01*
X16713643Y-19085214D01*
X16670786Y-19085214D01*
X16942214Y-19085214D02*
X16913643Y-19070929D01*
X16899357Y-19042357D01*
X16899357Y-18785214D01*
X17170786Y-19070929D02*
X17142214Y-19085214D01*
X17085071Y-19085214D01*
X17056500Y-19070929D01*
X17042214Y-19042357D01*
X17042214Y-18928072D01*
X17056500Y-18899500D01*
X17085071Y-18885214D01*
X17142214Y-18885214D01*
X17170786Y-18899500D01*
X17185071Y-18928072D01*
X17185071Y-18956643D01*
X17042214Y-18985214D01*
X17299357Y-19070929D02*
X17327928Y-19085214D01*
X17385071Y-19085214D01*
X17413643Y-19070929D01*
X17427928Y-19042357D01*
X17427928Y-19028072D01*
X17413643Y-18999500D01*
X17385071Y-18985214D01*
X17342214Y-18985214D01*
X17313643Y-18970929D01*
X17299357Y-18942357D01*
X17299357Y-18928072D01*
X17313643Y-18899500D01*
X17342214Y-18885214D01*
X17385071Y-18885214D01*
X17413643Y-18899500D01*
X17527928Y-19199500D02*
X17542214Y-19185214D01*
X17570786Y-19142357D01*
X17585071Y-19113786D01*
X17599357Y-19070929D01*
X17613643Y-18999500D01*
X17613643Y-18942357D01*
X17599357Y-18870929D01*
X17585071Y-18828072D01*
X17570786Y-18799500D01*
X17542214Y-18756643D01*
X17527928Y-18742357D01*
X10841500Y-19245500D02*
X11041500Y-19445500D01*
X11041500Y-19245500D02*
X10841500Y-19445500D01*
X10941500Y-19245500D02*
X10941500Y-19445500D01*
X10841500Y-19345500D02*
X11041500Y-19345500D01*
X11313643Y-19209786D02*
X11327928Y-19195500D01*
X11356500Y-19181214D01*
X11427928Y-19181214D01*
X11456500Y-19195500D01*
X11470786Y-19209786D01*
X11485071Y-19238357D01*
X11485071Y-19266929D01*
X11470786Y-19309786D01*
X11299357Y-19481214D01*
X11485071Y-19481214D01*
X11613643Y-19452643D02*
X11627928Y-19466929D01*
X11613643Y-19481214D01*
X11599357Y-19466929D01*
X11613643Y-19452643D01*
X11613643Y-19481214D01*
X11813643Y-19181214D02*
X11842214Y-19181214D01*
X11870786Y-19195500D01*
X11885071Y-19209786D01*
X11899357Y-19238357D01*
X11913643Y-19295500D01*
X11913643Y-19366929D01*
X11899357Y-19424072D01*
X11885071Y-19452643D01*
X11870786Y-19466929D01*
X11842214Y-19481214D01*
X11813643Y-19481214D01*
X11785071Y-19466929D01*
X11770786Y-19452643D01*
X11756500Y-19424072D01*
X11742214Y-19366929D01*
X11742214Y-19295500D01*
X11756500Y-19238357D01*
X11770786Y-19209786D01*
X11785071Y-19195500D01*
X11813643Y-19181214D01*
X12099357Y-19181214D02*
X12127928Y-19181214D01*
X12156500Y-19195500D01*
X12170786Y-19209786D01*
X12185071Y-19238357D01*
X12199357Y-19295500D01*
X12199357Y-19366929D01*
X12185071Y-19424072D01*
X12170786Y-19452643D01*
X12156500Y-19466929D01*
X12127928Y-19481214D01*
X12099357Y-19481214D01*
X12070786Y-19466929D01*
X12056500Y-19452643D01*
X12042214Y-19424072D01*
X12027928Y-19366929D01*
X12027928Y-19295500D01*
X12042214Y-19238357D01*
X12056500Y-19209786D01*
X12070786Y-19195500D01*
X12099357Y-19181214D01*
X12327928Y-19481214D02*
X12327928Y-19281214D01*
X12327928Y-19309786D02*
X12342214Y-19295500D01*
X12370786Y-19281214D01*
X12413643Y-19281214D01*
X12442214Y-19295500D01*
X12456500Y-19324072D01*
X12456500Y-19481214D01*
X12456500Y-19324072D02*
X12470786Y-19295500D01*
X12499357Y-19281214D01*
X12542214Y-19281214D01*
X12570786Y-19295500D01*
X12585071Y-19324072D01*
X12585071Y-19481214D01*
X12727928Y-19481214D02*
X12727928Y-19281214D01*
X12727928Y-19309786D02*
X12742214Y-19295500D01*
X12770786Y-19281214D01*
X12813643Y-19281214D01*
X12842214Y-19295500D01*
X12856500Y-19324072D01*
X12856500Y-19481214D01*
X12856500Y-19324072D02*
X12870786Y-19295500D01*
X12899357Y-19281214D01*
X12942214Y-19281214D01*
X12970786Y-19295500D01*
X12985071Y-19324072D01*
X12985071Y-19481214D01*
X13570786Y-19166929D02*
X13313643Y-19552643D01*
X13956500Y-19181214D02*
X13985071Y-19181214D01*
X14013643Y-19195500D01*
X14027928Y-19209786D01*
X14042214Y-19238357D01*
X14056500Y-19295500D01*
X14056500Y-19366929D01*
X14042214Y-19424072D01*
X14027928Y-19452643D01*
X14013643Y-19466929D01*
X13985071Y-19481214D01*
X13956500Y-19481214D01*
X13927928Y-19466929D01*
X13913643Y-19452643D01*
X13899357Y-19424072D01*
X13885071Y-19366929D01*
X13885071Y-19295500D01*
X13899357Y-19238357D01*
X13913643Y-19209786D01*
X13927928Y-19195500D01*
X13956500Y-19181214D01*
X14185071Y-19452643D02*
X14199357Y-19466929D01*
X14185071Y-19481214D01*
X14170786Y-19466929D01*
X14185071Y-19452643D01*
X14185071Y-19481214D01*
X14385071Y-19181214D02*
X14413643Y-19181214D01*
X14442214Y-19195500D01*
X14456500Y-19209786D01*
X14470786Y-19238357D01*
X14485071Y-19295500D01*
X14485071Y-19366929D01*
X14470786Y-19424072D01*
X14456500Y-19452643D01*
X14442214Y-19466929D01*
X14413643Y-19481214D01*
X14385071Y-19481214D01*
X14356500Y-19466929D01*
X14342214Y-19452643D01*
X14327928Y-19424072D01*
X14313643Y-19366929D01*
X14313643Y-19295500D01*
X14327928Y-19238357D01*
X14342214Y-19209786D01*
X14356500Y-19195500D01*
X14385071Y-19181214D01*
X14585071Y-19181214D02*
X14785071Y-19181214D01*
X14656500Y-19481214D01*
X14913643Y-19481214D02*
X14970786Y-19481214D01*
X14999357Y-19466929D01*
X15013643Y-19452643D01*
X15042214Y-19409786D01*
X15056500Y-19352643D01*
X15056500Y-19238357D01*
X15042214Y-19209786D01*
X15027928Y-19195500D01*
X14999357Y-19181214D01*
X14942214Y-19181214D01*
X14913643Y-19195500D01*
X14899357Y-19209786D01*
X14885071Y-19238357D01*
X14885071Y-19309786D01*
X14899357Y-19338357D01*
X14913643Y-19352643D01*
X14942214Y-19366929D01*
X14999357Y-19366929D01*
X15027928Y-19352643D01*
X15042214Y-19338357D01*
X15056500Y-19309786D01*
X15170786Y-19181214D02*
X15170786Y-19238357D01*
X15285071Y-19181214D02*
X15285071Y-19238357D01*
X15727928Y-19595500D02*
X15713643Y-19581214D01*
X15685071Y-19538357D01*
X15670786Y-19509786D01*
X15656500Y-19466929D01*
X15642214Y-19395500D01*
X15642214Y-19338357D01*
X15656500Y-19266929D01*
X15670786Y-19224072D01*
X15685071Y-19195500D01*
X15713643Y-19152643D01*
X15727928Y-19138357D01*
X15813643Y-19181214D02*
X15999357Y-19181214D01*
X15899357Y-19295500D01*
X15942214Y-19295500D01*
X15970786Y-19309786D01*
X15985071Y-19324072D01*
X15999357Y-19352643D01*
X15999357Y-19424072D01*
X15985071Y-19452643D01*
X15970786Y-19466929D01*
X15942214Y-19481214D01*
X15856500Y-19481214D01*
X15827928Y-19466929D01*
X15813643Y-19452643D01*
X16356500Y-19481214D02*
X16356500Y-19181214D01*
X16485071Y-19481214D02*
X16485071Y-19324072D01*
X16470786Y-19295500D01*
X16442214Y-19281214D01*
X16399357Y-19281214D01*
X16370786Y-19295500D01*
X16356500Y-19309786D01*
X16670786Y-19481214D02*
X16642214Y-19466929D01*
X16627928Y-19452643D01*
X16613643Y-19424072D01*
X16613643Y-19338357D01*
X16627928Y-19309786D01*
X16642214Y-19295500D01*
X16670786Y-19281214D01*
X16713643Y-19281214D01*
X16742214Y-19295500D01*
X16756500Y-19309786D01*
X16770786Y-19338357D01*
X16770786Y-19424072D01*
X16756500Y-19452643D01*
X16742214Y-19466929D01*
X16713643Y-19481214D01*
X16670786Y-19481214D01*
X16942214Y-19481214D02*
X16913643Y-19466929D01*
X16899357Y-19438357D01*
X16899357Y-19181214D01*
X17170786Y-19466929D02*
X17142214Y-19481214D01*
X17085071Y-19481214D01*
X17056500Y-19466929D01*
X17042214Y-19438357D01*
X17042214Y-19324072D01*
X17056500Y-19295500D01*
X17085071Y-19281214D01*
X17142214Y-19281214D01*
X17170786Y-19295500D01*
X17185071Y-19324072D01*
X17185071Y-19352643D01*
X17042214Y-19381214D01*
X17299357Y-19466929D02*
X17327928Y-19481214D01*
X17385071Y-19481214D01*
X17413643Y-19466929D01*
X17427928Y-19438357D01*
X17427928Y-19424072D01*
X17413643Y-19395500D01*
X17385071Y-19381214D01*
X17342214Y-19381214D01*
X17313643Y-19366929D01*
X17299357Y-19338357D01*
X17299357Y-19324072D01*
X17313643Y-19295500D01*
X17342214Y-19281214D01*
X17385071Y-19281214D01*
X17413643Y-19295500D01*
X17527928Y-19595500D02*
X17542214Y-19581214D01*
X17570786Y-19538357D01*
X17585071Y-19509786D01*
X17599357Y-19466929D01*
X17613643Y-19395500D01*
X17613643Y-19338357D01*
X17599357Y-19266929D01*
X17585071Y-19224072D01*
X17570786Y-19195500D01*
X17542214Y-19152643D01*
X17527928Y-19138357D01*
X10691500Y-19566500D02*
X11041500Y-19916500D01*
X11041500Y-19566500D02*
X10691500Y-19916500D01*
X10990245Y-19865245D02*
X10990245Y-19617755D01*
X10742755Y-19617755D01*
X10742755Y-19865245D01*
X10990245Y-19865245D01*
X11299357Y-19577214D02*
X11485071Y-19577214D01*
X11385071Y-19691500D01*
X11427928Y-19691500D01*
X11456500Y-19705786D01*
X11470786Y-19720072D01*
X11485071Y-19748643D01*
X11485071Y-19820072D01*
X11470786Y-19848643D01*
X11456500Y-19862929D01*
X11427928Y-19877214D01*
X11342214Y-19877214D01*
X11313643Y-19862929D01*
X11299357Y-19848643D01*
X11613643Y-19848643D02*
X11627928Y-19862929D01*
X11613643Y-19877214D01*
X11599357Y-19862929D01*
X11613643Y-19848643D01*
X11613643Y-19877214D01*
X11899357Y-19577214D02*
X11756500Y-19577214D01*
X11742214Y-19720072D01*
X11756500Y-19705786D01*
X11785071Y-19691500D01*
X11856500Y-19691500D01*
X11885071Y-19705786D01*
X11899357Y-19720072D01*
X11913643Y-19748643D01*
X11913643Y-19820072D01*
X11899357Y-19848643D01*
X11885071Y-19862929D01*
X11856500Y-19877214D01*
X11785071Y-19877214D01*
X11756500Y-19862929D01*
X11742214Y-19848643D01*
X12099357Y-19577214D02*
X12127928Y-19577214D01*
X12156500Y-19591500D01*
X12170786Y-19605786D01*
X12185071Y-19634357D01*
X12199357Y-19691500D01*
X12199357Y-19762929D01*
X12185071Y-19820072D01*
X12170786Y-19848643D01*
X12156500Y-19862929D01*
X12127928Y-19877214D01*
X12099357Y-19877214D01*
X12070786Y-19862929D01*
X12056500Y-19848643D01*
X12042214Y-19820072D01*
X12027928Y-19762929D01*
X12027928Y-19691500D01*
X12042214Y-19634357D01*
X12056500Y-19605786D01*
X12070786Y-19591500D01*
X12099357Y-19577214D01*
X12327928Y-19877214D02*
X12327928Y-19677214D01*
X12327928Y-19705786D02*
X12342214Y-19691500D01*
X12370786Y-19677214D01*
X12413643Y-19677214D01*
X12442214Y-19691500D01*
X12456500Y-19720072D01*
X12456500Y-19877214D01*
X12456500Y-19720072D02*
X12470786Y-19691500D01*
X12499357Y-19677214D01*
X12542214Y-19677214D01*
X12570786Y-19691500D01*
X12585071Y-19720072D01*
X12585071Y-19877214D01*
X12727928Y-19877214D02*
X12727928Y-19677214D01*
X12727928Y-19705786D02*
X12742214Y-19691500D01*
X12770786Y-19677214D01*
X12813643Y-19677214D01*
X12842214Y-19691500D01*
X12856500Y-19720072D01*
X12856500Y-19877214D01*
X12856500Y-19720072D02*
X12870786Y-19691500D01*
X12899357Y-19677214D01*
X12942214Y-19677214D01*
X12970786Y-19691500D01*
X12985071Y-19720072D01*
X12985071Y-19877214D01*
X13570786Y-19562929D02*
X13313643Y-19948643D01*
X13956500Y-19577214D02*
X13985071Y-19577214D01*
X14013643Y-19591500D01*
X14027928Y-19605786D01*
X14042214Y-19634357D01*
X14056500Y-19691500D01*
X14056500Y-19762929D01*
X14042214Y-19820072D01*
X14027928Y-19848643D01*
X14013643Y-19862929D01*
X13985071Y-19877214D01*
X13956500Y-19877214D01*
X13927928Y-19862929D01*
X13913643Y-19848643D01*
X13899357Y-19820072D01*
X13885071Y-19762929D01*
X13885071Y-19691500D01*
X13899357Y-19634357D01*
X13913643Y-19605786D01*
X13927928Y-19591500D01*
X13956500Y-19577214D01*
X14185071Y-19848643D02*
X14199357Y-19862929D01*
X14185071Y-19877214D01*
X14170786Y-19862929D01*
X14185071Y-19848643D01*
X14185071Y-19877214D01*
X14485071Y-19877214D02*
X14313643Y-19877214D01*
X14399357Y-19877214D02*
X14399357Y-19577214D01*
X14370786Y-19620072D01*
X14342214Y-19648643D01*
X14313643Y-19662929D01*
X14585071Y-19577214D02*
X14770786Y-19577214D01*
X14670786Y-19691500D01*
X14713643Y-19691500D01*
X14742214Y-19705786D01*
X14756500Y-19720072D01*
X14770786Y-19748643D01*
X14770786Y-19820072D01*
X14756500Y-19848643D01*
X14742214Y-19862929D01*
X14713643Y-19877214D01*
X14627928Y-19877214D01*
X14599357Y-19862929D01*
X14585071Y-19848643D01*
X14942214Y-19705786D02*
X14913643Y-19691500D01*
X14899357Y-19677214D01*
X14885071Y-19648643D01*
X14885071Y-19634357D01*
X14899357Y-19605786D01*
X14913643Y-19591500D01*
X14942214Y-19577214D01*
X14999357Y-19577214D01*
X15027928Y-19591500D01*
X15042214Y-19605786D01*
X15056500Y-19634357D01*
X15056500Y-19648643D01*
X15042214Y-19677214D01*
X15027928Y-19691500D01*
X14999357Y-19705786D01*
X14942214Y-19705786D01*
X14913643Y-19720072D01*
X14899357Y-19734357D01*
X14885071Y-19762929D01*
X14885071Y-19820072D01*
X14899357Y-19848643D01*
X14913643Y-19862929D01*
X14942214Y-19877214D01*
X14999357Y-19877214D01*
X15027928Y-19862929D01*
X15042214Y-19848643D01*
X15056500Y-19820072D01*
X15056500Y-19762929D01*
X15042214Y-19734357D01*
X15027928Y-19720072D01*
X14999357Y-19705786D01*
X15170786Y-19577214D02*
X15170786Y-19634357D01*
X15285071Y-19577214D02*
X15285071Y-19634357D01*
X15727928Y-19991500D02*
X15713643Y-19977214D01*
X15685071Y-19934357D01*
X15670786Y-19905786D01*
X15656500Y-19862929D01*
X15642214Y-19791500D01*
X15642214Y-19734357D01*
X15656500Y-19662929D01*
X15670786Y-19620072D01*
X15685071Y-19591500D01*
X15713643Y-19548643D01*
X15727928Y-19534357D01*
X15827928Y-19605786D02*
X15842214Y-19591500D01*
X15870786Y-19577214D01*
X15942214Y-19577214D01*
X15970786Y-19591500D01*
X15985071Y-19605786D01*
X15999357Y-19634357D01*
X15999357Y-19662929D01*
X15985071Y-19705786D01*
X15813643Y-19877214D01*
X15999357Y-19877214D01*
X16356500Y-19877214D02*
X16356500Y-19577214D01*
X16485071Y-19877214D02*
X16485071Y-19720072D01*
X16470786Y-19691500D01*
X16442214Y-19677214D01*
X16399357Y-19677214D01*
X16370786Y-19691500D01*
X16356500Y-19705786D01*
X16670786Y-19877214D02*
X16642214Y-19862929D01*
X16627928Y-19848643D01*
X16613643Y-19820072D01*
X16613643Y-19734357D01*
X16627928Y-19705786D01*
X16642214Y-19691500D01*
X16670786Y-19677214D01*
X16713643Y-19677214D01*
X16742214Y-19691500D01*
X16756500Y-19705786D01*
X16770786Y-19734357D01*
X16770786Y-19820072D01*
X16756500Y-19848643D01*
X16742214Y-19862929D01*
X16713643Y-19877214D01*
X16670786Y-19877214D01*
X16942214Y-19877214D02*
X16913643Y-19862929D01*
X16899357Y-19834357D01*
X16899357Y-19577214D01*
X17170786Y-19862929D02*
X17142214Y-19877214D01*
X17085071Y-19877214D01*
X17056500Y-19862929D01*
X17042214Y-19834357D01*
X17042214Y-19720072D01*
X17056500Y-19691500D01*
X17085071Y-19677214D01*
X17142214Y-19677214D01*
X17170786Y-19691500D01*
X17185071Y-19720072D01*
X17185071Y-19748643D01*
X17042214Y-19777214D01*
X17299357Y-19862929D02*
X17327928Y-19877214D01*
X17385071Y-19877214D01*
X17413643Y-19862929D01*
X17427928Y-19834357D01*
X17427928Y-19820072D01*
X17413643Y-19791500D01*
X17385071Y-19777214D01*
X17342214Y-19777214D01*
X17313643Y-19762929D01*
X17299357Y-19734357D01*
X17299357Y-19720072D01*
X17313643Y-19691500D01*
X17342214Y-19677214D01*
X17385071Y-19677214D01*
X17413643Y-19691500D01*
X17527928Y-19991500D02*
X17542214Y-19977214D01*
X17570786Y-19934357D01*
X17585071Y-19905786D01*
X17599357Y-19862929D01*
X17613643Y-19791500D01*
X17613643Y-19734357D01*
X17599357Y-19662929D01*
X17585071Y-19620072D01*
X17570786Y-19591500D01*
X17542214Y-19548643D01*
X17527928Y-19534357D01*
X18070786Y-19991500D02*
X18056500Y-19977214D01*
X18027928Y-19934357D01*
X18013643Y-19905786D01*
X17999357Y-19862929D01*
X17985071Y-19791500D01*
X17985071Y-19734357D01*
X17999357Y-19662929D01*
X18013643Y-19620072D01*
X18027928Y-19591500D01*
X18056500Y-19548643D01*
X18070786Y-19534357D01*
X18185071Y-19677214D02*
X18185071Y-19877214D01*
X18185071Y-19705786D02*
X18199357Y-19691500D01*
X18227928Y-19677214D01*
X18270786Y-19677214D01*
X18299357Y-19691500D01*
X18313643Y-19720072D01*
X18313643Y-19877214D01*
X18499357Y-19877214D02*
X18470786Y-19862929D01*
X18456500Y-19848643D01*
X18442214Y-19820072D01*
X18442214Y-19734357D01*
X18456500Y-19705786D01*
X18470786Y-19691500D01*
X18499357Y-19677214D01*
X18542214Y-19677214D01*
X18570786Y-19691500D01*
X18585071Y-19705786D01*
X18599357Y-19734357D01*
X18599357Y-19820072D01*
X18585071Y-19848643D01*
X18570786Y-19862929D01*
X18542214Y-19877214D01*
X18499357Y-19877214D01*
X18685071Y-19677214D02*
X18799357Y-19677214D01*
X18727928Y-19577214D02*
X18727928Y-19834357D01*
X18742214Y-19862929D01*
X18770786Y-19877214D01*
X18799357Y-19877214D01*
X19127928Y-19677214D02*
X19127928Y-19977214D01*
X19127928Y-19691500D02*
X19156500Y-19677214D01*
X19213643Y-19677214D01*
X19242214Y-19691500D01*
X19256500Y-19705786D01*
X19270786Y-19734357D01*
X19270786Y-19820072D01*
X19256500Y-19848643D01*
X19242214Y-19862929D01*
X19213643Y-19877214D01*
X19156500Y-19877214D01*
X19127928Y-19862929D01*
X19442214Y-19877214D02*
X19413643Y-19862929D01*
X19399357Y-19834357D01*
X19399357Y-19577214D01*
X19685071Y-19877214D02*
X19685071Y-19720072D01*
X19670786Y-19691500D01*
X19642214Y-19677214D01*
X19585071Y-19677214D01*
X19556500Y-19691500D01*
X19685071Y-19862929D02*
X19656500Y-19877214D01*
X19585071Y-19877214D01*
X19556500Y-19862929D01*
X19542214Y-19834357D01*
X19542214Y-19805786D01*
X19556500Y-19777214D01*
X19585071Y-19762929D01*
X19656500Y-19762929D01*
X19685071Y-19748643D01*
X19785071Y-19677214D02*
X19899357Y-19677214D01*
X19827928Y-19577214D02*
X19827928Y-19834357D01*
X19842214Y-19862929D01*
X19870786Y-19877214D01*
X19899357Y-19877214D01*
X20113643Y-19862929D02*
X20085071Y-19877214D01*
X20027928Y-19877214D01*
X19999357Y-19862929D01*
X19985071Y-19834357D01*
X19985071Y-19720072D01*
X19999357Y-19691500D01*
X20027928Y-19677214D01*
X20085071Y-19677214D01*
X20113643Y-19691500D01*
X20127928Y-19720072D01*
X20127928Y-19748643D01*
X19985071Y-19777214D01*
X20385071Y-19877214D02*
X20385071Y-19577214D01*
X20385071Y-19862929D02*
X20356500Y-19877214D01*
X20299357Y-19877214D01*
X20270786Y-19862929D01*
X20256500Y-19848643D01*
X20242214Y-19820072D01*
X20242214Y-19734357D01*
X20256500Y-19705786D01*
X20270786Y-19691500D01*
X20299357Y-19677214D01*
X20356500Y-19677214D01*
X20385071Y-19691500D01*
X20499357Y-19991500D02*
X20513643Y-19977214D01*
X20542214Y-19934357D01*
X20556500Y-19905786D01*
X20570786Y-19862929D01*
X20585071Y-19791500D01*
X20585071Y-19734357D01*
X20570786Y-19662929D01*
X20556500Y-19620072D01*
X20542214Y-19591500D01*
X20513643Y-19548643D01*
X20499357Y-19534357D01*
M02*
