G04 #@! TF.GenerationSoftware,KiCad,Pcbnew,(5.1.5)-3*
G04 #@! TF.CreationDate,2020-02-05T09:48:48+01:00*
G04 #@! TF.ProjectId,FGINT-V3-MASTER-64,4647494e-542d-4563-932d-4d4153544552,rev?*
G04 #@! TF.SameCoordinates,Original*
G04 #@! TF.FileFunction,Other,User*
%FSLAX46Y46*%
G04 Gerber Fmt 4.6, Leading zero omitted, Abs format (unit mm)*
G04 Created by KiCad (PCBNEW (5.1.5)-3) date 2020-02-05 09:48:48*
%MOMM*%
%LPD*%
G04 APERTURE LIST*
%ADD10C,0.050000*%
G04 APERTURE END LIST*
D10*
X220400000Y-122940000D02*
X220400000Y-115840000D01*
X220400000Y-122940000D02*
X225000000Y-122940000D01*
X225000000Y-115840000D02*
X220400000Y-115840000D01*
X225000000Y-115840000D02*
X225000000Y-122940000D01*
X220400000Y-106430000D02*
X220400000Y-99330000D01*
X220400000Y-106430000D02*
X225000000Y-106430000D01*
X225000000Y-99330000D02*
X220400000Y-99330000D01*
X225000000Y-99330000D02*
X225000000Y-106430000D01*
X218970000Y-70380000D02*
X218970000Y-66780000D01*
X212820000Y-70380000D02*
X218970000Y-70380000D01*
X212820000Y-66780000D02*
X212820000Y-70380000D01*
X218970000Y-66780000D02*
X212820000Y-66780000D01*
X229340000Y-153775000D02*
X229340000Y-157375000D01*
X235490000Y-153775000D02*
X229340000Y-153775000D01*
X235490000Y-157375000D02*
X235490000Y-153775000D01*
X229340000Y-157375000D02*
X235490000Y-157375000D01*
X226560000Y-151520000D02*
X215400000Y-151520000D01*
X226560000Y-158320000D02*
X226560000Y-151520000D01*
X215400000Y-158320000D02*
X226560000Y-158320000D01*
X215400000Y-151520000D02*
X215400000Y-158320000D01*
X211320000Y-151520000D02*
X200160000Y-151520000D01*
X211320000Y-158320000D02*
X211320000Y-151520000D01*
X200160000Y-158320000D02*
X211320000Y-158320000D01*
X200160000Y-151520000D02*
X200160000Y-158320000D01*
X211320000Y-140090000D02*
X200160000Y-140090000D01*
X211320000Y-146890000D02*
X211320000Y-140090000D01*
X200160000Y-146890000D02*
X211320000Y-146890000D01*
X200160000Y-140090000D02*
X200160000Y-146890000D01*
X210590000Y-59670000D02*
X213590000Y-59670000D01*
X213590000Y-59670000D02*
X213590000Y-52170000D01*
X213590000Y-52170000D02*
X210590000Y-52170000D01*
X210590000Y-52170000D02*
X210590000Y-59670000D01*
X207200000Y-58420000D02*
G75*
G03X207200000Y-58420000I-2750000J0D01*
G01*
X222480000Y-58420000D02*
G75*
G03X222480000Y-58420000I-2750000J0D01*
G01*
X229200000Y-41380000D02*
X229800000Y-41380000D01*
X229800000Y-41380000D02*
X229800000Y-38180000D01*
X229800000Y-38180000D02*
X232200000Y-38180000D01*
X232200000Y-38180000D02*
X232200000Y-36680000D01*
X232200000Y-36680000D02*
X235800000Y-36680000D01*
X235800000Y-36680000D02*
X235800000Y-38180000D01*
X235800000Y-38180000D02*
X245200000Y-38180000D01*
X245200000Y-38180000D02*
X245200000Y-48180000D01*
X245200000Y-48180000D02*
X229800000Y-48180000D01*
X229800000Y-48180000D02*
X229800000Y-44980000D01*
X229800000Y-44980000D02*
X229200000Y-44980000D01*
X229200000Y-44980000D02*
X229200000Y-41380000D01*
X235350000Y-148860000D02*
X235350000Y-89900000D01*
X235350000Y-89900000D02*
X244710000Y-89900000D01*
X244710000Y-89900000D02*
X244710000Y-148860000D01*
X244710000Y-148860000D02*
X235350000Y-148860000D01*
X205960000Y-97560000D02*
X205960000Y-100560000D01*
X205960000Y-100560000D02*
X215680000Y-100560000D01*
X215680000Y-100560000D02*
X215680000Y-97560000D01*
X215680000Y-97560000D02*
X205960000Y-97560000D01*
X215680000Y-114070000D02*
X205960000Y-114070000D01*
X215680000Y-117070000D02*
X215680000Y-114070000D01*
X205960000Y-117070000D02*
X215680000Y-117070000D01*
X205960000Y-114070000D02*
X205960000Y-117070000D01*
X237260000Y-62050000D02*
X240260000Y-62050000D01*
X240260000Y-62050000D02*
X240260000Y-52330000D01*
X240260000Y-52330000D02*
X237260000Y-52330000D01*
X237260000Y-52330000D02*
X237260000Y-62050000D01*
X215680000Y-105180000D02*
X205960000Y-105180000D01*
X215680000Y-108180000D02*
X215680000Y-105180000D01*
X205960000Y-108180000D02*
X215680000Y-108180000D01*
X205960000Y-105180000D02*
X205960000Y-108180000D01*
X205960000Y-121690000D02*
X205960000Y-124690000D01*
X205960000Y-124690000D02*
X215680000Y-124690000D01*
X215680000Y-124690000D02*
X215680000Y-121690000D01*
X215680000Y-121690000D02*
X205960000Y-121690000D01*
X232640000Y-62010000D02*
X232640000Y-52290000D01*
X229640000Y-62010000D02*
X232640000Y-62010000D01*
X229640000Y-52290000D02*
X229640000Y-62010000D01*
X232640000Y-52290000D02*
X229640000Y-52290000D01*
X149480000Y-77900000D02*
X152780000Y-77900000D01*
X152780000Y-77900000D02*
X152780000Y-54150000D01*
X152780000Y-54150000D02*
X149480000Y-54150000D01*
X149480000Y-54150000D02*
X149480000Y-77900000D01*
X126620000Y-54150000D02*
X126620000Y-77900000D01*
X129920000Y-54150000D02*
X126620000Y-54150000D01*
X129920000Y-77900000D02*
X129920000Y-54150000D01*
X126620000Y-77900000D02*
X129920000Y-77900000D01*
X185040000Y-77900000D02*
X188340000Y-77900000D01*
X188340000Y-77900000D02*
X188340000Y-54150000D01*
X188340000Y-54150000D02*
X185040000Y-54150000D01*
X185040000Y-54150000D02*
X185040000Y-77900000D01*
X162180000Y-54150000D02*
X162180000Y-77900000D01*
X165480000Y-54150000D02*
X162180000Y-54150000D01*
X165480000Y-77900000D02*
X165480000Y-54150000D01*
X162180000Y-77900000D02*
X165480000Y-77900000D01*
X144590000Y-54330000D02*
X134790000Y-54330000D01*
X144590000Y-90430000D02*
X144590000Y-54330000D01*
X134790000Y-90430000D02*
X144590000Y-90430000D01*
X134790000Y-54330000D02*
X134790000Y-90430000D01*
X180150000Y-54330000D02*
X170350000Y-54330000D01*
X180150000Y-90430000D02*
X180150000Y-54330000D01*
X170350000Y-90430000D02*
X180150000Y-90430000D01*
X170350000Y-54330000D02*
X170350000Y-90430000D01*
X200490000Y-88290000D02*
X210990000Y-88290000D01*
X200490000Y-67330000D02*
X200490000Y-88290000D01*
X210990000Y-67330000D02*
X200490000Y-67330000D01*
X210990000Y-88290000D02*
X210990000Y-67330000D01*
X231310000Y-88290000D02*
X231310000Y-67330000D01*
X231310000Y-67330000D02*
X220810000Y-67330000D01*
X220810000Y-67330000D02*
X220810000Y-88290000D01*
X220810000Y-88290000D02*
X231310000Y-88290000D01*
X215400000Y-140090000D02*
X215400000Y-146890000D01*
X215400000Y-146890000D02*
X226560000Y-146890000D01*
X226560000Y-146890000D02*
X226560000Y-140090000D01*
X226560000Y-140090000D02*
X215400000Y-140090000D01*
X156480000Y-34780000D02*
X156480000Y-49380000D01*
X122920000Y-34780000D02*
X156480000Y-34780000D01*
X156480000Y-49380000D02*
X122920000Y-49380000D01*
X122920000Y-49380000D02*
X122920000Y-34780000D01*
X118640000Y-113560000D02*
X118640000Y-107410000D01*
X118640000Y-107410000D02*
X115040000Y-107410000D01*
X115040000Y-107410000D02*
X115040000Y-113560000D01*
X115040000Y-113560000D02*
X118640000Y-113560000D01*
X155470000Y-90700000D02*
X155470000Y-87100000D01*
X146820000Y-90700000D02*
X155470000Y-90700000D01*
X146820000Y-87100000D02*
X146820000Y-90700000D01*
X155470000Y-87100000D02*
X146820000Y-87100000D01*
X132610000Y-87100000D02*
X123960000Y-87100000D01*
X123960000Y-87100000D02*
X123960000Y-90700000D01*
X123960000Y-90700000D02*
X132610000Y-90700000D01*
X132610000Y-90700000D02*
X132610000Y-87100000D01*
X158480000Y-49380000D02*
X158480000Y-34780000D01*
X192040000Y-49380000D02*
X158480000Y-49380000D01*
X158480000Y-34780000D02*
X192040000Y-34780000D01*
X192040000Y-34780000D02*
X192040000Y-49380000D01*
X191030000Y-87100000D02*
X182380000Y-87100000D01*
X182380000Y-87100000D02*
X182380000Y-90700000D01*
X182380000Y-90700000D02*
X191030000Y-90700000D01*
X191030000Y-90700000D02*
X191030000Y-87100000D01*
X168170000Y-90700000D02*
X168170000Y-87100000D01*
X159520000Y-90700000D02*
X168170000Y-90700000D01*
X159520000Y-87100000D02*
X159520000Y-90700000D01*
X168170000Y-87100000D02*
X159520000Y-87100000D01*
X122920000Y-156990000D02*
X122920000Y-142390000D01*
X156480000Y-156990000D02*
X122920000Y-156990000D01*
X122920000Y-142390000D02*
X156480000Y-142390000D01*
X156480000Y-142390000D02*
X156480000Y-156990000D01*
X123930000Y-101070000D02*
X123930000Y-104670000D01*
X132580000Y-101070000D02*
X123930000Y-101070000D01*
X132580000Y-104670000D02*
X132580000Y-101070000D01*
X123930000Y-104670000D02*
X132580000Y-104670000D01*
X146790000Y-101070000D02*
X146790000Y-104670000D01*
X155440000Y-101070000D02*
X146790000Y-101070000D01*
X155440000Y-104670000D02*
X155440000Y-101070000D01*
X146790000Y-104670000D02*
X155440000Y-104670000D01*
X192040000Y-142390000D02*
X192040000Y-156990000D01*
X158480000Y-142390000D02*
X192040000Y-142390000D01*
X192040000Y-156990000D02*
X158480000Y-156990000D01*
X158480000Y-156990000D02*
X158480000Y-142390000D01*
X159490000Y-104670000D02*
X168140000Y-104670000D01*
X168140000Y-104670000D02*
X168140000Y-101070000D01*
X168140000Y-101070000D02*
X159490000Y-101070000D01*
X159490000Y-101070000D02*
X159490000Y-104670000D01*
X182350000Y-104670000D02*
X191000000Y-104670000D01*
X191000000Y-104670000D02*
X191000000Y-101070000D01*
X191000000Y-101070000D02*
X182350000Y-101070000D01*
X182350000Y-101070000D02*
X182350000Y-104670000D01*
X115190000Y-103300000D02*
X118490000Y-103300000D01*
X118490000Y-103300000D02*
X118490000Y-89700000D01*
X118490000Y-89700000D02*
X115190000Y-89700000D01*
X115190000Y-89700000D02*
X115190000Y-103300000D01*
X152780000Y-113870000D02*
X149480000Y-113870000D01*
X149480000Y-113870000D02*
X149480000Y-137620000D01*
X149480000Y-137620000D02*
X152780000Y-137620000D01*
X152780000Y-137620000D02*
X152780000Y-113870000D01*
X129920000Y-113870000D02*
X126620000Y-113870000D01*
X126620000Y-113870000D02*
X126620000Y-137620000D01*
X126620000Y-137620000D02*
X129920000Y-137620000D01*
X129920000Y-137620000D02*
X129920000Y-113870000D01*
X188340000Y-137620000D02*
X188340000Y-113870000D01*
X185040000Y-137620000D02*
X188340000Y-137620000D01*
X185040000Y-113870000D02*
X185040000Y-137620000D01*
X188340000Y-113870000D02*
X185040000Y-113870000D01*
X165480000Y-137620000D02*
X165480000Y-113870000D01*
X162180000Y-137620000D02*
X165480000Y-137620000D01*
X162180000Y-113870000D02*
X162180000Y-137620000D01*
X165480000Y-113870000D02*
X162180000Y-113870000D01*
X144610000Y-137440000D02*
X144610000Y-101340000D01*
X144610000Y-101340000D02*
X134810000Y-101340000D01*
X134810000Y-101340000D02*
X134810000Y-137440000D01*
X134810000Y-137440000D02*
X144610000Y-137440000D01*
X170370000Y-137440000D02*
X180170000Y-137440000D01*
X170370000Y-101340000D02*
X170370000Y-137440000D01*
X180170000Y-101340000D02*
X170370000Y-101340000D01*
X180170000Y-137440000D02*
X180170000Y-101340000D01*
X205560000Y-39180000D02*
X221160000Y-39180000D01*
X205560000Y-39180000D02*
X205560000Y-47180000D01*
X221160000Y-47180000D02*
X221160000Y-39180000D01*
X221160000Y-47180000D02*
X205560000Y-47180000D01*
M02*
