G04 #@! TF.GenerationSoftware,KiCad,Pcbnew,(5.1.5)-3*
G04 #@! TF.CreationDate,2020-02-05T09:48:48+01:00*
G04 #@! TF.ProjectId,FGINT-V3-MASTER-64,4647494e-542d-4563-932d-4d4153544552,rev?*
G04 #@! TF.SameCoordinates,Original*
G04 #@! TF.FileFunction,Legend,Top*
G04 #@! TF.FilePolarity,Positive*
%FSLAX46Y46*%
G04 Gerber Fmt 4.6, Leading zero omitted, Abs format (unit mm)*
G04 Created by KiCad (PCBNEW (5.1.5)-3) date 2020-02-05 09:48:48*
%MOMM*%
%LPD*%
G04 APERTURE LIST*
%ADD10C,0.150000*%
%ADD11C,0.120000*%
G04 APERTURE END LIST*
D10*
X176292380Y-28362380D02*
X175720952Y-28362380D01*
X176006666Y-28362380D02*
X176006666Y-27362380D01*
X175911428Y-27505238D01*
X175816190Y-27600476D01*
X175720952Y-27648095D01*
X176625714Y-27362380D02*
X177244761Y-27362380D01*
X176911428Y-27743333D01*
X177054285Y-27743333D01*
X177149523Y-27790952D01*
X177197142Y-27838571D01*
X177244761Y-27933809D01*
X177244761Y-28171904D01*
X177197142Y-28267142D01*
X177149523Y-28314761D01*
X177054285Y-28362380D01*
X176768571Y-28362380D01*
X176673333Y-28314761D01*
X176625714Y-28267142D01*
X177720952Y-28362380D02*
X177911428Y-28362380D01*
X178006666Y-28314761D01*
X178054285Y-28267142D01*
X178149523Y-28124285D01*
X178197142Y-27933809D01*
X178197142Y-27552857D01*
X178149523Y-27457619D01*
X178101904Y-27410000D01*
X178006666Y-27362380D01*
X177816190Y-27362380D01*
X177720952Y-27410000D01*
X177673333Y-27457619D01*
X177625714Y-27552857D01*
X177625714Y-27790952D01*
X177673333Y-27886190D01*
X177720952Y-27933809D01*
X177816190Y-27981428D01*
X178006666Y-27981428D01*
X178101904Y-27933809D01*
X178149523Y-27886190D01*
X178197142Y-27790952D01*
X178673333Y-28314761D02*
X178673333Y-28362380D01*
X178625714Y-28457619D01*
X178578095Y-28505238D01*
X179006666Y-27362380D02*
X179673333Y-27362380D01*
X179244761Y-28362380D01*
X180244761Y-27362380D02*
X180340000Y-27362380D01*
X180435238Y-27410000D01*
X180482857Y-27457619D01*
X180530476Y-27552857D01*
X180578095Y-27743333D01*
X180578095Y-27981428D01*
X180530476Y-28171904D01*
X180482857Y-28267142D01*
X180435238Y-28314761D01*
X180340000Y-28362380D01*
X180244761Y-28362380D01*
X180149523Y-28314761D01*
X180101904Y-28267142D01*
X180054285Y-28171904D01*
X180006666Y-27981428D01*
X180006666Y-27743333D01*
X180054285Y-27552857D01*
X180101904Y-27457619D01*
X180149523Y-27410000D01*
X180244761Y-27362380D01*
X181197142Y-27362380D02*
X181292380Y-27362380D01*
X181387619Y-27410000D01*
X181435238Y-27457619D01*
X181482857Y-27552857D01*
X181530476Y-27743333D01*
X181530476Y-27981428D01*
X181482857Y-28171904D01*
X181435238Y-28267142D01*
X181387619Y-28314761D01*
X181292380Y-28362380D01*
X181197142Y-28362380D01*
X181101904Y-28314761D01*
X181054285Y-28267142D01*
X181006666Y-28171904D01*
X180959047Y-27981428D01*
X180959047Y-27743333D01*
X181006666Y-27552857D01*
X181054285Y-27457619D01*
X181101904Y-27410000D01*
X181197142Y-27362380D01*
X182720952Y-28362380D02*
X182720952Y-27695714D01*
X182720952Y-27790952D02*
X182768571Y-27743333D01*
X182863809Y-27695714D01*
X183006666Y-27695714D01*
X183101904Y-27743333D01*
X183149523Y-27838571D01*
X183149523Y-28362380D01*
X183149523Y-27838571D02*
X183197142Y-27743333D01*
X183292380Y-27695714D01*
X183435238Y-27695714D01*
X183530476Y-27743333D01*
X183578095Y-27838571D01*
X183578095Y-28362380D01*
X184054285Y-28362380D02*
X184054285Y-27695714D01*
X184054285Y-27790952D02*
X184101904Y-27743333D01*
X184197142Y-27695714D01*
X184340000Y-27695714D01*
X184435238Y-27743333D01*
X184482857Y-27838571D01*
X184482857Y-28362380D01*
X184482857Y-27838571D02*
X184530476Y-27743333D01*
X184625714Y-27695714D01*
X184768571Y-27695714D01*
X184863809Y-27743333D01*
X184911428Y-27838571D01*
X184911428Y-28362380D01*
X110490000Y-29210000D02*
X250190000Y-29210000D01*
X110490000Y-31750000D02*
X110490000Y-28623579D01*
X250190000Y-31750000D02*
X250190000Y-28623579D01*
X250190000Y-29210000D02*
X249063496Y-29796421D01*
X250190000Y-29210000D02*
X249063496Y-28623579D01*
X110490000Y-29210000D02*
X111616504Y-29796421D01*
X110490000Y-29210000D02*
X111616504Y-28623579D01*
X253577619Y-91837380D02*
X253577619Y-91265952D01*
X253577619Y-91551666D02*
X254577619Y-91551666D01*
X254434761Y-91456428D01*
X254339523Y-91361190D01*
X254291904Y-91265952D01*
X254482380Y-92218333D02*
X254530000Y-92265952D01*
X254577619Y-92361190D01*
X254577619Y-92599285D01*
X254530000Y-92694523D01*
X254482380Y-92742142D01*
X254387142Y-92789761D01*
X254291904Y-92789761D01*
X254149047Y-92742142D01*
X253577619Y-92170714D01*
X253577619Y-92789761D01*
X254149047Y-93361190D02*
X254196666Y-93265952D01*
X254244285Y-93218333D01*
X254339523Y-93170714D01*
X254387142Y-93170714D01*
X254482380Y-93218333D01*
X254530000Y-93265952D01*
X254577619Y-93361190D01*
X254577619Y-93551666D01*
X254530000Y-93646904D01*
X254482380Y-93694523D01*
X254387142Y-93742142D01*
X254339523Y-93742142D01*
X254244285Y-93694523D01*
X254196666Y-93646904D01*
X254149047Y-93551666D01*
X254149047Y-93361190D01*
X254101428Y-93265952D01*
X254053809Y-93218333D01*
X253958571Y-93170714D01*
X253768095Y-93170714D01*
X253672857Y-93218333D01*
X253625238Y-93265952D01*
X253577619Y-93361190D01*
X253577619Y-93551666D01*
X253625238Y-93646904D01*
X253672857Y-93694523D01*
X253768095Y-93742142D01*
X253958571Y-93742142D01*
X254053809Y-93694523D01*
X254101428Y-93646904D01*
X254149047Y-93551666D01*
X253625238Y-94218333D02*
X253577619Y-94218333D01*
X253482380Y-94170714D01*
X253434761Y-94123095D01*
X254482380Y-94599285D02*
X254530000Y-94646904D01*
X254577619Y-94742142D01*
X254577619Y-94980238D01*
X254530000Y-95075476D01*
X254482380Y-95123095D01*
X254387142Y-95170714D01*
X254291904Y-95170714D01*
X254149047Y-95123095D01*
X253577619Y-94551666D01*
X253577619Y-95170714D01*
X254577619Y-95504047D02*
X254577619Y-96170714D01*
X253577619Y-95742142D01*
X254577619Y-96742142D02*
X254577619Y-96837380D01*
X254530000Y-96932619D01*
X254482380Y-96980238D01*
X254387142Y-97027857D01*
X254196666Y-97075476D01*
X253958571Y-97075476D01*
X253768095Y-97027857D01*
X253672857Y-96980238D01*
X253625238Y-96932619D01*
X253577619Y-96837380D01*
X253577619Y-96742142D01*
X253625238Y-96646904D01*
X253672857Y-96599285D01*
X253768095Y-96551666D01*
X253958571Y-96504047D01*
X254196666Y-96504047D01*
X254387142Y-96551666D01*
X254482380Y-96599285D01*
X254530000Y-96646904D01*
X254577619Y-96742142D01*
X253577619Y-98265952D02*
X254244285Y-98265952D01*
X254149047Y-98265952D02*
X254196666Y-98313571D01*
X254244285Y-98408809D01*
X254244285Y-98551666D01*
X254196666Y-98646904D01*
X254101428Y-98694523D01*
X253577619Y-98694523D01*
X254101428Y-98694523D02*
X254196666Y-98742142D01*
X254244285Y-98837380D01*
X254244285Y-98980238D01*
X254196666Y-99075476D01*
X254101428Y-99123095D01*
X253577619Y-99123095D01*
X253577619Y-99599285D02*
X254244285Y-99599285D01*
X254149047Y-99599285D02*
X254196666Y-99646904D01*
X254244285Y-99742142D01*
X254244285Y-99885000D01*
X254196666Y-99980238D01*
X254101428Y-100027857D01*
X253577619Y-100027857D01*
X254101428Y-100027857D02*
X254196666Y-100075476D01*
X254244285Y-100170714D01*
X254244285Y-100313571D01*
X254196666Y-100408809D01*
X254101428Y-100456428D01*
X253577619Y-100456428D01*
X252730000Y-31750000D02*
X252730000Y-160020000D01*
X250190000Y-31750000D02*
X253316421Y-31750000D01*
X250190000Y-160020000D02*
X253316421Y-160020000D01*
X252730000Y-160020000D02*
X252143579Y-158893496D01*
X252730000Y-160020000D02*
X253316421Y-158893496D01*
X252730000Y-31750000D02*
X252143579Y-32876504D01*
X252730000Y-31750000D02*
X253316421Y-32876504D01*
D11*
X221137736Y-121682383D02*
G75*
G02X220550000Y-121290000I1112264J2302383D01*
G01*
X223348807Y-121736400D02*
G75*
G03X224850000Y-119380000I-1098807J2356400D01*
G01*
X223348807Y-117023600D02*
G75*
G02X224850000Y-119380000I-1098807J-2356400D01*
G01*
X221127955Y-117057369D02*
G75*
G03X220550000Y-117440000I1122045J-2322631D01*
G01*
X220550000Y-117440000D02*
X220550000Y-121290000D01*
X221137736Y-105172383D02*
G75*
G02X220550000Y-104780000I1112264J2302383D01*
G01*
X223348807Y-105226400D02*
G75*
G03X224850000Y-102870000I-1098807J2356400D01*
G01*
X223348807Y-100513600D02*
G75*
G02X224850000Y-102870000I-1098807J-2356400D01*
G01*
X221127955Y-100547369D02*
G75*
G03X220550000Y-100930000I1122045J-2322631D01*
G01*
X220550000Y-100930000D02*
X220550000Y-104780000D01*
X218500000Y-67250000D02*
X218500000Y-68580000D01*
X217170000Y-67250000D02*
X218500000Y-67250000D01*
X215900000Y-67250000D02*
X215900000Y-69910000D01*
X215900000Y-69910000D02*
X213300000Y-69910000D01*
X215900000Y-67250000D02*
X213300000Y-67250000D01*
X213300000Y-67250000D02*
X213300000Y-69910000D01*
X229810000Y-156905000D02*
X229810000Y-155575000D01*
X231140000Y-156905000D02*
X229810000Y-156905000D01*
X232410000Y-156905000D02*
X232410000Y-154245000D01*
X232410000Y-154245000D02*
X235010000Y-154245000D01*
X232410000Y-156905000D02*
X235010000Y-156905000D01*
X235010000Y-156905000D02*
X235010000Y-154245000D01*
X225590000Y-152510000D02*
X225590000Y-151910000D01*
X223990000Y-152510000D02*
X225590000Y-152510000D01*
X223990000Y-151910000D02*
X223990000Y-152510000D01*
X223050000Y-152510000D02*
X223050000Y-151910000D01*
X221450000Y-152510000D02*
X223050000Y-152510000D01*
X221450000Y-151910000D02*
X221450000Y-152510000D01*
X220510000Y-152510000D02*
X220510000Y-151910000D01*
X218910000Y-152510000D02*
X220510000Y-152510000D01*
X218910000Y-151910000D02*
X218910000Y-152510000D01*
X217970000Y-152510000D02*
X217970000Y-151910000D01*
X216370000Y-152510000D02*
X217970000Y-152510000D01*
X216370000Y-151910000D02*
X216370000Y-152510000D01*
X224540000Y-157930000D02*
X224540000Y-156930000D01*
X217420000Y-157930000D02*
X217420000Y-156930000D01*
X224540000Y-156400000D02*
X224790000Y-156930000D01*
X217420000Y-156400000D02*
X224540000Y-156400000D01*
X217170000Y-156930000D02*
X217420000Y-156400000D01*
X224790000Y-156930000D02*
X224790000Y-157930000D01*
X217170000Y-156930000D02*
X224790000Y-156930000D01*
X217170000Y-157930000D02*
X217170000Y-156930000D01*
X215500000Y-152940000D02*
X215500000Y-156940000D01*
X226170000Y-151910000D02*
X215790000Y-151910000D01*
X226170000Y-157930000D02*
X226170000Y-151910000D01*
X215790000Y-157930000D02*
X226170000Y-157930000D01*
X215790000Y-151910000D02*
X215790000Y-157930000D01*
X210350000Y-152510000D02*
X210350000Y-151910000D01*
X208750000Y-152510000D02*
X210350000Y-152510000D01*
X208750000Y-151910000D02*
X208750000Y-152510000D01*
X207810000Y-152510000D02*
X207810000Y-151910000D01*
X206210000Y-152510000D02*
X207810000Y-152510000D01*
X206210000Y-151910000D02*
X206210000Y-152510000D01*
X205270000Y-152510000D02*
X205270000Y-151910000D01*
X203670000Y-152510000D02*
X205270000Y-152510000D01*
X203670000Y-151910000D02*
X203670000Y-152510000D01*
X202730000Y-152510000D02*
X202730000Y-151910000D01*
X201130000Y-152510000D02*
X202730000Y-152510000D01*
X201130000Y-151910000D02*
X201130000Y-152510000D01*
X209300000Y-157930000D02*
X209300000Y-156930000D01*
X202180000Y-157930000D02*
X202180000Y-156930000D01*
X209300000Y-156400000D02*
X209550000Y-156930000D01*
X202180000Y-156400000D02*
X209300000Y-156400000D01*
X201930000Y-156930000D02*
X202180000Y-156400000D01*
X209550000Y-156930000D02*
X209550000Y-157930000D01*
X201930000Y-156930000D02*
X209550000Y-156930000D01*
X201930000Y-157930000D02*
X201930000Y-156930000D01*
X200260000Y-152940000D02*
X200260000Y-156940000D01*
X210930000Y-151910000D02*
X200550000Y-151910000D01*
X210930000Y-157930000D02*
X210930000Y-151910000D01*
X200550000Y-157930000D02*
X210930000Y-157930000D01*
X200550000Y-151910000D02*
X200550000Y-157930000D01*
X210350000Y-141080000D02*
X210350000Y-140480000D01*
X208750000Y-141080000D02*
X210350000Y-141080000D01*
X208750000Y-140480000D02*
X208750000Y-141080000D01*
X207810000Y-141080000D02*
X207810000Y-140480000D01*
X206210000Y-141080000D02*
X207810000Y-141080000D01*
X206210000Y-140480000D02*
X206210000Y-141080000D01*
X205270000Y-141080000D02*
X205270000Y-140480000D01*
X203670000Y-141080000D02*
X205270000Y-141080000D01*
X203670000Y-140480000D02*
X203670000Y-141080000D01*
X202730000Y-141080000D02*
X202730000Y-140480000D01*
X201130000Y-141080000D02*
X202730000Y-141080000D01*
X201130000Y-140480000D02*
X201130000Y-141080000D01*
X209300000Y-146500000D02*
X209300000Y-145500000D01*
X202180000Y-146500000D02*
X202180000Y-145500000D01*
X209300000Y-144970000D02*
X209550000Y-145500000D01*
X202180000Y-144970000D02*
X209300000Y-144970000D01*
X201930000Y-145500000D02*
X202180000Y-144970000D01*
X209550000Y-145500000D02*
X209550000Y-146500000D01*
X201930000Y-145500000D02*
X209550000Y-145500000D01*
X201930000Y-146500000D02*
X201930000Y-145500000D01*
X200260000Y-141510000D02*
X200260000Y-145510000D01*
X210930000Y-140480000D02*
X200550000Y-140480000D01*
X210930000Y-146500000D02*
X210930000Y-140480000D01*
X200550000Y-146500000D02*
X210930000Y-146500000D01*
X200550000Y-140480000D02*
X200550000Y-146500000D01*
X210720000Y-59540000D02*
X210720000Y-52300000D01*
X213460000Y-59540000D02*
X213460000Y-52300000D01*
X210720000Y-59540000D02*
X213460000Y-59540000D01*
X210720000Y-52300000D02*
X213460000Y-52300000D01*
X201895225Y-56695000D02*
X201895225Y-57195000D01*
X201645225Y-56945000D02*
X202145225Y-56945000D01*
X207051000Y-58136000D02*
X207051000Y-58704000D01*
X207011000Y-57902000D02*
X207011000Y-58938000D01*
X206971000Y-57743000D02*
X206971000Y-59097000D01*
X206931000Y-57615000D02*
X206931000Y-59225000D01*
X206891000Y-57505000D02*
X206891000Y-59335000D01*
X206851000Y-57409000D02*
X206851000Y-59431000D01*
X206811000Y-57322000D02*
X206811000Y-59518000D01*
X206771000Y-57242000D02*
X206771000Y-59598000D01*
X206731000Y-59460000D02*
X206731000Y-59671000D01*
X206731000Y-57169000D02*
X206731000Y-57380000D01*
X206691000Y-59460000D02*
X206691000Y-59739000D01*
X206691000Y-57101000D02*
X206691000Y-57380000D01*
X206651000Y-59460000D02*
X206651000Y-59803000D01*
X206651000Y-57037000D02*
X206651000Y-57380000D01*
X206611000Y-59460000D02*
X206611000Y-59863000D01*
X206611000Y-56977000D02*
X206611000Y-57380000D01*
X206571000Y-59460000D02*
X206571000Y-59920000D01*
X206571000Y-56920000D02*
X206571000Y-57380000D01*
X206531000Y-59460000D02*
X206531000Y-59974000D01*
X206531000Y-56866000D02*
X206531000Y-57380000D01*
X206491000Y-59460000D02*
X206491000Y-60025000D01*
X206491000Y-56815000D02*
X206491000Y-57380000D01*
X206451000Y-59460000D02*
X206451000Y-60073000D01*
X206451000Y-56767000D02*
X206451000Y-57380000D01*
X206411000Y-59460000D02*
X206411000Y-60119000D01*
X206411000Y-56721000D02*
X206411000Y-57380000D01*
X206371000Y-59460000D02*
X206371000Y-60163000D01*
X206371000Y-56677000D02*
X206371000Y-57380000D01*
X206331000Y-59460000D02*
X206331000Y-60205000D01*
X206331000Y-56635000D02*
X206331000Y-57380000D01*
X206291000Y-59460000D02*
X206291000Y-60246000D01*
X206291000Y-56594000D02*
X206291000Y-57380000D01*
X206251000Y-59460000D02*
X206251000Y-60284000D01*
X206251000Y-56556000D02*
X206251000Y-57380000D01*
X206211000Y-59460000D02*
X206211000Y-60321000D01*
X206211000Y-56519000D02*
X206211000Y-57380000D01*
X206171000Y-59460000D02*
X206171000Y-60357000D01*
X206171000Y-56483000D02*
X206171000Y-57380000D01*
X206131000Y-59460000D02*
X206131000Y-60391000D01*
X206131000Y-56449000D02*
X206131000Y-57380000D01*
X206091000Y-59460000D02*
X206091000Y-60424000D01*
X206091000Y-56416000D02*
X206091000Y-57380000D01*
X206051000Y-59460000D02*
X206051000Y-60455000D01*
X206051000Y-56385000D02*
X206051000Y-57380000D01*
X206011000Y-59460000D02*
X206011000Y-60485000D01*
X206011000Y-56355000D02*
X206011000Y-57380000D01*
X205971000Y-59460000D02*
X205971000Y-60515000D01*
X205971000Y-56325000D02*
X205971000Y-57380000D01*
X205931000Y-59460000D02*
X205931000Y-60542000D01*
X205931000Y-56298000D02*
X205931000Y-57380000D01*
X205891000Y-59460000D02*
X205891000Y-60569000D01*
X205891000Y-56271000D02*
X205891000Y-57380000D01*
X205851000Y-59460000D02*
X205851000Y-60595000D01*
X205851000Y-56245000D02*
X205851000Y-57380000D01*
X205811000Y-59460000D02*
X205811000Y-60620000D01*
X205811000Y-56220000D02*
X205811000Y-57380000D01*
X205771000Y-59460000D02*
X205771000Y-60644000D01*
X205771000Y-56196000D02*
X205771000Y-57380000D01*
X205731000Y-59460000D02*
X205731000Y-60667000D01*
X205731000Y-56173000D02*
X205731000Y-57380000D01*
X205691000Y-59460000D02*
X205691000Y-60688000D01*
X205691000Y-56152000D02*
X205691000Y-57380000D01*
X205651000Y-59460000D02*
X205651000Y-60710000D01*
X205651000Y-56130000D02*
X205651000Y-57380000D01*
X205611000Y-59460000D02*
X205611000Y-60730000D01*
X205611000Y-56110000D02*
X205611000Y-57380000D01*
X205571000Y-59460000D02*
X205571000Y-60749000D01*
X205571000Y-56091000D02*
X205571000Y-57380000D01*
X205531000Y-59460000D02*
X205531000Y-60768000D01*
X205531000Y-56072000D02*
X205531000Y-57380000D01*
X205491000Y-59460000D02*
X205491000Y-60785000D01*
X205491000Y-56055000D02*
X205491000Y-57380000D01*
X205451000Y-59460000D02*
X205451000Y-60802000D01*
X205451000Y-56038000D02*
X205451000Y-57380000D01*
X205411000Y-59460000D02*
X205411000Y-60818000D01*
X205411000Y-56022000D02*
X205411000Y-57380000D01*
X205371000Y-59460000D02*
X205371000Y-60834000D01*
X205371000Y-56006000D02*
X205371000Y-57380000D01*
X205331000Y-59460000D02*
X205331000Y-60848000D01*
X205331000Y-55992000D02*
X205331000Y-57380000D01*
X205291000Y-59460000D02*
X205291000Y-60862000D01*
X205291000Y-55978000D02*
X205291000Y-57380000D01*
X205251000Y-59460000D02*
X205251000Y-60875000D01*
X205251000Y-55965000D02*
X205251000Y-57380000D01*
X205211000Y-59460000D02*
X205211000Y-60888000D01*
X205211000Y-55952000D02*
X205211000Y-57380000D01*
X205171000Y-59460000D02*
X205171000Y-60900000D01*
X205171000Y-55940000D02*
X205171000Y-57380000D01*
X205130000Y-59460000D02*
X205130000Y-60911000D01*
X205130000Y-55929000D02*
X205130000Y-57380000D01*
X205090000Y-59460000D02*
X205090000Y-60921000D01*
X205090000Y-55919000D02*
X205090000Y-57380000D01*
X205050000Y-59460000D02*
X205050000Y-60931000D01*
X205050000Y-55909000D02*
X205050000Y-57380000D01*
X205010000Y-59460000D02*
X205010000Y-60940000D01*
X205010000Y-55900000D02*
X205010000Y-57380000D01*
X204970000Y-59460000D02*
X204970000Y-60948000D01*
X204970000Y-55892000D02*
X204970000Y-57380000D01*
X204930000Y-59460000D02*
X204930000Y-60956000D01*
X204930000Y-55884000D02*
X204930000Y-57380000D01*
X204890000Y-59460000D02*
X204890000Y-60963000D01*
X204890000Y-55877000D02*
X204890000Y-57380000D01*
X204850000Y-59460000D02*
X204850000Y-60970000D01*
X204850000Y-55870000D02*
X204850000Y-57380000D01*
X204810000Y-59460000D02*
X204810000Y-60976000D01*
X204810000Y-55864000D02*
X204810000Y-57380000D01*
X204770000Y-59460000D02*
X204770000Y-60981000D01*
X204770000Y-55859000D02*
X204770000Y-57380000D01*
X204730000Y-59460000D02*
X204730000Y-60985000D01*
X204730000Y-55855000D02*
X204730000Y-57380000D01*
X204690000Y-59460000D02*
X204690000Y-60989000D01*
X204690000Y-55851000D02*
X204690000Y-57380000D01*
X204650000Y-55847000D02*
X204650000Y-60993000D01*
X204610000Y-55844000D02*
X204610000Y-60996000D01*
X204570000Y-55842000D02*
X204570000Y-60998000D01*
X204530000Y-55841000D02*
X204530000Y-60999000D01*
X204490000Y-55840000D02*
X204490000Y-61000000D01*
X204450000Y-55840000D02*
X204450000Y-61000000D01*
X207070000Y-58420000D02*
G75*
G03X207070000Y-58420000I-2620000J0D01*
G01*
X222350000Y-58420000D02*
G75*
G03X222350000Y-58420000I-2620000J0D01*
G01*
X219730000Y-61000000D02*
X219730000Y-55840000D01*
X219690000Y-61000000D02*
X219690000Y-55840000D01*
X219650000Y-60999000D02*
X219650000Y-55841000D01*
X219610000Y-60998000D02*
X219610000Y-55842000D01*
X219570000Y-60996000D02*
X219570000Y-55844000D01*
X219530000Y-60993000D02*
X219530000Y-55847000D01*
X219490000Y-60989000D02*
X219490000Y-59460000D01*
X219490000Y-57380000D02*
X219490000Y-55851000D01*
X219450000Y-60985000D02*
X219450000Y-59460000D01*
X219450000Y-57380000D02*
X219450000Y-55855000D01*
X219410000Y-60981000D02*
X219410000Y-59460000D01*
X219410000Y-57380000D02*
X219410000Y-55859000D01*
X219370000Y-60976000D02*
X219370000Y-59460000D01*
X219370000Y-57380000D02*
X219370000Y-55864000D01*
X219330000Y-60970000D02*
X219330000Y-59460000D01*
X219330000Y-57380000D02*
X219330000Y-55870000D01*
X219290000Y-60963000D02*
X219290000Y-59460000D01*
X219290000Y-57380000D02*
X219290000Y-55877000D01*
X219250000Y-60956000D02*
X219250000Y-59460000D01*
X219250000Y-57380000D02*
X219250000Y-55884000D01*
X219210000Y-60948000D02*
X219210000Y-59460000D01*
X219210000Y-57380000D02*
X219210000Y-55892000D01*
X219170000Y-60940000D02*
X219170000Y-59460000D01*
X219170000Y-57380000D02*
X219170000Y-55900000D01*
X219130000Y-60931000D02*
X219130000Y-59460000D01*
X219130000Y-57380000D02*
X219130000Y-55909000D01*
X219090000Y-60921000D02*
X219090000Y-59460000D01*
X219090000Y-57380000D02*
X219090000Y-55919000D01*
X219050000Y-60911000D02*
X219050000Y-59460000D01*
X219050000Y-57380000D02*
X219050000Y-55929000D01*
X219009000Y-60900000D02*
X219009000Y-59460000D01*
X219009000Y-57380000D02*
X219009000Y-55940000D01*
X218969000Y-60888000D02*
X218969000Y-59460000D01*
X218969000Y-57380000D02*
X218969000Y-55952000D01*
X218929000Y-60875000D02*
X218929000Y-59460000D01*
X218929000Y-57380000D02*
X218929000Y-55965000D01*
X218889000Y-60862000D02*
X218889000Y-59460000D01*
X218889000Y-57380000D02*
X218889000Y-55978000D01*
X218849000Y-60848000D02*
X218849000Y-59460000D01*
X218849000Y-57380000D02*
X218849000Y-55992000D01*
X218809000Y-60834000D02*
X218809000Y-59460000D01*
X218809000Y-57380000D02*
X218809000Y-56006000D01*
X218769000Y-60818000D02*
X218769000Y-59460000D01*
X218769000Y-57380000D02*
X218769000Y-56022000D01*
X218729000Y-60802000D02*
X218729000Y-59460000D01*
X218729000Y-57380000D02*
X218729000Y-56038000D01*
X218689000Y-60785000D02*
X218689000Y-59460000D01*
X218689000Y-57380000D02*
X218689000Y-56055000D01*
X218649000Y-60768000D02*
X218649000Y-59460000D01*
X218649000Y-57380000D02*
X218649000Y-56072000D01*
X218609000Y-60749000D02*
X218609000Y-59460000D01*
X218609000Y-57380000D02*
X218609000Y-56091000D01*
X218569000Y-60730000D02*
X218569000Y-59460000D01*
X218569000Y-57380000D02*
X218569000Y-56110000D01*
X218529000Y-60710000D02*
X218529000Y-59460000D01*
X218529000Y-57380000D02*
X218529000Y-56130000D01*
X218489000Y-60688000D02*
X218489000Y-59460000D01*
X218489000Y-57380000D02*
X218489000Y-56152000D01*
X218449000Y-60667000D02*
X218449000Y-59460000D01*
X218449000Y-57380000D02*
X218449000Y-56173000D01*
X218409000Y-60644000D02*
X218409000Y-59460000D01*
X218409000Y-57380000D02*
X218409000Y-56196000D01*
X218369000Y-60620000D02*
X218369000Y-59460000D01*
X218369000Y-57380000D02*
X218369000Y-56220000D01*
X218329000Y-60595000D02*
X218329000Y-59460000D01*
X218329000Y-57380000D02*
X218329000Y-56245000D01*
X218289000Y-60569000D02*
X218289000Y-59460000D01*
X218289000Y-57380000D02*
X218289000Y-56271000D01*
X218249000Y-60542000D02*
X218249000Y-59460000D01*
X218249000Y-57380000D02*
X218249000Y-56298000D01*
X218209000Y-60515000D02*
X218209000Y-59460000D01*
X218209000Y-57380000D02*
X218209000Y-56325000D01*
X218169000Y-60485000D02*
X218169000Y-59460000D01*
X218169000Y-57380000D02*
X218169000Y-56355000D01*
X218129000Y-60455000D02*
X218129000Y-59460000D01*
X218129000Y-57380000D02*
X218129000Y-56385000D01*
X218089000Y-60424000D02*
X218089000Y-59460000D01*
X218089000Y-57380000D02*
X218089000Y-56416000D01*
X218049000Y-60391000D02*
X218049000Y-59460000D01*
X218049000Y-57380000D02*
X218049000Y-56449000D01*
X218009000Y-60357000D02*
X218009000Y-59460000D01*
X218009000Y-57380000D02*
X218009000Y-56483000D01*
X217969000Y-60321000D02*
X217969000Y-59460000D01*
X217969000Y-57380000D02*
X217969000Y-56519000D01*
X217929000Y-60284000D02*
X217929000Y-59460000D01*
X217929000Y-57380000D02*
X217929000Y-56556000D01*
X217889000Y-60246000D02*
X217889000Y-59460000D01*
X217889000Y-57380000D02*
X217889000Y-56594000D01*
X217849000Y-60205000D02*
X217849000Y-59460000D01*
X217849000Y-57380000D02*
X217849000Y-56635000D01*
X217809000Y-60163000D02*
X217809000Y-59460000D01*
X217809000Y-57380000D02*
X217809000Y-56677000D01*
X217769000Y-60119000D02*
X217769000Y-59460000D01*
X217769000Y-57380000D02*
X217769000Y-56721000D01*
X217729000Y-60073000D02*
X217729000Y-59460000D01*
X217729000Y-57380000D02*
X217729000Y-56767000D01*
X217689000Y-60025000D02*
X217689000Y-59460000D01*
X217689000Y-57380000D02*
X217689000Y-56815000D01*
X217649000Y-59974000D02*
X217649000Y-59460000D01*
X217649000Y-57380000D02*
X217649000Y-56866000D01*
X217609000Y-59920000D02*
X217609000Y-59460000D01*
X217609000Y-57380000D02*
X217609000Y-56920000D01*
X217569000Y-59863000D02*
X217569000Y-59460000D01*
X217569000Y-57380000D02*
X217569000Y-56977000D01*
X217529000Y-59803000D02*
X217529000Y-59460000D01*
X217529000Y-57380000D02*
X217529000Y-57037000D01*
X217489000Y-59739000D02*
X217489000Y-59460000D01*
X217489000Y-57380000D02*
X217489000Y-57101000D01*
X217449000Y-59671000D02*
X217449000Y-59460000D01*
X217449000Y-57380000D02*
X217449000Y-57169000D01*
X217409000Y-59598000D02*
X217409000Y-57242000D01*
X217369000Y-59518000D02*
X217369000Y-57322000D01*
X217329000Y-59431000D02*
X217329000Y-57409000D01*
X217289000Y-59335000D02*
X217289000Y-57505000D01*
X217249000Y-59225000D02*
X217249000Y-57615000D01*
X217209000Y-59097000D02*
X217209000Y-57743000D01*
X217169000Y-58938000D02*
X217169000Y-57902000D01*
X217129000Y-58704000D02*
X217129000Y-58136000D01*
X222534775Y-59895000D02*
X222034775Y-59895000D01*
X222284775Y-60145000D02*
X222284775Y-59645000D01*
X235800000Y-38580000D02*
X244800000Y-38580000D01*
X244800000Y-38580000D02*
X244800000Y-47780000D01*
X244800000Y-47780000D02*
X230200000Y-47780000D01*
X230200000Y-47780000D02*
X230200000Y-44980000D01*
X230200000Y-41380000D02*
X230200000Y-38580000D01*
X230200000Y-38580000D02*
X232200000Y-38580000D01*
X231700000Y-48020000D02*
X229960000Y-48020000D01*
X229960000Y-48020000D02*
X229960000Y-46280000D01*
X235355000Y-148860000D02*
X235355000Y-89900000D01*
X235355000Y-89900000D02*
X244705000Y-89900000D01*
X244705000Y-89900000D02*
X244705000Y-148860000D01*
X244705000Y-148860000D02*
X235355000Y-148860000D01*
X244955000Y-149110000D02*
X244955000Y-146570000D01*
X244955000Y-149110000D02*
X242415000Y-149110000D01*
X207550000Y-98020000D02*
X207550000Y-97690000D01*
X207550000Y-97690000D02*
X214090000Y-97690000D01*
X214090000Y-97690000D02*
X214090000Y-98020000D01*
X207550000Y-100100000D02*
X207550000Y-100430000D01*
X207550000Y-100430000D02*
X214090000Y-100430000D01*
X214090000Y-100430000D02*
X214090000Y-100100000D01*
X214090000Y-116940000D02*
X214090000Y-116610000D01*
X207550000Y-116940000D02*
X214090000Y-116940000D01*
X207550000Y-116610000D02*
X207550000Y-116940000D01*
X214090000Y-114200000D02*
X214090000Y-114530000D01*
X207550000Y-114200000D02*
X214090000Y-114200000D01*
X207550000Y-114530000D02*
X207550000Y-114200000D01*
X237720000Y-60460000D02*
X237390000Y-60460000D01*
X237390000Y-60460000D02*
X237390000Y-53920000D01*
X237390000Y-53920000D02*
X237720000Y-53920000D01*
X239800000Y-60460000D02*
X240130000Y-60460000D01*
X240130000Y-60460000D02*
X240130000Y-53920000D01*
X240130000Y-53920000D02*
X239800000Y-53920000D01*
X214090000Y-108050000D02*
X214090000Y-107720000D01*
X207550000Y-108050000D02*
X214090000Y-108050000D01*
X207550000Y-107720000D02*
X207550000Y-108050000D01*
X214090000Y-105310000D02*
X214090000Y-105640000D01*
X207550000Y-105310000D02*
X214090000Y-105310000D01*
X207550000Y-105640000D02*
X207550000Y-105310000D01*
X207550000Y-122150000D02*
X207550000Y-121820000D01*
X207550000Y-121820000D02*
X214090000Y-121820000D01*
X214090000Y-121820000D02*
X214090000Y-122150000D01*
X207550000Y-124230000D02*
X207550000Y-124560000D01*
X207550000Y-124560000D02*
X214090000Y-124560000D01*
X214090000Y-124560000D02*
X214090000Y-124230000D01*
X229770000Y-60420000D02*
X230100000Y-60420000D01*
X229770000Y-53880000D02*
X229770000Y-60420000D01*
X230100000Y-53880000D02*
X229770000Y-53880000D01*
X232510000Y-60420000D02*
X232180000Y-60420000D01*
X232510000Y-53880000D02*
X232510000Y-60420000D01*
X232180000Y-53880000D02*
X232510000Y-53880000D01*
X149730000Y-77640000D02*
X152530000Y-77640000D01*
X152530000Y-77640000D02*
X152530000Y-54440000D01*
X152530000Y-54440000D02*
X149730000Y-54440000D01*
X149730000Y-54440000D02*
X149730000Y-77640000D01*
X149730000Y-74930000D02*
X152530000Y-74930000D01*
X126870000Y-74930000D02*
X129670000Y-74930000D01*
X126870000Y-54440000D02*
X126870000Y-77640000D01*
X129670000Y-54440000D02*
X126870000Y-54440000D01*
X129670000Y-77640000D02*
X129670000Y-54440000D01*
X126870000Y-77640000D02*
X129670000Y-77640000D01*
X185290000Y-77640000D02*
X188090000Y-77640000D01*
X188090000Y-77640000D02*
X188090000Y-54440000D01*
X188090000Y-54440000D02*
X185290000Y-54440000D01*
X185290000Y-54440000D02*
X185290000Y-77640000D01*
X185290000Y-74930000D02*
X188090000Y-74930000D01*
X162430000Y-74930000D02*
X165230000Y-74930000D01*
X162430000Y-54440000D02*
X162430000Y-77640000D01*
X165230000Y-54440000D02*
X162430000Y-54440000D01*
X165230000Y-77640000D02*
X165230000Y-54440000D01*
X162430000Y-77640000D02*
X165230000Y-77640000D01*
X142350000Y-54550000D02*
X140700000Y-54550000D01*
X142350000Y-90230000D02*
X142350000Y-54550000D01*
X137050000Y-90230000D02*
X142350000Y-90230000D01*
X137050000Y-54550000D02*
X137050000Y-90230000D01*
X138700000Y-54550000D02*
X137050000Y-54550000D01*
X140700000Y-54550000D02*
G75*
G02X138700000Y-54550000I-1000000J0D01*
G01*
X177910000Y-54550000D02*
X176260000Y-54550000D01*
X177910000Y-90230000D02*
X177910000Y-54550000D01*
X172610000Y-90230000D02*
X177910000Y-90230000D01*
X172610000Y-54550000D02*
X172610000Y-90230000D01*
X174260000Y-54550000D02*
X172610000Y-54550000D01*
X176260000Y-54550000D02*
G75*
G02X174260000Y-54550000I-1000000J0D01*
G01*
X203200000Y-72270000D02*
X203200000Y-69730000D01*
X205740000Y-72270000D02*
X205740000Y-69730000D01*
X208280000Y-72270000D02*
X208280000Y-69730000D01*
X200620000Y-88160000D02*
X200620000Y-72270000D01*
X210860000Y-88160000D02*
X210860000Y-72270000D01*
X210860000Y-88160000D02*
X200620000Y-88160000D01*
X210860000Y-72270000D02*
X200620000Y-72270000D01*
X231180000Y-72270000D02*
X220940000Y-72270000D01*
X231180000Y-88160000D02*
X220940000Y-88160000D01*
X231180000Y-88160000D02*
X231180000Y-72270000D01*
X220940000Y-88160000D02*
X220940000Y-72270000D01*
X228600000Y-72270000D02*
X228600000Y-69730000D01*
X226060000Y-72270000D02*
X226060000Y-69730000D01*
X223520000Y-72270000D02*
X223520000Y-69730000D01*
X215790000Y-140480000D02*
X215790000Y-146500000D01*
X215790000Y-146500000D02*
X226170000Y-146500000D01*
X226170000Y-146500000D02*
X226170000Y-140480000D01*
X226170000Y-140480000D02*
X215790000Y-140480000D01*
X215500000Y-141510000D02*
X215500000Y-145510000D01*
X217170000Y-146500000D02*
X217170000Y-145500000D01*
X217170000Y-145500000D02*
X224790000Y-145500000D01*
X224790000Y-145500000D02*
X224790000Y-146500000D01*
X217170000Y-145500000D02*
X217420000Y-144970000D01*
X217420000Y-144970000D02*
X224540000Y-144970000D01*
X224540000Y-144970000D02*
X224790000Y-145500000D01*
X217420000Y-146500000D02*
X217420000Y-145500000D01*
X224540000Y-146500000D02*
X224540000Y-145500000D01*
X216370000Y-140480000D02*
X216370000Y-141080000D01*
X216370000Y-141080000D02*
X217970000Y-141080000D01*
X217970000Y-141080000D02*
X217970000Y-140480000D01*
X218910000Y-140480000D02*
X218910000Y-141080000D01*
X218910000Y-141080000D02*
X220510000Y-141080000D01*
X220510000Y-141080000D02*
X220510000Y-140480000D01*
X221450000Y-140480000D02*
X221450000Y-141080000D01*
X221450000Y-141080000D02*
X223050000Y-141080000D01*
X223050000Y-141080000D02*
X223050000Y-140480000D01*
X223990000Y-140480000D02*
X223990000Y-141080000D01*
X223990000Y-141080000D02*
X225590000Y-141080000D01*
X225590000Y-141080000D02*
X225590000Y-140480000D01*
X137450000Y-44130000D02*
X137450000Y-34780000D01*
X156480000Y-44130000D02*
X122920000Y-44130000D01*
X156480000Y-44130000D02*
X156480000Y-34780000D01*
X141950000Y-44130000D02*
X141950000Y-34780000D01*
X122920000Y-44130000D02*
X122920000Y-34780000D01*
X122920000Y-34780000D02*
X156480000Y-34780000D01*
X127000000Y-48260000D02*
X127000000Y-49530000D01*
X127000000Y-49530000D02*
X128270000Y-49530000D01*
X118170000Y-107890000D02*
X115510000Y-107890000D01*
X118170000Y-110490000D02*
X118170000Y-107890000D01*
X115510000Y-110490000D02*
X115510000Y-107890000D01*
X118170000Y-110490000D02*
X115510000Y-110490000D01*
X118170000Y-111760000D02*
X118170000Y-113090000D01*
X118170000Y-113090000D02*
X116840000Y-113090000D01*
X155000000Y-87570000D02*
X155000000Y-88900000D01*
X153670000Y-87570000D02*
X155000000Y-87570000D01*
X152400000Y-87570000D02*
X152400000Y-90230000D01*
X152400000Y-90230000D02*
X147260000Y-90230000D01*
X152400000Y-87570000D02*
X147260000Y-87570000D01*
X147260000Y-87570000D02*
X147260000Y-90230000D01*
X124400000Y-87570000D02*
X124400000Y-90230000D01*
X129540000Y-87570000D02*
X124400000Y-87570000D01*
X129540000Y-90230000D02*
X124400000Y-90230000D01*
X129540000Y-87570000D02*
X129540000Y-90230000D01*
X130810000Y-87570000D02*
X132140000Y-87570000D01*
X132140000Y-87570000D02*
X132140000Y-88900000D01*
X162560000Y-49530000D02*
X163830000Y-49530000D01*
X162560000Y-48260000D02*
X162560000Y-49530000D01*
X158480000Y-34780000D02*
X192040000Y-34780000D01*
X158480000Y-44130000D02*
X158480000Y-34780000D01*
X177510000Y-44130000D02*
X177510000Y-34780000D01*
X192040000Y-44130000D02*
X192040000Y-34780000D01*
X192040000Y-44130000D02*
X158480000Y-44130000D01*
X173010000Y-44130000D02*
X173010000Y-34780000D01*
X182820000Y-87570000D02*
X182820000Y-90230000D01*
X187960000Y-87570000D02*
X182820000Y-87570000D01*
X187960000Y-90230000D02*
X182820000Y-90230000D01*
X187960000Y-87570000D02*
X187960000Y-90230000D01*
X189230000Y-87570000D02*
X190560000Y-87570000D01*
X190560000Y-87570000D02*
X190560000Y-88900000D01*
X167700000Y-87570000D02*
X167700000Y-88900000D01*
X166370000Y-87570000D02*
X167700000Y-87570000D01*
X165100000Y-87570000D02*
X165100000Y-90230000D01*
X165100000Y-90230000D02*
X159960000Y-90230000D01*
X165100000Y-87570000D02*
X159960000Y-87570000D01*
X159960000Y-87570000D02*
X159960000Y-90230000D01*
X141950000Y-147640000D02*
X141950000Y-156990000D01*
X122920000Y-147640000D02*
X156480000Y-147640000D01*
X122920000Y-147640000D02*
X122920000Y-156990000D01*
X137450000Y-147640000D02*
X137450000Y-156990000D01*
X156480000Y-147640000D02*
X156480000Y-156990000D01*
X156480000Y-156990000D02*
X122920000Y-156990000D01*
X152400000Y-143510000D02*
X152400000Y-142240000D01*
X152400000Y-142240000D02*
X151130000Y-142240000D01*
X124400000Y-104200000D02*
X124400000Y-102870000D01*
X125730000Y-104200000D02*
X124400000Y-104200000D01*
X127000000Y-104200000D02*
X127000000Y-101540000D01*
X127000000Y-101540000D02*
X132140000Y-101540000D01*
X127000000Y-104200000D02*
X132140000Y-104200000D01*
X132140000Y-104200000D02*
X132140000Y-101540000D01*
X147260000Y-104200000D02*
X147260000Y-102870000D01*
X148590000Y-104200000D02*
X147260000Y-104200000D01*
X149860000Y-104200000D02*
X149860000Y-101540000D01*
X149860000Y-101540000D02*
X155000000Y-101540000D01*
X149860000Y-104200000D02*
X155000000Y-104200000D01*
X155000000Y-104200000D02*
X155000000Y-101540000D01*
X187960000Y-142240000D02*
X186690000Y-142240000D01*
X187960000Y-143510000D02*
X187960000Y-142240000D01*
X192040000Y-156990000D02*
X158480000Y-156990000D01*
X192040000Y-147640000D02*
X192040000Y-156990000D01*
X173010000Y-147640000D02*
X173010000Y-156990000D01*
X158480000Y-147640000D02*
X158480000Y-156990000D01*
X158480000Y-147640000D02*
X192040000Y-147640000D01*
X177510000Y-147640000D02*
X177510000Y-156990000D01*
X167700000Y-104200000D02*
X167700000Y-101540000D01*
X162560000Y-104200000D02*
X167700000Y-104200000D01*
X162560000Y-101540000D02*
X167700000Y-101540000D01*
X162560000Y-104200000D02*
X162560000Y-101540000D01*
X161290000Y-104200000D02*
X159960000Y-104200000D01*
X159960000Y-104200000D02*
X159960000Y-102870000D01*
X190560000Y-104200000D02*
X190560000Y-101540000D01*
X185420000Y-104200000D02*
X190560000Y-104200000D01*
X185420000Y-101540000D02*
X190560000Y-101540000D01*
X185420000Y-104200000D02*
X185420000Y-101540000D01*
X184150000Y-104200000D02*
X182820000Y-104200000D01*
X182820000Y-104200000D02*
X182820000Y-102870000D01*
X115440000Y-103040000D02*
X118240000Y-103040000D01*
X118240000Y-103040000D02*
X118240000Y-90000000D01*
X118240000Y-90000000D02*
X115440000Y-90000000D01*
X115440000Y-90000000D02*
X115440000Y-103040000D01*
X115440000Y-100330000D02*
X118240000Y-100330000D01*
X152530000Y-114130000D02*
X149730000Y-114130000D01*
X149730000Y-114130000D02*
X149730000Y-137330000D01*
X149730000Y-137330000D02*
X152530000Y-137330000D01*
X152530000Y-137330000D02*
X152530000Y-114130000D01*
X152530000Y-116840000D02*
X149730000Y-116840000D01*
X129670000Y-114130000D02*
X126870000Y-114130000D01*
X126870000Y-114130000D02*
X126870000Y-137330000D01*
X126870000Y-137330000D02*
X129670000Y-137330000D01*
X129670000Y-137330000D02*
X129670000Y-114130000D01*
X129670000Y-116840000D02*
X126870000Y-116840000D01*
X188090000Y-116840000D02*
X185290000Y-116840000D01*
X188090000Y-137330000D02*
X188090000Y-114130000D01*
X185290000Y-137330000D02*
X188090000Y-137330000D01*
X185290000Y-114130000D02*
X185290000Y-137330000D01*
X188090000Y-114130000D02*
X185290000Y-114130000D01*
X165230000Y-116840000D02*
X162430000Y-116840000D01*
X165230000Y-137330000D02*
X165230000Y-114130000D01*
X162430000Y-137330000D02*
X165230000Y-137330000D01*
X162430000Y-114130000D02*
X162430000Y-137330000D01*
X165230000Y-114130000D02*
X162430000Y-114130000D01*
X138700000Y-137220000D02*
G75*
G02X140700000Y-137220000I1000000J0D01*
G01*
X140700000Y-137220000D02*
X142350000Y-137220000D01*
X142350000Y-137220000D02*
X142350000Y-101540000D01*
X142350000Y-101540000D02*
X137050000Y-101540000D01*
X137050000Y-101540000D02*
X137050000Y-137220000D01*
X137050000Y-137220000D02*
X138700000Y-137220000D01*
X172610000Y-137220000D02*
X174260000Y-137220000D01*
X172610000Y-101540000D02*
X172610000Y-137220000D01*
X177910000Y-101540000D02*
X172610000Y-101540000D01*
X177910000Y-137220000D02*
X177910000Y-101540000D01*
X176260000Y-137220000D02*
X177910000Y-137220000D01*
X174260000Y-137220000D02*
G75*
G02X176260000Y-137220000I1000000J0D01*
G01*
X205740000Y-46990000D02*
X205740000Y-39370000D01*
X220980000Y-46990000D02*
X220980000Y-39370000D01*
X205740000Y-45720000D02*
X220980000Y-45720000D01*
X205740000Y-39370000D02*
X220980000Y-39370000D01*
X205740000Y-46990000D02*
X220980000Y-46990000D01*
D10*
X226357619Y-119475238D02*
X226310000Y-119570476D01*
X226214761Y-119665714D01*
X226071904Y-119808571D01*
X226024285Y-119903809D01*
X226024285Y-119999047D01*
X226262380Y-119951428D02*
X226214761Y-120046666D01*
X226119523Y-120141904D01*
X225929047Y-120189523D01*
X225595714Y-120189523D01*
X225405238Y-120141904D01*
X225310000Y-120046666D01*
X225262380Y-119951428D01*
X225262380Y-119760952D01*
X225310000Y-119665714D01*
X225405238Y-119570476D01*
X225595714Y-119522857D01*
X225929047Y-119522857D01*
X226119523Y-119570476D01*
X226214761Y-119665714D01*
X226262380Y-119760952D01*
X226262380Y-119951428D01*
X225357619Y-119141904D02*
X225310000Y-119094285D01*
X225262380Y-118999047D01*
X225262380Y-118760952D01*
X225310000Y-118665714D01*
X225357619Y-118618095D01*
X225452857Y-118570476D01*
X225548095Y-118570476D01*
X225690952Y-118618095D01*
X226262380Y-119189523D01*
X226262380Y-118570476D01*
X226357619Y-102965238D02*
X226310000Y-103060476D01*
X226214761Y-103155714D01*
X226071904Y-103298571D01*
X226024285Y-103393809D01*
X226024285Y-103489047D01*
X226262380Y-103441428D02*
X226214761Y-103536666D01*
X226119523Y-103631904D01*
X225929047Y-103679523D01*
X225595714Y-103679523D01*
X225405238Y-103631904D01*
X225310000Y-103536666D01*
X225262380Y-103441428D01*
X225262380Y-103250952D01*
X225310000Y-103155714D01*
X225405238Y-103060476D01*
X225595714Y-103012857D01*
X225929047Y-103012857D01*
X226119523Y-103060476D01*
X226214761Y-103155714D01*
X226262380Y-103250952D01*
X226262380Y-103441428D01*
X226262380Y-102060476D02*
X226262380Y-102631904D01*
X226262380Y-102346190D02*
X225262380Y-102346190D01*
X225405238Y-102441428D01*
X225500476Y-102536666D01*
X225548095Y-102631904D01*
X215090476Y-70572380D02*
X215090476Y-71286666D01*
X215042857Y-71429523D01*
X214947619Y-71524761D01*
X214804761Y-71572380D01*
X214709523Y-71572380D01*
X215519047Y-70667619D02*
X215566666Y-70620000D01*
X215661904Y-70572380D01*
X215900000Y-70572380D01*
X215995238Y-70620000D01*
X216042857Y-70667619D01*
X216090476Y-70762857D01*
X216090476Y-70858095D01*
X216042857Y-71000952D01*
X215471428Y-71572380D01*
X216090476Y-71572380D01*
X216471428Y-70667619D02*
X216519047Y-70620000D01*
X216614285Y-70572380D01*
X216852380Y-70572380D01*
X216947619Y-70620000D01*
X216995238Y-70667619D01*
X217042857Y-70762857D01*
X217042857Y-70858095D01*
X216995238Y-71000952D01*
X216423809Y-71572380D01*
X217042857Y-71572380D01*
X231600476Y-157567380D02*
X231600476Y-158281666D01*
X231552857Y-158424523D01*
X231457619Y-158519761D01*
X231314761Y-158567380D01*
X231219523Y-158567380D01*
X232029047Y-157662619D02*
X232076666Y-157615000D01*
X232171904Y-157567380D01*
X232410000Y-157567380D01*
X232505238Y-157615000D01*
X232552857Y-157662619D01*
X232600476Y-157757857D01*
X232600476Y-157853095D01*
X232552857Y-157995952D01*
X231981428Y-158567380D01*
X232600476Y-158567380D01*
X233552857Y-158567380D02*
X232981428Y-158567380D01*
X233267142Y-158567380D02*
X233267142Y-157567380D01*
X233171904Y-157710238D01*
X233076666Y-157805476D01*
X232981428Y-157853095D01*
X214082380Y-155749523D02*
X214796666Y-155749523D01*
X214939523Y-155797142D01*
X215034761Y-155892380D01*
X215082380Y-156035238D01*
X215082380Y-156130476D01*
X215082380Y-154749523D02*
X215082380Y-155320952D01*
X215082380Y-155035238D02*
X214082380Y-155035238D01*
X214225238Y-155130476D01*
X214320476Y-155225714D01*
X214368095Y-155320952D01*
X214510952Y-154178095D02*
X214463333Y-154273333D01*
X214415714Y-154320952D01*
X214320476Y-154368571D01*
X214272857Y-154368571D01*
X214177619Y-154320952D01*
X214130000Y-154273333D01*
X214082380Y-154178095D01*
X214082380Y-153987619D01*
X214130000Y-153892380D01*
X214177619Y-153844761D01*
X214272857Y-153797142D01*
X214320476Y-153797142D01*
X214415714Y-153844761D01*
X214463333Y-153892380D01*
X214510952Y-153987619D01*
X214510952Y-154178095D01*
X214558571Y-154273333D01*
X214606190Y-154320952D01*
X214701428Y-154368571D01*
X214891904Y-154368571D01*
X214987142Y-154320952D01*
X215034761Y-154273333D01*
X215082380Y-154178095D01*
X215082380Y-153987619D01*
X215034761Y-153892380D01*
X214987142Y-153844761D01*
X214891904Y-153797142D01*
X214701428Y-153797142D01*
X214606190Y-153844761D01*
X214558571Y-153892380D01*
X214510952Y-153987619D01*
X198842380Y-155749523D02*
X199556666Y-155749523D01*
X199699523Y-155797142D01*
X199794761Y-155892380D01*
X199842380Y-156035238D01*
X199842380Y-156130476D01*
X199842380Y-154749523D02*
X199842380Y-155320952D01*
X199842380Y-155035238D02*
X198842380Y-155035238D01*
X198985238Y-155130476D01*
X199080476Y-155225714D01*
X199128095Y-155320952D01*
X198842380Y-154416190D02*
X198842380Y-153749523D01*
X199842380Y-154178095D01*
X198842380Y-144319523D02*
X199556666Y-144319523D01*
X199699523Y-144367142D01*
X199794761Y-144462380D01*
X199842380Y-144605238D01*
X199842380Y-144700476D01*
X199842380Y-143319523D02*
X199842380Y-143890952D01*
X199842380Y-143605238D02*
X198842380Y-143605238D01*
X198985238Y-143700476D01*
X199080476Y-143795714D01*
X199128095Y-143890952D01*
X198842380Y-142462380D02*
X198842380Y-142652857D01*
X198890000Y-142748095D01*
X198937619Y-142795714D01*
X199080476Y-142890952D01*
X199270952Y-142938571D01*
X199651904Y-142938571D01*
X199747142Y-142890952D01*
X199794761Y-142843333D01*
X199842380Y-142748095D01*
X199842380Y-142557619D01*
X199794761Y-142462380D01*
X199747142Y-142414761D01*
X199651904Y-142367142D01*
X199413809Y-142367142D01*
X199318571Y-142414761D01*
X199270952Y-142462380D01*
X199223333Y-142557619D01*
X199223333Y-142748095D01*
X199270952Y-142843333D01*
X199318571Y-142890952D01*
X199413809Y-142938571D01*
X211923333Y-61317142D02*
X211875714Y-61364761D01*
X211732857Y-61412380D01*
X211637619Y-61412380D01*
X211494761Y-61364761D01*
X211399523Y-61269523D01*
X211351904Y-61174285D01*
X211304285Y-60983809D01*
X211304285Y-60840952D01*
X211351904Y-60650476D01*
X211399523Y-60555238D01*
X211494761Y-60460000D01*
X211637619Y-60412380D01*
X211732857Y-60412380D01*
X211875714Y-60460000D01*
X211923333Y-60507619D01*
X212875714Y-61412380D02*
X212304285Y-61412380D01*
X212590000Y-61412380D02*
X212590000Y-60412380D01*
X212494761Y-60555238D01*
X212399523Y-60650476D01*
X212304285Y-60698095D01*
X204283333Y-54967142D02*
X204235714Y-55014761D01*
X204092857Y-55062380D01*
X203997619Y-55062380D01*
X203854761Y-55014761D01*
X203759523Y-54919523D01*
X203711904Y-54824285D01*
X203664285Y-54633809D01*
X203664285Y-54490952D01*
X203711904Y-54300476D01*
X203759523Y-54205238D01*
X203854761Y-54110000D01*
X203997619Y-54062380D01*
X204092857Y-54062380D01*
X204235714Y-54110000D01*
X204283333Y-54157619D01*
X204664285Y-54157619D02*
X204711904Y-54110000D01*
X204807142Y-54062380D01*
X205045238Y-54062380D01*
X205140476Y-54110000D01*
X205188095Y-54157619D01*
X205235714Y-54252857D01*
X205235714Y-54348095D01*
X205188095Y-54490952D01*
X204616666Y-55062380D01*
X205235714Y-55062380D01*
X219543333Y-62587142D02*
X219495714Y-62634761D01*
X219352857Y-62682380D01*
X219257619Y-62682380D01*
X219114761Y-62634761D01*
X219019523Y-62539523D01*
X218971904Y-62444285D01*
X218924285Y-62253809D01*
X218924285Y-62110952D01*
X218971904Y-61920476D01*
X219019523Y-61825238D01*
X219114761Y-61730000D01*
X219257619Y-61682380D01*
X219352857Y-61682380D01*
X219495714Y-61730000D01*
X219543333Y-61777619D01*
X219876666Y-61682380D02*
X220495714Y-61682380D01*
X220162380Y-62063333D01*
X220305238Y-62063333D01*
X220400476Y-62110952D01*
X220448095Y-62158571D01*
X220495714Y-62253809D01*
X220495714Y-62491904D01*
X220448095Y-62587142D01*
X220400476Y-62634761D01*
X220305238Y-62682380D01*
X220019523Y-62682380D01*
X219924285Y-62634761D01*
X219876666Y-62587142D01*
X245342380Y-43989523D02*
X246056666Y-43989523D01*
X246199523Y-44037142D01*
X246294761Y-44132380D01*
X246342380Y-44275238D01*
X246342380Y-44370476D01*
X246342380Y-42989523D02*
X246342380Y-43560952D01*
X246342380Y-43275238D02*
X245342380Y-43275238D01*
X245485238Y-43370476D01*
X245580476Y-43465714D01*
X245628095Y-43560952D01*
X245675714Y-42132380D02*
X246342380Y-42132380D01*
X245294761Y-42370476D02*
X246009047Y-42608571D01*
X246009047Y-41989523D01*
X239220476Y-149312380D02*
X239220476Y-150026666D01*
X239172857Y-150169523D01*
X239077619Y-150264761D01*
X238934761Y-150312380D01*
X238839523Y-150312380D01*
X240220476Y-150312380D02*
X239649047Y-150312380D01*
X239934761Y-150312380D02*
X239934761Y-149312380D01*
X239839523Y-149455238D01*
X239744285Y-149550476D01*
X239649047Y-149598095D01*
X241125238Y-149312380D02*
X240649047Y-149312380D01*
X240601428Y-149788571D01*
X240649047Y-149740952D01*
X240744285Y-149693333D01*
X240982380Y-149693333D01*
X241077619Y-149740952D01*
X241125238Y-149788571D01*
X241172857Y-149883809D01*
X241172857Y-150121904D01*
X241125238Y-150217142D01*
X241077619Y-150264761D01*
X240982380Y-150312380D01*
X240744285Y-150312380D01*
X240649047Y-150264761D01*
X240601428Y-150217142D01*
X210653333Y-99512380D02*
X210320000Y-99036190D01*
X210081904Y-99512380D02*
X210081904Y-98512380D01*
X210462857Y-98512380D01*
X210558095Y-98560000D01*
X210605714Y-98607619D01*
X210653333Y-98702857D01*
X210653333Y-98845714D01*
X210605714Y-98940952D01*
X210558095Y-98988571D01*
X210462857Y-99036190D01*
X210081904Y-99036190D01*
X211605714Y-99512380D02*
X211034285Y-99512380D01*
X211320000Y-99512380D02*
X211320000Y-98512380D01*
X211224761Y-98655238D01*
X211129523Y-98750476D01*
X211034285Y-98798095D01*
X210653333Y-116022380D02*
X210320000Y-115546190D01*
X210081904Y-116022380D02*
X210081904Y-115022380D01*
X210462857Y-115022380D01*
X210558095Y-115070000D01*
X210605714Y-115117619D01*
X210653333Y-115212857D01*
X210653333Y-115355714D01*
X210605714Y-115450952D01*
X210558095Y-115498571D01*
X210462857Y-115546190D01*
X210081904Y-115546190D01*
X211034285Y-115117619D02*
X211081904Y-115070000D01*
X211177142Y-115022380D01*
X211415238Y-115022380D01*
X211510476Y-115070000D01*
X211558095Y-115117619D01*
X211605714Y-115212857D01*
X211605714Y-115308095D01*
X211558095Y-115450952D01*
X210986666Y-116022380D01*
X211605714Y-116022380D01*
X239212380Y-57356666D02*
X238736190Y-57690000D01*
X239212380Y-57928095D02*
X238212380Y-57928095D01*
X238212380Y-57547142D01*
X238260000Y-57451904D01*
X238307619Y-57404285D01*
X238402857Y-57356666D01*
X238545714Y-57356666D01*
X238640952Y-57404285D01*
X238688571Y-57451904D01*
X238736190Y-57547142D01*
X238736190Y-57928095D01*
X238212380Y-57023333D02*
X238212380Y-56404285D01*
X238593333Y-56737619D01*
X238593333Y-56594761D01*
X238640952Y-56499523D01*
X238688571Y-56451904D01*
X238783809Y-56404285D01*
X239021904Y-56404285D01*
X239117142Y-56451904D01*
X239164761Y-56499523D01*
X239212380Y-56594761D01*
X239212380Y-56880476D01*
X239164761Y-56975714D01*
X239117142Y-57023333D01*
X210653333Y-107132380D02*
X210320000Y-106656190D01*
X210081904Y-107132380D02*
X210081904Y-106132380D01*
X210462857Y-106132380D01*
X210558095Y-106180000D01*
X210605714Y-106227619D01*
X210653333Y-106322857D01*
X210653333Y-106465714D01*
X210605714Y-106560952D01*
X210558095Y-106608571D01*
X210462857Y-106656190D01*
X210081904Y-106656190D01*
X211510476Y-106465714D02*
X211510476Y-107132380D01*
X211272380Y-106084761D02*
X211034285Y-106799047D01*
X211653333Y-106799047D01*
X210653333Y-123642380D02*
X210320000Y-123166190D01*
X210081904Y-123642380D02*
X210081904Y-122642380D01*
X210462857Y-122642380D01*
X210558095Y-122690000D01*
X210605714Y-122737619D01*
X210653333Y-122832857D01*
X210653333Y-122975714D01*
X210605714Y-123070952D01*
X210558095Y-123118571D01*
X210462857Y-123166190D01*
X210081904Y-123166190D01*
X211558095Y-122642380D02*
X211081904Y-122642380D01*
X211034285Y-123118571D01*
X211081904Y-123070952D01*
X211177142Y-123023333D01*
X211415238Y-123023333D01*
X211510476Y-123070952D01*
X211558095Y-123118571D01*
X211605714Y-123213809D01*
X211605714Y-123451904D01*
X211558095Y-123547142D01*
X211510476Y-123594761D01*
X211415238Y-123642380D01*
X211177142Y-123642380D01*
X211081904Y-123594761D01*
X211034285Y-123547142D01*
X231592380Y-57316666D02*
X231116190Y-57650000D01*
X231592380Y-57888095D02*
X230592380Y-57888095D01*
X230592380Y-57507142D01*
X230640000Y-57411904D01*
X230687619Y-57364285D01*
X230782857Y-57316666D01*
X230925714Y-57316666D01*
X231020952Y-57364285D01*
X231068571Y-57411904D01*
X231116190Y-57507142D01*
X231116190Y-57888095D01*
X230592380Y-56459523D02*
X230592380Y-56650000D01*
X230640000Y-56745238D01*
X230687619Y-56792857D01*
X230830476Y-56888095D01*
X231020952Y-56935714D01*
X231401904Y-56935714D01*
X231497142Y-56888095D01*
X231544761Y-56840476D01*
X231592380Y-56745238D01*
X231592380Y-56554761D01*
X231544761Y-56459523D01*
X231497142Y-56411904D01*
X231401904Y-56364285D01*
X231163809Y-56364285D01*
X231068571Y-56411904D01*
X231020952Y-56459523D01*
X230973333Y-56554761D01*
X230973333Y-56745238D01*
X231020952Y-56840476D01*
X231068571Y-56888095D01*
X231163809Y-56935714D01*
X154122380Y-65460476D02*
X153646190Y-65793809D01*
X154122380Y-66031904D02*
X153122380Y-66031904D01*
X153122380Y-65650952D01*
X153170000Y-65555714D01*
X153217619Y-65508095D01*
X153312857Y-65460476D01*
X153455714Y-65460476D01*
X153550952Y-65508095D01*
X153598571Y-65555714D01*
X153646190Y-65650952D01*
X153646190Y-66031904D01*
X154122380Y-65031904D02*
X153122380Y-65031904D01*
X154122380Y-64460476D01*
X153122380Y-64460476D01*
X153122380Y-64079523D02*
X153122380Y-63460476D01*
X153503333Y-63793809D01*
X153503333Y-63650952D01*
X153550952Y-63555714D01*
X153598571Y-63508095D01*
X153693809Y-63460476D01*
X153931904Y-63460476D01*
X154027142Y-63508095D01*
X154074761Y-63555714D01*
X154122380Y-63650952D01*
X154122380Y-63936666D01*
X154074761Y-64031904D01*
X154027142Y-64079523D01*
X126182380Y-65460476D02*
X125706190Y-65793809D01*
X126182380Y-66031904D02*
X125182380Y-66031904D01*
X125182380Y-65650952D01*
X125230000Y-65555714D01*
X125277619Y-65508095D01*
X125372857Y-65460476D01*
X125515714Y-65460476D01*
X125610952Y-65508095D01*
X125658571Y-65555714D01*
X125706190Y-65650952D01*
X125706190Y-66031904D01*
X126182380Y-65031904D02*
X125182380Y-65031904D01*
X126182380Y-64460476D01*
X125182380Y-64460476D01*
X126182380Y-63460476D02*
X126182380Y-64031904D01*
X126182380Y-63746190D02*
X125182380Y-63746190D01*
X125325238Y-63841428D01*
X125420476Y-63936666D01*
X125468095Y-64031904D01*
X189682380Y-65460476D02*
X189206190Y-65793809D01*
X189682380Y-66031904D02*
X188682380Y-66031904D01*
X188682380Y-65650952D01*
X188730000Y-65555714D01*
X188777619Y-65508095D01*
X188872857Y-65460476D01*
X189015714Y-65460476D01*
X189110952Y-65508095D01*
X189158571Y-65555714D01*
X189206190Y-65650952D01*
X189206190Y-66031904D01*
X189682380Y-65031904D02*
X188682380Y-65031904D01*
X189682380Y-64460476D01*
X188682380Y-64460476D01*
X188682380Y-63508095D02*
X188682380Y-63984285D01*
X189158571Y-64031904D01*
X189110952Y-63984285D01*
X189063333Y-63889047D01*
X189063333Y-63650952D01*
X189110952Y-63555714D01*
X189158571Y-63508095D01*
X189253809Y-63460476D01*
X189491904Y-63460476D01*
X189587142Y-63508095D01*
X189634761Y-63555714D01*
X189682380Y-63650952D01*
X189682380Y-63889047D01*
X189634761Y-63984285D01*
X189587142Y-64031904D01*
X161742380Y-65460476D02*
X161266190Y-65793809D01*
X161742380Y-66031904D02*
X160742380Y-66031904D01*
X160742380Y-65650952D01*
X160790000Y-65555714D01*
X160837619Y-65508095D01*
X160932857Y-65460476D01*
X161075714Y-65460476D01*
X161170952Y-65508095D01*
X161218571Y-65555714D01*
X161266190Y-65650952D01*
X161266190Y-66031904D01*
X161742380Y-65031904D02*
X160742380Y-65031904D01*
X161742380Y-64460476D01*
X160742380Y-64460476D01*
X161075714Y-63555714D02*
X161742380Y-63555714D01*
X160694761Y-63793809D02*
X161409047Y-64031904D01*
X161409047Y-63412857D01*
X138938095Y-53002380D02*
X138938095Y-53811904D01*
X138985714Y-53907142D01*
X139033333Y-53954761D01*
X139128571Y-54002380D01*
X139319047Y-54002380D01*
X139414285Y-53954761D01*
X139461904Y-53907142D01*
X139509523Y-53811904D01*
X139509523Y-53002380D01*
X140509523Y-54002380D02*
X139938095Y-54002380D01*
X140223809Y-54002380D02*
X140223809Y-53002380D01*
X140128571Y-53145238D01*
X140033333Y-53240476D01*
X139938095Y-53288095D01*
X174498095Y-53002380D02*
X174498095Y-53811904D01*
X174545714Y-53907142D01*
X174593333Y-53954761D01*
X174688571Y-54002380D01*
X174879047Y-54002380D01*
X174974285Y-53954761D01*
X175021904Y-53907142D01*
X175069523Y-53811904D01*
X175069523Y-53002380D01*
X175498095Y-53097619D02*
X175545714Y-53050000D01*
X175640952Y-53002380D01*
X175879047Y-53002380D01*
X175974285Y-53050000D01*
X176021904Y-53097619D01*
X176069523Y-53192857D01*
X176069523Y-53288095D01*
X176021904Y-53430952D01*
X175450476Y-54002380D01*
X176069523Y-54002380D01*
X204978095Y-88612380D02*
X204978095Y-89421904D01*
X205025714Y-89517142D01*
X205073333Y-89564761D01*
X205168571Y-89612380D01*
X205359047Y-89612380D01*
X205454285Y-89564761D01*
X205501904Y-89517142D01*
X205549523Y-89421904D01*
X205549523Y-88612380D01*
X206501904Y-88612380D02*
X206025714Y-88612380D01*
X205978095Y-89088571D01*
X206025714Y-89040952D01*
X206120952Y-88993333D01*
X206359047Y-88993333D01*
X206454285Y-89040952D01*
X206501904Y-89088571D01*
X206549523Y-89183809D01*
X206549523Y-89421904D01*
X206501904Y-89517142D01*
X206454285Y-89564761D01*
X206359047Y-89612380D01*
X206120952Y-89612380D01*
X206025714Y-89564761D01*
X205978095Y-89517142D01*
X225298095Y-88612380D02*
X225298095Y-89421904D01*
X225345714Y-89517142D01*
X225393333Y-89564761D01*
X225488571Y-89612380D01*
X225679047Y-89612380D01*
X225774285Y-89564761D01*
X225821904Y-89517142D01*
X225869523Y-89421904D01*
X225869523Y-88612380D01*
X226774285Y-88612380D02*
X226583809Y-88612380D01*
X226488571Y-88660000D01*
X226440952Y-88707619D01*
X226345714Y-88850476D01*
X226298095Y-89040952D01*
X226298095Y-89421904D01*
X226345714Y-89517142D01*
X226393333Y-89564761D01*
X226488571Y-89612380D01*
X226679047Y-89612380D01*
X226774285Y-89564761D01*
X226821904Y-89517142D01*
X226869523Y-89421904D01*
X226869523Y-89183809D01*
X226821904Y-89088571D01*
X226774285Y-89040952D01*
X226679047Y-88993333D01*
X226488571Y-88993333D01*
X226393333Y-89040952D01*
X226345714Y-89088571D01*
X226298095Y-89183809D01*
X214082380Y-144319523D02*
X214796666Y-144319523D01*
X214939523Y-144367142D01*
X215034761Y-144462380D01*
X215082380Y-144605238D01*
X215082380Y-144700476D01*
X215082380Y-143319523D02*
X215082380Y-143890952D01*
X215082380Y-143605238D02*
X214082380Y-143605238D01*
X214225238Y-143700476D01*
X214320476Y-143795714D01*
X214368095Y-143890952D01*
X215082380Y-142843333D02*
X215082380Y-142652857D01*
X215034761Y-142557619D01*
X214987142Y-142510000D01*
X214844285Y-142414761D01*
X214653809Y-142367142D01*
X214272857Y-142367142D01*
X214177619Y-142414761D01*
X214130000Y-142462380D01*
X214082380Y-142557619D01*
X214082380Y-142748095D01*
X214130000Y-142843333D01*
X214177619Y-142890952D01*
X214272857Y-142938571D01*
X214510952Y-142938571D01*
X214606190Y-142890952D01*
X214653809Y-142843333D01*
X214701428Y-142748095D01*
X214701428Y-142557619D01*
X214653809Y-142462380D01*
X214606190Y-142414761D01*
X214510952Y-142367142D01*
X133651666Y-33107380D02*
X133651666Y-33821666D01*
X133604047Y-33964523D01*
X133508809Y-34059761D01*
X133365952Y-34107380D01*
X133270714Y-34107380D01*
X134651666Y-34107380D02*
X134080238Y-34107380D01*
X134365952Y-34107380D02*
X134365952Y-33107380D01*
X134270714Y-33250238D01*
X134175476Y-33345476D01*
X134080238Y-33393095D01*
X116506666Y-113752380D02*
X116506666Y-114466666D01*
X116459047Y-114609523D01*
X116363809Y-114704761D01*
X116220952Y-114752380D01*
X116125714Y-114752380D01*
X116935238Y-113847619D02*
X116982857Y-113800000D01*
X117078095Y-113752380D01*
X117316190Y-113752380D01*
X117411428Y-113800000D01*
X117459047Y-113847619D01*
X117506666Y-113942857D01*
X117506666Y-114038095D01*
X117459047Y-114180952D01*
X116887619Y-114752380D01*
X117506666Y-114752380D01*
X145502380Y-89233333D02*
X146216666Y-89233333D01*
X146359523Y-89280952D01*
X146454761Y-89376190D01*
X146502380Y-89519047D01*
X146502380Y-89614285D01*
X145502380Y-88852380D02*
X145502380Y-88233333D01*
X145883333Y-88566666D01*
X145883333Y-88423809D01*
X145930952Y-88328571D01*
X145978571Y-88280952D01*
X146073809Y-88233333D01*
X146311904Y-88233333D01*
X146407142Y-88280952D01*
X146454761Y-88328571D01*
X146502380Y-88423809D01*
X146502380Y-88709523D01*
X146454761Y-88804761D01*
X146407142Y-88852380D01*
X132802380Y-89233333D02*
X133516666Y-89233333D01*
X133659523Y-89280952D01*
X133754761Y-89376190D01*
X133802380Y-89519047D01*
X133802380Y-89614285D01*
X133135714Y-88328571D02*
X133802380Y-88328571D01*
X132754761Y-88566666D02*
X133469047Y-88804761D01*
X133469047Y-88185714D01*
X169211666Y-33107380D02*
X169211666Y-33821666D01*
X169164047Y-33964523D01*
X169068809Y-34059761D01*
X168925952Y-34107380D01*
X168830714Y-34107380D01*
X170164047Y-33107380D02*
X169687857Y-33107380D01*
X169640238Y-33583571D01*
X169687857Y-33535952D01*
X169783095Y-33488333D01*
X170021190Y-33488333D01*
X170116428Y-33535952D01*
X170164047Y-33583571D01*
X170211666Y-33678809D01*
X170211666Y-33916904D01*
X170164047Y-34012142D01*
X170116428Y-34059761D01*
X170021190Y-34107380D01*
X169783095Y-34107380D01*
X169687857Y-34059761D01*
X169640238Y-34012142D01*
X181062380Y-89233333D02*
X181776666Y-89233333D01*
X181919523Y-89280952D01*
X182014761Y-89376190D01*
X182062380Y-89519047D01*
X182062380Y-89614285D01*
X181062380Y-88328571D02*
X181062380Y-88519047D01*
X181110000Y-88614285D01*
X181157619Y-88661904D01*
X181300476Y-88757142D01*
X181490952Y-88804761D01*
X181871904Y-88804761D01*
X181967142Y-88757142D01*
X182014761Y-88709523D01*
X182062380Y-88614285D01*
X182062380Y-88423809D01*
X182014761Y-88328571D01*
X181967142Y-88280952D01*
X181871904Y-88233333D01*
X181633809Y-88233333D01*
X181538571Y-88280952D01*
X181490952Y-88328571D01*
X181443333Y-88423809D01*
X181443333Y-88614285D01*
X181490952Y-88709523D01*
X181538571Y-88757142D01*
X181633809Y-88804761D01*
X168362380Y-89233333D02*
X169076666Y-89233333D01*
X169219523Y-89280952D01*
X169314761Y-89376190D01*
X169362380Y-89519047D01*
X169362380Y-89614285D01*
X168362380Y-88852380D02*
X168362380Y-88185714D01*
X169362380Y-88614285D01*
X121372380Y-152733333D02*
X122086666Y-152733333D01*
X122229523Y-152780952D01*
X122324761Y-152876190D01*
X122372380Y-153019047D01*
X122372380Y-153114285D01*
X121800952Y-152114285D02*
X121753333Y-152209523D01*
X121705714Y-152257142D01*
X121610476Y-152304761D01*
X121562857Y-152304761D01*
X121467619Y-152257142D01*
X121420000Y-152209523D01*
X121372380Y-152114285D01*
X121372380Y-151923809D01*
X121420000Y-151828571D01*
X121467619Y-151780952D01*
X121562857Y-151733333D01*
X121610476Y-151733333D01*
X121705714Y-151780952D01*
X121753333Y-151828571D01*
X121800952Y-151923809D01*
X121800952Y-152114285D01*
X121848571Y-152209523D01*
X121896190Y-152257142D01*
X121991428Y-152304761D01*
X122181904Y-152304761D01*
X122277142Y-152257142D01*
X122324761Y-152209523D01*
X122372380Y-152114285D01*
X122372380Y-151923809D01*
X122324761Y-151828571D01*
X122277142Y-151780952D01*
X122181904Y-151733333D01*
X121991428Y-151733333D01*
X121896190Y-151780952D01*
X121848571Y-151828571D01*
X121800952Y-151923809D01*
X132802380Y-103203333D02*
X133516666Y-103203333D01*
X133659523Y-103250952D01*
X133754761Y-103346190D01*
X133802380Y-103489047D01*
X133802380Y-103584285D01*
X133802380Y-102679523D02*
X133802380Y-102489047D01*
X133754761Y-102393809D01*
X133707142Y-102346190D01*
X133564285Y-102250952D01*
X133373809Y-102203333D01*
X132992857Y-102203333D01*
X132897619Y-102250952D01*
X132850000Y-102298571D01*
X132802380Y-102393809D01*
X132802380Y-102584285D01*
X132850000Y-102679523D01*
X132897619Y-102727142D01*
X132992857Y-102774761D01*
X133230952Y-102774761D01*
X133326190Y-102727142D01*
X133373809Y-102679523D01*
X133421428Y-102584285D01*
X133421428Y-102393809D01*
X133373809Y-102298571D01*
X133326190Y-102250952D01*
X133230952Y-102203333D01*
X145502380Y-103679523D02*
X146216666Y-103679523D01*
X146359523Y-103727142D01*
X146454761Y-103822380D01*
X146502380Y-103965238D01*
X146502380Y-104060476D01*
X146502380Y-102679523D02*
X146502380Y-103250952D01*
X146502380Y-102965238D02*
X145502380Y-102965238D01*
X145645238Y-103060476D01*
X145740476Y-103155714D01*
X145788095Y-103250952D01*
X145502380Y-102060476D02*
X145502380Y-101965238D01*
X145550000Y-101870000D01*
X145597619Y-101822380D01*
X145692857Y-101774761D01*
X145883333Y-101727142D01*
X146121428Y-101727142D01*
X146311904Y-101774761D01*
X146407142Y-101822380D01*
X146454761Y-101870000D01*
X146502380Y-101965238D01*
X146502380Y-102060476D01*
X146454761Y-102155714D01*
X146407142Y-102203333D01*
X146311904Y-102250952D01*
X146121428Y-102298571D01*
X145883333Y-102298571D01*
X145692857Y-102250952D01*
X145597619Y-102203333D01*
X145550000Y-102155714D01*
X145502380Y-102060476D01*
X192492380Y-153209523D02*
X193206666Y-153209523D01*
X193349523Y-153257142D01*
X193444761Y-153352380D01*
X193492380Y-153495238D01*
X193492380Y-153590476D01*
X193492380Y-152209523D02*
X193492380Y-152780952D01*
X193492380Y-152495238D02*
X192492380Y-152495238D01*
X192635238Y-152590476D01*
X192730476Y-152685714D01*
X192778095Y-152780952D01*
X193492380Y-151257142D02*
X193492380Y-151828571D01*
X193492380Y-151542857D02*
X192492380Y-151542857D01*
X192635238Y-151638095D01*
X192730476Y-151733333D01*
X192778095Y-151828571D01*
X168362380Y-103679523D02*
X169076666Y-103679523D01*
X169219523Y-103727142D01*
X169314761Y-103822380D01*
X169362380Y-103965238D01*
X169362380Y-104060476D01*
X169362380Y-102679523D02*
X169362380Y-103250952D01*
X169362380Y-102965238D02*
X168362380Y-102965238D01*
X168505238Y-103060476D01*
X168600476Y-103155714D01*
X168648095Y-103250952D01*
X168457619Y-102298571D02*
X168410000Y-102250952D01*
X168362380Y-102155714D01*
X168362380Y-101917619D01*
X168410000Y-101822380D01*
X168457619Y-101774761D01*
X168552857Y-101727142D01*
X168648095Y-101727142D01*
X168790952Y-101774761D01*
X169362380Y-102346190D01*
X169362380Y-101727142D01*
X181062380Y-103679523D02*
X181776666Y-103679523D01*
X181919523Y-103727142D01*
X182014761Y-103822380D01*
X182062380Y-103965238D01*
X182062380Y-104060476D01*
X182062380Y-102679523D02*
X182062380Y-103250952D01*
X182062380Y-102965238D02*
X181062380Y-102965238D01*
X181205238Y-103060476D01*
X181300476Y-103155714D01*
X181348095Y-103250952D01*
X181062380Y-102346190D02*
X181062380Y-101727142D01*
X181443333Y-102060476D01*
X181443333Y-101917619D01*
X181490952Y-101822380D01*
X181538571Y-101774761D01*
X181633809Y-101727142D01*
X181871904Y-101727142D01*
X181967142Y-101774761D01*
X182014761Y-101822380D01*
X182062380Y-101917619D01*
X182062380Y-102203333D01*
X182014761Y-102298571D01*
X181967142Y-102346190D01*
X114752380Y-95940476D02*
X114276190Y-96273809D01*
X114752380Y-96511904D02*
X113752380Y-96511904D01*
X113752380Y-96130952D01*
X113800000Y-96035714D01*
X113847619Y-95988095D01*
X113942857Y-95940476D01*
X114085714Y-95940476D01*
X114180952Y-95988095D01*
X114228571Y-96035714D01*
X114276190Y-96130952D01*
X114276190Y-96511904D01*
X114752380Y-95511904D02*
X113752380Y-95511904D01*
X114752380Y-94940476D01*
X113752380Y-94940476D01*
X113847619Y-94511904D02*
X113800000Y-94464285D01*
X113752380Y-94369047D01*
X113752380Y-94130952D01*
X113800000Y-94035714D01*
X113847619Y-93988095D01*
X113942857Y-93940476D01*
X114038095Y-93940476D01*
X114180952Y-93988095D01*
X114752380Y-94559523D01*
X114752380Y-93940476D01*
X154122380Y-127690476D02*
X153646190Y-128023809D01*
X154122380Y-128261904D02*
X153122380Y-128261904D01*
X153122380Y-127880952D01*
X153170000Y-127785714D01*
X153217619Y-127738095D01*
X153312857Y-127690476D01*
X153455714Y-127690476D01*
X153550952Y-127738095D01*
X153598571Y-127785714D01*
X153646190Y-127880952D01*
X153646190Y-128261904D01*
X154122380Y-127261904D02*
X153122380Y-127261904D01*
X154122380Y-126690476D01*
X153122380Y-126690476D01*
X153122380Y-125785714D02*
X153122380Y-125976190D01*
X153170000Y-126071428D01*
X153217619Y-126119047D01*
X153360476Y-126214285D01*
X153550952Y-126261904D01*
X153931904Y-126261904D01*
X154027142Y-126214285D01*
X154074761Y-126166666D01*
X154122380Y-126071428D01*
X154122380Y-125880952D01*
X154074761Y-125785714D01*
X154027142Y-125738095D01*
X153931904Y-125690476D01*
X153693809Y-125690476D01*
X153598571Y-125738095D01*
X153550952Y-125785714D01*
X153503333Y-125880952D01*
X153503333Y-126071428D01*
X153550952Y-126166666D01*
X153598571Y-126214285D01*
X153693809Y-126261904D01*
X126182380Y-127690476D02*
X125706190Y-128023809D01*
X126182380Y-128261904D02*
X125182380Y-128261904D01*
X125182380Y-127880952D01*
X125230000Y-127785714D01*
X125277619Y-127738095D01*
X125372857Y-127690476D01*
X125515714Y-127690476D01*
X125610952Y-127738095D01*
X125658571Y-127785714D01*
X125706190Y-127880952D01*
X125706190Y-128261904D01*
X126182380Y-127261904D02*
X125182380Y-127261904D01*
X126182380Y-126690476D01*
X125182380Y-126690476D01*
X125182380Y-126309523D02*
X125182380Y-125642857D01*
X126182380Y-126071428D01*
X189682380Y-127690476D02*
X189206190Y-128023809D01*
X189682380Y-128261904D02*
X188682380Y-128261904D01*
X188682380Y-127880952D01*
X188730000Y-127785714D01*
X188777619Y-127738095D01*
X188872857Y-127690476D01*
X189015714Y-127690476D01*
X189110952Y-127738095D01*
X189158571Y-127785714D01*
X189206190Y-127880952D01*
X189206190Y-128261904D01*
X189682380Y-127261904D02*
X188682380Y-127261904D01*
X189682380Y-126690476D01*
X188682380Y-126690476D01*
X189110952Y-126071428D02*
X189063333Y-126166666D01*
X189015714Y-126214285D01*
X188920476Y-126261904D01*
X188872857Y-126261904D01*
X188777619Y-126214285D01*
X188730000Y-126166666D01*
X188682380Y-126071428D01*
X188682380Y-125880952D01*
X188730000Y-125785714D01*
X188777619Y-125738095D01*
X188872857Y-125690476D01*
X188920476Y-125690476D01*
X189015714Y-125738095D01*
X189063333Y-125785714D01*
X189110952Y-125880952D01*
X189110952Y-126071428D01*
X189158571Y-126166666D01*
X189206190Y-126214285D01*
X189301428Y-126261904D01*
X189491904Y-126261904D01*
X189587142Y-126214285D01*
X189634761Y-126166666D01*
X189682380Y-126071428D01*
X189682380Y-125880952D01*
X189634761Y-125785714D01*
X189587142Y-125738095D01*
X189491904Y-125690476D01*
X189301428Y-125690476D01*
X189206190Y-125738095D01*
X189158571Y-125785714D01*
X189110952Y-125880952D01*
X161742380Y-127690476D02*
X161266190Y-128023809D01*
X161742380Y-128261904D02*
X160742380Y-128261904D01*
X160742380Y-127880952D01*
X160790000Y-127785714D01*
X160837619Y-127738095D01*
X160932857Y-127690476D01*
X161075714Y-127690476D01*
X161170952Y-127738095D01*
X161218571Y-127785714D01*
X161266190Y-127880952D01*
X161266190Y-128261904D01*
X161742380Y-127261904D02*
X160742380Y-127261904D01*
X161742380Y-126690476D01*
X160742380Y-126690476D01*
X161742380Y-126166666D02*
X161742380Y-125976190D01*
X161694761Y-125880952D01*
X161647142Y-125833333D01*
X161504285Y-125738095D01*
X161313809Y-125690476D01*
X160932857Y-125690476D01*
X160837619Y-125738095D01*
X160790000Y-125785714D01*
X160742380Y-125880952D01*
X160742380Y-126071428D01*
X160790000Y-126166666D01*
X160837619Y-126214285D01*
X160932857Y-126261904D01*
X161170952Y-126261904D01*
X161266190Y-126214285D01*
X161313809Y-126166666D01*
X161361428Y-126071428D01*
X161361428Y-125880952D01*
X161313809Y-125785714D01*
X161266190Y-125738095D01*
X161170952Y-125690476D01*
X138938095Y-137672380D02*
X138938095Y-138481904D01*
X138985714Y-138577142D01*
X139033333Y-138624761D01*
X139128571Y-138672380D01*
X139319047Y-138672380D01*
X139414285Y-138624761D01*
X139461904Y-138577142D01*
X139509523Y-138481904D01*
X139509523Y-137672380D01*
X139890476Y-137672380D02*
X140509523Y-137672380D01*
X140176190Y-138053333D01*
X140319047Y-138053333D01*
X140414285Y-138100952D01*
X140461904Y-138148571D01*
X140509523Y-138243809D01*
X140509523Y-138481904D01*
X140461904Y-138577142D01*
X140414285Y-138624761D01*
X140319047Y-138672380D01*
X140033333Y-138672380D01*
X139938095Y-138624761D01*
X139890476Y-138577142D01*
X174498095Y-137672380D02*
X174498095Y-138481904D01*
X174545714Y-138577142D01*
X174593333Y-138624761D01*
X174688571Y-138672380D01*
X174879047Y-138672380D01*
X174974285Y-138624761D01*
X175021904Y-138577142D01*
X175069523Y-138481904D01*
X175069523Y-137672380D01*
X175974285Y-138005714D02*
X175974285Y-138672380D01*
X175736190Y-137624761D02*
X175498095Y-138339047D01*
X176117142Y-138339047D01*
X203922380Y-43989523D02*
X204636666Y-43989523D01*
X204779523Y-44037142D01*
X204874761Y-44132380D01*
X204922380Y-44275238D01*
X204922380Y-44370476D01*
X204017619Y-43560952D02*
X203970000Y-43513333D01*
X203922380Y-43418095D01*
X203922380Y-43180000D01*
X203970000Y-43084761D01*
X204017619Y-43037142D01*
X204112857Y-42989523D01*
X204208095Y-42989523D01*
X204350952Y-43037142D01*
X204922380Y-43608571D01*
X204922380Y-42989523D01*
X203922380Y-42370476D02*
X203922380Y-42275238D01*
X203970000Y-42180000D01*
X204017619Y-42132380D01*
X204112857Y-42084761D01*
X204303333Y-42037142D01*
X204541428Y-42037142D01*
X204731904Y-42084761D01*
X204827142Y-42132380D01*
X204874761Y-42180000D01*
X204922380Y-42275238D01*
X204922380Y-42370476D01*
X204874761Y-42465714D01*
X204827142Y-42513333D01*
X204731904Y-42560952D01*
X204541428Y-42608571D01*
X204303333Y-42608571D01*
X204112857Y-42560952D01*
X204017619Y-42513333D01*
X203970000Y-42465714D01*
X203922380Y-42370476D01*
M02*
