G04 #@! TF.GenerationSoftware,KiCad,Pcbnew,(5.1.5)-3*
G04 #@! TF.CreationDate,2020-02-05T09:48:48+01:00*
G04 #@! TF.ProjectId,FGINT-V3-MASTER-64,4647494e-542d-4563-932d-4d4153544552,rev?*
G04 #@! TF.SameCoordinates,Original*
G04 #@! TF.FileFunction,Other,ECO2*
%FSLAX46Y46*%
G04 Gerber Fmt 4.6, Leading zero omitted, Abs format (unit mm)*
G04 Created by KiCad (PCBNEW (5.1.5)-3) date 2020-02-05 09:48:48*
%MOMM*%
%LPD*%
G04 APERTURE LIST*
%ADD10C,0.150000*%
G04 APERTURE END LIST*
D10*
X189158571Y-83804285D02*
X189158571Y-84566190D01*
X188777619Y-84185238D02*
X189539523Y-84185238D01*
X189777619Y-85518571D02*
X189777619Y-85042380D01*
X189301428Y-84994761D01*
X189349047Y-85042380D01*
X189396666Y-85137619D01*
X189396666Y-85375714D01*
X189349047Y-85470952D01*
X189301428Y-85518571D01*
X189206190Y-85566190D01*
X188968095Y-85566190D01*
X188872857Y-85518571D01*
X188825238Y-85470952D01*
X188777619Y-85375714D01*
X188777619Y-85137619D01*
X188825238Y-85042380D01*
X188872857Y-84994761D01*
X189777619Y-85851904D02*
X188777619Y-86185238D01*
X189777619Y-86518571D01*
X184650000Y-84328095D02*
X184697619Y-84232857D01*
X184697619Y-84090000D01*
X184650000Y-83947142D01*
X184554761Y-83851904D01*
X184459523Y-83804285D01*
X184269047Y-83756666D01*
X184126190Y-83756666D01*
X183935714Y-83804285D01*
X183840476Y-83851904D01*
X183745238Y-83947142D01*
X183697619Y-84090000D01*
X183697619Y-84185238D01*
X183745238Y-84328095D01*
X183792857Y-84375714D01*
X184126190Y-84375714D01*
X184126190Y-84185238D01*
X183697619Y-84804285D02*
X184697619Y-84804285D01*
X183697619Y-85375714D01*
X184697619Y-85375714D01*
X183697619Y-85851904D02*
X184697619Y-85851904D01*
X184697619Y-86090000D01*
X184650000Y-86232857D01*
X184554761Y-86328095D01*
X184459523Y-86375714D01*
X184269047Y-86423333D01*
X184126190Y-86423333D01*
X183935714Y-86375714D01*
X183840476Y-86328095D01*
X183745238Y-86232857D01*
X183697619Y-86090000D01*
X183697619Y-85851904D01*
X186237619Y-83590000D02*
X187237619Y-83590000D01*
X187237619Y-83828095D01*
X187190000Y-83970952D01*
X187094761Y-84066190D01*
X186999523Y-84113809D01*
X186809047Y-84161428D01*
X186666190Y-84161428D01*
X186475714Y-84113809D01*
X186380476Y-84066190D01*
X186285238Y-83970952D01*
X186237619Y-83828095D01*
X186237619Y-83590000D01*
X186523333Y-84542380D02*
X186523333Y-85018571D01*
X186237619Y-84447142D02*
X187237619Y-84780476D01*
X186237619Y-85113809D01*
X187237619Y-85304285D02*
X187237619Y-85875714D01*
X186237619Y-85590000D02*
X187237619Y-85590000D01*
X186523333Y-86161428D02*
X186523333Y-86637619D01*
X186237619Y-86066190D02*
X187237619Y-86399523D01*
X186237619Y-86732857D01*
X166298571Y-83804285D02*
X166298571Y-84566190D01*
X165917619Y-84185238D02*
X166679523Y-84185238D01*
X166917619Y-85518571D02*
X166917619Y-85042380D01*
X166441428Y-84994761D01*
X166489047Y-85042380D01*
X166536666Y-85137619D01*
X166536666Y-85375714D01*
X166489047Y-85470952D01*
X166441428Y-85518571D01*
X166346190Y-85566190D01*
X166108095Y-85566190D01*
X166012857Y-85518571D01*
X165965238Y-85470952D01*
X165917619Y-85375714D01*
X165917619Y-85137619D01*
X165965238Y-85042380D01*
X166012857Y-84994761D01*
X166917619Y-85851904D02*
X165917619Y-86185238D01*
X166917619Y-86518571D01*
X163377619Y-83590000D02*
X164377619Y-83590000D01*
X164377619Y-83828095D01*
X164330000Y-83970952D01*
X164234761Y-84066190D01*
X164139523Y-84113809D01*
X163949047Y-84161428D01*
X163806190Y-84161428D01*
X163615714Y-84113809D01*
X163520476Y-84066190D01*
X163425238Y-83970952D01*
X163377619Y-83828095D01*
X163377619Y-83590000D01*
X163663333Y-84542380D02*
X163663333Y-85018571D01*
X163377619Y-84447142D02*
X164377619Y-84780476D01*
X163377619Y-85113809D01*
X164377619Y-85304285D02*
X164377619Y-85875714D01*
X163377619Y-85590000D02*
X164377619Y-85590000D01*
X163663333Y-86161428D02*
X163663333Y-86637619D01*
X163377619Y-86066190D02*
X164377619Y-86399523D01*
X163377619Y-86732857D01*
X161790000Y-84328095D02*
X161837619Y-84232857D01*
X161837619Y-84090000D01*
X161790000Y-83947142D01*
X161694761Y-83851904D01*
X161599523Y-83804285D01*
X161409047Y-83756666D01*
X161266190Y-83756666D01*
X161075714Y-83804285D01*
X160980476Y-83851904D01*
X160885238Y-83947142D01*
X160837619Y-84090000D01*
X160837619Y-84185238D01*
X160885238Y-84328095D01*
X160932857Y-84375714D01*
X161266190Y-84375714D01*
X161266190Y-84185238D01*
X160837619Y-84804285D02*
X161837619Y-84804285D01*
X160837619Y-85375714D01*
X161837619Y-85375714D01*
X160837619Y-85851904D02*
X161837619Y-85851904D01*
X161837619Y-86090000D01*
X161790000Y-86232857D01*
X161694761Y-86328095D01*
X161599523Y-86375714D01*
X161409047Y-86423333D01*
X161266190Y-86423333D01*
X161075714Y-86375714D01*
X160980476Y-86328095D01*
X160885238Y-86232857D01*
X160837619Y-86090000D01*
X160837619Y-85851904D01*
X153598571Y-83804285D02*
X153598571Y-84566190D01*
X153217619Y-84185238D02*
X153979523Y-84185238D01*
X154217619Y-85518571D02*
X154217619Y-85042380D01*
X153741428Y-84994761D01*
X153789047Y-85042380D01*
X153836666Y-85137619D01*
X153836666Y-85375714D01*
X153789047Y-85470952D01*
X153741428Y-85518571D01*
X153646190Y-85566190D01*
X153408095Y-85566190D01*
X153312857Y-85518571D01*
X153265238Y-85470952D01*
X153217619Y-85375714D01*
X153217619Y-85137619D01*
X153265238Y-85042380D01*
X153312857Y-84994761D01*
X154217619Y-85851904D02*
X153217619Y-86185238D01*
X154217619Y-86518571D01*
X150677619Y-83590000D02*
X151677619Y-83590000D01*
X151677619Y-83828095D01*
X151630000Y-83970952D01*
X151534761Y-84066190D01*
X151439523Y-84113809D01*
X151249047Y-84161428D01*
X151106190Y-84161428D01*
X150915714Y-84113809D01*
X150820476Y-84066190D01*
X150725238Y-83970952D01*
X150677619Y-83828095D01*
X150677619Y-83590000D01*
X150963333Y-84542380D02*
X150963333Y-85018571D01*
X150677619Y-84447142D02*
X151677619Y-84780476D01*
X150677619Y-85113809D01*
X151677619Y-85304285D02*
X151677619Y-85875714D01*
X150677619Y-85590000D02*
X151677619Y-85590000D01*
X150963333Y-86161428D02*
X150963333Y-86637619D01*
X150677619Y-86066190D02*
X151677619Y-86399523D01*
X150677619Y-86732857D01*
X149090000Y-84328095D02*
X149137619Y-84232857D01*
X149137619Y-84090000D01*
X149090000Y-83947142D01*
X148994761Y-83851904D01*
X148899523Y-83804285D01*
X148709047Y-83756666D01*
X148566190Y-83756666D01*
X148375714Y-83804285D01*
X148280476Y-83851904D01*
X148185238Y-83947142D01*
X148137619Y-84090000D01*
X148137619Y-84185238D01*
X148185238Y-84328095D01*
X148232857Y-84375714D01*
X148566190Y-84375714D01*
X148566190Y-84185238D01*
X148137619Y-84804285D02*
X149137619Y-84804285D01*
X148137619Y-85375714D01*
X149137619Y-85375714D01*
X148137619Y-85851904D02*
X149137619Y-85851904D01*
X149137619Y-86090000D01*
X149090000Y-86232857D01*
X148994761Y-86328095D01*
X148899523Y-86375714D01*
X148709047Y-86423333D01*
X148566190Y-86423333D01*
X148375714Y-86375714D01*
X148280476Y-86328095D01*
X148185238Y-86232857D01*
X148137619Y-86090000D01*
X148137619Y-85851904D01*
X130738571Y-83804285D02*
X130738571Y-84566190D01*
X130357619Y-84185238D02*
X131119523Y-84185238D01*
X131357619Y-85518571D02*
X131357619Y-85042380D01*
X130881428Y-84994761D01*
X130929047Y-85042380D01*
X130976666Y-85137619D01*
X130976666Y-85375714D01*
X130929047Y-85470952D01*
X130881428Y-85518571D01*
X130786190Y-85566190D01*
X130548095Y-85566190D01*
X130452857Y-85518571D01*
X130405238Y-85470952D01*
X130357619Y-85375714D01*
X130357619Y-85137619D01*
X130405238Y-85042380D01*
X130452857Y-84994761D01*
X131357619Y-85851904D02*
X130357619Y-86185238D01*
X131357619Y-86518571D01*
X126230000Y-84328095D02*
X126277619Y-84232857D01*
X126277619Y-84090000D01*
X126230000Y-83947142D01*
X126134761Y-83851904D01*
X126039523Y-83804285D01*
X125849047Y-83756666D01*
X125706190Y-83756666D01*
X125515714Y-83804285D01*
X125420476Y-83851904D01*
X125325238Y-83947142D01*
X125277619Y-84090000D01*
X125277619Y-84185238D01*
X125325238Y-84328095D01*
X125372857Y-84375714D01*
X125706190Y-84375714D01*
X125706190Y-84185238D01*
X125277619Y-84804285D02*
X126277619Y-84804285D01*
X125277619Y-85375714D01*
X126277619Y-85375714D01*
X125277619Y-85851904D02*
X126277619Y-85851904D01*
X126277619Y-86090000D01*
X126230000Y-86232857D01*
X126134761Y-86328095D01*
X126039523Y-86375714D01*
X125849047Y-86423333D01*
X125706190Y-86423333D01*
X125515714Y-86375714D01*
X125420476Y-86328095D01*
X125325238Y-86232857D01*
X125277619Y-86090000D01*
X125277619Y-85851904D01*
X127817619Y-83590000D02*
X128817619Y-83590000D01*
X128817619Y-83828095D01*
X128770000Y-83970952D01*
X128674761Y-84066190D01*
X128579523Y-84113809D01*
X128389047Y-84161428D01*
X128246190Y-84161428D01*
X128055714Y-84113809D01*
X127960476Y-84066190D01*
X127865238Y-83970952D01*
X127817619Y-83828095D01*
X127817619Y-83590000D01*
X128103333Y-84542380D02*
X128103333Y-85018571D01*
X127817619Y-84447142D02*
X128817619Y-84780476D01*
X127817619Y-85113809D01*
X128817619Y-85304285D02*
X128817619Y-85875714D01*
X127817619Y-85590000D02*
X128817619Y-85590000D01*
X128103333Y-86161428D02*
X128103333Y-86637619D01*
X127817619Y-86066190D02*
X128817619Y-86399523D01*
X127817619Y-86732857D01*
X130310000Y-107441904D02*
X130262380Y-107537142D01*
X130262380Y-107680000D01*
X130310000Y-107822857D01*
X130405238Y-107918095D01*
X130500476Y-107965714D01*
X130690952Y-108013333D01*
X130833809Y-108013333D01*
X131024285Y-107965714D01*
X131119523Y-107918095D01*
X131214761Y-107822857D01*
X131262380Y-107680000D01*
X131262380Y-107584761D01*
X131214761Y-107441904D01*
X131167142Y-107394285D01*
X130833809Y-107394285D01*
X130833809Y-107584761D01*
X131262380Y-106965714D02*
X130262380Y-106965714D01*
X131262380Y-106394285D01*
X130262380Y-106394285D01*
X131262380Y-105918095D02*
X130262380Y-105918095D01*
X130262380Y-105680000D01*
X130310000Y-105537142D01*
X130405238Y-105441904D01*
X130500476Y-105394285D01*
X130690952Y-105346666D01*
X130833809Y-105346666D01*
X131024285Y-105394285D01*
X131119523Y-105441904D01*
X131214761Y-105537142D01*
X131262380Y-105680000D01*
X131262380Y-105918095D01*
X125801428Y-107965714D02*
X125801428Y-107203809D01*
X126182380Y-107584761D02*
X125420476Y-107584761D01*
X125182380Y-106251428D02*
X125182380Y-106727619D01*
X125658571Y-106775238D01*
X125610952Y-106727619D01*
X125563333Y-106632380D01*
X125563333Y-106394285D01*
X125610952Y-106299047D01*
X125658571Y-106251428D01*
X125753809Y-106203809D01*
X125991904Y-106203809D01*
X126087142Y-106251428D01*
X126134761Y-106299047D01*
X126182380Y-106394285D01*
X126182380Y-106632380D01*
X126134761Y-106727619D01*
X126087142Y-106775238D01*
X125182380Y-105918095D02*
X126182380Y-105584761D01*
X125182380Y-105251428D01*
X128722380Y-108180000D02*
X127722380Y-108180000D01*
X127722380Y-107941904D01*
X127770000Y-107799047D01*
X127865238Y-107703809D01*
X127960476Y-107656190D01*
X128150952Y-107608571D01*
X128293809Y-107608571D01*
X128484285Y-107656190D01*
X128579523Y-107703809D01*
X128674761Y-107799047D01*
X128722380Y-107941904D01*
X128722380Y-108180000D01*
X128436666Y-107227619D02*
X128436666Y-106751428D01*
X128722380Y-107322857D02*
X127722380Y-106989523D01*
X128722380Y-106656190D01*
X127722380Y-106465714D02*
X127722380Y-105894285D01*
X128722380Y-106180000D02*
X127722380Y-106180000D01*
X128436666Y-105608571D02*
X128436666Y-105132380D01*
X128722380Y-105703809D02*
X127722380Y-105370476D01*
X128722380Y-105037142D01*
X153170000Y-107441904D02*
X153122380Y-107537142D01*
X153122380Y-107680000D01*
X153170000Y-107822857D01*
X153265238Y-107918095D01*
X153360476Y-107965714D01*
X153550952Y-108013333D01*
X153693809Y-108013333D01*
X153884285Y-107965714D01*
X153979523Y-107918095D01*
X154074761Y-107822857D01*
X154122380Y-107680000D01*
X154122380Y-107584761D01*
X154074761Y-107441904D01*
X154027142Y-107394285D01*
X153693809Y-107394285D01*
X153693809Y-107584761D01*
X154122380Y-106965714D02*
X153122380Y-106965714D01*
X154122380Y-106394285D01*
X153122380Y-106394285D01*
X154122380Y-105918095D02*
X153122380Y-105918095D01*
X153122380Y-105680000D01*
X153170000Y-105537142D01*
X153265238Y-105441904D01*
X153360476Y-105394285D01*
X153550952Y-105346666D01*
X153693809Y-105346666D01*
X153884285Y-105394285D01*
X153979523Y-105441904D01*
X154074761Y-105537142D01*
X154122380Y-105680000D01*
X154122380Y-105918095D01*
X151582380Y-108180000D02*
X150582380Y-108180000D01*
X150582380Y-107941904D01*
X150630000Y-107799047D01*
X150725238Y-107703809D01*
X150820476Y-107656190D01*
X151010952Y-107608571D01*
X151153809Y-107608571D01*
X151344285Y-107656190D01*
X151439523Y-107703809D01*
X151534761Y-107799047D01*
X151582380Y-107941904D01*
X151582380Y-108180000D01*
X151296666Y-107227619D02*
X151296666Y-106751428D01*
X151582380Y-107322857D02*
X150582380Y-106989523D01*
X151582380Y-106656190D01*
X150582380Y-106465714D02*
X150582380Y-105894285D01*
X151582380Y-106180000D02*
X150582380Y-106180000D01*
X151296666Y-105608571D02*
X151296666Y-105132380D01*
X151582380Y-105703809D02*
X150582380Y-105370476D01*
X151582380Y-105037142D01*
X148661428Y-107965714D02*
X148661428Y-107203809D01*
X149042380Y-107584761D02*
X148280476Y-107584761D01*
X148042380Y-106251428D02*
X148042380Y-106727619D01*
X148518571Y-106775238D01*
X148470952Y-106727619D01*
X148423333Y-106632380D01*
X148423333Y-106394285D01*
X148470952Y-106299047D01*
X148518571Y-106251428D01*
X148613809Y-106203809D01*
X148851904Y-106203809D01*
X148947142Y-106251428D01*
X148994761Y-106299047D01*
X149042380Y-106394285D01*
X149042380Y-106632380D01*
X148994761Y-106727619D01*
X148947142Y-106775238D01*
X148042380Y-105918095D02*
X149042380Y-105584761D01*
X148042380Y-105251428D01*
X165870000Y-107441904D02*
X165822380Y-107537142D01*
X165822380Y-107680000D01*
X165870000Y-107822857D01*
X165965238Y-107918095D01*
X166060476Y-107965714D01*
X166250952Y-108013333D01*
X166393809Y-108013333D01*
X166584285Y-107965714D01*
X166679523Y-107918095D01*
X166774761Y-107822857D01*
X166822380Y-107680000D01*
X166822380Y-107584761D01*
X166774761Y-107441904D01*
X166727142Y-107394285D01*
X166393809Y-107394285D01*
X166393809Y-107584761D01*
X166822380Y-106965714D02*
X165822380Y-106965714D01*
X166822380Y-106394285D01*
X165822380Y-106394285D01*
X166822380Y-105918095D02*
X165822380Y-105918095D01*
X165822380Y-105680000D01*
X165870000Y-105537142D01*
X165965238Y-105441904D01*
X166060476Y-105394285D01*
X166250952Y-105346666D01*
X166393809Y-105346666D01*
X166584285Y-105394285D01*
X166679523Y-105441904D01*
X166774761Y-105537142D01*
X166822380Y-105680000D01*
X166822380Y-105918095D01*
X164282380Y-108180000D02*
X163282380Y-108180000D01*
X163282380Y-107941904D01*
X163330000Y-107799047D01*
X163425238Y-107703809D01*
X163520476Y-107656190D01*
X163710952Y-107608571D01*
X163853809Y-107608571D01*
X164044285Y-107656190D01*
X164139523Y-107703809D01*
X164234761Y-107799047D01*
X164282380Y-107941904D01*
X164282380Y-108180000D01*
X163996666Y-107227619D02*
X163996666Y-106751428D01*
X164282380Y-107322857D02*
X163282380Y-106989523D01*
X164282380Y-106656190D01*
X163282380Y-106465714D02*
X163282380Y-105894285D01*
X164282380Y-106180000D02*
X163282380Y-106180000D01*
X163996666Y-105608571D02*
X163996666Y-105132380D01*
X164282380Y-105703809D02*
X163282380Y-105370476D01*
X164282380Y-105037142D01*
X161361428Y-107965714D02*
X161361428Y-107203809D01*
X161742380Y-107584761D02*
X160980476Y-107584761D01*
X160742380Y-106251428D02*
X160742380Y-106727619D01*
X161218571Y-106775238D01*
X161170952Y-106727619D01*
X161123333Y-106632380D01*
X161123333Y-106394285D01*
X161170952Y-106299047D01*
X161218571Y-106251428D01*
X161313809Y-106203809D01*
X161551904Y-106203809D01*
X161647142Y-106251428D01*
X161694761Y-106299047D01*
X161742380Y-106394285D01*
X161742380Y-106632380D01*
X161694761Y-106727619D01*
X161647142Y-106775238D01*
X160742380Y-105918095D02*
X161742380Y-105584761D01*
X160742380Y-105251428D01*
X188730000Y-107441904D02*
X188682380Y-107537142D01*
X188682380Y-107680000D01*
X188730000Y-107822857D01*
X188825238Y-107918095D01*
X188920476Y-107965714D01*
X189110952Y-108013333D01*
X189253809Y-108013333D01*
X189444285Y-107965714D01*
X189539523Y-107918095D01*
X189634761Y-107822857D01*
X189682380Y-107680000D01*
X189682380Y-107584761D01*
X189634761Y-107441904D01*
X189587142Y-107394285D01*
X189253809Y-107394285D01*
X189253809Y-107584761D01*
X189682380Y-106965714D02*
X188682380Y-106965714D01*
X189682380Y-106394285D01*
X188682380Y-106394285D01*
X189682380Y-105918095D02*
X188682380Y-105918095D01*
X188682380Y-105680000D01*
X188730000Y-105537142D01*
X188825238Y-105441904D01*
X188920476Y-105394285D01*
X189110952Y-105346666D01*
X189253809Y-105346666D01*
X189444285Y-105394285D01*
X189539523Y-105441904D01*
X189634761Y-105537142D01*
X189682380Y-105680000D01*
X189682380Y-105918095D01*
X187142380Y-108180000D02*
X186142380Y-108180000D01*
X186142380Y-107941904D01*
X186190000Y-107799047D01*
X186285238Y-107703809D01*
X186380476Y-107656190D01*
X186570952Y-107608571D01*
X186713809Y-107608571D01*
X186904285Y-107656190D01*
X186999523Y-107703809D01*
X187094761Y-107799047D01*
X187142380Y-107941904D01*
X187142380Y-108180000D01*
X186856666Y-107227619D02*
X186856666Y-106751428D01*
X187142380Y-107322857D02*
X186142380Y-106989523D01*
X187142380Y-106656190D01*
X186142380Y-106465714D02*
X186142380Y-105894285D01*
X187142380Y-106180000D02*
X186142380Y-106180000D01*
X186856666Y-105608571D02*
X186856666Y-105132380D01*
X187142380Y-105703809D02*
X186142380Y-105370476D01*
X187142380Y-105037142D01*
X184221428Y-107965714D02*
X184221428Y-107203809D01*
X184602380Y-107584761D02*
X183840476Y-107584761D01*
X183602380Y-106251428D02*
X183602380Y-106727619D01*
X184078571Y-106775238D01*
X184030952Y-106727619D01*
X183983333Y-106632380D01*
X183983333Y-106394285D01*
X184030952Y-106299047D01*
X184078571Y-106251428D01*
X184173809Y-106203809D01*
X184411904Y-106203809D01*
X184507142Y-106251428D01*
X184554761Y-106299047D01*
X184602380Y-106394285D01*
X184602380Y-106632380D01*
X184554761Y-106727619D01*
X184507142Y-106775238D01*
X183602380Y-105918095D02*
X184602380Y-105584761D01*
X183602380Y-105251428D01*
M02*
