G04 #@! TF.GenerationSoftware,KiCad,Pcbnew,(5.1.2)-2*
G04 #@! TF.CreationDate,2019-07-03T22:27:51+02:00*
G04 #@! TF.ProjectId,FGINT-V3-OUT256,4647494e-542d-4563-932d-4f5554323536,rev?*
G04 #@! TF.SameCoordinates,Original*
G04 #@! TF.FileFunction,Soldermask,Bot*
G04 #@! TF.FilePolarity,Negative*
%FSLAX46Y46*%
G04 Gerber Fmt 4.6, Leading zero omitted, Abs format (unit mm)*
G04 Created by KiCad (PCBNEW (5.1.2)-2) date 2019-07-03 22:27:51*
%MOMM*%
%LPD*%
G04 APERTURE LIST*
%ADD10C,0.100000*%
G04 APERTURE END LIST*
D10*
G36*
X76379294Y-105778633D02*
G01*
X76551695Y-105830931D01*
X76710583Y-105915858D01*
X76849849Y-106030151D01*
X76964142Y-106169417D01*
X77049069Y-106328305D01*
X77101367Y-106500706D01*
X77119025Y-106680000D01*
X77101367Y-106859294D01*
X77049069Y-107031695D01*
X76964142Y-107190583D01*
X76849849Y-107329849D01*
X76710583Y-107444142D01*
X76551695Y-107529069D01*
X76379294Y-107581367D01*
X76244931Y-107594600D01*
X76155069Y-107594600D01*
X76020706Y-107581367D01*
X75848305Y-107529069D01*
X75689417Y-107444142D01*
X75550151Y-107329849D01*
X75435858Y-107190583D01*
X75350931Y-107031695D01*
X75298633Y-106859294D01*
X75280975Y-106680000D01*
X75298633Y-106500706D01*
X75350931Y-106328305D01*
X75435858Y-106169417D01*
X75550151Y-106030151D01*
X75689417Y-105915858D01*
X75848305Y-105830931D01*
X76020706Y-105778633D01*
X76155069Y-105765400D01*
X76244931Y-105765400D01*
X76379294Y-105778633D01*
X76379294Y-105778633D01*
G37*
G36*
X127179294Y-105778633D02*
G01*
X127351695Y-105830931D01*
X127510583Y-105915858D01*
X127649849Y-106030151D01*
X127764142Y-106169417D01*
X127849069Y-106328305D01*
X127901367Y-106500706D01*
X127919025Y-106680000D01*
X127901367Y-106859294D01*
X127849069Y-107031695D01*
X127764142Y-107190583D01*
X127649849Y-107329849D01*
X127510583Y-107444142D01*
X127351695Y-107529069D01*
X127179294Y-107581367D01*
X127044931Y-107594600D01*
X126955069Y-107594600D01*
X126820706Y-107581367D01*
X126648305Y-107529069D01*
X126489417Y-107444142D01*
X126350151Y-107329849D01*
X126235858Y-107190583D01*
X126150931Y-107031695D01*
X126098633Y-106859294D01*
X126080975Y-106680000D01*
X126098633Y-106500706D01*
X126150931Y-106328305D01*
X126235858Y-106169417D01*
X126350151Y-106030151D01*
X126489417Y-105915858D01*
X126648305Y-105830931D01*
X126820706Y-105778633D01*
X126955069Y-105765400D01*
X127044931Y-105765400D01*
X127179294Y-105778633D01*
X127179294Y-105778633D01*
G37*
G36*
X111939294Y-105778633D02*
G01*
X112111695Y-105830931D01*
X112270583Y-105915858D01*
X112409849Y-106030151D01*
X112524142Y-106169417D01*
X112609069Y-106328305D01*
X112661367Y-106500706D01*
X112679025Y-106680000D01*
X112661367Y-106859294D01*
X112609069Y-107031695D01*
X112524142Y-107190583D01*
X112409849Y-107329849D01*
X112270583Y-107444142D01*
X112111695Y-107529069D01*
X111939294Y-107581367D01*
X111804931Y-107594600D01*
X111715069Y-107594600D01*
X111580706Y-107581367D01*
X111408305Y-107529069D01*
X111249417Y-107444142D01*
X111110151Y-107329849D01*
X110995858Y-107190583D01*
X110910931Y-107031695D01*
X110858633Y-106859294D01*
X110840975Y-106680000D01*
X110858633Y-106500706D01*
X110910931Y-106328305D01*
X110995858Y-106169417D01*
X111110151Y-106030151D01*
X111249417Y-105915858D01*
X111408305Y-105830931D01*
X111580706Y-105778633D01*
X111715069Y-105765400D01*
X111804931Y-105765400D01*
X111939294Y-105778633D01*
X111939294Y-105778633D01*
G37*
G36*
X114479294Y-105778633D02*
G01*
X114651695Y-105830931D01*
X114810583Y-105915858D01*
X114949849Y-106030151D01*
X115064142Y-106169417D01*
X115149069Y-106328305D01*
X115201367Y-106500706D01*
X115219025Y-106680000D01*
X115201367Y-106859294D01*
X115149069Y-107031695D01*
X115064142Y-107190583D01*
X114949849Y-107329849D01*
X114810583Y-107444142D01*
X114651695Y-107529069D01*
X114479294Y-107581367D01*
X114344931Y-107594600D01*
X114255069Y-107594600D01*
X114120706Y-107581367D01*
X113948305Y-107529069D01*
X113789417Y-107444142D01*
X113650151Y-107329849D01*
X113535858Y-107190583D01*
X113450931Y-107031695D01*
X113398633Y-106859294D01*
X113380975Y-106680000D01*
X113398633Y-106500706D01*
X113450931Y-106328305D01*
X113535858Y-106169417D01*
X113650151Y-106030151D01*
X113789417Y-105915858D01*
X113948305Y-105830931D01*
X114120706Y-105778633D01*
X114255069Y-105765400D01*
X114344931Y-105765400D01*
X114479294Y-105778633D01*
X114479294Y-105778633D01*
G37*
G36*
X117019294Y-105778633D02*
G01*
X117191695Y-105830931D01*
X117350583Y-105915858D01*
X117489849Y-106030151D01*
X117604142Y-106169417D01*
X117689069Y-106328305D01*
X117741367Y-106500706D01*
X117759025Y-106680000D01*
X117741367Y-106859294D01*
X117689069Y-107031695D01*
X117604142Y-107190583D01*
X117489849Y-107329849D01*
X117350583Y-107444142D01*
X117191695Y-107529069D01*
X117019294Y-107581367D01*
X116884931Y-107594600D01*
X116795069Y-107594600D01*
X116660706Y-107581367D01*
X116488305Y-107529069D01*
X116329417Y-107444142D01*
X116190151Y-107329849D01*
X116075858Y-107190583D01*
X115990931Y-107031695D01*
X115938633Y-106859294D01*
X115920975Y-106680000D01*
X115938633Y-106500706D01*
X115990931Y-106328305D01*
X116075858Y-106169417D01*
X116190151Y-106030151D01*
X116329417Y-105915858D01*
X116488305Y-105830931D01*
X116660706Y-105778633D01*
X116795069Y-105765400D01*
X116884931Y-105765400D01*
X117019294Y-105778633D01*
X117019294Y-105778633D01*
G37*
G36*
X119559294Y-105778633D02*
G01*
X119731695Y-105830931D01*
X119890583Y-105915858D01*
X120029849Y-106030151D01*
X120144142Y-106169417D01*
X120229069Y-106328305D01*
X120281367Y-106500706D01*
X120299025Y-106680000D01*
X120281367Y-106859294D01*
X120229069Y-107031695D01*
X120144142Y-107190583D01*
X120029849Y-107329849D01*
X119890583Y-107444142D01*
X119731695Y-107529069D01*
X119559294Y-107581367D01*
X119424931Y-107594600D01*
X119335069Y-107594600D01*
X119200706Y-107581367D01*
X119028305Y-107529069D01*
X118869417Y-107444142D01*
X118730151Y-107329849D01*
X118615858Y-107190583D01*
X118530931Y-107031695D01*
X118478633Y-106859294D01*
X118460975Y-106680000D01*
X118478633Y-106500706D01*
X118530931Y-106328305D01*
X118615858Y-106169417D01*
X118730151Y-106030151D01*
X118869417Y-105915858D01*
X119028305Y-105830931D01*
X119200706Y-105778633D01*
X119335069Y-105765400D01*
X119424931Y-105765400D01*
X119559294Y-105778633D01*
X119559294Y-105778633D01*
G37*
G36*
X122099294Y-105778633D02*
G01*
X122271695Y-105830931D01*
X122430583Y-105915858D01*
X122569849Y-106030151D01*
X122684142Y-106169417D01*
X122769069Y-106328305D01*
X122821367Y-106500706D01*
X122839025Y-106680000D01*
X122821367Y-106859294D01*
X122769069Y-107031695D01*
X122684142Y-107190583D01*
X122569849Y-107329849D01*
X122430583Y-107444142D01*
X122271695Y-107529069D01*
X122099294Y-107581367D01*
X121964931Y-107594600D01*
X121875069Y-107594600D01*
X121740706Y-107581367D01*
X121568305Y-107529069D01*
X121409417Y-107444142D01*
X121270151Y-107329849D01*
X121155858Y-107190583D01*
X121070931Y-107031695D01*
X121018633Y-106859294D01*
X121000975Y-106680000D01*
X121018633Y-106500706D01*
X121070931Y-106328305D01*
X121155858Y-106169417D01*
X121270151Y-106030151D01*
X121409417Y-105915858D01*
X121568305Y-105830931D01*
X121740706Y-105778633D01*
X121875069Y-105765400D01*
X121964931Y-105765400D01*
X122099294Y-105778633D01*
X122099294Y-105778633D01*
G37*
G36*
X124639294Y-105778633D02*
G01*
X124811695Y-105830931D01*
X124970583Y-105915858D01*
X125109849Y-106030151D01*
X125224142Y-106169417D01*
X125309069Y-106328305D01*
X125361367Y-106500706D01*
X125379025Y-106680000D01*
X125361367Y-106859294D01*
X125309069Y-107031695D01*
X125224142Y-107190583D01*
X125109849Y-107329849D01*
X124970583Y-107444142D01*
X124811695Y-107529069D01*
X124639294Y-107581367D01*
X124504931Y-107594600D01*
X124415069Y-107594600D01*
X124280706Y-107581367D01*
X124108305Y-107529069D01*
X123949417Y-107444142D01*
X123810151Y-107329849D01*
X123695858Y-107190583D01*
X123610931Y-107031695D01*
X123558633Y-106859294D01*
X123540975Y-106680000D01*
X123558633Y-106500706D01*
X123610931Y-106328305D01*
X123695858Y-106169417D01*
X123810151Y-106030151D01*
X123949417Y-105915858D01*
X124108305Y-105830931D01*
X124280706Y-105778633D01*
X124415069Y-105765400D01*
X124504931Y-105765400D01*
X124639294Y-105778633D01*
X124639294Y-105778633D01*
G37*
G36*
X81459294Y-105778633D02*
G01*
X81631695Y-105830931D01*
X81790583Y-105915858D01*
X81929849Y-106030151D01*
X82044142Y-106169417D01*
X82129069Y-106328305D01*
X82181367Y-106500706D01*
X82199025Y-106680000D01*
X82181367Y-106859294D01*
X82129069Y-107031695D01*
X82044142Y-107190583D01*
X81929849Y-107329849D01*
X81790583Y-107444142D01*
X81631695Y-107529069D01*
X81459294Y-107581367D01*
X81324931Y-107594600D01*
X81235069Y-107594600D01*
X81100706Y-107581367D01*
X80928305Y-107529069D01*
X80769417Y-107444142D01*
X80630151Y-107329849D01*
X80515858Y-107190583D01*
X80430931Y-107031695D01*
X80378633Y-106859294D01*
X80360975Y-106680000D01*
X80378633Y-106500706D01*
X80430931Y-106328305D01*
X80515858Y-106169417D01*
X80630151Y-106030151D01*
X80769417Y-105915858D01*
X80928305Y-105830931D01*
X81100706Y-105778633D01*
X81235069Y-105765400D01*
X81324931Y-105765400D01*
X81459294Y-105778633D01*
X81459294Y-105778633D01*
G37*
G36*
X129719294Y-105778633D02*
G01*
X129891695Y-105830931D01*
X130050583Y-105915858D01*
X130189849Y-106030151D01*
X130304142Y-106169417D01*
X130389069Y-106328305D01*
X130441367Y-106500706D01*
X130459025Y-106680000D01*
X130441367Y-106859294D01*
X130389069Y-107031695D01*
X130304142Y-107190583D01*
X130189849Y-107329849D01*
X130050583Y-107444142D01*
X129891695Y-107529069D01*
X129719294Y-107581367D01*
X129584931Y-107594600D01*
X129495069Y-107594600D01*
X129360706Y-107581367D01*
X129188305Y-107529069D01*
X129029417Y-107444142D01*
X128890151Y-107329849D01*
X128775858Y-107190583D01*
X128690931Y-107031695D01*
X128638633Y-106859294D01*
X128620975Y-106680000D01*
X128638633Y-106500706D01*
X128690931Y-106328305D01*
X128775858Y-106169417D01*
X128890151Y-106030151D01*
X129029417Y-105915858D01*
X129188305Y-105830931D01*
X129360706Y-105778633D01*
X129495069Y-105765400D01*
X129584931Y-105765400D01*
X129719294Y-105778633D01*
X129719294Y-105778633D01*
G37*
G36*
X94159294Y-105778633D02*
G01*
X94331695Y-105830931D01*
X94490583Y-105915858D01*
X94629849Y-106030151D01*
X94744142Y-106169417D01*
X94829069Y-106328305D01*
X94881367Y-106500706D01*
X94899025Y-106680000D01*
X94881367Y-106859294D01*
X94829069Y-107031695D01*
X94744142Y-107190583D01*
X94629849Y-107329849D01*
X94490583Y-107444142D01*
X94331695Y-107529069D01*
X94159294Y-107581367D01*
X94024931Y-107594600D01*
X93935069Y-107594600D01*
X93800706Y-107581367D01*
X93628305Y-107529069D01*
X93469417Y-107444142D01*
X93330151Y-107329849D01*
X93215858Y-107190583D01*
X93130931Y-107031695D01*
X93078633Y-106859294D01*
X93060975Y-106680000D01*
X93078633Y-106500706D01*
X93130931Y-106328305D01*
X93215858Y-106169417D01*
X93330151Y-106030151D01*
X93469417Y-105915858D01*
X93628305Y-105830931D01*
X93800706Y-105778633D01*
X93935069Y-105765400D01*
X94024931Y-105765400D01*
X94159294Y-105778633D01*
X94159294Y-105778633D01*
G37*
G36*
X91619294Y-105778633D02*
G01*
X91791695Y-105830931D01*
X91950583Y-105915858D01*
X92089849Y-106030151D01*
X92204142Y-106169417D01*
X92289069Y-106328305D01*
X92341367Y-106500706D01*
X92359025Y-106680000D01*
X92341367Y-106859294D01*
X92289069Y-107031695D01*
X92204142Y-107190583D01*
X92089849Y-107329849D01*
X91950583Y-107444142D01*
X91791695Y-107529069D01*
X91619294Y-107581367D01*
X91484931Y-107594600D01*
X91395069Y-107594600D01*
X91260706Y-107581367D01*
X91088305Y-107529069D01*
X90929417Y-107444142D01*
X90790151Y-107329849D01*
X90675858Y-107190583D01*
X90590931Y-107031695D01*
X90538633Y-106859294D01*
X90520975Y-106680000D01*
X90538633Y-106500706D01*
X90590931Y-106328305D01*
X90675858Y-106169417D01*
X90790151Y-106030151D01*
X90929417Y-105915858D01*
X91088305Y-105830931D01*
X91260706Y-105778633D01*
X91395069Y-105765400D01*
X91484931Y-105765400D01*
X91619294Y-105778633D01*
X91619294Y-105778633D01*
G37*
G36*
X89079294Y-105778633D02*
G01*
X89251695Y-105830931D01*
X89410583Y-105915858D01*
X89549849Y-106030151D01*
X89664142Y-106169417D01*
X89749069Y-106328305D01*
X89801367Y-106500706D01*
X89819025Y-106680000D01*
X89801367Y-106859294D01*
X89749069Y-107031695D01*
X89664142Y-107190583D01*
X89549849Y-107329849D01*
X89410583Y-107444142D01*
X89251695Y-107529069D01*
X89079294Y-107581367D01*
X88944931Y-107594600D01*
X88855069Y-107594600D01*
X88720706Y-107581367D01*
X88548305Y-107529069D01*
X88389417Y-107444142D01*
X88250151Y-107329849D01*
X88135858Y-107190583D01*
X88050931Y-107031695D01*
X87998633Y-106859294D01*
X87980975Y-106680000D01*
X87998633Y-106500706D01*
X88050931Y-106328305D01*
X88135858Y-106169417D01*
X88250151Y-106030151D01*
X88389417Y-105915858D01*
X88548305Y-105830931D01*
X88720706Y-105778633D01*
X88855069Y-105765400D01*
X88944931Y-105765400D01*
X89079294Y-105778633D01*
X89079294Y-105778633D01*
G37*
G36*
X86539294Y-105778633D02*
G01*
X86711695Y-105830931D01*
X86870583Y-105915858D01*
X87009849Y-106030151D01*
X87124142Y-106169417D01*
X87209069Y-106328305D01*
X87261367Y-106500706D01*
X87279025Y-106680000D01*
X87261367Y-106859294D01*
X87209069Y-107031695D01*
X87124142Y-107190583D01*
X87009849Y-107329849D01*
X86870583Y-107444142D01*
X86711695Y-107529069D01*
X86539294Y-107581367D01*
X86404931Y-107594600D01*
X86315069Y-107594600D01*
X86180706Y-107581367D01*
X86008305Y-107529069D01*
X85849417Y-107444142D01*
X85710151Y-107329849D01*
X85595858Y-107190583D01*
X85510931Y-107031695D01*
X85458633Y-106859294D01*
X85440975Y-106680000D01*
X85458633Y-106500706D01*
X85510931Y-106328305D01*
X85595858Y-106169417D01*
X85710151Y-106030151D01*
X85849417Y-105915858D01*
X86008305Y-105830931D01*
X86180706Y-105778633D01*
X86315069Y-105765400D01*
X86404931Y-105765400D01*
X86539294Y-105778633D01*
X86539294Y-105778633D01*
G37*
G36*
X83999294Y-105778633D02*
G01*
X84171695Y-105830931D01*
X84330583Y-105915858D01*
X84469849Y-106030151D01*
X84584142Y-106169417D01*
X84669069Y-106328305D01*
X84721367Y-106500706D01*
X84739025Y-106680000D01*
X84721367Y-106859294D01*
X84669069Y-107031695D01*
X84584142Y-107190583D01*
X84469849Y-107329849D01*
X84330583Y-107444142D01*
X84171695Y-107529069D01*
X83999294Y-107581367D01*
X83864931Y-107594600D01*
X83775069Y-107594600D01*
X83640706Y-107581367D01*
X83468305Y-107529069D01*
X83309417Y-107444142D01*
X83170151Y-107329849D01*
X83055858Y-107190583D01*
X82970931Y-107031695D01*
X82918633Y-106859294D01*
X82900975Y-106680000D01*
X82918633Y-106500706D01*
X82970931Y-106328305D01*
X83055858Y-106169417D01*
X83170151Y-106030151D01*
X83309417Y-105915858D01*
X83468305Y-105830931D01*
X83640706Y-105778633D01*
X83775069Y-105765400D01*
X83864931Y-105765400D01*
X83999294Y-105778633D01*
X83999294Y-105778633D01*
G37*
G36*
X78919294Y-105778633D02*
G01*
X79091695Y-105830931D01*
X79250583Y-105915858D01*
X79389849Y-106030151D01*
X79504142Y-106169417D01*
X79589069Y-106328305D01*
X79641367Y-106500706D01*
X79659025Y-106680000D01*
X79641367Y-106859294D01*
X79589069Y-107031695D01*
X79504142Y-107190583D01*
X79389849Y-107329849D01*
X79250583Y-107444142D01*
X79091695Y-107529069D01*
X78919294Y-107581367D01*
X78784931Y-107594600D01*
X78695069Y-107594600D01*
X78560706Y-107581367D01*
X78388305Y-107529069D01*
X78229417Y-107444142D01*
X78090151Y-107329849D01*
X77975858Y-107190583D01*
X77890931Y-107031695D01*
X77838633Y-106859294D01*
X77820975Y-106680000D01*
X77838633Y-106500706D01*
X77890931Y-106328305D01*
X77975858Y-106169417D01*
X78090151Y-106030151D01*
X78229417Y-105915858D01*
X78388305Y-105830931D01*
X78560706Y-105778633D01*
X78695069Y-105765400D01*
X78784931Y-105765400D01*
X78919294Y-105778633D01*
X78919294Y-105778633D01*
G37*
G36*
X89079294Y-103238633D02*
G01*
X89251695Y-103290931D01*
X89410583Y-103375858D01*
X89549849Y-103490151D01*
X89664142Y-103629417D01*
X89749069Y-103788305D01*
X89801367Y-103960706D01*
X89819025Y-104140000D01*
X89801367Y-104319294D01*
X89749069Y-104491695D01*
X89664142Y-104650583D01*
X89549849Y-104789849D01*
X89410583Y-104904142D01*
X89251695Y-104989069D01*
X89079294Y-105041367D01*
X88944931Y-105054600D01*
X88855069Y-105054600D01*
X88720706Y-105041367D01*
X88548305Y-104989069D01*
X88389417Y-104904142D01*
X88250151Y-104789849D01*
X88135858Y-104650583D01*
X88050931Y-104491695D01*
X87998633Y-104319294D01*
X87980975Y-104140000D01*
X87998633Y-103960706D01*
X88050931Y-103788305D01*
X88135858Y-103629417D01*
X88250151Y-103490151D01*
X88389417Y-103375858D01*
X88548305Y-103290931D01*
X88720706Y-103238633D01*
X88855069Y-103225400D01*
X88944931Y-103225400D01*
X89079294Y-103238633D01*
X89079294Y-103238633D01*
G37*
G36*
X86539294Y-103238633D02*
G01*
X86711695Y-103290931D01*
X86870583Y-103375858D01*
X87009849Y-103490151D01*
X87124142Y-103629417D01*
X87209069Y-103788305D01*
X87261367Y-103960706D01*
X87279025Y-104140000D01*
X87261367Y-104319294D01*
X87209069Y-104491695D01*
X87124142Y-104650583D01*
X87009849Y-104789849D01*
X86870583Y-104904142D01*
X86711695Y-104989069D01*
X86539294Y-105041367D01*
X86404931Y-105054600D01*
X86315069Y-105054600D01*
X86180706Y-105041367D01*
X86008305Y-104989069D01*
X85849417Y-104904142D01*
X85710151Y-104789849D01*
X85595858Y-104650583D01*
X85510931Y-104491695D01*
X85458633Y-104319294D01*
X85440975Y-104140000D01*
X85458633Y-103960706D01*
X85510931Y-103788305D01*
X85595858Y-103629417D01*
X85710151Y-103490151D01*
X85849417Y-103375858D01*
X86008305Y-103290931D01*
X86180706Y-103238633D01*
X86315069Y-103225400D01*
X86404931Y-103225400D01*
X86539294Y-103238633D01*
X86539294Y-103238633D01*
G37*
G36*
X83999294Y-103238633D02*
G01*
X84171695Y-103290931D01*
X84330583Y-103375858D01*
X84469849Y-103490151D01*
X84584142Y-103629417D01*
X84669069Y-103788305D01*
X84721367Y-103960706D01*
X84739025Y-104140000D01*
X84721367Y-104319294D01*
X84669069Y-104491695D01*
X84584142Y-104650583D01*
X84469849Y-104789849D01*
X84330583Y-104904142D01*
X84171695Y-104989069D01*
X83999294Y-105041367D01*
X83864931Y-105054600D01*
X83775069Y-105054600D01*
X83640706Y-105041367D01*
X83468305Y-104989069D01*
X83309417Y-104904142D01*
X83170151Y-104789849D01*
X83055858Y-104650583D01*
X82970931Y-104491695D01*
X82918633Y-104319294D01*
X82900975Y-104140000D01*
X82918633Y-103960706D01*
X82970931Y-103788305D01*
X83055858Y-103629417D01*
X83170151Y-103490151D01*
X83309417Y-103375858D01*
X83468305Y-103290931D01*
X83640706Y-103238633D01*
X83775069Y-103225400D01*
X83864931Y-103225400D01*
X83999294Y-103238633D01*
X83999294Y-103238633D01*
G37*
G36*
X81459294Y-103238633D02*
G01*
X81631695Y-103290931D01*
X81790583Y-103375858D01*
X81929849Y-103490151D01*
X82044142Y-103629417D01*
X82129069Y-103788305D01*
X82181367Y-103960706D01*
X82199025Y-104140000D01*
X82181367Y-104319294D01*
X82129069Y-104491695D01*
X82044142Y-104650583D01*
X81929849Y-104789849D01*
X81790583Y-104904142D01*
X81631695Y-104989069D01*
X81459294Y-105041367D01*
X81324931Y-105054600D01*
X81235069Y-105054600D01*
X81100706Y-105041367D01*
X80928305Y-104989069D01*
X80769417Y-104904142D01*
X80630151Y-104789849D01*
X80515858Y-104650583D01*
X80430931Y-104491695D01*
X80378633Y-104319294D01*
X80360975Y-104140000D01*
X80378633Y-103960706D01*
X80430931Y-103788305D01*
X80515858Y-103629417D01*
X80630151Y-103490151D01*
X80769417Y-103375858D01*
X80928305Y-103290931D01*
X81100706Y-103238633D01*
X81235069Y-103225400D01*
X81324931Y-103225400D01*
X81459294Y-103238633D01*
X81459294Y-103238633D01*
G37*
G36*
X78919294Y-103238633D02*
G01*
X79091695Y-103290931D01*
X79250583Y-103375858D01*
X79389849Y-103490151D01*
X79504142Y-103629417D01*
X79589069Y-103788305D01*
X79641367Y-103960706D01*
X79659025Y-104140000D01*
X79641367Y-104319294D01*
X79589069Y-104491695D01*
X79504142Y-104650583D01*
X79389849Y-104789849D01*
X79250583Y-104904142D01*
X79091695Y-104989069D01*
X78919294Y-105041367D01*
X78784931Y-105054600D01*
X78695069Y-105054600D01*
X78560706Y-105041367D01*
X78388305Y-104989069D01*
X78229417Y-104904142D01*
X78090151Y-104789849D01*
X77975858Y-104650583D01*
X77890931Y-104491695D01*
X77838633Y-104319294D01*
X77820975Y-104140000D01*
X77838633Y-103960706D01*
X77890931Y-103788305D01*
X77975858Y-103629417D01*
X78090151Y-103490151D01*
X78229417Y-103375858D01*
X78388305Y-103290931D01*
X78560706Y-103238633D01*
X78695069Y-103225400D01*
X78784931Y-103225400D01*
X78919294Y-103238633D01*
X78919294Y-103238633D01*
G37*
G36*
X76379294Y-103238633D02*
G01*
X76551695Y-103290931D01*
X76710583Y-103375858D01*
X76849849Y-103490151D01*
X76964142Y-103629417D01*
X77049069Y-103788305D01*
X77101367Y-103960706D01*
X77119025Y-104140000D01*
X77101367Y-104319294D01*
X77049069Y-104491695D01*
X76964142Y-104650583D01*
X76849849Y-104789849D01*
X76710583Y-104904142D01*
X76551695Y-104989069D01*
X76379294Y-105041367D01*
X76244931Y-105054600D01*
X76155069Y-105054600D01*
X76020706Y-105041367D01*
X75848305Y-104989069D01*
X75689417Y-104904142D01*
X75550151Y-104789849D01*
X75435858Y-104650583D01*
X75350931Y-104491695D01*
X75298633Y-104319294D01*
X75280975Y-104140000D01*
X75298633Y-103960706D01*
X75350931Y-103788305D01*
X75435858Y-103629417D01*
X75550151Y-103490151D01*
X75689417Y-103375858D01*
X75848305Y-103290931D01*
X76020706Y-103238633D01*
X76155069Y-103225400D01*
X76244931Y-103225400D01*
X76379294Y-103238633D01*
X76379294Y-103238633D01*
G37*
G36*
X117019294Y-103238633D02*
G01*
X117191695Y-103290931D01*
X117350583Y-103375858D01*
X117489849Y-103490151D01*
X117604142Y-103629417D01*
X117689069Y-103788305D01*
X117741367Y-103960706D01*
X117759025Y-104140000D01*
X117741367Y-104319294D01*
X117689069Y-104491695D01*
X117604142Y-104650583D01*
X117489849Y-104789849D01*
X117350583Y-104904142D01*
X117191695Y-104989069D01*
X117019294Y-105041367D01*
X116884931Y-105054600D01*
X116795069Y-105054600D01*
X116660706Y-105041367D01*
X116488305Y-104989069D01*
X116329417Y-104904142D01*
X116190151Y-104789849D01*
X116075858Y-104650583D01*
X115990931Y-104491695D01*
X115938633Y-104319294D01*
X115920975Y-104140000D01*
X115938633Y-103960706D01*
X115990931Y-103788305D01*
X116075858Y-103629417D01*
X116190151Y-103490151D01*
X116329417Y-103375858D01*
X116488305Y-103290931D01*
X116660706Y-103238633D01*
X116795069Y-103225400D01*
X116884931Y-103225400D01*
X117019294Y-103238633D01*
X117019294Y-103238633D01*
G37*
G36*
X114479294Y-103238633D02*
G01*
X114651695Y-103290931D01*
X114810583Y-103375858D01*
X114949849Y-103490151D01*
X115064142Y-103629417D01*
X115149069Y-103788305D01*
X115201367Y-103960706D01*
X115219025Y-104140000D01*
X115201367Y-104319294D01*
X115149069Y-104491695D01*
X115064142Y-104650583D01*
X114949849Y-104789849D01*
X114810583Y-104904142D01*
X114651695Y-104989069D01*
X114479294Y-105041367D01*
X114344931Y-105054600D01*
X114255069Y-105054600D01*
X114120706Y-105041367D01*
X113948305Y-104989069D01*
X113789417Y-104904142D01*
X113650151Y-104789849D01*
X113535858Y-104650583D01*
X113450931Y-104491695D01*
X113398633Y-104319294D01*
X113380975Y-104140000D01*
X113398633Y-103960706D01*
X113450931Y-103788305D01*
X113535858Y-103629417D01*
X113650151Y-103490151D01*
X113789417Y-103375858D01*
X113948305Y-103290931D01*
X114120706Y-103238633D01*
X114255069Y-103225400D01*
X114344931Y-103225400D01*
X114479294Y-103238633D01*
X114479294Y-103238633D01*
G37*
G36*
X124639294Y-103238633D02*
G01*
X124811695Y-103290931D01*
X124970583Y-103375858D01*
X125109849Y-103490151D01*
X125224142Y-103629417D01*
X125309069Y-103788305D01*
X125361367Y-103960706D01*
X125379025Y-104140000D01*
X125361367Y-104319294D01*
X125309069Y-104491695D01*
X125224142Y-104650583D01*
X125109849Y-104789849D01*
X124970583Y-104904142D01*
X124811695Y-104989069D01*
X124639294Y-105041367D01*
X124504931Y-105054600D01*
X124415069Y-105054600D01*
X124280706Y-105041367D01*
X124108305Y-104989069D01*
X123949417Y-104904142D01*
X123810151Y-104789849D01*
X123695858Y-104650583D01*
X123610931Y-104491695D01*
X123558633Y-104319294D01*
X123540975Y-104140000D01*
X123558633Y-103960706D01*
X123610931Y-103788305D01*
X123695858Y-103629417D01*
X123810151Y-103490151D01*
X123949417Y-103375858D01*
X124108305Y-103290931D01*
X124280706Y-103238633D01*
X124415069Y-103225400D01*
X124504931Y-103225400D01*
X124639294Y-103238633D01*
X124639294Y-103238633D01*
G37*
G36*
X111939294Y-103238633D02*
G01*
X112111695Y-103290931D01*
X112270583Y-103375858D01*
X112409849Y-103490151D01*
X112524142Y-103629417D01*
X112609069Y-103788305D01*
X112661367Y-103960706D01*
X112679025Y-104140000D01*
X112661367Y-104319294D01*
X112609069Y-104491695D01*
X112524142Y-104650583D01*
X112409849Y-104789849D01*
X112270583Y-104904142D01*
X112111695Y-104989069D01*
X111939294Y-105041367D01*
X111804931Y-105054600D01*
X111715069Y-105054600D01*
X111580706Y-105041367D01*
X111408305Y-104989069D01*
X111249417Y-104904142D01*
X111110151Y-104789849D01*
X110995858Y-104650583D01*
X110910931Y-104491695D01*
X110858633Y-104319294D01*
X110840975Y-104140000D01*
X110858633Y-103960706D01*
X110910931Y-103788305D01*
X110995858Y-103629417D01*
X111110151Y-103490151D01*
X111249417Y-103375858D01*
X111408305Y-103290931D01*
X111580706Y-103238633D01*
X111715069Y-103225400D01*
X111804931Y-103225400D01*
X111939294Y-103238633D01*
X111939294Y-103238633D01*
G37*
G36*
X122099294Y-103238633D02*
G01*
X122271695Y-103290931D01*
X122430583Y-103375858D01*
X122569849Y-103490151D01*
X122684142Y-103629417D01*
X122769069Y-103788305D01*
X122821367Y-103960706D01*
X122839025Y-104140000D01*
X122821367Y-104319294D01*
X122769069Y-104491695D01*
X122684142Y-104650583D01*
X122569849Y-104789849D01*
X122430583Y-104904142D01*
X122271695Y-104989069D01*
X122099294Y-105041367D01*
X121964931Y-105054600D01*
X121875069Y-105054600D01*
X121740706Y-105041367D01*
X121568305Y-104989069D01*
X121409417Y-104904142D01*
X121270151Y-104789849D01*
X121155858Y-104650583D01*
X121070931Y-104491695D01*
X121018633Y-104319294D01*
X121000975Y-104140000D01*
X121018633Y-103960706D01*
X121070931Y-103788305D01*
X121155858Y-103629417D01*
X121270151Y-103490151D01*
X121409417Y-103375858D01*
X121568305Y-103290931D01*
X121740706Y-103238633D01*
X121875069Y-103225400D01*
X121964931Y-103225400D01*
X122099294Y-103238633D01*
X122099294Y-103238633D01*
G37*
G36*
X91619294Y-103238633D02*
G01*
X91791695Y-103290931D01*
X91950583Y-103375858D01*
X92089849Y-103490151D01*
X92204142Y-103629417D01*
X92289069Y-103788305D01*
X92341367Y-103960706D01*
X92359025Y-104140000D01*
X92341367Y-104319294D01*
X92289069Y-104491695D01*
X92204142Y-104650583D01*
X92089849Y-104789849D01*
X91950583Y-104904142D01*
X91791695Y-104989069D01*
X91619294Y-105041367D01*
X91484931Y-105054600D01*
X91395069Y-105054600D01*
X91260706Y-105041367D01*
X91088305Y-104989069D01*
X90929417Y-104904142D01*
X90790151Y-104789849D01*
X90675858Y-104650583D01*
X90590931Y-104491695D01*
X90538633Y-104319294D01*
X90520975Y-104140000D01*
X90538633Y-103960706D01*
X90590931Y-103788305D01*
X90675858Y-103629417D01*
X90790151Y-103490151D01*
X90929417Y-103375858D01*
X91088305Y-103290931D01*
X91260706Y-103238633D01*
X91395069Y-103225400D01*
X91484931Y-103225400D01*
X91619294Y-103238633D01*
X91619294Y-103238633D01*
G37*
G36*
X127179294Y-103238633D02*
G01*
X127351695Y-103290931D01*
X127510583Y-103375858D01*
X127649849Y-103490151D01*
X127764142Y-103629417D01*
X127849069Y-103788305D01*
X127901367Y-103960706D01*
X127919025Y-104140000D01*
X127901367Y-104319294D01*
X127849069Y-104491695D01*
X127764142Y-104650583D01*
X127649849Y-104789849D01*
X127510583Y-104904142D01*
X127351695Y-104989069D01*
X127179294Y-105041367D01*
X127044931Y-105054600D01*
X126955069Y-105054600D01*
X126820706Y-105041367D01*
X126648305Y-104989069D01*
X126489417Y-104904142D01*
X126350151Y-104789849D01*
X126235858Y-104650583D01*
X126150931Y-104491695D01*
X126098633Y-104319294D01*
X126080975Y-104140000D01*
X126098633Y-103960706D01*
X126150931Y-103788305D01*
X126235858Y-103629417D01*
X126350151Y-103490151D01*
X126489417Y-103375858D01*
X126648305Y-103290931D01*
X126820706Y-103238633D01*
X126955069Y-103225400D01*
X127044931Y-103225400D01*
X127179294Y-103238633D01*
X127179294Y-103238633D01*
G37*
G36*
X130454600Y-105054600D02*
G01*
X128625400Y-105054600D01*
X128625400Y-103225400D01*
X130454600Y-103225400D01*
X130454600Y-105054600D01*
X130454600Y-105054600D01*
G37*
G36*
X94894600Y-105054600D02*
G01*
X93065400Y-105054600D01*
X93065400Y-103225400D01*
X94894600Y-103225400D01*
X94894600Y-105054600D01*
X94894600Y-105054600D01*
G37*
G36*
X119559294Y-103238633D02*
G01*
X119731695Y-103290931D01*
X119890583Y-103375858D01*
X120029849Y-103490151D01*
X120144142Y-103629417D01*
X120229069Y-103788305D01*
X120281367Y-103960706D01*
X120299025Y-104140000D01*
X120281367Y-104319294D01*
X120229069Y-104491695D01*
X120144142Y-104650583D01*
X120029849Y-104789849D01*
X119890583Y-104904142D01*
X119731695Y-104989069D01*
X119559294Y-105041367D01*
X119424931Y-105054600D01*
X119335069Y-105054600D01*
X119200706Y-105041367D01*
X119028305Y-104989069D01*
X118869417Y-104904142D01*
X118730151Y-104789849D01*
X118615858Y-104650583D01*
X118530931Y-104491695D01*
X118478633Y-104319294D01*
X118460975Y-104140000D01*
X118478633Y-103960706D01*
X118530931Y-103788305D01*
X118615858Y-103629417D01*
X118730151Y-103490151D01*
X118869417Y-103375858D01*
X119028305Y-103290931D01*
X119200706Y-103238633D01*
X119335069Y-103225400D01*
X119424931Y-103225400D01*
X119559294Y-103238633D01*
X119559294Y-103238633D01*
G37*
G36*
X103036823Y-92741313D02*
G01*
X103197242Y-92789976D01*
X103329906Y-92860886D01*
X103345078Y-92868996D01*
X103474659Y-92975341D01*
X103581004Y-93104922D01*
X103581005Y-93104924D01*
X103660024Y-93252758D01*
X103708687Y-93413178D01*
X103721000Y-93538197D01*
X103721000Y-94421804D01*
X103708687Y-94546823D01*
X103660024Y-94707242D01*
X103589114Y-94839906D01*
X103581004Y-94855078D01*
X103474659Y-94984659D01*
X103345077Y-95091005D01*
X103197241Y-95170024D01*
X103036822Y-95218687D01*
X102870000Y-95235117D01*
X102703177Y-95218687D01*
X102542758Y-95170024D01*
X102394924Y-95091005D01*
X102394922Y-95091004D01*
X102265341Y-94984659D01*
X102158995Y-94855077D01*
X102079976Y-94707241D01*
X102031313Y-94546822D01*
X102019000Y-94421803D01*
X102019000Y-93538197D01*
X102031314Y-93413177D01*
X102079977Y-93252758D01*
X102158996Y-93104924D01*
X102158997Y-93104922D01*
X102265342Y-92975341D01*
X102394923Y-92868996D01*
X102410095Y-92860886D01*
X102542759Y-92789976D01*
X102703178Y-92741313D01*
X102870000Y-92724883D01*
X103036823Y-92741313D01*
X103036823Y-92741313D01*
G37*
G36*
X133516823Y-92741313D02*
G01*
X133677242Y-92789976D01*
X133809906Y-92860886D01*
X133825078Y-92868996D01*
X133954659Y-92975341D01*
X134061004Y-93104922D01*
X134061005Y-93104924D01*
X134140024Y-93252758D01*
X134188687Y-93413178D01*
X134201000Y-93538197D01*
X134201000Y-94421804D01*
X134188687Y-94546823D01*
X134140024Y-94707242D01*
X134069114Y-94839906D01*
X134061004Y-94855078D01*
X133954659Y-94984659D01*
X133825077Y-95091005D01*
X133677241Y-95170024D01*
X133516822Y-95218687D01*
X133350000Y-95235117D01*
X133183177Y-95218687D01*
X133022758Y-95170024D01*
X132874924Y-95091005D01*
X132874922Y-95091004D01*
X132745341Y-94984659D01*
X132638995Y-94855077D01*
X132559976Y-94707241D01*
X132511313Y-94546822D01*
X132499000Y-94421803D01*
X132499000Y-93538197D01*
X132511314Y-93413177D01*
X132559977Y-93252758D01*
X132638996Y-93104924D01*
X132638997Y-93104922D01*
X132745342Y-92975341D01*
X132874923Y-92868996D01*
X132890095Y-92860886D01*
X133022759Y-92789976D01*
X133183178Y-92741313D01*
X133350000Y-92724883D01*
X133516823Y-92741313D01*
X133516823Y-92741313D01*
G37*
G36*
X136056823Y-92741313D02*
G01*
X136217242Y-92789976D01*
X136349906Y-92860886D01*
X136365078Y-92868996D01*
X136494659Y-92975341D01*
X136601004Y-93104922D01*
X136601005Y-93104924D01*
X136680024Y-93252758D01*
X136728687Y-93413178D01*
X136741000Y-93538197D01*
X136741000Y-94421804D01*
X136728687Y-94546823D01*
X136680024Y-94707242D01*
X136609114Y-94839906D01*
X136601004Y-94855078D01*
X136494659Y-94984659D01*
X136365077Y-95091005D01*
X136217241Y-95170024D01*
X136056822Y-95218687D01*
X135890000Y-95235117D01*
X135723177Y-95218687D01*
X135562758Y-95170024D01*
X135414924Y-95091005D01*
X135414922Y-95091004D01*
X135285341Y-94984659D01*
X135178995Y-94855077D01*
X135099976Y-94707241D01*
X135051313Y-94546822D01*
X135039000Y-94421803D01*
X135039000Y-93538197D01*
X135051314Y-93413177D01*
X135099977Y-93252758D01*
X135178996Y-93104924D01*
X135178997Y-93104922D01*
X135285342Y-92975341D01*
X135414923Y-92868996D01*
X135430095Y-92860886D01*
X135562759Y-92789976D01*
X135723178Y-92741313D01*
X135890000Y-92724883D01*
X136056823Y-92741313D01*
X136056823Y-92741313D01*
G37*
G36*
X128436823Y-92741313D02*
G01*
X128597242Y-92789976D01*
X128729906Y-92860886D01*
X128745078Y-92868996D01*
X128874659Y-92975341D01*
X128981004Y-93104922D01*
X128981005Y-93104924D01*
X129060024Y-93252758D01*
X129108687Y-93413178D01*
X129121000Y-93538197D01*
X129121000Y-94421804D01*
X129108687Y-94546823D01*
X129060024Y-94707242D01*
X128989114Y-94839906D01*
X128981004Y-94855078D01*
X128874659Y-94984659D01*
X128745077Y-95091005D01*
X128597241Y-95170024D01*
X128436822Y-95218687D01*
X128270000Y-95235117D01*
X128103177Y-95218687D01*
X127942758Y-95170024D01*
X127794924Y-95091005D01*
X127794922Y-95091004D01*
X127665341Y-94984659D01*
X127558995Y-94855077D01*
X127479976Y-94707241D01*
X127431313Y-94546822D01*
X127419000Y-94421803D01*
X127419000Y-93538197D01*
X127431314Y-93413177D01*
X127479977Y-93252758D01*
X127558996Y-93104924D01*
X127558997Y-93104922D01*
X127665342Y-92975341D01*
X127794923Y-92868996D01*
X127810095Y-92860886D01*
X127942759Y-92789976D01*
X128103178Y-92741313D01*
X128270000Y-92724883D01*
X128436823Y-92741313D01*
X128436823Y-92741313D01*
G37*
G36*
X125896823Y-92741313D02*
G01*
X126057242Y-92789976D01*
X126189906Y-92860886D01*
X126205078Y-92868996D01*
X126334659Y-92975341D01*
X126441004Y-93104922D01*
X126441005Y-93104924D01*
X126520024Y-93252758D01*
X126568687Y-93413178D01*
X126581000Y-93538197D01*
X126581000Y-94421804D01*
X126568687Y-94546823D01*
X126520024Y-94707242D01*
X126449114Y-94839906D01*
X126441004Y-94855078D01*
X126334659Y-94984659D01*
X126205077Y-95091005D01*
X126057241Y-95170024D01*
X125896822Y-95218687D01*
X125730000Y-95235117D01*
X125563177Y-95218687D01*
X125402758Y-95170024D01*
X125254924Y-95091005D01*
X125254922Y-95091004D01*
X125125341Y-94984659D01*
X125018995Y-94855077D01*
X124939976Y-94707241D01*
X124891313Y-94546822D01*
X124879000Y-94421803D01*
X124879000Y-93538197D01*
X124891314Y-93413177D01*
X124939977Y-93252758D01*
X125018996Y-93104924D01*
X125018997Y-93104922D01*
X125125342Y-92975341D01*
X125254923Y-92868996D01*
X125270095Y-92860886D01*
X125402759Y-92789976D01*
X125563178Y-92741313D01*
X125730000Y-92724883D01*
X125896823Y-92741313D01*
X125896823Y-92741313D01*
G37*
G36*
X123356823Y-92741313D02*
G01*
X123517242Y-92789976D01*
X123649906Y-92860886D01*
X123665078Y-92868996D01*
X123794659Y-92975341D01*
X123901004Y-93104922D01*
X123901005Y-93104924D01*
X123980024Y-93252758D01*
X124028687Y-93413178D01*
X124041000Y-93538197D01*
X124041000Y-94421804D01*
X124028687Y-94546823D01*
X123980024Y-94707242D01*
X123909114Y-94839906D01*
X123901004Y-94855078D01*
X123794659Y-94984659D01*
X123665077Y-95091005D01*
X123517241Y-95170024D01*
X123356822Y-95218687D01*
X123190000Y-95235117D01*
X123023177Y-95218687D01*
X122862758Y-95170024D01*
X122714924Y-95091005D01*
X122714922Y-95091004D01*
X122585341Y-94984659D01*
X122478995Y-94855077D01*
X122399976Y-94707241D01*
X122351313Y-94546822D01*
X122339000Y-94421803D01*
X122339000Y-93538197D01*
X122351314Y-93413177D01*
X122399977Y-93252758D01*
X122478996Y-93104924D01*
X122478997Y-93104922D01*
X122585342Y-92975341D01*
X122714923Y-92868996D01*
X122730095Y-92860886D01*
X122862759Y-92789976D01*
X123023178Y-92741313D01*
X123190000Y-92724883D01*
X123356823Y-92741313D01*
X123356823Y-92741313D01*
G37*
G36*
X120816823Y-92741313D02*
G01*
X120977242Y-92789976D01*
X121109906Y-92860886D01*
X121125078Y-92868996D01*
X121254659Y-92975341D01*
X121361004Y-93104922D01*
X121361005Y-93104924D01*
X121440024Y-93252758D01*
X121488687Y-93413178D01*
X121501000Y-93538197D01*
X121501000Y-94421804D01*
X121488687Y-94546823D01*
X121440024Y-94707242D01*
X121369114Y-94839906D01*
X121361004Y-94855078D01*
X121254659Y-94984659D01*
X121125077Y-95091005D01*
X120977241Y-95170024D01*
X120816822Y-95218687D01*
X120650000Y-95235117D01*
X120483177Y-95218687D01*
X120322758Y-95170024D01*
X120174924Y-95091005D01*
X120174922Y-95091004D01*
X120045341Y-94984659D01*
X119938995Y-94855077D01*
X119859976Y-94707241D01*
X119811313Y-94546822D01*
X119799000Y-94421803D01*
X119799000Y-93538197D01*
X119811314Y-93413177D01*
X119859977Y-93252758D01*
X119938996Y-93104924D01*
X119938997Y-93104922D01*
X120045342Y-92975341D01*
X120174923Y-92868996D01*
X120190095Y-92860886D01*
X120322759Y-92789976D01*
X120483178Y-92741313D01*
X120650000Y-92724883D01*
X120816823Y-92741313D01*
X120816823Y-92741313D01*
G37*
G36*
X115736823Y-92741313D02*
G01*
X115897242Y-92789976D01*
X116029906Y-92860886D01*
X116045078Y-92868996D01*
X116174659Y-92975341D01*
X116281004Y-93104922D01*
X116281005Y-93104924D01*
X116360024Y-93252758D01*
X116408687Y-93413178D01*
X116421000Y-93538197D01*
X116421000Y-94421804D01*
X116408687Y-94546823D01*
X116360024Y-94707242D01*
X116289114Y-94839906D01*
X116281004Y-94855078D01*
X116174659Y-94984659D01*
X116045077Y-95091005D01*
X115897241Y-95170024D01*
X115736822Y-95218687D01*
X115570000Y-95235117D01*
X115403177Y-95218687D01*
X115242758Y-95170024D01*
X115094924Y-95091005D01*
X115094922Y-95091004D01*
X114965341Y-94984659D01*
X114858995Y-94855077D01*
X114779976Y-94707241D01*
X114731313Y-94546822D01*
X114719000Y-94421803D01*
X114719000Y-93538197D01*
X114731314Y-93413177D01*
X114779977Y-93252758D01*
X114858996Y-93104924D01*
X114858997Y-93104922D01*
X114965342Y-92975341D01*
X115094923Y-92868996D01*
X115110095Y-92860886D01*
X115242759Y-92789976D01*
X115403178Y-92741313D01*
X115570000Y-92724883D01*
X115736823Y-92741313D01*
X115736823Y-92741313D01*
G37*
G36*
X113196823Y-92741313D02*
G01*
X113357242Y-92789976D01*
X113489906Y-92860886D01*
X113505078Y-92868996D01*
X113634659Y-92975341D01*
X113741004Y-93104922D01*
X113741005Y-93104924D01*
X113820024Y-93252758D01*
X113868687Y-93413178D01*
X113881000Y-93538197D01*
X113881000Y-94421804D01*
X113868687Y-94546823D01*
X113820024Y-94707242D01*
X113749114Y-94839906D01*
X113741004Y-94855078D01*
X113634659Y-94984659D01*
X113505077Y-95091005D01*
X113357241Y-95170024D01*
X113196822Y-95218687D01*
X113030000Y-95235117D01*
X112863177Y-95218687D01*
X112702758Y-95170024D01*
X112554924Y-95091005D01*
X112554922Y-95091004D01*
X112425341Y-94984659D01*
X112318995Y-94855077D01*
X112239976Y-94707241D01*
X112191313Y-94546822D01*
X112179000Y-94421803D01*
X112179000Y-93538197D01*
X112191314Y-93413177D01*
X112239977Y-93252758D01*
X112318996Y-93104924D01*
X112318997Y-93104922D01*
X112425342Y-92975341D01*
X112554923Y-92868996D01*
X112570095Y-92860886D01*
X112702759Y-92789976D01*
X112863178Y-92741313D01*
X113030000Y-92724883D01*
X113196823Y-92741313D01*
X113196823Y-92741313D01*
G37*
G36*
X110656823Y-92741313D02*
G01*
X110817242Y-92789976D01*
X110949906Y-92860886D01*
X110965078Y-92868996D01*
X111094659Y-92975341D01*
X111201004Y-93104922D01*
X111201005Y-93104924D01*
X111280024Y-93252758D01*
X111328687Y-93413178D01*
X111341000Y-93538197D01*
X111341000Y-94421804D01*
X111328687Y-94546823D01*
X111280024Y-94707242D01*
X111209114Y-94839906D01*
X111201004Y-94855078D01*
X111094659Y-94984659D01*
X110965077Y-95091005D01*
X110817241Y-95170024D01*
X110656822Y-95218687D01*
X110490000Y-95235117D01*
X110323177Y-95218687D01*
X110162758Y-95170024D01*
X110014924Y-95091005D01*
X110014922Y-95091004D01*
X109885341Y-94984659D01*
X109778995Y-94855077D01*
X109699976Y-94707241D01*
X109651313Y-94546822D01*
X109639000Y-94421803D01*
X109639000Y-93538197D01*
X109651314Y-93413177D01*
X109699977Y-93252758D01*
X109778996Y-93104924D01*
X109778997Y-93104922D01*
X109885342Y-92975341D01*
X110014923Y-92868996D01*
X110030095Y-92860886D01*
X110162759Y-92789976D01*
X110323178Y-92741313D01*
X110490000Y-92724883D01*
X110656823Y-92741313D01*
X110656823Y-92741313D01*
G37*
G36*
X108116823Y-92741313D02*
G01*
X108277242Y-92789976D01*
X108409906Y-92860886D01*
X108425078Y-92868996D01*
X108554659Y-92975341D01*
X108661004Y-93104922D01*
X108661005Y-93104924D01*
X108740024Y-93252758D01*
X108788687Y-93413178D01*
X108801000Y-93538197D01*
X108801000Y-94421804D01*
X108788687Y-94546823D01*
X108740024Y-94707242D01*
X108669114Y-94839906D01*
X108661004Y-94855078D01*
X108554659Y-94984659D01*
X108425077Y-95091005D01*
X108277241Y-95170024D01*
X108116822Y-95218687D01*
X107950000Y-95235117D01*
X107783177Y-95218687D01*
X107622758Y-95170024D01*
X107474924Y-95091005D01*
X107474922Y-95091004D01*
X107345341Y-94984659D01*
X107238995Y-94855077D01*
X107159976Y-94707241D01*
X107111313Y-94546822D01*
X107099000Y-94421803D01*
X107099000Y-93538197D01*
X107111314Y-93413177D01*
X107159977Y-93252758D01*
X107238996Y-93104924D01*
X107238997Y-93104922D01*
X107345342Y-92975341D01*
X107474923Y-92868996D01*
X107490095Y-92860886D01*
X107622759Y-92789976D01*
X107783178Y-92741313D01*
X107950000Y-92724883D01*
X108116823Y-92741313D01*
X108116823Y-92741313D01*
G37*
G36*
X105576823Y-92741313D02*
G01*
X105737242Y-92789976D01*
X105869906Y-92860886D01*
X105885078Y-92868996D01*
X106014659Y-92975341D01*
X106121004Y-93104922D01*
X106121005Y-93104924D01*
X106200024Y-93252758D01*
X106248687Y-93413178D01*
X106261000Y-93538197D01*
X106261000Y-94421804D01*
X106248687Y-94546823D01*
X106200024Y-94707242D01*
X106129114Y-94839906D01*
X106121004Y-94855078D01*
X106014659Y-94984659D01*
X105885077Y-95091005D01*
X105737241Y-95170024D01*
X105576822Y-95218687D01*
X105410000Y-95235117D01*
X105243177Y-95218687D01*
X105082758Y-95170024D01*
X104934924Y-95091005D01*
X104934922Y-95091004D01*
X104805341Y-94984659D01*
X104698995Y-94855077D01*
X104619976Y-94707241D01*
X104571313Y-94546822D01*
X104559000Y-94421803D01*
X104559000Y-93538197D01*
X104571314Y-93413177D01*
X104619977Y-93252758D01*
X104698996Y-93104924D01*
X104698997Y-93104922D01*
X104805342Y-92975341D01*
X104934923Y-92868996D01*
X104950095Y-92860886D01*
X105082759Y-92789976D01*
X105243178Y-92741313D01*
X105410000Y-92724883D01*
X105576823Y-92741313D01*
X105576823Y-92741313D01*
G37*
G36*
X130976823Y-92741313D02*
G01*
X131137242Y-92789976D01*
X131269906Y-92860886D01*
X131285078Y-92868996D01*
X131414659Y-92975341D01*
X131521004Y-93104922D01*
X131521005Y-93104924D01*
X131600024Y-93252758D01*
X131648687Y-93413178D01*
X131661000Y-93538197D01*
X131661000Y-94421804D01*
X131648687Y-94546823D01*
X131600024Y-94707242D01*
X131529114Y-94839906D01*
X131521004Y-94855078D01*
X131414659Y-94984659D01*
X131285077Y-95091005D01*
X131137241Y-95170024D01*
X130976822Y-95218687D01*
X130810000Y-95235117D01*
X130643177Y-95218687D01*
X130482758Y-95170024D01*
X130334924Y-95091005D01*
X130334922Y-95091004D01*
X130205341Y-94984659D01*
X130098995Y-94855077D01*
X130019976Y-94707241D01*
X129971313Y-94546822D01*
X129959000Y-94421803D01*
X129959000Y-93538197D01*
X129971314Y-93413177D01*
X130019977Y-93252758D01*
X130098996Y-93104924D01*
X130098997Y-93104922D01*
X130205342Y-92975341D01*
X130334923Y-92868996D01*
X130350095Y-92860886D01*
X130482759Y-92789976D01*
X130643178Y-92741313D01*
X130810000Y-92724883D01*
X130976823Y-92741313D01*
X130976823Y-92741313D01*
G37*
G36*
X118276823Y-92741313D02*
G01*
X118437242Y-92789976D01*
X118569906Y-92860886D01*
X118585078Y-92868996D01*
X118714659Y-92975341D01*
X118821004Y-93104922D01*
X118821005Y-93104924D01*
X118900024Y-93252758D01*
X118948687Y-93413178D01*
X118961000Y-93538197D01*
X118961000Y-94421804D01*
X118948687Y-94546823D01*
X118900024Y-94707242D01*
X118829114Y-94839906D01*
X118821004Y-94855078D01*
X118714659Y-94984659D01*
X118585077Y-95091005D01*
X118437241Y-95170024D01*
X118276822Y-95218687D01*
X118110000Y-95235117D01*
X117943177Y-95218687D01*
X117782758Y-95170024D01*
X117634924Y-95091005D01*
X117634922Y-95091004D01*
X117505341Y-94984659D01*
X117398995Y-94855077D01*
X117319976Y-94707241D01*
X117271313Y-94546822D01*
X117259000Y-94421803D01*
X117259000Y-93538197D01*
X117271314Y-93413177D01*
X117319977Y-93252758D01*
X117398996Y-93104924D01*
X117398997Y-93104922D01*
X117505342Y-92975341D01*
X117634923Y-92868996D01*
X117650095Y-92860886D01*
X117782759Y-92789976D01*
X117943178Y-92741313D01*
X118110000Y-92724883D01*
X118276823Y-92741313D01*
X118276823Y-92741313D01*
G37*
G36*
X118276823Y-74961313D02*
G01*
X118437242Y-75009976D01*
X118569906Y-75080886D01*
X118585078Y-75088996D01*
X118714659Y-75195341D01*
X118821004Y-75324922D01*
X118821005Y-75324924D01*
X118900024Y-75472758D01*
X118948687Y-75633178D01*
X118961000Y-75758197D01*
X118961000Y-76641804D01*
X118948687Y-76766823D01*
X118900024Y-76927242D01*
X118829114Y-77059906D01*
X118821004Y-77075078D01*
X118714659Y-77204659D01*
X118585077Y-77311005D01*
X118437241Y-77390024D01*
X118276822Y-77438687D01*
X118110000Y-77455117D01*
X117943177Y-77438687D01*
X117782758Y-77390024D01*
X117634924Y-77311005D01*
X117634922Y-77311004D01*
X117505341Y-77204659D01*
X117398995Y-77075077D01*
X117319976Y-76927241D01*
X117271313Y-76766822D01*
X117259000Y-76641803D01*
X117259000Y-75758197D01*
X117271314Y-75633177D01*
X117319977Y-75472758D01*
X117398996Y-75324924D01*
X117398997Y-75324922D01*
X117505342Y-75195341D01*
X117634923Y-75088996D01*
X117650095Y-75080886D01*
X117782759Y-75009976D01*
X117943178Y-74961313D01*
X118110000Y-74944883D01*
X118276823Y-74961313D01*
X118276823Y-74961313D01*
G37*
G36*
X110656823Y-74961313D02*
G01*
X110817242Y-75009976D01*
X110949906Y-75080886D01*
X110965078Y-75088996D01*
X111094659Y-75195341D01*
X111201004Y-75324922D01*
X111201005Y-75324924D01*
X111280024Y-75472758D01*
X111328687Y-75633178D01*
X111341000Y-75758197D01*
X111341000Y-76641804D01*
X111328687Y-76766823D01*
X111280024Y-76927242D01*
X111209114Y-77059906D01*
X111201004Y-77075078D01*
X111094659Y-77204659D01*
X110965077Y-77311005D01*
X110817241Y-77390024D01*
X110656822Y-77438687D01*
X110490000Y-77455117D01*
X110323177Y-77438687D01*
X110162758Y-77390024D01*
X110014924Y-77311005D01*
X110014922Y-77311004D01*
X109885341Y-77204659D01*
X109778995Y-77075077D01*
X109699976Y-76927241D01*
X109651313Y-76766822D01*
X109639000Y-76641803D01*
X109639000Y-75758197D01*
X109651314Y-75633177D01*
X109699977Y-75472758D01*
X109778996Y-75324924D01*
X109778997Y-75324922D01*
X109885342Y-75195341D01*
X110014923Y-75088996D01*
X110030095Y-75080886D01*
X110162759Y-75009976D01*
X110323178Y-74961313D01*
X110490000Y-74944883D01*
X110656823Y-74961313D01*
X110656823Y-74961313D01*
G37*
G36*
X103036823Y-74961313D02*
G01*
X103197242Y-75009976D01*
X103329906Y-75080886D01*
X103345078Y-75088996D01*
X103474659Y-75195341D01*
X103581004Y-75324922D01*
X103581005Y-75324924D01*
X103660024Y-75472758D01*
X103708687Y-75633178D01*
X103721000Y-75758197D01*
X103721000Y-76641804D01*
X103708687Y-76766823D01*
X103660024Y-76927242D01*
X103589114Y-77059906D01*
X103581004Y-77075078D01*
X103474659Y-77204659D01*
X103345077Y-77311005D01*
X103197241Y-77390024D01*
X103036822Y-77438687D01*
X102870000Y-77455117D01*
X102703177Y-77438687D01*
X102542758Y-77390024D01*
X102394924Y-77311005D01*
X102394922Y-77311004D01*
X102265341Y-77204659D01*
X102158995Y-77075077D01*
X102079976Y-76927241D01*
X102031313Y-76766822D01*
X102019000Y-76641803D01*
X102019000Y-75758197D01*
X102031314Y-75633177D01*
X102079977Y-75472758D01*
X102158996Y-75324924D01*
X102158997Y-75324922D01*
X102265342Y-75195341D01*
X102394923Y-75088996D01*
X102410095Y-75080886D01*
X102542759Y-75009976D01*
X102703178Y-74961313D01*
X102870000Y-74944883D01*
X103036823Y-74961313D01*
X103036823Y-74961313D01*
G37*
G36*
X108116823Y-74961313D02*
G01*
X108277242Y-75009976D01*
X108409906Y-75080886D01*
X108425078Y-75088996D01*
X108554659Y-75195341D01*
X108661004Y-75324922D01*
X108661005Y-75324924D01*
X108740024Y-75472758D01*
X108788687Y-75633178D01*
X108801000Y-75758197D01*
X108801000Y-76641804D01*
X108788687Y-76766823D01*
X108740024Y-76927242D01*
X108669114Y-77059906D01*
X108661004Y-77075078D01*
X108554659Y-77204659D01*
X108425077Y-77311005D01*
X108277241Y-77390024D01*
X108116822Y-77438687D01*
X107950000Y-77455117D01*
X107783177Y-77438687D01*
X107622758Y-77390024D01*
X107474924Y-77311005D01*
X107474922Y-77311004D01*
X107345341Y-77204659D01*
X107238995Y-77075077D01*
X107159976Y-76927241D01*
X107111313Y-76766822D01*
X107099000Y-76641803D01*
X107099000Y-75758197D01*
X107111314Y-75633177D01*
X107159977Y-75472758D01*
X107238996Y-75324924D01*
X107238997Y-75324922D01*
X107345342Y-75195341D01*
X107474923Y-75088996D01*
X107490095Y-75080886D01*
X107622759Y-75009976D01*
X107783178Y-74961313D01*
X107950000Y-74944883D01*
X108116823Y-74961313D01*
X108116823Y-74961313D01*
G37*
G36*
X113196823Y-74961313D02*
G01*
X113357242Y-75009976D01*
X113489906Y-75080886D01*
X113505078Y-75088996D01*
X113634659Y-75195341D01*
X113741004Y-75324922D01*
X113741005Y-75324924D01*
X113820024Y-75472758D01*
X113868687Y-75633178D01*
X113881000Y-75758197D01*
X113881000Y-76641804D01*
X113868687Y-76766823D01*
X113820024Y-76927242D01*
X113749114Y-77059906D01*
X113741004Y-77075078D01*
X113634659Y-77204659D01*
X113505077Y-77311005D01*
X113357241Y-77390024D01*
X113196822Y-77438687D01*
X113030000Y-77455117D01*
X112863177Y-77438687D01*
X112702758Y-77390024D01*
X112554924Y-77311005D01*
X112554922Y-77311004D01*
X112425341Y-77204659D01*
X112318995Y-77075077D01*
X112239976Y-76927241D01*
X112191313Y-76766822D01*
X112179000Y-76641803D01*
X112179000Y-75758197D01*
X112191314Y-75633177D01*
X112239977Y-75472758D01*
X112318996Y-75324924D01*
X112318997Y-75324922D01*
X112425342Y-75195341D01*
X112554923Y-75088996D01*
X112570095Y-75080886D01*
X112702759Y-75009976D01*
X112863178Y-74961313D01*
X113030000Y-74944883D01*
X113196823Y-74961313D01*
X113196823Y-74961313D01*
G37*
G36*
X115736823Y-74961313D02*
G01*
X115897242Y-75009976D01*
X116029906Y-75080886D01*
X116045078Y-75088996D01*
X116174659Y-75195341D01*
X116281004Y-75324922D01*
X116281005Y-75324924D01*
X116360024Y-75472758D01*
X116408687Y-75633178D01*
X116421000Y-75758197D01*
X116421000Y-76641804D01*
X116408687Y-76766823D01*
X116360024Y-76927242D01*
X116289114Y-77059906D01*
X116281004Y-77075078D01*
X116174659Y-77204659D01*
X116045077Y-77311005D01*
X115897241Y-77390024D01*
X115736822Y-77438687D01*
X115570000Y-77455117D01*
X115403177Y-77438687D01*
X115242758Y-77390024D01*
X115094924Y-77311005D01*
X115094922Y-77311004D01*
X114965341Y-77204659D01*
X114858995Y-77075077D01*
X114779976Y-76927241D01*
X114731313Y-76766822D01*
X114719000Y-76641803D01*
X114719000Y-75758197D01*
X114731314Y-75633177D01*
X114779977Y-75472758D01*
X114858996Y-75324924D01*
X114858997Y-75324922D01*
X114965342Y-75195341D01*
X115094923Y-75088996D01*
X115110095Y-75080886D01*
X115242759Y-75009976D01*
X115403178Y-74961313D01*
X115570000Y-74944883D01*
X115736823Y-74961313D01*
X115736823Y-74961313D01*
G37*
G36*
X120816823Y-74961313D02*
G01*
X120977242Y-75009976D01*
X121109906Y-75080886D01*
X121125078Y-75088996D01*
X121254659Y-75195341D01*
X121361004Y-75324922D01*
X121361005Y-75324924D01*
X121440024Y-75472758D01*
X121488687Y-75633178D01*
X121501000Y-75758197D01*
X121501000Y-76641804D01*
X121488687Y-76766823D01*
X121440024Y-76927242D01*
X121369114Y-77059906D01*
X121361004Y-77075078D01*
X121254659Y-77204659D01*
X121125077Y-77311005D01*
X120977241Y-77390024D01*
X120816822Y-77438687D01*
X120650000Y-77455117D01*
X120483177Y-77438687D01*
X120322758Y-77390024D01*
X120174924Y-77311005D01*
X120174922Y-77311004D01*
X120045341Y-77204659D01*
X119938995Y-77075077D01*
X119859976Y-76927241D01*
X119811313Y-76766822D01*
X119799000Y-76641803D01*
X119799000Y-75758197D01*
X119811314Y-75633177D01*
X119859977Y-75472758D01*
X119938996Y-75324924D01*
X119938997Y-75324922D01*
X120045342Y-75195341D01*
X120174923Y-75088996D01*
X120190095Y-75080886D01*
X120322759Y-75009976D01*
X120483178Y-74961313D01*
X120650000Y-74944883D01*
X120816823Y-74961313D01*
X120816823Y-74961313D01*
G37*
G36*
X123356823Y-74961313D02*
G01*
X123517242Y-75009976D01*
X123649906Y-75080886D01*
X123665078Y-75088996D01*
X123794659Y-75195341D01*
X123901004Y-75324922D01*
X123901005Y-75324924D01*
X123980024Y-75472758D01*
X124028687Y-75633178D01*
X124041000Y-75758197D01*
X124041000Y-76641804D01*
X124028687Y-76766823D01*
X123980024Y-76927242D01*
X123909114Y-77059906D01*
X123901004Y-77075078D01*
X123794659Y-77204659D01*
X123665077Y-77311005D01*
X123517241Y-77390024D01*
X123356822Y-77438687D01*
X123190000Y-77455117D01*
X123023177Y-77438687D01*
X122862758Y-77390024D01*
X122714924Y-77311005D01*
X122714922Y-77311004D01*
X122585341Y-77204659D01*
X122478995Y-77075077D01*
X122399976Y-76927241D01*
X122351313Y-76766822D01*
X122339000Y-76641803D01*
X122339000Y-75758197D01*
X122351314Y-75633177D01*
X122399977Y-75472758D01*
X122478996Y-75324924D01*
X122478997Y-75324922D01*
X122585342Y-75195341D01*
X122714923Y-75088996D01*
X122730095Y-75080886D01*
X122862759Y-75009976D01*
X123023178Y-74961313D01*
X123190000Y-74944883D01*
X123356823Y-74961313D01*
X123356823Y-74961313D01*
G37*
G36*
X128436823Y-74961313D02*
G01*
X128597242Y-75009976D01*
X128729906Y-75080886D01*
X128745078Y-75088996D01*
X128874659Y-75195341D01*
X128981004Y-75324922D01*
X128981005Y-75324924D01*
X129060024Y-75472758D01*
X129108687Y-75633178D01*
X129121000Y-75758197D01*
X129121000Y-76641804D01*
X129108687Y-76766823D01*
X129060024Y-76927242D01*
X128989114Y-77059906D01*
X128981004Y-77075078D01*
X128874659Y-77204659D01*
X128745077Y-77311005D01*
X128597241Y-77390024D01*
X128436822Y-77438687D01*
X128270000Y-77455117D01*
X128103177Y-77438687D01*
X127942758Y-77390024D01*
X127794924Y-77311005D01*
X127794922Y-77311004D01*
X127665341Y-77204659D01*
X127558995Y-77075077D01*
X127479976Y-76927241D01*
X127431313Y-76766822D01*
X127419000Y-76641803D01*
X127419000Y-75758197D01*
X127431314Y-75633177D01*
X127479977Y-75472758D01*
X127558996Y-75324924D01*
X127558997Y-75324922D01*
X127665342Y-75195341D01*
X127794923Y-75088996D01*
X127810095Y-75080886D01*
X127942759Y-75009976D01*
X128103178Y-74961313D01*
X128270000Y-74944883D01*
X128436823Y-74961313D01*
X128436823Y-74961313D01*
G37*
G36*
X130976823Y-74961313D02*
G01*
X131137242Y-75009976D01*
X131269906Y-75080886D01*
X131285078Y-75088996D01*
X131414659Y-75195341D01*
X131521004Y-75324922D01*
X131521005Y-75324924D01*
X131600024Y-75472758D01*
X131648687Y-75633178D01*
X131661000Y-75758197D01*
X131661000Y-76641804D01*
X131648687Y-76766823D01*
X131600024Y-76927242D01*
X131529114Y-77059906D01*
X131521004Y-77075078D01*
X131414659Y-77204659D01*
X131285077Y-77311005D01*
X131137241Y-77390024D01*
X130976822Y-77438687D01*
X130810000Y-77455117D01*
X130643177Y-77438687D01*
X130482758Y-77390024D01*
X130334924Y-77311005D01*
X130334922Y-77311004D01*
X130205341Y-77204659D01*
X130098995Y-77075077D01*
X130019976Y-76927241D01*
X129971313Y-76766822D01*
X129959000Y-76641803D01*
X129959000Y-75758197D01*
X129971314Y-75633177D01*
X130019977Y-75472758D01*
X130098996Y-75324924D01*
X130098997Y-75324922D01*
X130205342Y-75195341D01*
X130334923Y-75088996D01*
X130350095Y-75080886D01*
X130482759Y-75009976D01*
X130643178Y-74961313D01*
X130810000Y-74944883D01*
X130976823Y-74961313D01*
X130976823Y-74961313D01*
G37*
G36*
X125896823Y-74961313D02*
G01*
X126057242Y-75009976D01*
X126189906Y-75080886D01*
X126205078Y-75088996D01*
X126334659Y-75195341D01*
X126441004Y-75324922D01*
X126441005Y-75324924D01*
X126520024Y-75472758D01*
X126568687Y-75633178D01*
X126581000Y-75758197D01*
X126581000Y-76641804D01*
X126568687Y-76766823D01*
X126520024Y-76927242D01*
X126449114Y-77059906D01*
X126441004Y-77075078D01*
X126334659Y-77204659D01*
X126205077Y-77311005D01*
X126057241Y-77390024D01*
X125896822Y-77438687D01*
X125730000Y-77455117D01*
X125563177Y-77438687D01*
X125402758Y-77390024D01*
X125254924Y-77311005D01*
X125254922Y-77311004D01*
X125125341Y-77204659D01*
X125018995Y-77075077D01*
X124939976Y-76927241D01*
X124891313Y-76766822D01*
X124879000Y-76641803D01*
X124879000Y-75758197D01*
X124891314Y-75633177D01*
X124939977Y-75472758D01*
X125018996Y-75324924D01*
X125018997Y-75324922D01*
X125125342Y-75195341D01*
X125254923Y-75088996D01*
X125270095Y-75080886D01*
X125402759Y-75009976D01*
X125563178Y-74961313D01*
X125730000Y-74944883D01*
X125896823Y-74961313D01*
X125896823Y-74961313D01*
G37*
G36*
X105576823Y-74961313D02*
G01*
X105737242Y-75009976D01*
X105869906Y-75080886D01*
X105885078Y-75088996D01*
X106014659Y-75195341D01*
X106121004Y-75324922D01*
X106121005Y-75324924D01*
X106200024Y-75472758D01*
X106248687Y-75633178D01*
X106261000Y-75758197D01*
X106261000Y-76641804D01*
X106248687Y-76766823D01*
X106200024Y-76927242D01*
X106129114Y-77059906D01*
X106121004Y-77075078D01*
X106014659Y-77204659D01*
X105885077Y-77311005D01*
X105737241Y-77390024D01*
X105576822Y-77438687D01*
X105410000Y-77455117D01*
X105243177Y-77438687D01*
X105082758Y-77390024D01*
X104934924Y-77311005D01*
X104934922Y-77311004D01*
X104805341Y-77204659D01*
X104698995Y-77075077D01*
X104619976Y-76927241D01*
X104571313Y-76766822D01*
X104559000Y-76641803D01*
X104559000Y-75758197D01*
X104571314Y-75633177D01*
X104619977Y-75472758D01*
X104698996Y-75324924D01*
X104698997Y-75324922D01*
X104805342Y-75195341D01*
X104934923Y-75088996D01*
X104950095Y-75080886D01*
X105082759Y-75009976D01*
X105243178Y-74961313D01*
X105410000Y-74944883D01*
X105576823Y-74961313D01*
X105576823Y-74961313D01*
G37*
G36*
X133516823Y-74961313D02*
G01*
X133677242Y-75009976D01*
X133809906Y-75080886D01*
X133825078Y-75088996D01*
X133954659Y-75195341D01*
X134061004Y-75324922D01*
X134061005Y-75324924D01*
X134140024Y-75472758D01*
X134188687Y-75633178D01*
X134201000Y-75758197D01*
X134201000Y-76641804D01*
X134188687Y-76766823D01*
X134140024Y-76927242D01*
X134069114Y-77059906D01*
X134061004Y-77075078D01*
X133954659Y-77204659D01*
X133825077Y-77311005D01*
X133677241Y-77390024D01*
X133516822Y-77438687D01*
X133350000Y-77455117D01*
X133183177Y-77438687D01*
X133022758Y-77390024D01*
X132874924Y-77311005D01*
X132874922Y-77311004D01*
X132745341Y-77204659D01*
X132638995Y-77075077D01*
X132559976Y-76927241D01*
X132511313Y-76766822D01*
X132499000Y-76641803D01*
X132499000Y-75758197D01*
X132511314Y-75633177D01*
X132559977Y-75472758D01*
X132638996Y-75324924D01*
X132638997Y-75324922D01*
X132745342Y-75195341D01*
X132874923Y-75088996D01*
X132890095Y-75080886D01*
X133022759Y-75009976D01*
X133183178Y-74961313D01*
X133350000Y-74944883D01*
X133516823Y-74961313D01*
X133516823Y-74961313D01*
G37*
G36*
X136741000Y-77451000D02*
G01*
X135039000Y-77451000D01*
X135039000Y-74949000D01*
X136741000Y-74949000D01*
X136741000Y-77451000D01*
X136741000Y-77451000D01*
G37*
G36*
X97956822Y-67341313D02*
G01*
X98117241Y-67389976D01*
X98265077Y-67468995D01*
X98394659Y-67575341D01*
X98501004Y-67704922D01*
X98501005Y-67704924D01*
X98580024Y-67852758D01*
X98628687Y-68013177D01*
X98641000Y-68138196D01*
X98641000Y-69021803D01*
X98628687Y-69146822D01*
X98580024Y-69307242D01*
X98509114Y-69439906D01*
X98501004Y-69455078D01*
X98394659Y-69584659D01*
X98265078Y-69691004D01*
X98265076Y-69691005D01*
X98117242Y-69770024D01*
X97956823Y-69818687D01*
X97790000Y-69835117D01*
X97623178Y-69818687D01*
X97462759Y-69770024D01*
X97314925Y-69691005D01*
X97314923Y-69691004D01*
X97185342Y-69584659D01*
X97078997Y-69455078D01*
X97070887Y-69439906D01*
X96999977Y-69307242D01*
X96951314Y-69146823D01*
X96939000Y-69021803D01*
X96939000Y-68138197D01*
X96951313Y-68013178D01*
X96999976Y-67852759D01*
X97078995Y-67704923D01*
X97185341Y-67575341D01*
X97314922Y-67468996D01*
X97330094Y-67460886D01*
X97462758Y-67389976D01*
X97623177Y-67341313D01*
X97790000Y-67324883D01*
X97956822Y-67341313D01*
X97956822Y-67341313D01*
G37*
G36*
X103036822Y-67341313D02*
G01*
X103197241Y-67389976D01*
X103345077Y-67468995D01*
X103474659Y-67575341D01*
X103581004Y-67704922D01*
X103581005Y-67704924D01*
X103660024Y-67852758D01*
X103708687Y-68013177D01*
X103721000Y-68138196D01*
X103721000Y-69021803D01*
X103708687Y-69146822D01*
X103660024Y-69307242D01*
X103589114Y-69439906D01*
X103581004Y-69455078D01*
X103474659Y-69584659D01*
X103345078Y-69691004D01*
X103345076Y-69691005D01*
X103197242Y-69770024D01*
X103036823Y-69818687D01*
X102870000Y-69835117D01*
X102703178Y-69818687D01*
X102542759Y-69770024D01*
X102394925Y-69691005D01*
X102394923Y-69691004D01*
X102265342Y-69584659D01*
X102158997Y-69455078D01*
X102150887Y-69439906D01*
X102079977Y-69307242D01*
X102031314Y-69146823D01*
X102019000Y-69021803D01*
X102019000Y-68138197D01*
X102031313Y-68013178D01*
X102079976Y-67852759D01*
X102158995Y-67704923D01*
X102265341Y-67575341D01*
X102394922Y-67468996D01*
X102410094Y-67460886D01*
X102542758Y-67389976D01*
X102703177Y-67341313D01*
X102870000Y-67324883D01*
X103036822Y-67341313D01*
X103036822Y-67341313D01*
G37*
G36*
X77636822Y-67341313D02*
G01*
X77797241Y-67389976D01*
X77945077Y-67468995D01*
X78074659Y-67575341D01*
X78181004Y-67704922D01*
X78181005Y-67704924D01*
X78260024Y-67852758D01*
X78308687Y-68013177D01*
X78321000Y-68138196D01*
X78321000Y-69021803D01*
X78308687Y-69146822D01*
X78260024Y-69307242D01*
X78189114Y-69439906D01*
X78181004Y-69455078D01*
X78074659Y-69584659D01*
X77945078Y-69691004D01*
X77945076Y-69691005D01*
X77797242Y-69770024D01*
X77636823Y-69818687D01*
X77470000Y-69835117D01*
X77303178Y-69818687D01*
X77142759Y-69770024D01*
X76994925Y-69691005D01*
X76994923Y-69691004D01*
X76865342Y-69584659D01*
X76758997Y-69455078D01*
X76750887Y-69439906D01*
X76679977Y-69307242D01*
X76631314Y-69146823D01*
X76619000Y-69021803D01*
X76619000Y-68138197D01*
X76631313Y-68013178D01*
X76679976Y-67852759D01*
X76758995Y-67704923D01*
X76865341Y-67575341D01*
X76994922Y-67468996D01*
X77010094Y-67460886D01*
X77142758Y-67389976D01*
X77303177Y-67341313D01*
X77470000Y-67324883D01*
X77636822Y-67341313D01*
X77636822Y-67341313D01*
G37*
G36*
X92876822Y-67341313D02*
G01*
X93037241Y-67389976D01*
X93185077Y-67468995D01*
X93314659Y-67575341D01*
X93421004Y-67704922D01*
X93421005Y-67704924D01*
X93500024Y-67852758D01*
X93548687Y-68013177D01*
X93561000Y-68138196D01*
X93561000Y-69021803D01*
X93548687Y-69146822D01*
X93500024Y-69307242D01*
X93429114Y-69439906D01*
X93421004Y-69455078D01*
X93314659Y-69584659D01*
X93185078Y-69691004D01*
X93185076Y-69691005D01*
X93037242Y-69770024D01*
X92876823Y-69818687D01*
X92710000Y-69835117D01*
X92543178Y-69818687D01*
X92382759Y-69770024D01*
X92234925Y-69691005D01*
X92234923Y-69691004D01*
X92105342Y-69584659D01*
X91998997Y-69455078D01*
X91990887Y-69439906D01*
X91919977Y-69307242D01*
X91871314Y-69146823D01*
X91859000Y-69021803D01*
X91859000Y-68138197D01*
X91871313Y-68013178D01*
X91919976Y-67852759D01*
X91998995Y-67704923D01*
X92105341Y-67575341D01*
X92234922Y-67468996D01*
X92250094Y-67460886D01*
X92382758Y-67389976D01*
X92543177Y-67341313D01*
X92710000Y-67324883D01*
X92876822Y-67341313D01*
X92876822Y-67341313D01*
G37*
G36*
X90336822Y-67341313D02*
G01*
X90497241Y-67389976D01*
X90645077Y-67468995D01*
X90774659Y-67575341D01*
X90881004Y-67704922D01*
X90881005Y-67704924D01*
X90960024Y-67852758D01*
X91008687Y-68013177D01*
X91021000Y-68138196D01*
X91021000Y-69021803D01*
X91008687Y-69146822D01*
X90960024Y-69307242D01*
X90889114Y-69439906D01*
X90881004Y-69455078D01*
X90774659Y-69584659D01*
X90645078Y-69691004D01*
X90645076Y-69691005D01*
X90497242Y-69770024D01*
X90336823Y-69818687D01*
X90170000Y-69835117D01*
X90003178Y-69818687D01*
X89842759Y-69770024D01*
X89694925Y-69691005D01*
X89694923Y-69691004D01*
X89565342Y-69584659D01*
X89458997Y-69455078D01*
X89450887Y-69439906D01*
X89379977Y-69307242D01*
X89331314Y-69146823D01*
X89319000Y-69021803D01*
X89319000Y-68138197D01*
X89331313Y-68013178D01*
X89379976Y-67852759D01*
X89458995Y-67704923D01*
X89565341Y-67575341D01*
X89694922Y-67468996D01*
X89710094Y-67460886D01*
X89842758Y-67389976D01*
X90003177Y-67341313D01*
X90170000Y-67324883D01*
X90336822Y-67341313D01*
X90336822Y-67341313D01*
G37*
G36*
X95416822Y-67341313D02*
G01*
X95577241Y-67389976D01*
X95725077Y-67468995D01*
X95854659Y-67575341D01*
X95961004Y-67704922D01*
X95961005Y-67704924D01*
X96040024Y-67852758D01*
X96088687Y-68013177D01*
X96101000Y-68138196D01*
X96101000Y-69021803D01*
X96088687Y-69146822D01*
X96040024Y-69307242D01*
X95969114Y-69439906D01*
X95961004Y-69455078D01*
X95854659Y-69584659D01*
X95725078Y-69691004D01*
X95725076Y-69691005D01*
X95577242Y-69770024D01*
X95416823Y-69818687D01*
X95250000Y-69835117D01*
X95083178Y-69818687D01*
X94922759Y-69770024D01*
X94774925Y-69691005D01*
X94774923Y-69691004D01*
X94645342Y-69584659D01*
X94538997Y-69455078D01*
X94530887Y-69439906D01*
X94459977Y-69307242D01*
X94411314Y-69146823D01*
X94399000Y-69021803D01*
X94399000Y-68138197D01*
X94411313Y-68013178D01*
X94459976Y-67852759D01*
X94538995Y-67704923D01*
X94645341Y-67575341D01*
X94774922Y-67468996D01*
X94790094Y-67460886D01*
X94922758Y-67389976D01*
X95083177Y-67341313D01*
X95250000Y-67324883D01*
X95416822Y-67341313D01*
X95416822Y-67341313D01*
G37*
G36*
X87796822Y-67341313D02*
G01*
X87957241Y-67389976D01*
X88105077Y-67468995D01*
X88234659Y-67575341D01*
X88341004Y-67704922D01*
X88341005Y-67704924D01*
X88420024Y-67852758D01*
X88468687Y-68013177D01*
X88481000Y-68138196D01*
X88481000Y-69021803D01*
X88468687Y-69146822D01*
X88420024Y-69307242D01*
X88349114Y-69439906D01*
X88341004Y-69455078D01*
X88234659Y-69584659D01*
X88105078Y-69691004D01*
X88105076Y-69691005D01*
X87957242Y-69770024D01*
X87796823Y-69818687D01*
X87630000Y-69835117D01*
X87463178Y-69818687D01*
X87302759Y-69770024D01*
X87154925Y-69691005D01*
X87154923Y-69691004D01*
X87025342Y-69584659D01*
X86918997Y-69455078D01*
X86910887Y-69439906D01*
X86839977Y-69307242D01*
X86791314Y-69146823D01*
X86779000Y-69021803D01*
X86779000Y-68138197D01*
X86791313Y-68013178D01*
X86839976Y-67852759D01*
X86918995Y-67704923D01*
X87025341Y-67575341D01*
X87154922Y-67468996D01*
X87170094Y-67460886D01*
X87302758Y-67389976D01*
X87463177Y-67341313D01*
X87630000Y-67324883D01*
X87796822Y-67341313D01*
X87796822Y-67341313D01*
G37*
G36*
X82716822Y-67341313D02*
G01*
X82877241Y-67389976D01*
X83025077Y-67468995D01*
X83154659Y-67575341D01*
X83261004Y-67704922D01*
X83261005Y-67704924D01*
X83340024Y-67852758D01*
X83388687Y-68013177D01*
X83401000Y-68138196D01*
X83401000Y-69021803D01*
X83388687Y-69146822D01*
X83340024Y-69307242D01*
X83269114Y-69439906D01*
X83261004Y-69455078D01*
X83154659Y-69584659D01*
X83025078Y-69691004D01*
X83025076Y-69691005D01*
X82877242Y-69770024D01*
X82716823Y-69818687D01*
X82550000Y-69835117D01*
X82383178Y-69818687D01*
X82222759Y-69770024D01*
X82074925Y-69691005D01*
X82074923Y-69691004D01*
X81945342Y-69584659D01*
X81838997Y-69455078D01*
X81830887Y-69439906D01*
X81759977Y-69307242D01*
X81711314Y-69146823D01*
X81699000Y-69021803D01*
X81699000Y-68138197D01*
X81711313Y-68013178D01*
X81759976Y-67852759D01*
X81838995Y-67704923D01*
X81945341Y-67575341D01*
X82074922Y-67468996D01*
X82090094Y-67460886D01*
X82222758Y-67389976D01*
X82383177Y-67341313D01*
X82550000Y-67324883D01*
X82716822Y-67341313D01*
X82716822Y-67341313D01*
G37*
G36*
X80176822Y-67341313D02*
G01*
X80337241Y-67389976D01*
X80485077Y-67468995D01*
X80614659Y-67575341D01*
X80721004Y-67704922D01*
X80721005Y-67704924D01*
X80800024Y-67852758D01*
X80848687Y-68013177D01*
X80861000Y-68138196D01*
X80861000Y-69021803D01*
X80848687Y-69146822D01*
X80800024Y-69307242D01*
X80729114Y-69439906D01*
X80721004Y-69455078D01*
X80614659Y-69584659D01*
X80485078Y-69691004D01*
X80485076Y-69691005D01*
X80337242Y-69770024D01*
X80176823Y-69818687D01*
X80010000Y-69835117D01*
X79843178Y-69818687D01*
X79682759Y-69770024D01*
X79534925Y-69691005D01*
X79534923Y-69691004D01*
X79405342Y-69584659D01*
X79298997Y-69455078D01*
X79290887Y-69439906D01*
X79219977Y-69307242D01*
X79171314Y-69146823D01*
X79159000Y-69021803D01*
X79159000Y-68138197D01*
X79171313Y-68013178D01*
X79219976Y-67852759D01*
X79298995Y-67704923D01*
X79405341Y-67575341D01*
X79534922Y-67468996D01*
X79550094Y-67460886D01*
X79682758Y-67389976D01*
X79843177Y-67341313D01*
X80010000Y-67324883D01*
X80176822Y-67341313D01*
X80176822Y-67341313D01*
G37*
G36*
X100496822Y-67341313D02*
G01*
X100657241Y-67389976D01*
X100805077Y-67468995D01*
X100934659Y-67575341D01*
X101041004Y-67704922D01*
X101041005Y-67704924D01*
X101120024Y-67852758D01*
X101168687Y-68013177D01*
X101181000Y-68138196D01*
X101181000Y-69021803D01*
X101168687Y-69146822D01*
X101120024Y-69307242D01*
X101049114Y-69439906D01*
X101041004Y-69455078D01*
X100934659Y-69584659D01*
X100805078Y-69691004D01*
X100805076Y-69691005D01*
X100657242Y-69770024D01*
X100496823Y-69818687D01*
X100330000Y-69835117D01*
X100163178Y-69818687D01*
X100002759Y-69770024D01*
X99854925Y-69691005D01*
X99854923Y-69691004D01*
X99725342Y-69584659D01*
X99618997Y-69455078D01*
X99610887Y-69439906D01*
X99539977Y-69307242D01*
X99491314Y-69146823D01*
X99479000Y-69021803D01*
X99479000Y-68138197D01*
X99491313Y-68013178D01*
X99539976Y-67852759D01*
X99618995Y-67704923D01*
X99725341Y-67575341D01*
X99854922Y-67468996D01*
X99870094Y-67460886D01*
X100002758Y-67389976D01*
X100163177Y-67341313D01*
X100330000Y-67324883D01*
X100496822Y-67341313D01*
X100496822Y-67341313D01*
G37*
G36*
X75096822Y-67341313D02*
G01*
X75257241Y-67389976D01*
X75405077Y-67468995D01*
X75534659Y-67575341D01*
X75641004Y-67704922D01*
X75641005Y-67704924D01*
X75720024Y-67852758D01*
X75768687Y-68013177D01*
X75781000Y-68138196D01*
X75781000Y-69021803D01*
X75768687Y-69146822D01*
X75720024Y-69307242D01*
X75649114Y-69439906D01*
X75641004Y-69455078D01*
X75534659Y-69584659D01*
X75405078Y-69691004D01*
X75405076Y-69691005D01*
X75257242Y-69770024D01*
X75096823Y-69818687D01*
X74930000Y-69835117D01*
X74763178Y-69818687D01*
X74602759Y-69770024D01*
X74454925Y-69691005D01*
X74454923Y-69691004D01*
X74325342Y-69584659D01*
X74218997Y-69455078D01*
X74210887Y-69439906D01*
X74139977Y-69307242D01*
X74091314Y-69146823D01*
X74079000Y-69021803D01*
X74079000Y-68138197D01*
X74091313Y-68013178D01*
X74139976Y-67852759D01*
X74218995Y-67704923D01*
X74325341Y-67575341D01*
X74454922Y-67468996D01*
X74470094Y-67460886D01*
X74602758Y-67389976D01*
X74763177Y-67341313D01*
X74930000Y-67324883D01*
X75096822Y-67341313D01*
X75096822Y-67341313D01*
G37*
G36*
X72556822Y-67341313D02*
G01*
X72717241Y-67389976D01*
X72865077Y-67468995D01*
X72994659Y-67575341D01*
X73101004Y-67704922D01*
X73101005Y-67704924D01*
X73180024Y-67852758D01*
X73228687Y-68013177D01*
X73241000Y-68138196D01*
X73241000Y-69021803D01*
X73228687Y-69146822D01*
X73180024Y-69307242D01*
X73109114Y-69439906D01*
X73101004Y-69455078D01*
X72994659Y-69584659D01*
X72865078Y-69691004D01*
X72865076Y-69691005D01*
X72717242Y-69770024D01*
X72556823Y-69818687D01*
X72390000Y-69835117D01*
X72223178Y-69818687D01*
X72062759Y-69770024D01*
X71914925Y-69691005D01*
X71914923Y-69691004D01*
X71785342Y-69584659D01*
X71678997Y-69455078D01*
X71670887Y-69439906D01*
X71599977Y-69307242D01*
X71551314Y-69146823D01*
X71539000Y-69021803D01*
X71539000Y-68138197D01*
X71551313Y-68013178D01*
X71599976Y-67852759D01*
X71678995Y-67704923D01*
X71785341Y-67575341D01*
X71914922Y-67468996D01*
X71930094Y-67460886D01*
X72062758Y-67389976D01*
X72223177Y-67341313D01*
X72390000Y-67324883D01*
X72556822Y-67341313D01*
X72556822Y-67341313D01*
G37*
G36*
X85256822Y-67341313D02*
G01*
X85417241Y-67389976D01*
X85565077Y-67468995D01*
X85694659Y-67575341D01*
X85801004Y-67704922D01*
X85801005Y-67704924D01*
X85880024Y-67852758D01*
X85928687Y-68013177D01*
X85941000Y-68138196D01*
X85941000Y-69021803D01*
X85928687Y-69146822D01*
X85880024Y-69307242D01*
X85809114Y-69439906D01*
X85801004Y-69455078D01*
X85694659Y-69584659D01*
X85565078Y-69691004D01*
X85565076Y-69691005D01*
X85417242Y-69770024D01*
X85256823Y-69818687D01*
X85090000Y-69835117D01*
X84923178Y-69818687D01*
X84762759Y-69770024D01*
X84614925Y-69691005D01*
X84614923Y-69691004D01*
X84485342Y-69584659D01*
X84378997Y-69455078D01*
X84370887Y-69439906D01*
X84299977Y-69307242D01*
X84251314Y-69146823D01*
X84239000Y-69021803D01*
X84239000Y-68138197D01*
X84251313Y-68013178D01*
X84299976Y-67852759D01*
X84378995Y-67704923D01*
X84485341Y-67575341D01*
X84614922Y-67468996D01*
X84630094Y-67460886D01*
X84762758Y-67389976D01*
X84923177Y-67341313D01*
X85090000Y-67324883D01*
X85256822Y-67341313D01*
X85256822Y-67341313D01*
G37*
G36*
X70701000Y-69831000D02*
G01*
X68999000Y-69831000D01*
X68999000Y-67329000D01*
X70701000Y-67329000D01*
X70701000Y-69831000D01*
X70701000Y-69831000D01*
G37*
G36*
X136210345Y-57503442D02*
G01*
X136300548Y-57512326D01*
X136474157Y-57564990D01*
X136634156Y-57650511D01*
X136677729Y-57686271D01*
X136774397Y-57765603D01*
X136853729Y-57862271D01*
X136889489Y-57905844D01*
X136975010Y-58065843D01*
X137027674Y-58239452D01*
X137045456Y-58420000D01*
X137027674Y-58600548D01*
X136975010Y-58774157D01*
X136889489Y-58934156D01*
X136853729Y-58977729D01*
X136774397Y-59074397D01*
X136677729Y-59153729D01*
X136634156Y-59189489D01*
X136474157Y-59275010D01*
X136300548Y-59327674D01*
X136210345Y-59336558D01*
X136165245Y-59341000D01*
X135614755Y-59341000D01*
X135569655Y-59336558D01*
X135479452Y-59327674D01*
X135305843Y-59275010D01*
X135145844Y-59189489D01*
X135102271Y-59153729D01*
X135005603Y-59074397D01*
X134926271Y-58977729D01*
X134890511Y-58934156D01*
X134804990Y-58774157D01*
X134752326Y-58600548D01*
X134734544Y-58420000D01*
X134752326Y-58239452D01*
X134804990Y-58065843D01*
X134890511Y-57905844D01*
X134926271Y-57862271D01*
X135005603Y-57765603D01*
X135102271Y-57686271D01*
X135145844Y-57650511D01*
X135305843Y-57564990D01*
X135479452Y-57512326D01*
X135569655Y-57503442D01*
X135614755Y-57499000D01*
X136165245Y-57499000D01*
X136210345Y-57503442D01*
X136210345Y-57503442D01*
G37*
G36*
X136210345Y-54963442D02*
G01*
X136300548Y-54972326D01*
X136474157Y-55024990D01*
X136634156Y-55110511D01*
X136677729Y-55146271D01*
X136774397Y-55225603D01*
X136853729Y-55322271D01*
X136889489Y-55365844D01*
X136975010Y-55525843D01*
X137027674Y-55699452D01*
X137045456Y-55880000D01*
X137027674Y-56060548D01*
X136975010Y-56234157D01*
X136889489Y-56394156D01*
X136853729Y-56437729D01*
X136774397Y-56534397D01*
X136677729Y-56613729D01*
X136634156Y-56649489D01*
X136474157Y-56735010D01*
X136300548Y-56787674D01*
X136210345Y-56796558D01*
X136165245Y-56801000D01*
X135614755Y-56801000D01*
X135569655Y-56796558D01*
X135479452Y-56787674D01*
X135305843Y-56735010D01*
X135145844Y-56649489D01*
X135102271Y-56613729D01*
X135005603Y-56534397D01*
X134926271Y-56437729D01*
X134890511Y-56394156D01*
X134804990Y-56234157D01*
X134752326Y-56060548D01*
X134734544Y-55880000D01*
X134752326Y-55699452D01*
X134804990Y-55525843D01*
X134890511Y-55365844D01*
X134926271Y-55322271D01*
X135005603Y-55225603D01*
X135102271Y-55146271D01*
X135145844Y-55110511D01*
X135305843Y-55024990D01*
X135479452Y-54972326D01*
X135569655Y-54963442D01*
X135614755Y-54959000D01*
X136165245Y-54959000D01*
X136210345Y-54963442D01*
X136210345Y-54963442D01*
G37*
G36*
X136210345Y-52423442D02*
G01*
X136300548Y-52432326D01*
X136474157Y-52484990D01*
X136634156Y-52570511D01*
X136677729Y-52606271D01*
X136774397Y-52685603D01*
X136853729Y-52782271D01*
X136889489Y-52825844D01*
X136975010Y-52985843D01*
X137027674Y-53159452D01*
X137045456Y-53340000D01*
X137027674Y-53520548D01*
X136975010Y-53694157D01*
X136889489Y-53854156D01*
X136853729Y-53897729D01*
X136774397Y-53994397D01*
X136677729Y-54073729D01*
X136634156Y-54109489D01*
X136474157Y-54195010D01*
X136300548Y-54247674D01*
X136210345Y-54256558D01*
X136165245Y-54261000D01*
X135614755Y-54261000D01*
X135569655Y-54256558D01*
X135479452Y-54247674D01*
X135305843Y-54195010D01*
X135145844Y-54109489D01*
X135102271Y-54073729D01*
X135005603Y-53994397D01*
X134926271Y-53897729D01*
X134890511Y-53854156D01*
X134804990Y-53694157D01*
X134752326Y-53520548D01*
X134734544Y-53340000D01*
X134752326Y-53159452D01*
X134804990Y-52985843D01*
X134890511Y-52825844D01*
X134926271Y-52782271D01*
X135005603Y-52685603D01*
X135102271Y-52606271D01*
X135145844Y-52570511D01*
X135305843Y-52484990D01*
X135479452Y-52432326D01*
X135569655Y-52423442D01*
X135614755Y-52419000D01*
X136165245Y-52419000D01*
X136210345Y-52423442D01*
X136210345Y-52423442D01*
G37*
G36*
X90336822Y-49561313D02*
G01*
X90497241Y-49609976D01*
X90645077Y-49688995D01*
X90774659Y-49795341D01*
X90881004Y-49924922D01*
X90881005Y-49924924D01*
X90960024Y-50072758D01*
X91008687Y-50233177D01*
X91021000Y-50358196D01*
X91021000Y-51241803D01*
X91008687Y-51366822D01*
X90960024Y-51527242D01*
X90932059Y-51579561D01*
X90881004Y-51675078D01*
X90774659Y-51804659D01*
X90645078Y-51911004D01*
X90645076Y-51911005D01*
X90497242Y-51990024D01*
X90336823Y-52038687D01*
X90170000Y-52055117D01*
X90003178Y-52038687D01*
X89842759Y-51990024D01*
X89694925Y-51911005D01*
X89694923Y-51911004D01*
X89565342Y-51804659D01*
X89458997Y-51675078D01*
X89407942Y-51579561D01*
X89379977Y-51527242D01*
X89331314Y-51366823D01*
X89319000Y-51241803D01*
X89319000Y-50358197D01*
X89331313Y-50233178D01*
X89379976Y-50072759D01*
X89458995Y-49924923D01*
X89565341Y-49795341D01*
X89694922Y-49688996D01*
X89710094Y-49680886D01*
X89842758Y-49609976D01*
X90003177Y-49561313D01*
X90170000Y-49544883D01*
X90336822Y-49561313D01*
X90336822Y-49561313D01*
G37*
G36*
X72556822Y-49561313D02*
G01*
X72717241Y-49609976D01*
X72865077Y-49688995D01*
X72994659Y-49795341D01*
X73101004Y-49924922D01*
X73101005Y-49924924D01*
X73180024Y-50072758D01*
X73228687Y-50233177D01*
X73241000Y-50358196D01*
X73241000Y-51241803D01*
X73228687Y-51366822D01*
X73180024Y-51527242D01*
X73152059Y-51579561D01*
X73101004Y-51675078D01*
X72994659Y-51804659D01*
X72865078Y-51911004D01*
X72865076Y-51911005D01*
X72717242Y-51990024D01*
X72556823Y-52038687D01*
X72390000Y-52055117D01*
X72223178Y-52038687D01*
X72062759Y-51990024D01*
X71914925Y-51911005D01*
X71914923Y-51911004D01*
X71785342Y-51804659D01*
X71678997Y-51675078D01*
X71627942Y-51579561D01*
X71599977Y-51527242D01*
X71551314Y-51366823D01*
X71539000Y-51241803D01*
X71539000Y-50358197D01*
X71551313Y-50233178D01*
X71599976Y-50072759D01*
X71678995Y-49924923D01*
X71785341Y-49795341D01*
X71914922Y-49688996D01*
X71930094Y-49680886D01*
X72062758Y-49609976D01*
X72223177Y-49561313D01*
X72390000Y-49544883D01*
X72556822Y-49561313D01*
X72556822Y-49561313D01*
G37*
G36*
X75096822Y-49561313D02*
G01*
X75257241Y-49609976D01*
X75405077Y-49688995D01*
X75534659Y-49795341D01*
X75641004Y-49924922D01*
X75641005Y-49924924D01*
X75720024Y-50072758D01*
X75768687Y-50233177D01*
X75781000Y-50358196D01*
X75781000Y-51241803D01*
X75768687Y-51366822D01*
X75720024Y-51527242D01*
X75692059Y-51579561D01*
X75641004Y-51675078D01*
X75534659Y-51804659D01*
X75405078Y-51911004D01*
X75405076Y-51911005D01*
X75257242Y-51990024D01*
X75096823Y-52038687D01*
X74930000Y-52055117D01*
X74763178Y-52038687D01*
X74602759Y-51990024D01*
X74454925Y-51911005D01*
X74454923Y-51911004D01*
X74325342Y-51804659D01*
X74218997Y-51675078D01*
X74167942Y-51579561D01*
X74139977Y-51527242D01*
X74091314Y-51366823D01*
X74079000Y-51241803D01*
X74079000Y-50358197D01*
X74091313Y-50233178D01*
X74139976Y-50072759D01*
X74218995Y-49924923D01*
X74325341Y-49795341D01*
X74454922Y-49688996D01*
X74470094Y-49680886D01*
X74602758Y-49609976D01*
X74763177Y-49561313D01*
X74930000Y-49544883D01*
X75096822Y-49561313D01*
X75096822Y-49561313D01*
G37*
G36*
X77636822Y-49561313D02*
G01*
X77797241Y-49609976D01*
X77945077Y-49688995D01*
X78074659Y-49795341D01*
X78181004Y-49924922D01*
X78181005Y-49924924D01*
X78260024Y-50072758D01*
X78308687Y-50233177D01*
X78321000Y-50358196D01*
X78321000Y-51241803D01*
X78308687Y-51366822D01*
X78260024Y-51527242D01*
X78232059Y-51579561D01*
X78181004Y-51675078D01*
X78074659Y-51804659D01*
X77945078Y-51911004D01*
X77945076Y-51911005D01*
X77797242Y-51990024D01*
X77636823Y-52038687D01*
X77470000Y-52055117D01*
X77303178Y-52038687D01*
X77142759Y-51990024D01*
X76994925Y-51911005D01*
X76994923Y-51911004D01*
X76865342Y-51804659D01*
X76758997Y-51675078D01*
X76707942Y-51579561D01*
X76679977Y-51527242D01*
X76631314Y-51366823D01*
X76619000Y-51241803D01*
X76619000Y-50358197D01*
X76631313Y-50233178D01*
X76679976Y-50072759D01*
X76758995Y-49924923D01*
X76865341Y-49795341D01*
X76994922Y-49688996D01*
X77010094Y-49680886D01*
X77142758Y-49609976D01*
X77303177Y-49561313D01*
X77470000Y-49544883D01*
X77636822Y-49561313D01*
X77636822Y-49561313D01*
G37*
G36*
X80176822Y-49561313D02*
G01*
X80337241Y-49609976D01*
X80485077Y-49688995D01*
X80614659Y-49795341D01*
X80721004Y-49924922D01*
X80721005Y-49924924D01*
X80800024Y-50072758D01*
X80848687Y-50233177D01*
X80861000Y-50358196D01*
X80861000Y-51241803D01*
X80848687Y-51366822D01*
X80800024Y-51527242D01*
X80772059Y-51579561D01*
X80721004Y-51675078D01*
X80614659Y-51804659D01*
X80485078Y-51911004D01*
X80485076Y-51911005D01*
X80337242Y-51990024D01*
X80176823Y-52038687D01*
X80010000Y-52055117D01*
X79843178Y-52038687D01*
X79682759Y-51990024D01*
X79534925Y-51911005D01*
X79534923Y-51911004D01*
X79405342Y-51804659D01*
X79298997Y-51675078D01*
X79247942Y-51579561D01*
X79219977Y-51527242D01*
X79171314Y-51366823D01*
X79159000Y-51241803D01*
X79159000Y-50358197D01*
X79171313Y-50233178D01*
X79219976Y-50072759D01*
X79298995Y-49924923D01*
X79405341Y-49795341D01*
X79534922Y-49688996D01*
X79550094Y-49680886D01*
X79682758Y-49609976D01*
X79843177Y-49561313D01*
X80010000Y-49544883D01*
X80176822Y-49561313D01*
X80176822Y-49561313D01*
G37*
G36*
X82716822Y-49561313D02*
G01*
X82877241Y-49609976D01*
X83025077Y-49688995D01*
X83154659Y-49795341D01*
X83261004Y-49924922D01*
X83261005Y-49924924D01*
X83340024Y-50072758D01*
X83388687Y-50233177D01*
X83401000Y-50358196D01*
X83401000Y-51241803D01*
X83388687Y-51366822D01*
X83340024Y-51527242D01*
X83312059Y-51579561D01*
X83261004Y-51675078D01*
X83154659Y-51804659D01*
X83025078Y-51911004D01*
X83025076Y-51911005D01*
X82877242Y-51990024D01*
X82716823Y-52038687D01*
X82550000Y-52055117D01*
X82383178Y-52038687D01*
X82222759Y-51990024D01*
X82074925Y-51911005D01*
X82074923Y-51911004D01*
X81945342Y-51804659D01*
X81838997Y-51675078D01*
X81787942Y-51579561D01*
X81759977Y-51527242D01*
X81711314Y-51366823D01*
X81699000Y-51241803D01*
X81699000Y-50358197D01*
X81711313Y-50233178D01*
X81759976Y-50072759D01*
X81838995Y-49924923D01*
X81945341Y-49795341D01*
X82074922Y-49688996D01*
X82090094Y-49680886D01*
X82222758Y-49609976D01*
X82383177Y-49561313D01*
X82550000Y-49544883D01*
X82716822Y-49561313D01*
X82716822Y-49561313D01*
G37*
G36*
X85256822Y-49561313D02*
G01*
X85417241Y-49609976D01*
X85565077Y-49688995D01*
X85694659Y-49795341D01*
X85801004Y-49924922D01*
X85801005Y-49924924D01*
X85880024Y-50072758D01*
X85928687Y-50233177D01*
X85941000Y-50358196D01*
X85941000Y-51241803D01*
X85928687Y-51366822D01*
X85880024Y-51527242D01*
X85852059Y-51579561D01*
X85801004Y-51675078D01*
X85694659Y-51804659D01*
X85565078Y-51911004D01*
X85565076Y-51911005D01*
X85417242Y-51990024D01*
X85256823Y-52038687D01*
X85090000Y-52055117D01*
X84923178Y-52038687D01*
X84762759Y-51990024D01*
X84614925Y-51911005D01*
X84614923Y-51911004D01*
X84485342Y-51804659D01*
X84378997Y-51675078D01*
X84327942Y-51579561D01*
X84299977Y-51527242D01*
X84251314Y-51366823D01*
X84239000Y-51241803D01*
X84239000Y-50358197D01*
X84251313Y-50233178D01*
X84299976Y-50072759D01*
X84378995Y-49924923D01*
X84485341Y-49795341D01*
X84614922Y-49688996D01*
X84630094Y-49680886D01*
X84762758Y-49609976D01*
X84923177Y-49561313D01*
X85090000Y-49544883D01*
X85256822Y-49561313D01*
X85256822Y-49561313D01*
G37*
G36*
X87796822Y-49561313D02*
G01*
X87957241Y-49609976D01*
X88105077Y-49688995D01*
X88234659Y-49795341D01*
X88341004Y-49924922D01*
X88341005Y-49924924D01*
X88420024Y-50072758D01*
X88468687Y-50233177D01*
X88481000Y-50358196D01*
X88481000Y-51241803D01*
X88468687Y-51366822D01*
X88420024Y-51527242D01*
X88392059Y-51579561D01*
X88341004Y-51675078D01*
X88234659Y-51804659D01*
X88105078Y-51911004D01*
X88105076Y-51911005D01*
X87957242Y-51990024D01*
X87796823Y-52038687D01*
X87630000Y-52055117D01*
X87463178Y-52038687D01*
X87302759Y-51990024D01*
X87154925Y-51911005D01*
X87154923Y-51911004D01*
X87025342Y-51804659D01*
X86918997Y-51675078D01*
X86867942Y-51579561D01*
X86839977Y-51527242D01*
X86791314Y-51366823D01*
X86779000Y-51241803D01*
X86779000Y-50358197D01*
X86791313Y-50233178D01*
X86839976Y-50072759D01*
X86918995Y-49924923D01*
X87025341Y-49795341D01*
X87154922Y-49688996D01*
X87170094Y-49680886D01*
X87302758Y-49609976D01*
X87463177Y-49561313D01*
X87630000Y-49544883D01*
X87796822Y-49561313D01*
X87796822Y-49561313D01*
G37*
G36*
X92876822Y-49561313D02*
G01*
X93037241Y-49609976D01*
X93185077Y-49688995D01*
X93314659Y-49795341D01*
X93421004Y-49924922D01*
X93421005Y-49924924D01*
X93500024Y-50072758D01*
X93548687Y-50233177D01*
X93561000Y-50358196D01*
X93561000Y-51241803D01*
X93548687Y-51366822D01*
X93500024Y-51527242D01*
X93472059Y-51579561D01*
X93421004Y-51675078D01*
X93314659Y-51804659D01*
X93185078Y-51911004D01*
X93185076Y-51911005D01*
X93037242Y-51990024D01*
X92876823Y-52038687D01*
X92710000Y-52055117D01*
X92543178Y-52038687D01*
X92382759Y-51990024D01*
X92234925Y-51911005D01*
X92234923Y-51911004D01*
X92105342Y-51804659D01*
X91998997Y-51675078D01*
X91947942Y-51579561D01*
X91919977Y-51527242D01*
X91871314Y-51366823D01*
X91859000Y-51241803D01*
X91859000Y-50358197D01*
X91871313Y-50233178D01*
X91919976Y-50072759D01*
X91998995Y-49924923D01*
X92105341Y-49795341D01*
X92234922Y-49688996D01*
X92250094Y-49680886D01*
X92382758Y-49609976D01*
X92543177Y-49561313D01*
X92710000Y-49544883D01*
X92876822Y-49561313D01*
X92876822Y-49561313D01*
G37*
G36*
X95416822Y-49561313D02*
G01*
X95577241Y-49609976D01*
X95725077Y-49688995D01*
X95854659Y-49795341D01*
X95961004Y-49924922D01*
X95961005Y-49924924D01*
X96040024Y-50072758D01*
X96088687Y-50233177D01*
X96101000Y-50358196D01*
X96101000Y-51241803D01*
X96088687Y-51366822D01*
X96040024Y-51527242D01*
X96012059Y-51579561D01*
X95961004Y-51675078D01*
X95854659Y-51804659D01*
X95725078Y-51911004D01*
X95725076Y-51911005D01*
X95577242Y-51990024D01*
X95416823Y-52038687D01*
X95250000Y-52055117D01*
X95083178Y-52038687D01*
X94922759Y-51990024D01*
X94774925Y-51911005D01*
X94774923Y-51911004D01*
X94645342Y-51804659D01*
X94538997Y-51675078D01*
X94487942Y-51579561D01*
X94459977Y-51527242D01*
X94411314Y-51366823D01*
X94399000Y-51241803D01*
X94399000Y-50358197D01*
X94411313Y-50233178D01*
X94459976Y-50072759D01*
X94538995Y-49924923D01*
X94645341Y-49795341D01*
X94774922Y-49688996D01*
X94790094Y-49680886D01*
X94922758Y-49609976D01*
X95083177Y-49561313D01*
X95250000Y-49544883D01*
X95416822Y-49561313D01*
X95416822Y-49561313D01*
G37*
G36*
X97956822Y-49561313D02*
G01*
X98117241Y-49609976D01*
X98265077Y-49688995D01*
X98394659Y-49795341D01*
X98501004Y-49924922D01*
X98501005Y-49924924D01*
X98580024Y-50072758D01*
X98628687Y-50233177D01*
X98641000Y-50358196D01*
X98641000Y-51241803D01*
X98628687Y-51366822D01*
X98580024Y-51527242D01*
X98552059Y-51579561D01*
X98501004Y-51675078D01*
X98394659Y-51804659D01*
X98265078Y-51911004D01*
X98265076Y-51911005D01*
X98117242Y-51990024D01*
X97956823Y-52038687D01*
X97790000Y-52055117D01*
X97623178Y-52038687D01*
X97462759Y-51990024D01*
X97314925Y-51911005D01*
X97314923Y-51911004D01*
X97185342Y-51804659D01*
X97078997Y-51675078D01*
X97027942Y-51579561D01*
X96999977Y-51527242D01*
X96951314Y-51366823D01*
X96939000Y-51241803D01*
X96939000Y-50358197D01*
X96951313Y-50233178D01*
X96999976Y-50072759D01*
X97078995Y-49924923D01*
X97185341Y-49795341D01*
X97314922Y-49688996D01*
X97330094Y-49680886D01*
X97462758Y-49609976D01*
X97623177Y-49561313D01*
X97790000Y-49544883D01*
X97956822Y-49561313D01*
X97956822Y-49561313D01*
G37*
G36*
X100496822Y-49561313D02*
G01*
X100657241Y-49609976D01*
X100805077Y-49688995D01*
X100934659Y-49795341D01*
X101041004Y-49924922D01*
X101041005Y-49924924D01*
X101120024Y-50072758D01*
X101168687Y-50233177D01*
X101181000Y-50358196D01*
X101181000Y-51241803D01*
X101168687Y-51366822D01*
X101120024Y-51527242D01*
X101092059Y-51579561D01*
X101041004Y-51675078D01*
X100934659Y-51804659D01*
X100805078Y-51911004D01*
X100805076Y-51911005D01*
X100657242Y-51990024D01*
X100496823Y-52038687D01*
X100330000Y-52055117D01*
X100163178Y-52038687D01*
X100002759Y-51990024D01*
X99854925Y-51911005D01*
X99854923Y-51911004D01*
X99725342Y-51804659D01*
X99618997Y-51675078D01*
X99567942Y-51579561D01*
X99539977Y-51527242D01*
X99491314Y-51366823D01*
X99479000Y-51241803D01*
X99479000Y-50358197D01*
X99491313Y-50233178D01*
X99539976Y-50072759D01*
X99618995Y-49924923D01*
X99725341Y-49795341D01*
X99854922Y-49688996D01*
X99870094Y-49680886D01*
X100002758Y-49609976D01*
X100163177Y-49561313D01*
X100330000Y-49544883D01*
X100496822Y-49561313D01*
X100496822Y-49561313D01*
G37*
G36*
X103036822Y-49561313D02*
G01*
X103197241Y-49609976D01*
X103345077Y-49688995D01*
X103474659Y-49795341D01*
X103581004Y-49924922D01*
X103581005Y-49924924D01*
X103660024Y-50072758D01*
X103708687Y-50233177D01*
X103721000Y-50358196D01*
X103721000Y-51241803D01*
X103708687Y-51366822D01*
X103660024Y-51527242D01*
X103632059Y-51579561D01*
X103581004Y-51675078D01*
X103474659Y-51804659D01*
X103345078Y-51911004D01*
X103345076Y-51911005D01*
X103197242Y-51990024D01*
X103036823Y-52038687D01*
X102870000Y-52055117D01*
X102703178Y-52038687D01*
X102542759Y-51990024D01*
X102394925Y-51911005D01*
X102394923Y-51911004D01*
X102265342Y-51804659D01*
X102158997Y-51675078D01*
X102107942Y-51579561D01*
X102079977Y-51527242D01*
X102031314Y-51366823D01*
X102019000Y-51241803D01*
X102019000Y-50358197D01*
X102031313Y-50233178D01*
X102079976Y-50072759D01*
X102158995Y-49924923D01*
X102265341Y-49795341D01*
X102394922Y-49688996D01*
X102410094Y-49680886D01*
X102542758Y-49609976D01*
X102703177Y-49561313D01*
X102870000Y-49544883D01*
X103036822Y-49561313D01*
X103036822Y-49561313D01*
G37*
G36*
X70016822Y-49561313D02*
G01*
X70177241Y-49609976D01*
X70325077Y-49688995D01*
X70454659Y-49795341D01*
X70561004Y-49924922D01*
X70561005Y-49924924D01*
X70640024Y-50072758D01*
X70688687Y-50233177D01*
X70701000Y-50358196D01*
X70701000Y-51241803D01*
X70688687Y-51366822D01*
X70640024Y-51527242D01*
X70612059Y-51579561D01*
X70561004Y-51675078D01*
X70454659Y-51804659D01*
X70325078Y-51911004D01*
X70325076Y-51911005D01*
X70177242Y-51990024D01*
X70016823Y-52038687D01*
X69850000Y-52055117D01*
X69683178Y-52038687D01*
X69522759Y-51990024D01*
X69374925Y-51911005D01*
X69374923Y-51911004D01*
X69245342Y-51804659D01*
X69138997Y-51675078D01*
X69087942Y-51579561D01*
X69059977Y-51527242D01*
X69011314Y-51366823D01*
X68999000Y-51241803D01*
X68999000Y-50358197D01*
X69011313Y-50233178D01*
X69059976Y-50072759D01*
X69138995Y-49924923D01*
X69245341Y-49795341D01*
X69374922Y-49688996D01*
X69390094Y-49680886D01*
X69522758Y-49609976D01*
X69683177Y-49561313D01*
X69850000Y-49544883D01*
X70016822Y-49561313D01*
X70016822Y-49561313D01*
G37*
G36*
X136899561Y-49882966D02*
G01*
X136932383Y-49892923D01*
X136962632Y-49909092D01*
X136989148Y-49930852D01*
X137010908Y-49957368D01*
X137027077Y-49987617D01*
X137037034Y-50020439D01*
X137041000Y-50060713D01*
X137041000Y-51539287D01*
X137037034Y-51579561D01*
X137027077Y-51612383D01*
X137010908Y-51642632D01*
X136989148Y-51669148D01*
X136962632Y-51690908D01*
X136932383Y-51707077D01*
X136899561Y-51717034D01*
X136859287Y-51721000D01*
X134920713Y-51721000D01*
X134880439Y-51717034D01*
X134847617Y-51707077D01*
X134817368Y-51690908D01*
X134790852Y-51669148D01*
X134769092Y-51642632D01*
X134752923Y-51612383D01*
X134742966Y-51579561D01*
X134739000Y-51539287D01*
X134739000Y-50060713D01*
X134742966Y-50020439D01*
X134752923Y-49987617D01*
X134769092Y-49957368D01*
X134790852Y-49930852D01*
X134817368Y-49909092D01*
X134847617Y-49892923D01*
X134880439Y-49882966D01*
X134920713Y-49879000D01*
X136859287Y-49879000D01*
X136899561Y-49882966D01*
X136899561Y-49882966D01*
G37*
G36*
X122099294Y-39738633D02*
G01*
X122271695Y-39790931D01*
X122430583Y-39875858D01*
X122569849Y-39990151D01*
X122684142Y-40129417D01*
X122769069Y-40288305D01*
X122821367Y-40460706D01*
X122839025Y-40640000D01*
X122821367Y-40819294D01*
X122769069Y-40991695D01*
X122684142Y-41150583D01*
X122569849Y-41289849D01*
X122430583Y-41404142D01*
X122271695Y-41489069D01*
X122099294Y-41541367D01*
X121964931Y-41554600D01*
X121875069Y-41554600D01*
X121740706Y-41541367D01*
X121568305Y-41489069D01*
X121409417Y-41404142D01*
X121270151Y-41289849D01*
X121155858Y-41150583D01*
X121070931Y-40991695D01*
X121018633Y-40819294D01*
X121000975Y-40640000D01*
X121018633Y-40460706D01*
X121070931Y-40288305D01*
X121155858Y-40129417D01*
X121270151Y-39990151D01*
X121409417Y-39875858D01*
X121568305Y-39790931D01*
X121740706Y-39738633D01*
X121875069Y-39725400D01*
X121964931Y-39725400D01*
X122099294Y-39738633D01*
X122099294Y-39738633D01*
G37*
G36*
X129719294Y-39738633D02*
G01*
X129891695Y-39790931D01*
X130050583Y-39875858D01*
X130189849Y-39990151D01*
X130304142Y-40129417D01*
X130389069Y-40288305D01*
X130441367Y-40460706D01*
X130459025Y-40640000D01*
X130441367Y-40819294D01*
X130389069Y-40991695D01*
X130304142Y-41150583D01*
X130189849Y-41289849D01*
X130050583Y-41404142D01*
X129891695Y-41489069D01*
X129719294Y-41541367D01*
X129584931Y-41554600D01*
X129495069Y-41554600D01*
X129360706Y-41541367D01*
X129188305Y-41489069D01*
X129029417Y-41404142D01*
X128890151Y-41289849D01*
X128775858Y-41150583D01*
X128690931Y-40991695D01*
X128638633Y-40819294D01*
X128620975Y-40640000D01*
X128638633Y-40460706D01*
X128690931Y-40288305D01*
X128775858Y-40129417D01*
X128890151Y-39990151D01*
X129029417Y-39875858D01*
X129188305Y-39790931D01*
X129360706Y-39738633D01*
X129495069Y-39725400D01*
X129584931Y-39725400D01*
X129719294Y-39738633D01*
X129719294Y-39738633D01*
G37*
G36*
X77114600Y-41554600D02*
G01*
X75285400Y-41554600D01*
X75285400Y-39725400D01*
X77114600Y-39725400D01*
X77114600Y-41554600D01*
X77114600Y-41554600D01*
G37*
G36*
X81459294Y-39738633D02*
G01*
X81631695Y-39790931D01*
X81790583Y-39875858D01*
X81929849Y-39990151D01*
X82044142Y-40129417D01*
X82129069Y-40288305D01*
X82181367Y-40460706D01*
X82199025Y-40640000D01*
X82181367Y-40819294D01*
X82129069Y-40991695D01*
X82044142Y-41150583D01*
X81929849Y-41289849D01*
X81790583Y-41404142D01*
X81631695Y-41489069D01*
X81459294Y-41541367D01*
X81324931Y-41554600D01*
X81235069Y-41554600D01*
X81100706Y-41541367D01*
X80928305Y-41489069D01*
X80769417Y-41404142D01*
X80630151Y-41289849D01*
X80515858Y-41150583D01*
X80430931Y-40991695D01*
X80378633Y-40819294D01*
X80360975Y-40640000D01*
X80378633Y-40460706D01*
X80430931Y-40288305D01*
X80515858Y-40129417D01*
X80630151Y-39990151D01*
X80769417Y-39875858D01*
X80928305Y-39790931D01*
X81100706Y-39738633D01*
X81235069Y-39725400D01*
X81324931Y-39725400D01*
X81459294Y-39738633D01*
X81459294Y-39738633D01*
G37*
G36*
X83999294Y-39738633D02*
G01*
X84171695Y-39790931D01*
X84330583Y-39875858D01*
X84469849Y-39990151D01*
X84584142Y-40129417D01*
X84669069Y-40288305D01*
X84721367Y-40460706D01*
X84739025Y-40640000D01*
X84721367Y-40819294D01*
X84669069Y-40991695D01*
X84584142Y-41150583D01*
X84469849Y-41289849D01*
X84330583Y-41404142D01*
X84171695Y-41489069D01*
X83999294Y-41541367D01*
X83864931Y-41554600D01*
X83775069Y-41554600D01*
X83640706Y-41541367D01*
X83468305Y-41489069D01*
X83309417Y-41404142D01*
X83170151Y-41289849D01*
X83055858Y-41150583D01*
X82970931Y-40991695D01*
X82918633Y-40819294D01*
X82900975Y-40640000D01*
X82918633Y-40460706D01*
X82970931Y-40288305D01*
X83055858Y-40129417D01*
X83170151Y-39990151D01*
X83309417Y-39875858D01*
X83468305Y-39790931D01*
X83640706Y-39738633D01*
X83775069Y-39725400D01*
X83864931Y-39725400D01*
X83999294Y-39738633D01*
X83999294Y-39738633D01*
G37*
G36*
X89079294Y-39738633D02*
G01*
X89251695Y-39790931D01*
X89410583Y-39875858D01*
X89549849Y-39990151D01*
X89664142Y-40129417D01*
X89749069Y-40288305D01*
X89801367Y-40460706D01*
X89819025Y-40640000D01*
X89801367Y-40819294D01*
X89749069Y-40991695D01*
X89664142Y-41150583D01*
X89549849Y-41289849D01*
X89410583Y-41404142D01*
X89251695Y-41489069D01*
X89079294Y-41541367D01*
X88944931Y-41554600D01*
X88855069Y-41554600D01*
X88720706Y-41541367D01*
X88548305Y-41489069D01*
X88389417Y-41404142D01*
X88250151Y-41289849D01*
X88135858Y-41150583D01*
X88050931Y-40991695D01*
X87998633Y-40819294D01*
X87980975Y-40640000D01*
X87998633Y-40460706D01*
X88050931Y-40288305D01*
X88135858Y-40129417D01*
X88250151Y-39990151D01*
X88389417Y-39875858D01*
X88548305Y-39790931D01*
X88720706Y-39738633D01*
X88855069Y-39725400D01*
X88944931Y-39725400D01*
X89079294Y-39738633D01*
X89079294Y-39738633D01*
G37*
G36*
X91619294Y-39738633D02*
G01*
X91791695Y-39790931D01*
X91950583Y-39875858D01*
X92089849Y-39990151D01*
X92204142Y-40129417D01*
X92289069Y-40288305D01*
X92341367Y-40460706D01*
X92359025Y-40640000D01*
X92341367Y-40819294D01*
X92289069Y-40991695D01*
X92204142Y-41150583D01*
X92089849Y-41289849D01*
X91950583Y-41404142D01*
X91791695Y-41489069D01*
X91619294Y-41541367D01*
X91484931Y-41554600D01*
X91395069Y-41554600D01*
X91260706Y-41541367D01*
X91088305Y-41489069D01*
X90929417Y-41404142D01*
X90790151Y-41289849D01*
X90675858Y-41150583D01*
X90590931Y-40991695D01*
X90538633Y-40819294D01*
X90520975Y-40640000D01*
X90538633Y-40460706D01*
X90590931Y-40288305D01*
X90675858Y-40129417D01*
X90790151Y-39990151D01*
X90929417Y-39875858D01*
X91088305Y-39790931D01*
X91260706Y-39738633D01*
X91395069Y-39725400D01*
X91484931Y-39725400D01*
X91619294Y-39738633D01*
X91619294Y-39738633D01*
G37*
G36*
X78919294Y-39738633D02*
G01*
X79091695Y-39790931D01*
X79250583Y-39875858D01*
X79389849Y-39990151D01*
X79504142Y-40129417D01*
X79589069Y-40288305D01*
X79641367Y-40460706D01*
X79659025Y-40640000D01*
X79641367Y-40819294D01*
X79589069Y-40991695D01*
X79504142Y-41150583D01*
X79389849Y-41289849D01*
X79250583Y-41404142D01*
X79091695Y-41489069D01*
X78919294Y-41541367D01*
X78784931Y-41554600D01*
X78695069Y-41554600D01*
X78560706Y-41541367D01*
X78388305Y-41489069D01*
X78229417Y-41404142D01*
X78090151Y-41289849D01*
X77975858Y-41150583D01*
X77890931Y-40991695D01*
X77838633Y-40819294D01*
X77820975Y-40640000D01*
X77838633Y-40460706D01*
X77890931Y-40288305D01*
X77975858Y-40129417D01*
X78090151Y-39990151D01*
X78229417Y-39875858D01*
X78388305Y-39790931D01*
X78560706Y-39738633D01*
X78695069Y-39725400D01*
X78784931Y-39725400D01*
X78919294Y-39738633D01*
X78919294Y-39738633D01*
G37*
G36*
X112674600Y-41554600D02*
G01*
X110845400Y-41554600D01*
X110845400Y-39725400D01*
X112674600Y-39725400D01*
X112674600Y-41554600D01*
X112674600Y-41554600D01*
G37*
G36*
X114479294Y-39738633D02*
G01*
X114651695Y-39790931D01*
X114810583Y-39875858D01*
X114949849Y-39990151D01*
X115064142Y-40129417D01*
X115149069Y-40288305D01*
X115201367Y-40460706D01*
X115219025Y-40640000D01*
X115201367Y-40819294D01*
X115149069Y-40991695D01*
X115064142Y-41150583D01*
X114949849Y-41289849D01*
X114810583Y-41404142D01*
X114651695Y-41489069D01*
X114479294Y-41541367D01*
X114344931Y-41554600D01*
X114255069Y-41554600D01*
X114120706Y-41541367D01*
X113948305Y-41489069D01*
X113789417Y-41404142D01*
X113650151Y-41289849D01*
X113535858Y-41150583D01*
X113450931Y-40991695D01*
X113398633Y-40819294D01*
X113380975Y-40640000D01*
X113398633Y-40460706D01*
X113450931Y-40288305D01*
X113535858Y-40129417D01*
X113650151Y-39990151D01*
X113789417Y-39875858D01*
X113948305Y-39790931D01*
X114120706Y-39738633D01*
X114255069Y-39725400D01*
X114344931Y-39725400D01*
X114479294Y-39738633D01*
X114479294Y-39738633D01*
G37*
G36*
X117019294Y-39738633D02*
G01*
X117191695Y-39790931D01*
X117350583Y-39875858D01*
X117489849Y-39990151D01*
X117604142Y-40129417D01*
X117689069Y-40288305D01*
X117741367Y-40460706D01*
X117759025Y-40640000D01*
X117741367Y-40819294D01*
X117689069Y-40991695D01*
X117604142Y-41150583D01*
X117489849Y-41289849D01*
X117350583Y-41404142D01*
X117191695Y-41489069D01*
X117019294Y-41541367D01*
X116884931Y-41554600D01*
X116795069Y-41554600D01*
X116660706Y-41541367D01*
X116488305Y-41489069D01*
X116329417Y-41404142D01*
X116190151Y-41289849D01*
X116075858Y-41150583D01*
X115990931Y-40991695D01*
X115938633Y-40819294D01*
X115920975Y-40640000D01*
X115938633Y-40460706D01*
X115990931Y-40288305D01*
X116075858Y-40129417D01*
X116190151Y-39990151D01*
X116329417Y-39875858D01*
X116488305Y-39790931D01*
X116660706Y-39738633D01*
X116795069Y-39725400D01*
X116884931Y-39725400D01*
X117019294Y-39738633D01*
X117019294Y-39738633D01*
G37*
G36*
X119559294Y-39738633D02*
G01*
X119731695Y-39790931D01*
X119890583Y-39875858D01*
X120029849Y-39990151D01*
X120144142Y-40129417D01*
X120229069Y-40288305D01*
X120281367Y-40460706D01*
X120299025Y-40640000D01*
X120281367Y-40819294D01*
X120229069Y-40991695D01*
X120144142Y-41150583D01*
X120029849Y-41289849D01*
X119890583Y-41404142D01*
X119731695Y-41489069D01*
X119559294Y-41541367D01*
X119424931Y-41554600D01*
X119335069Y-41554600D01*
X119200706Y-41541367D01*
X119028305Y-41489069D01*
X118869417Y-41404142D01*
X118730151Y-41289849D01*
X118615858Y-41150583D01*
X118530931Y-40991695D01*
X118478633Y-40819294D01*
X118460975Y-40640000D01*
X118478633Y-40460706D01*
X118530931Y-40288305D01*
X118615858Y-40129417D01*
X118730151Y-39990151D01*
X118869417Y-39875858D01*
X119028305Y-39790931D01*
X119200706Y-39738633D01*
X119335069Y-39725400D01*
X119424931Y-39725400D01*
X119559294Y-39738633D01*
X119559294Y-39738633D01*
G37*
G36*
X124639294Y-39738633D02*
G01*
X124811695Y-39790931D01*
X124970583Y-39875858D01*
X125109849Y-39990151D01*
X125224142Y-40129417D01*
X125309069Y-40288305D01*
X125361367Y-40460706D01*
X125379025Y-40640000D01*
X125361367Y-40819294D01*
X125309069Y-40991695D01*
X125224142Y-41150583D01*
X125109849Y-41289849D01*
X124970583Y-41404142D01*
X124811695Y-41489069D01*
X124639294Y-41541367D01*
X124504931Y-41554600D01*
X124415069Y-41554600D01*
X124280706Y-41541367D01*
X124108305Y-41489069D01*
X123949417Y-41404142D01*
X123810151Y-41289849D01*
X123695858Y-41150583D01*
X123610931Y-40991695D01*
X123558633Y-40819294D01*
X123540975Y-40640000D01*
X123558633Y-40460706D01*
X123610931Y-40288305D01*
X123695858Y-40129417D01*
X123810151Y-39990151D01*
X123949417Y-39875858D01*
X124108305Y-39790931D01*
X124280706Y-39738633D01*
X124415069Y-39725400D01*
X124504931Y-39725400D01*
X124639294Y-39738633D01*
X124639294Y-39738633D01*
G37*
G36*
X127179294Y-39738633D02*
G01*
X127351695Y-39790931D01*
X127510583Y-39875858D01*
X127649849Y-39990151D01*
X127764142Y-40129417D01*
X127849069Y-40288305D01*
X127901367Y-40460706D01*
X127919025Y-40640000D01*
X127901367Y-40819294D01*
X127849069Y-40991695D01*
X127764142Y-41150583D01*
X127649849Y-41289849D01*
X127510583Y-41404142D01*
X127351695Y-41489069D01*
X127179294Y-41541367D01*
X127044931Y-41554600D01*
X126955069Y-41554600D01*
X126820706Y-41541367D01*
X126648305Y-41489069D01*
X126489417Y-41404142D01*
X126350151Y-41289849D01*
X126235858Y-41150583D01*
X126150931Y-40991695D01*
X126098633Y-40819294D01*
X126080975Y-40640000D01*
X126098633Y-40460706D01*
X126150931Y-40288305D01*
X126235858Y-40129417D01*
X126350151Y-39990151D01*
X126489417Y-39875858D01*
X126648305Y-39790931D01*
X126820706Y-39738633D01*
X126955069Y-39725400D01*
X127044931Y-39725400D01*
X127179294Y-39738633D01*
X127179294Y-39738633D01*
G37*
G36*
X94159294Y-39738633D02*
G01*
X94331695Y-39790931D01*
X94490583Y-39875858D01*
X94629849Y-39990151D01*
X94744142Y-40129417D01*
X94829069Y-40288305D01*
X94881367Y-40460706D01*
X94899025Y-40640000D01*
X94881367Y-40819294D01*
X94829069Y-40991695D01*
X94744142Y-41150583D01*
X94629849Y-41289849D01*
X94490583Y-41404142D01*
X94331695Y-41489069D01*
X94159294Y-41541367D01*
X94024931Y-41554600D01*
X93935069Y-41554600D01*
X93800706Y-41541367D01*
X93628305Y-41489069D01*
X93469417Y-41404142D01*
X93330151Y-41289849D01*
X93215858Y-41150583D01*
X93130931Y-40991695D01*
X93078633Y-40819294D01*
X93060975Y-40640000D01*
X93078633Y-40460706D01*
X93130931Y-40288305D01*
X93215858Y-40129417D01*
X93330151Y-39990151D01*
X93469417Y-39875858D01*
X93628305Y-39790931D01*
X93800706Y-39738633D01*
X93935069Y-39725400D01*
X94024931Y-39725400D01*
X94159294Y-39738633D01*
X94159294Y-39738633D01*
G37*
G36*
X86539294Y-39738633D02*
G01*
X86711695Y-39790931D01*
X86870583Y-39875858D01*
X87009849Y-39990151D01*
X87124142Y-40129417D01*
X87209069Y-40288305D01*
X87261367Y-40460706D01*
X87279025Y-40640000D01*
X87261367Y-40819294D01*
X87209069Y-40991695D01*
X87124142Y-41150583D01*
X87009849Y-41289849D01*
X86870583Y-41404142D01*
X86711695Y-41489069D01*
X86539294Y-41541367D01*
X86404931Y-41554600D01*
X86315069Y-41554600D01*
X86180706Y-41541367D01*
X86008305Y-41489069D01*
X85849417Y-41404142D01*
X85710151Y-41289849D01*
X85595858Y-41150583D01*
X85510931Y-40991695D01*
X85458633Y-40819294D01*
X85440975Y-40640000D01*
X85458633Y-40460706D01*
X85510931Y-40288305D01*
X85595858Y-40129417D01*
X85710151Y-39990151D01*
X85849417Y-39875858D01*
X86008305Y-39790931D01*
X86180706Y-39738633D01*
X86315069Y-39725400D01*
X86404931Y-39725400D01*
X86539294Y-39738633D01*
X86539294Y-39738633D01*
G37*
G36*
X78919294Y-37198633D02*
G01*
X79091695Y-37250931D01*
X79250583Y-37335858D01*
X79389849Y-37450151D01*
X79504142Y-37589417D01*
X79589069Y-37748305D01*
X79641367Y-37920706D01*
X79659025Y-38100000D01*
X79641367Y-38279294D01*
X79589069Y-38451695D01*
X79504142Y-38610583D01*
X79389849Y-38749849D01*
X79250583Y-38864142D01*
X79091695Y-38949069D01*
X78919294Y-39001367D01*
X78784931Y-39014600D01*
X78695069Y-39014600D01*
X78560706Y-39001367D01*
X78388305Y-38949069D01*
X78229417Y-38864142D01*
X78090151Y-38749849D01*
X77975858Y-38610583D01*
X77890931Y-38451695D01*
X77838633Y-38279294D01*
X77820975Y-38100000D01*
X77838633Y-37920706D01*
X77890931Y-37748305D01*
X77975858Y-37589417D01*
X78090151Y-37450151D01*
X78229417Y-37335858D01*
X78388305Y-37250931D01*
X78560706Y-37198633D01*
X78695069Y-37185400D01*
X78784931Y-37185400D01*
X78919294Y-37198633D01*
X78919294Y-37198633D01*
G37*
G36*
X81459294Y-37198633D02*
G01*
X81631695Y-37250931D01*
X81790583Y-37335858D01*
X81929849Y-37450151D01*
X82044142Y-37589417D01*
X82129069Y-37748305D01*
X82181367Y-37920706D01*
X82199025Y-38100000D01*
X82181367Y-38279294D01*
X82129069Y-38451695D01*
X82044142Y-38610583D01*
X81929849Y-38749849D01*
X81790583Y-38864142D01*
X81631695Y-38949069D01*
X81459294Y-39001367D01*
X81324931Y-39014600D01*
X81235069Y-39014600D01*
X81100706Y-39001367D01*
X80928305Y-38949069D01*
X80769417Y-38864142D01*
X80630151Y-38749849D01*
X80515858Y-38610583D01*
X80430931Y-38451695D01*
X80378633Y-38279294D01*
X80360975Y-38100000D01*
X80378633Y-37920706D01*
X80430931Y-37748305D01*
X80515858Y-37589417D01*
X80630151Y-37450151D01*
X80769417Y-37335858D01*
X80928305Y-37250931D01*
X81100706Y-37198633D01*
X81235069Y-37185400D01*
X81324931Y-37185400D01*
X81459294Y-37198633D01*
X81459294Y-37198633D01*
G37*
G36*
X83999294Y-37198633D02*
G01*
X84171695Y-37250931D01*
X84330583Y-37335858D01*
X84469849Y-37450151D01*
X84584142Y-37589417D01*
X84669069Y-37748305D01*
X84721367Y-37920706D01*
X84739025Y-38100000D01*
X84721367Y-38279294D01*
X84669069Y-38451695D01*
X84584142Y-38610583D01*
X84469849Y-38749849D01*
X84330583Y-38864142D01*
X84171695Y-38949069D01*
X83999294Y-39001367D01*
X83864931Y-39014600D01*
X83775069Y-39014600D01*
X83640706Y-39001367D01*
X83468305Y-38949069D01*
X83309417Y-38864142D01*
X83170151Y-38749849D01*
X83055858Y-38610583D01*
X82970931Y-38451695D01*
X82918633Y-38279294D01*
X82900975Y-38100000D01*
X82918633Y-37920706D01*
X82970931Y-37748305D01*
X83055858Y-37589417D01*
X83170151Y-37450151D01*
X83309417Y-37335858D01*
X83468305Y-37250931D01*
X83640706Y-37198633D01*
X83775069Y-37185400D01*
X83864931Y-37185400D01*
X83999294Y-37198633D01*
X83999294Y-37198633D01*
G37*
G36*
X111939294Y-37198633D02*
G01*
X112111695Y-37250931D01*
X112270583Y-37335858D01*
X112409849Y-37450151D01*
X112524142Y-37589417D01*
X112609069Y-37748305D01*
X112661367Y-37920706D01*
X112679025Y-38100000D01*
X112661367Y-38279294D01*
X112609069Y-38451695D01*
X112524142Y-38610583D01*
X112409849Y-38749849D01*
X112270583Y-38864142D01*
X112111695Y-38949069D01*
X111939294Y-39001367D01*
X111804931Y-39014600D01*
X111715069Y-39014600D01*
X111580706Y-39001367D01*
X111408305Y-38949069D01*
X111249417Y-38864142D01*
X111110151Y-38749849D01*
X110995858Y-38610583D01*
X110910931Y-38451695D01*
X110858633Y-38279294D01*
X110840975Y-38100000D01*
X110858633Y-37920706D01*
X110910931Y-37748305D01*
X110995858Y-37589417D01*
X111110151Y-37450151D01*
X111249417Y-37335858D01*
X111408305Y-37250931D01*
X111580706Y-37198633D01*
X111715069Y-37185400D01*
X111804931Y-37185400D01*
X111939294Y-37198633D01*
X111939294Y-37198633D01*
G37*
G36*
X114479294Y-37198633D02*
G01*
X114651695Y-37250931D01*
X114810583Y-37335858D01*
X114949849Y-37450151D01*
X115064142Y-37589417D01*
X115149069Y-37748305D01*
X115201367Y-37920706D01*
X115219025Y-38100000D01*
X115201367Y-38279294D01*
X115149069Y-38451695D01*
X115064142Y-38610583D01*
X114949849Y-38749849D01*
X114810583Y-38864142D01*
X114651695Y-38949069D01*
X114479294Y-39001367D01*
X114344931Y-39014600D01*
X114255069Y-39014600D01*
X114120706Y-39001367D01*
X113948305Y-38949069D01*
X113789417Y-38864142D01*
X113650151Y-38749849D01*
X113535858Y-38610583D01*
X113450931Y-38451695D01*
X113398633Y-38279294D01*
X113380975Y-38100000D01*
X113398633Y-37920706D01*
X113450931Y-37748305D01*
X113535858Y-37589417D01*
X113650151Y-37450151D01*
X113789417Y-37335858D01*
X113948305Y-37250931D01*
X114120706Y-37198633D01*
X114255069Y-37185400D01*
X114344931Y-37185400D01*
X114479294Y-37198633D01*
X114479294Y-37198633D01*
G37*
G36*
X117019294Y-37198633D02*
G01*
X117191695Y-37250931D01*
X117350583Y-37335858D01*
X117489849Y-37450151D01*
X117604142Y-37589417D01*
X117689069Y-37748305D01*
X117741367Y-37920706D01*
X117759025Y-38100000D01*
X117741367Y-38279294D01*
X117689069Y-38451695D01*
X117604142Y-38610583D01*
X117489849Y-38749849D01*
X117350583Y-38864142D01*
X117191695Y-38949069D01*
X117019294Y-39001367D01*
X116884931Y-39014600D01*
X116795069Y-39014600D01*
X116660706Y-39001367D01*
X116488305Y-38949069D01*
X116329417Y-38864142D01*
X116190151Y-38749849D01*
X116075858Y-38610583D01*
X115990931Y-38451695D01*
X115938633Y-38279294D01*
X115920975Y-38100000D01*
X115938633Y-37920706D01*
X115990931Y-37748305D01*
X116075858Y-37589417D01*
X116190151Y-37450151D01*
X116329417Y-37335858D01*
X116488305Y-37250931D01*
X116660706Y-37198633D01*
X116795069Y-37185400D01*
X116884931Y-37185400D01*
X117019294Y-37198633D01*
X117019294Y-37198633D01*
G37*
G36*
X119559294Y-37198633D02*
G01*
X119731695Y-37250931D01*
X119890583Y-37335858D01*
X120029849Y-37450151D01*
X120144142Y-37589417D01*
X120229069Y-37748305D01*
X120281367Y-37920706D01*
X120299025Y-38100000D01*
X120281367Y-38279294D01*
X120229069Y-38451695D01*
X120144142Y-38610583D01*
X120029849Y-38749849D01*
X119890583Y-38864142D01*
X119731695Y-38949069D01*
X119559294Y-39001367D01*
X119424931Y-39014600D01*
X119335069Y-39014600D01*
X119200706Y-39001367D01*
X119028305Y-38949069D01*
X118869417Y-38864142D01*
X118730151Y-38749849D01*
X118615858Y-38610583D01*
X118530931Y-38451695D01*
X118478633Y-38279294D01*
X118460975Y-38100000D01*
X118478633Y-37920706D01*
X118530931Y-37748305D01*
X118615858Y-37589417D01*
X118730151Y-37450151D01*
X118869417Y-37335858D01*
X119028305Y-37250931D01*
X119200706Y-37198633D01*
X119335069Y-37185400D01*
X119424931Y-37185400D01*
X119559294Y-37198633D01*
X119559294Y-37198633D01*
G37*
G36*
X122099294Y-37198633D02*
G01*
X122271695Y-37250931D01*
X122430583Y-37335858D01*
X122569849Y-37450151D01*
X122684142Y-37589417D01*
X122769069Y-37748305D01*
X122821367Y-37920706D01*
X122839025Y-38100000D01*
X122821367Y-38279294D01*
X122769069Y-38451695D01*
X122684142Y-38610583D01*
X122569849Y-38749849D01*
X122430583Y-38864142D01*
X122271695Y-38949069D01*
X122099294Y-39001367D01*
X121964931Y-39014600D01*
X121875069Y-39014600D01*
X121740706Y-39001367D01*
X121568305Y-38949069D01*
X121409417Y-38864142D01*
X121270151Y-38749849D01*
X121155858Y-38610583D01*
X121070931Y-38451695D01*
X121018633Y-38279294D01*
X121000975Y-38100000D01*
X121018633Y-37920706D01*
X121070931Y-37748305D01*
X121155858Y-37589417D01*
X121270151Y-37450151D01*
X121409417Y-37335858D01*
X121568305Y-37250931D01*
X121740706Y-37198633D01*
X121875069Y-37185400D01*
X121964931Y-37185400D01*
X122099294Y-37198633D01*
X122099294Y-37198633D01*
G37*
G36*
X124639294Y-37198633D02*
G01*
X124811695Y-37250931D01*
X124970583Y-37335858D01*
X125109849Y-37450151D01*
X125224142Y-37589417D01*
X125309069Y-37748305D01*
X125361367Y-37920706D01*
X125379025Y-38100000D01*
X125361367Y-38279294D01*
X125309069Y-38451695D01*
X125224142Y-38610583D01*
X125109849Y-38749849D01*
X124970583Y-38864142D01*
X124811695Y-38949069D01*
X124639294Y-39001367D01*
X124504931Y-39014600D01*
X124415069Y-39014600D01*
X124280706Y-39001367D01*
X124108305Y-38949069D01*
X123949417Y-38864142D01*
X123810151Y-38749849D01*
X123695858Y-38610583D01*
X123610931Y-38451695D01*
X123558633Y-38279294D01*
X123540975Y-38100000D01*
X123558633Y-37920706D01*
X123610931Y-37748305D01*
X123695858Y-37589417D01*
X123810151Y-37450151D01*
X123949417Y-37335858D01*
X124108305Y-37250931D01*
X124280706Y-37198633D01*
X124415069Y-37185400D01*
X124504931Y-37185400D01*
X124639294Y-37198633D01*
X124639294Y-37198633D01*
G37*
G36*
X127179294Y-37198633D02*
G01*
X127351695Y-37250931D01*
X127510583Y-37335858D01*
X127649849Y-37450151D01*
X127764142Y-37589417D01*
X127849069Y-37748305D01*
X127901367Y-37920706D01*
X127919025Y-38100000D01*
X127901367Y-38279294D01*
X127849069Y-38451695D01*
X127764142Y-38610583D01*
X127649849Y-38749849D01*
X127510583Y-38864142D01*
X127351695Y-38949069D01*
X127179294Y-39001367D01*
X127044931Y-39014600D01*
X126955069Y-39014600D01*
X126820706Y-39001367D01*
X126648305Y-38949069D01*
X126489417Y-38864142D01*
X126350151Y-38749849D01*
X126235858Y-38610583D01*
X126150931Y-38451695D01*
X126098633Y-38279294D01*
X126080975Y-38100000D01*
X126098633Y-37920706D01*
X126150931Y-37748305D01*
X126235858Y-37589417D01*
X126350151Y-37450151D01*
X126489417Y-37335858D01*
X126648305Y-37250931D01*
X126820706Y-37198633D01*
X126955069Y-37185400D01*
X127044931Y-37185400D01*
X127179294Y-37198633D01*
X127179294Y-37198633D01*
G37*
G36*
X129719294Y-37198633D02*
G01*
X129891695Y-37250931D01*
X130050583Y-37335858D01*
X130189849Y-37450151D01*
X130304142Y-37589417D01*
X130389069Y-37748305D01*
X130441367Y-37920706D01*
X130459025Y-38100000D01*
X130441367Y-38279294D01*
X130389069Y-38451695D01*
X130304142Y-38610583D01*
X130189849Y-38749849D01*
X130050583Y-38864142D01*
X129891695Y-38949069D01*
X129719294Y-39001367D01*
X129584931Y-39014600D01*
X129495069Y-39014600D01*
X129360706Y-39001367D01*
X129188305Y-38949069D01*
X129029417Y-38864142D01*
X128890151Y-38749849D01*
X128775858Y-38610583D01*
X128690931Y-38451695D01*
X128638633Y-38279294D01*
X128620975Y-38100000D01*
X128638633Y-37920706D01*
X128690931Y-37748305D01*
X128775858Y-37589417D01*
X128890151Y-37450151D01*
X129029417Y-37335858D01*
X129188305Y-37250931D01*
X129360706Y-37198633D01*
X129495069Y-37185400D01*
X129584931Y-37185400D01*
X129719294Y-37198633D01*
X129719294Y-37198633D01*
G37*
G36*
X91619294Y-37198633D02*
G01*
X91791695Y-37250931D01*
X91950583Y-37335858D01*
X92089849Y-37450151D01*
X92204142Y-37589417D01*
X92289069Y-37748305D01*
X92341367Y-37920706D01*
X92359025Y-38100000D01*
X92341367Y-38279294D01*
X92289069Y-38451695D01*
X92204142Y-38610583D01*
X92089849Y-38749849D01*
X91950583Y-38864142D01*
X91791695Y-38949069D01*
X91619294Y-39001367D01*
X91484931Y-39014600D01*
X91395069Y-39014600D01*
X91260706Y-39001367D01*
X91088305Y-38949069D01*
X90929417Y-38864142D01*
X90790151Y-38749849D01*
X90675858Y-38610583D01*
X90590931Y-38451695D01*
X90538633Y-38279294D01*
X90520975Y-38100000D01*
X90538633Y-37920706D01*
X90590931Y-37748305D01*
X90675858Y-37589417D01*
X90790151Y-37450151D01*
X90929417Y-37335858D01*
X91088305Y-37250931D01*
X91260706Y-37198633D01*
X91395069Y-37185400D01*
X91484931Y-37185400D01*
X91619294Y-37198633D01*
X91619294Y-37198633D01*
G37*
G36*
X89079294Y-37198633D02*
G01*
X89251695Y-37250931D01*
X89410583Y-37335858D01*
X89549849Y-37450151D01*
X89664142Y-37589417D01*
X89749069Y-37748305D01*
X89801367Y-37920706D01*
X89819025Y-38100000D01*
X89801367Y-38279294D01*
X89749069Y-38451695D01*
X89664142Y-38610583D01*
X89549849Y-38749849D01*
X89410583Y-38864142D01*
X89251695Y-38949069D01*
X89079294Y-39001367D01*
X88944931Y-39014600D01*
X88855069Y-39014600D01*
X88720706Y-39001367D01*
X88548305Y-38949069D01*
X88389417Y-38864142D01*
X88250151Y-38749849D01*
X88135858Y-38610583D01*
X88050931Y-38451695D01*
X87998633Y-38279294D01*
X87980975Y-38100000D01*
X87998633Y-37920706D01*
X88050931Y-37748305D01*
X88135858Y-37589417D01*
X88250151Y-37450151D01*
X88389417Y-37335858D01*
X88548305Y-37250931D01*
X88720706Y-37198633D01*
X88855069Y-37185400D01*
X88944931Y-37185400D01*
X89079294Y-37198633D01*
X89079294Y-37198633D01*
G37*
G36*
X86539294Y-37198633D02*
G01*
X86711695Y-37250931D01*
X86870583Y-37335858D01*
X87009849Y-37450151D01*
X87124142Y-37589417D01*
X87209069Y-37748305D01*
X87261367Y-37920706D01*
X87279025Y-38100000D01*
X87261367Y-38279294D01*
X87209069Y-38451695D01*
X87124142Y-38610583D01*
X87009849Y-38749849D01*
X86870583Y-38864142D01*
X86711695Y-38949069D01*
X86539294Y-39001367D01*
X86404931Y-39014600D01*
X86315069Y-39014600D01*
X86180706Y-39001367D01*
X86008305Y-38949069D01*
X85849417Y-38864142D01*
X85710151Y-38749849D01*
X85595858Y-38610583D01*
X85510931Y-38451695D01*
X85458633Y-38279294D01*
X85440975Y-38100000D01*
X85458633Y-37920706D01*
X85510931Y-37748305D01*
X85595858Y-37589417D01*
X85710151Y-37450151D01*
X85849417Y-37335858D01*
X86008305Y-37250931D01*
X86180706Y-37198633D01*
X86315069Y-37185400D01*
X86404931Y-37185400D01*
X86539294Y-37198633D01*
X86539294Y-37198633D01*
G37*
G36*
X76379294Y-37198633D02*
G01*
X76551695Y-37250931D01*
X76710583Y-37335858D01*
X76849849Y-37450151D01*
X76964142Y-37589417D01*
X77049069Y-37748305D01*
X77101367Y-37920706D01*
X77119025Y-38100000D01*
X77101367Y-38279294D01*
X77049069Y-38451695D01*
X76964142Y-38610583D01*
X76849849Y-38749849D01*
X76710583Y-38864142D01*
X76551695Y-38949069D01*
X76379294Y-39001367D01*
X76244931Y-39014600D01*
X76155069Y-39014600D01*
X76020706Y-39001367D01*
X75848305Y-38949069D01*
X75689417Y-38864142D01*
X75550151Y-38749849D01*
X75435858Y-38610583D01*
X75350931Y-38451695D01*
X75298633Y-38279294D01*
X75280975Y-38100000D01*
X75298633Y-37920706D01*
X75350931Y-37748305D01*
X75435858Y-37589417D01*
X75550151Y-37450151D01*
X75689417Y-37335858D01*
X75848305Y-37250931D01*
X76020706Y-37198633D01*
X76155069Y-37185400D01*
X76244931Y-37185400D01*
X76379294Y-37198633D01*
X76379294Y-37198633D01*
G37*
G36*
X94159294Y-37198633D02*
G01*
X94331695Y-37250931D01*
X94490583Y-37335858D01*
X94629849Y-37450151D01*
X94744142Y-37589417D01*
X94829069Y-37748305D01*
X94881367Y-37920706D01*
X94899025Y-38100000D01*
X94881367Y-38279294D01*
X94829069Y-38451695D01*
X94744142Y-38610583D01*
X94629849Y-38749849D01*
X94490583Y-38864142D01*
X94331695Y-38949069D01*
X94159294Y-39001367D01*
X94024931Y-39014600D01*
X93935069Y-39014600D01*
X93800706Y-39001367D01*
X93628305Y-38949069D01*
X93469417Y-38864142D01*
X93330151Y-38749849D01*
X93215858Y-38610583D01*
X93130931Y-38451695D01*
X93078633Y-38279294D01*
X93060975Y-38100000D01*
X93078633Y-37920706D01*
X93130931Y-37748305D01*
X93215858Y-37589417D01*
X93330151Y-37450151D01*
X93469417Y-37335858D01*
X93628305Y-37250931D01*
X93800706Y-37198633D01*
X93935069Y-37185400D01*
X94024931Y-37185400D01*
X94159294Y-37198633D01*
X94159294Y-37198633D01*
G37*
M02*
